<svg width="499" height="274" viewBox="0 0 499 274" fill="none" xmlns="http://www.w3.org/2000/svg">
<g clip-path="url(#clip0)">
<g opacity="0.27">
<path opacity="0.27" d="M201.125 196.754L180.256 209.683L181.986 212.474L202.856 199.545L201.125 196.754Z" fill="#FF2911"/>
</g>
<g opacity="0.27">
<path opacity="0.27" d="M193.522 191.763L172.653 204.692L174.383 207.483L195.252 194.554L193.522 191.763Z" fill="#FF2911"/>
</g>
<path opacity="0.27" d="M242.846 247.485H233.403C223.796 247.485 214.353 244.94 206.059 240.179L83.9558 170.408L85.5981 167.535L206.962 236.978C215.256 241.739 224.699 244.284 234.306 244.284H242.025C251.55 244.284 260.829 241.821 269.122 237.142L350.661 191.011L352.304 193.884L269.944 240.426C261.65 245.105 252.371 247.485 242.846 247.485Z" fill="#FF2911"/>
<path opacity="0.27" d="M239.479 239.359H237.098C227.491 239.359 218.047 236.814 209.754 232.053L112.86 176.564L114.502 173.691L210.657 228.688C218.951 233.449 228.394 235.993 238.001 235.993H238.658C248.183 235.993 257.462 233.531 265.756 228.852L335.717 189.287L337.359 192.16L266.577 232.218C258.283 236.896 248.922 239.359 239.479 239.359Z" fill="#FF2911"/>
<path d="M335.634 187.481L337.277 190.354L266.577 230.329C258.283 235.008 249.004 237.471 239.479 237.471H237.098C227.491 237.471 218.047 234.926 209.754 230.165L112.86 174.676L114.502 171.803" stroke="#FF2911" stroke-width="2.00226" stroke-miterlimit="10"/>
<ellipse cx="246.018" cy="173.53" rx="194.887" ry="118.801" fill="url(#paint0_radial)" fill-opacity="0.3"/>
<path d="M349.758 193.391L269.369 238.866C261.322 243.463 252.207 245.843 242.928 245.843H233.649C224.288 245.843 215.092 243.381 206.962 238.784L87.7332 170.49L89.2933 167.699" stroke="#FF2911" stroke-width="2.00226" stroke-miterlimit="10"/>
<path d="M201.953 198.152L181.096 211.121" stroke="#FF2911" stroke-width="2.00226" stroke-miterlimit="10"/>
<path d="M194.317 193.145L173.542 206.032" stroke="#FF2911" stroke-width="2.00226" stroke-miterlimit="10"/>
<path d="M300.571 182.393C300.736 200.287 274.706 215.063 242.435 215.309C210.164 215.555 183.888 201.272 183.723 183.378C183.723 180.669 182.41 164.745 183.559 162.2C189.8 148.082 214.516 150.708 241.86 150.462C267.972 150.216 292.524 144.798 300.079 157.932C301.885 160.969 300.571 179.027 300.571 182.393Z" fill="url(#paint1_linear)"/>
<path d="M242.318 194.219C274.608 193.934 300.655 179.187 300.497 161.28C300.339 143.373 274.035 129.088 241.746 129.372C209.456 129.657 183.409 144.405 183.567 162.312C183.725 180.219 210.029 194.504 242.318 194.219Z" fill="#32324C"/>
<path d="M242.27 190.355C212.299 190.601 187.829 177.878 187.336 161.79C187.336 161.954 187.336 162.036 187.336 162.2C187.5 178.453 212.135 191.422 242.352 191.094C272.57 190.848 296.958 177.468 296.794 161.215C296.794 161.051 296.794 160.969 296.794 160.805C296.465 176.975 272.242 190.109 242.27 190.355Z" fill="#19192D"/>
<path opacity="0.13" d="M241.778 133.471C271.749 133.225 296.219 145.209 296.712 161.298C296.712 161.133 296.712 161.051 296.712 160.887C296.548 144.634 271.913 131.665 241.695 131.993C211.478 132.24 187.09 145.619 187.254 161.872C187.254 162.036 187.254 162.118 187.254 162.283C187.5 146.194 211.724 133.717 241.778 133.471Z" fill="white"/>
<path d="M71.2449 201.246L71.327 212.984L36.4286 233.915L36.2644 221.438L71.2449 201.246Z" fill="#29293F"/>
<path d="M1.03735 201.901L1.11947 213.557L36.4284 233.914L36.2642 221.437L1.03735 201.901Z" fill="#0F0F1E"/>
<path d="M1.03735 201.902L36.2642 221.438L71.2447 201.245L35.9357 181.381L1.03735 201.902Z" fill="#32324C"/>
<path opacity="0.37" d="M9.74146 201.738L36.2642 216.513L62.5406 201.328L36.0179 186.388L9.74146 201.738Z" fill="url(#paint2_linear)"/>
<path opacity="0.37" d="M13.1904 201.738L36.2644 214.543L59.092 201.327L36.0181 188.358L13.1904 201.738Z" fill="url(#paint3_linear)"/>
<path d="M69.274 109.967L59.0919 201.327L36.2642 214.542L13.1902 201.737L3.17236 110.541L69.274 109.967Z" fill="url(#paint4_linear)"/>
<path d="M17.186 164.295C17.0566 163.634 16.4095 163.238 15.7623 163.37C15.1152 163.502 14.727 164.163 14.8564 164.823C14.9858 165.483 15.6329 165.88 16.28 165.748C17.0566 165.616 17.4449 164.955 17.186 164.295Z" fill="url(#paint5_linear)"/>
<path d="M36.1322 197.953C35.8018 199.599 34.1497 200.586 32.4977 200.257C30.8456 199.928 29.8543 198.282 30.1848 196.636C30.5152 194.99 32.1673 194.002 33.8193 194.332C35.4714 194.661 36.4627 196.307 36.1322 197.953Z" fill="#D4271C"/>
<path d="M27.5137 181.1C27.214 182.295 26.3147 182.892 25.1158 182.594C23.9168 182.295 23.3173 181.399 23.6171 180.205C23.9168 179.01 24.816 178.413 26.015 178.711C27.214 179.01 27.8134 179.906 27.5137 181.1Z" fill="#FF9E93"/>
<path d="M27.5137 143.782C27.214 144.977 26.3147 145.574 25.1158 145.275C23.9168 144.977 23.3173 144.081 23.6171 142.886C23.9168 141.692 24.816 141.094 26.015 141.393C27.214 141.692 27.8134 142.886 27.5137 143.782Z" fill="#FF9E93"/>
<path opacity="0.37" d="M199.736 158.751C199.572 169.504 218.622 178.123 242.435 177.876C266.166 177.63 285.627 168.765 285.791 157.93C285.955 147.095 266.905 138.558 243.092 138.722C219.361 138.968 199.9 147.916 199.736 158.751Z" fill="url(#paint6_linear)"/>
<path opacity="0.37" d="M198.094 159.572C198.176 171.146 218.54 180.421 243.503 180.175C268.465 179.929 288.583 170.325 288.501 158.751C288.419 147.095 268.055 137.902 243.092 138.148C218.13 138.394 198.012 147.998 198.094 159.572Z" fill="url(#paint7_linear)"/>
<path d="M243.174 143.564C264.195 143.4 281.521 150.377 283.656 159.571C283.82 158.996 283.82 158.34 283.82 157.765C283.738 147.669 265.509 139.706 243.092 139.871C220.675 140.035 202.61 148.407 202.692 158.422C202.692 159.078 202.774 159.653 202.938 160.228C204.909 151.116 222.153 143.811 243.174 143.564Z" fill="url(#paint8_linear)"/>
<path opacity="0.64" d="M193.824 123.7C193.906 136.177 215.83 146.109 242.682 145.863C269.533 145.617 291.293 135.274 291.129 122.797C291.047 110.32 269.122 100.388 242.271 100.634C215.42 100.881 193.742 111.223 193.824 123.7Z" fill="url(#paint9_linear)"/>
<path d="M269.615 8.04373L272.571 8.61832L265.591 4.59618C265.345 4.43201 265.098 4.26784 264.77 4.10367L264.524 3.93951C258.365 0.73821 250.071 1.47697 240.957 6.97663C222.071 18.3864 206.88 46.0489 207.126 68.7863C207.208 79.5393 210.739 87.2553 216.487 91.1953L216.569 91.2774C217.144 91.6878 217.801 92.0162 218.458 92.3445L225.273 96.3666L224.945 94.0683C229.954 94.3966 235.619 92.837 241.696 89.2253C260.582 77.8156 275.773 50.1531 275.527 27.4157C275.527 18.961 273.31 12.3942 269.615 8.04373ZM241.532 70.5921C231.185 76.8305 222.728 71.8234 222.563 59.4286C222.481 47.0339 230.775 31.8482 241.121 25.6098C251.467 19.3714 259.925 24.3785 260.089 36.7733C260.171 49.1681 251.878 64.3537 241.532 70.5921Z" fill="url(#paint10_linear)"/>
<path d="M248.84 11.5736C229.954 22.9833 214.762 50.6458 215.009 73.3832C215.173 96.0385 230.693 105.232 249.579 93.7402C268.465 82.3304 283.656 54.6679 283.41 31.9305C283.245 9.19311 267.726 0.0817351 248.84 11.5736ZM249.415 75.107C239.068 81.3454 230.61 76.3382 230.446 63.9435C230.364 51.5487 238.658 36.3631 249.004 30.1247C259.35 23.8862 267.808 28.8934 267.972 41.2882C268.054 53.6829 259.761 68.8685 249.415 75.107Z" fill="url(#paint11_linear)"/>
<path d="M248.922 16.8262C232.417 26.7584 219.197 50.8912 219.361 70.6736C219.525 90.456 233.074 98.4182 249.497 88.4038C266.002 78.4716 279.222 54.3388 279.058 34.5564C278.893 14.7741 265.345 6.81187 248.922 16.8262Z" fill="url(#paint12_linear)"/>
<mask id="mask0" mask-type="alpha" maskUnits="userSpaceOnUse" x="234" y="61" width="29" height="18">
<path fill-rule="evenodd" clip-rule="evenodd" d="M235.784 72.1509C235.455 72.3151 235.209 72.6434 235.127 72.9718L234.798 77.6506C234.798 77.9789 235.045 78.1431 235.373 77.9789L261.485 67.3079C261.814 67.1438 262.06 66.8154 262.142 66.4871L262.471 61.8083C262.471 61.4799 262.224 61.3158 261.896 61.4799L235.784 72.1509Z" fill="white"/>
</mask>
<g mask="url(#mask0)">
<path fill-rule="evenodd" clip-rule="evenodd" d="M240.711 59.9206L235.948 61.8906L236.03 60.331L237.591 59.6743L240.711 59.9206Z" fill="#F41B20"/>
<path fill-rule="evenodd" clip-rule="evenodd" d="M243.913 60.0851L235.866 63.3684L235.948 61.8909L240.711 59.9209L243.913 60.0851Z" fill="#F31A21"/>
<path fill-rule="evenodd" clip-rule="evenodd" d="M247.033 60.3312L235.702 64.9279L235.866 63.3683L243.913 60.085L247.033 60.3312Z" fill="#F31922"/>
<path fill-rule="evenodd" clip-rule="evenodd" d="M250.154 60.5773L235.62 66.4874L235.702 64.9278L247.033 60.3311L250.154 60.5773Z" fill="#F21823"/>
<path fill-rule="evenodd" clip-rule="evenodd" d="M253.274 60.7413L235.538 68.0468L235.62 66.4872L250.154 60.5771L253.274 60.7413Z" fill="#F11724"/>
<path fill-rule="evenodd" clip-rule="evenodd" d="M256.394 60.988L235.373 69.5247L235.538 68.0472L253.274 60.7417L256.394 60.988Z" fill="#F01725"/>
<path fill-rule="evenodd" clip-rule="evenodd" d="M259.597 61.1515L235.291 71.0837L235.373 69.5241L256.395 60.9873L259.597 61.1515Z" fill="#F01626"/>
<path fill-rule="evenodd" clip-rule="evenodd" d="M262.471 61.4802L235.209 72.6437L235.291 71.0841L259.597 61.1519L262.553 61.3981L262.471 61.4802Z" fill="#EF1527"/>
<path fill-rule="evenodd" clip-rule="evenodd" d="M262.389 63.0401L235.127 74.2036L235.209 72.644L262.471 61.4805L262.389 63.0401Z" fill="#EE1428"/>
<path fill-rule="evenodd" clip-rule="evenodd" d="M262.306 64.518L234.963 75.6815L235.127 74.204L262.389 63.0405L262.306 64.518Z" fill="#ED1329"/>
<path fill-rule="evenodd" clip-rule="evenodd" d="M262.225 66.0767L234.881 77.2402L234.963 75.6806L262.307 64.5171L262.225 66.0767Z" fill="#ED122A"/>
<path fill-rule="evenodd" clip-rule="evenodd" d="M262.06 67.6363L235.948 78.3072L234.798 78.2252L234.88 77.2401L262.224 66.0767L262.06 67.6363Z" fill="#EC112B"/>
<path fill-rule="evenodd" clip-rule="evenodd" d="M261.978 69.1958L239.069 78.5535L235.948 78.3072L262.06 67.6362L261.978 69.1958Z" fill="#EB102C"/>
<path fill-rule="evenodd" clip-rule="evenodd" d="M261.896 70.6738L242.271 78.7181L239.068 78.5539L261.978 69.1963L261.896 70.6738Z" fill="#EB0F2D"/>
<path fill-rule="evenodd" clip-rule="evenodd" d="M261.814 72.2339L245.391 78.9648L242.271 78.7186L261.896 70.6743L261.814 72.2339Z" fill="#EA0F2E"/>
<path fill-rule="evenodd" clip-rule="evenodd" d="M261.65 73.7935L248.511 79.129L245.391 78.9648L261.814 72.2339L261.65 73.7935Z" fill="#EA0E2F"/>
<path fill-rule="evenodd" clip-rule="evenodd" d="M261.568 75.3526L251.632 79.3747L248.511 79.1285L261.65 73.793L261.568 75.3526Z" fill="#E90D30"/>
<path fill-rule="evenodd" clip-rule="evenodd" d="M261.486 76.8296L254.835 79.6205L251.632 79.3742L261.568 75.3521L261.486 76.8296Z" fill="#E80D30"/>
<path fill-rule="evenodd" clip-rule="evenodd" d="M261.321 78.3892L257.954 79.7846L254.834 79.6205L261.485 76.8296L261.321 78.3892Z" fill="#E80C31"/>
</g>
<mask id="mask1" mask-type="alpha" maskUnits="userSpaceOnUse" x="236" y="27" width="29" height="34">
<path fill-rule="evenodd" clip-rule="evenodd" d="M259.022 29.3851C257.708 29.8776 256.641 31.4372 256.559 32.7506L255.82 43.6678C255.573 47.69 253.11 50.5629 249.908 51.8763C246.705 53.1896 244.488 52.2046 244.734 48.1825L245.473 37.2652C245.556 35.9519 244.57 35.2952 243.338 35.7877L240.136 37.1011C238.822 37.5936 237.755 39.1532 237.673 40.4665L236.934 50.9734C236.605 55.3238 237.673 58.2789 240.054 59.6743C242.435 61.0697 245.556 60.9877 249.415 59.346C253.274 57.7864 256.559 55.2417 259.269 51.7942C261.978 48.3466 263.456 44.4066 263.785 40.0561L264.524 29.4672C264.606 28.1539 263.621 27.4972 262.389 27.9897L259.022 29.3851Z" fill="white"/>
</mask>
<g mask="url(#mask1)">
<path fill-rule="evenodd" clip-rule="evenodd" d="M262.635 27.4967L237.754 37.6752L238.575 25.855L262.635 27.4967Z" fill="#FF2911"/>
<path fill-rule="evenodd" clip-rule="evenodd" d="M264.441 28.2353L237.672 39.2347L237.754 37.6751L262.635 27.4966L264.524 27.6608L264.441 28.2353Z" fill="#FF2911"/>
<path fill-rule="evenodd" clip-rule="evenodd" d="M264.359 29.795L237.59 40.7122L237.672 39.2347L264.442 28.2354L264.359 29.795Z" fill="#FE2812"/>
<path fill-rule="evenodd" clip-rule="evenodd" d="M264.277 31.2724L237.508 42.2718L237.59 40.7122L264.359 29.7949L264.277 31.2724Z" fill="#FD2713"/>
<path fill-rule="evenodd" clip-rule="evenodd" d="M264.195 32.8316L237.344 43.7488L237.508 42.2713L264.277 31.272L264.195 32.8316Z" fill="#FC2615"/>
<path fill-rule="evenodd" clip-rule="evenodd" d="M264.031 34.3916L237.261 45.3089L237.344 43.7493L264.195 32.832L264.031 34.3916Z" fill="#FC2516"/>
<path fill-rule="evenodd" clip-rule="evenodd" d="M263.949 35.8696L237.18 46.8689L237.262 45.3093L264.031 34.3921L263.949 35.8696Z" fill="#FB2417"/>
<path fill-rule="evenodd" clip-rule="evenodd" d="M263.867 37.4287L237.097 48.346L237.18 46.8685L263.949 35.8691L263.867 37.4287Z" fill="#FA2318"/>
<path fill-rule="evenodd" clip-rule="evenodd" d="M263.785 38.9062L236.933 49.9056L237.098 48.346L263.867 37.4287L263.785 38.9062Z" fill="#F92219"/>
<path fill-rule="evenodd" clip-rule="evenodd" d="M263.621 40.4663L236.852 51.3836L236.934 49.9061L263.785 38.9067L263.621 40.4663Z" fill="#F8201A"/>
<path fill-rule="evenodd" clip-rule="evenodd" d="M263.538 41.9429L236.769 52.9422L236.851 51.3826L263.621 40.4653L263.538 41.9429Z" fill="#F71F1C"/>
<path fill-rule="evenodd" clip-rule="evenodd" d="M263.456 43.5035L236.687 54.4207L236.769 52.9432L263.538 41.9438L263.456 43.5035Z" fill="#F71E1D"/>
<path fill-rule="evenodd" clip-rule="evenodd" d="M263.292 45.063L236.523 55.9802L236.687 54.4206L263.456 43.5034L263.292 45.063Z" fill="#F61D1E"/>
<path fill-rule="evenodd" clip-rule="evenodd" d="M263.21 46.5405L236.44 57.5398L236.523 55.9802L263.292 45.063L263.21 46.5405Z" fill="#F51C1F"/>
<path fill-rule="evenodd" clip-rule="evenodd" d="M263.128 48.1001L236.359 59.0174L236.441 57.5398L263.21 46.5405L263.128 48.1001Z" fill="#F41B20"/>
<path fill-rule="evenodd" clip-rule="evenodd" d="M263.046 49.5771L236.194 60.5764L236.359 59.0168L263.128 48.0996L263.046 49.5771Z" fill="#F31A21"/>
<path fill-rule="evenodd" clip-rule="evenodd" d="M262.881 51.1363L238.986 60.9043L236.194 60.7401V60.576L263.046 49.5767L262.881 51.1363Z" fill="#F31922"/>
<path fill-rule="evenodd" clip-rule="evenodd" d="M262.8 52.6968L242.107 61.0694L238.987 60.9053L262.882 51.1372L262.8 52.6968Z" fill="#F21823"/>
<path fill-rule="evenodd" clip-rule="evenodd" d="M262.717 54.1743L245.227 61.3156L242.107 61.0694L262.799 52.6968L262.717 54.1743Z" fill="#F11724"/>
<path fill-rule="evenodd" clip-rule="evenodd" d="M262.635 55.7339L248.347 61.5619L245.227 61.3157L262.717 54.1743L262.635 55.7339Z" fill="#F01725"/>
<path fill-rule="evenodd" clip-rule="evenodd" d="M262.471 57.2109L251.468 61.7256L248.347 61.5614L262.635 55.7334L262.471 57.2109Z" fill="#F01626"/>
<path fill-rule="evenodd" clip-rule="evenodd" d="M262.389 58.7705L254.588 61.9718L251.468 61.7256L262.471 57.2109L262.389 58.7705Z" fill="#EF1527"/>
<path fill-rule="evenodd" clip-rule="evenodd" d="M262.307 60.2485L257.708 62.1365L254.588 61.9723L262.389 58.771L262.307 60.2485Z" fill="#EE1428"/>
<path fill-rule="evenodd" clip-rule="evenodd" d="M262.225 61.8086L260.747 62.3832L257.708 62.137L262.307 60.249L262.225 61.8086Z" fill="#ED1329"/>
</g>
<path d="M261.896 109.665L259.843 111.142L259.925 111.224L261.896 109.747V109.665Z" fill="url(#paint13_linear)"/>
<path opacity="0.36" d="M215.666 122.879L211.807 120.581L211.725 107.776L215.584 110.074L215.666 122.879Z" fill="url(#paint14_linear)"/>
<path opacity="0.36" d="M215.502 105.56L211.643 103.262L211.396 72.5625L215.256 74.8609L215.502 105.56Z" fill="url(#paint15_linear)"/>
<path d="M219.608 108.023L218.294 107.284L218.212 96.8594L219.526 97.5981L219.608 108.023Z" fill="url(#paint16_linear)"/>
<path opacity="0.36" d="M226.751 129.447L222.892 127.148V123.044L226.751 125.26V129.447Z" fill="url(#paint17_linear)"/>
<path opacity="0.36" d="M226.669 121.485L222.892 119.268L222.81 115.082L226.669 117.38V121.485Z" fill="url(#paint18_linear)"/>
<path opacity="0.36" d="M226.587 113.605L222.81 111.306L222.728 107.202L226.587 109.501V113.605Z" fill="url(#paint19_linear)"/>
<path opacity="0.36" d="M214.024 135.931L208.769 132.812L208.687 127.148L213.942 130.268L214.024 135.931Z" fill="url(#paint20_linear)"/>
<path d="M219.854 114.507L218.129 113.44V111.552L219.854 112.619V114.507Z" fill="url(#paint21_linear)"/>
<path d="M219.936 118.202L218.129 117.135V115.165L219.936 116.232V118.202Z" fill="url(#paint22_linear)"/>
<path d="M261.322 93.2478C261.404 101.456 267.07 111.471 274.049 115.493C276.266 116.806 278.401 117.299 280.208 117.134L280.126 117.955L282.589 116.478C282.835 116.396 283.082 116.231 283.246 116.067C285.299 114.59 286.53 111.799 286.53 107.859C286.448 99.6504 280.782 89.6361 273.803 85.6139C270.436 83.6439 267.48 83.4797 265.263 84.6289L265.181 84.711C265.099 84.7931 265.017 84.7931 264.935 84.8752L262.389 86.3527L263.456 86.1064C262.061 87.7481 261.322 90.1286 261.322 93.2478ZM267.07 96.5312C267.07 92.0165 270.108 90.1286 273.885 92.3448C277.662 94.5611 280.783 99.9787 280.865 104.493C280.865 109.008 277.826 110.896 274.049 108.68C270.19 106.463 267.07 101.046 267.07 96.5312Z" fill="url(#paint23_linear)"/>
<path d="M258.529 94.9715C258.612 103.18 264.277 113.194 271.257 117.216C278.237 121.239 283.738 117.873 283.738 109.583C283.656 101.374 277.99 91.3598 271.011 87.3376C264.031 83.2334 258.447 86.681 258.529 94.9715ZM264.195 98.2549C264.195 93.7402 267.234 91.8523 271.011 94.0686C274.788 96.2848 277.908 101.702 277.99 106.217C277.99 110.732 274.952 112.62 271.175 110.403C267.398 108.187 264.277 102.77 264.195 98.2549Z" fill="url(#paint24_linear)"/>
<path d="M271.011 89.2253C277.087 92.755 282.014 101.456 282.096 108.597C282.178 115.821 277.333 118.776 271.257 115.246C265.181 111.716 260.254 103.016 260.172 95.8742C260.09 88.6508 264.934 85.6957 271.011 89.2253Z" fill="url(#paint25_radial)"/>
<path d="M271.011 89.2253C277.087 92.755 282.014 101.456 282.096 108.597C282.178 115.821 277.333 118.776 271.257 115.246C265.181 111.716 260.254 103.016 260.172 95.8742C260.09 88.6508 264.934 85.6957 271.011 89.2253Z" fill="url(#paint26_linear)"/>
<mask id="mask2" mask-type="alpha" maskUnits="userSpaceOnUse" x="265" y="106" width="12" height="9">
<path fill-rule="evenodd" clip-rule="evenodd" d="M265.345 106.135C265.18 106.053 265.098 106.135 265.098 106.299L265.263 108.516C265.263 108.68 265.427 108.844 265.509 108.926L276.02 114.015C276.184 114.097 276.266 114.015 276.266 113.851L276.102 111.635C276.102 111.471 275.937 111.307 275.855 111.224L265.345 106.135Z" fill="white"/>
</mask>
<g mask="url(#mask2)">
<path fill-rule="evenodd" clip-rule="evenodd" d="M273.884 105.479L275.772 106.464V105.725L275.116 105.396L273.884 105.479Z" fill="#F41B20"/>
<path fill-rule="evenodd" clip-rule="evenodd" d="M272.652 105.561L275.855 107.12L275.773 106.464L273.884 105.479L272.652 105.561Z" fill="#F31A21"/>
<path fill-rule="evenodd" clip-rule="evenodd" d="M271.339 105.643L275.937 107.859L275.855 107.12L272.652 105.561L271.339 105.643Z" fill="#F31922"/>
<path fill-rule="evenodd" clip-rule="evenodd" d="M270.107 105.725L275.937 108.598V107.859L271.338 105.643L270.107 105.725Z" fill="#F21823"/>
<path fill-rule="evenodd" clip-rule="evenodd" d="M268.875 105.807L276.019 109.337L275.937 108.598L270.106 105.725L268.875 105.807Z" fill="#F11724"/>
<path fill-rule="evenodd" clip-rule="evenodd" d="M267.561 105.971L276.019 110.076V109.337L268.875 105.807L267.561 105.971Z" fill="#F01725"/>
<path fill-rule="evenodd" clip-rule="evenodd" d="M266.329 106.053L276.101 110.732L276.019 110.075L267.561 105.971L266.329 106.053Z" fill="#F01626"/>
<path fill-rule="evenodd" clip-rule="evenodd" d="M265.098 106.135L276.183 111.47L276.101 110.732L266.33 106.053L265.098 106.135Z" fill="#EF1527"/>
<path fill-rule="evenodd" clip-rule="evenodd" d="M265.18 106.874L276.183 112.21V111.471L265.098 106.136L265.18 106.874Z" fill="#EE1428"/>
<path fill-rule="evenodd" clip-rule="evenodd" d="M265.262 107.613L276.265 112.948L276.183 112.21L265.18 106.874L265.262 107.613Z" fill="#ED1329"/>
<path fill-rule="evenodd" clip-rule="evenodd" d="M265.262 108.269L276.265 113.604V112.948L265.262 107.612V108.269Z" fill="#ED122A"/>
<path fill-rule="evenodd" clip-rule="evenodd" d="M265.344 109.008L275.855 114.098H276.348L276.265 113.605L265.262 108.27L265.344 109.008Z" fill="#EC112B"/>
<path fill-rule="evenodd" clip-rule="evenodd" d="M265.344 109.747L274.623 114.18L275.855 114.098L265.344 109.008V109.747Z" fill="#EB102C"/>
<path fill-rule="evenodd" clip-rule="evenodd" d="M265.426 110.486L273.309 114.262L274.623 114.18L265.344 109.747L265.426 110.486Z" fill="#EB0F2D"/>
<path fill-rule="evenodd" clip-rule="evenodd" d="M265.509 111.143L272.078 114.344L273.309 114.262L265.427 110.486L265.509 111.143Z" fill="#EA0F2E"/>
<path fill-rule="evenodd" clip-rule="evenodd" d="M265.509 111.881L270.846 114.425L272.078 114.343L265.509 111.142V111.881Z" fill="#EA0E2F"/>
<path fill-rule="evenodd" clip-rule="evenodd" d="M265.591 112.62L269.532 114.59L270.846 114.425L265.509 111.881L265.591 112.62Z" fill="#E90D30"/>
<path fill-rule="evenodd" clip-rule="evenodd" d="M265.591 113.359L268.301 114.672L269.532 114.59L265.591 112.62V113.359Z" fill="#E80D30"/>
<path fill-rule="evenodd" clip-rule="evenodd" d="M265.673 114.015L267.069 114.754L268.301 114.672L265.591 113.358L265.673 114.015Z" fill="#E80C31"/>
<path fill-rule="evenodd" clip-rule="evenodd" d="M267.069 114.755L265.673 114.016L265.755 114.837L267.069 114.755Z" fill="#E80C31"/>
</g>
<mask id="mask3" mask-type="alpha" maskUnits="userSpaceOnUse" x="264" y="92" width="12" height="16">
<path fill-rule="evenodd" clip-rule="evenodd" d="M265.099 92.1809C264.606 91.9346 264.195 92.2629 264.195 92.8375L264.524 97.7626C264.688 99.8147 265.263 101.621 266.412 103.262C267.48 104.904 268.794 106.053 270.436 106.792C271.996 107.531 273.228 107.613 274.213 106.956C275.116 106.299 275.527 104.986 275.445 102.934L275.116 98.0089C275.034 97.3522 274.624 96.6955 274.131 96.4493L272.817 95.7926C272.325 95.5463 271.914 95.8747 271.914 96.4493L272.242 101.538C272.407 103.426 271.503 103.837 270.19 103.262C268.876 102.606 267.89 101.292 267.726 99.4043L267.398 94.3971C267.316 93.7405 266.905 93.0838 266.412 92.8375L265.099 92.1809Z" fill="white"/>
</mask>
<g mask="url(#mask3)">
<path fill-rule="evenodd" clip-rule="evenodd" d="M264.935 91.934L274.952 96.777L274.542 91.2773L264.935 91.934Z" fill="#FF2911"/>
<path fill-rule="evenodd" clip-rule="evenodd" d="M264.196 92.2619L275.035 97.5153L274.952 96.7766L264.935 91.9336H264.196V92.2619Z" fill="#FF2911"/>
<path fill-rule="evenodd" clip-rule="evenodd" d="M264.278 93.0015L275.035 98.1728V97.5161L264.196 92.2627L264.278 93.0015Z" fill="#FE2812"/>
<path fill-rule="evenodd" clip-rule="evenodd" d="M264.278 93.6581L275.117 98.9115L275.034 98.1728L264.278 93.0015V93.6581Z" fill="#FD2713"/>
<path fill-rule="evenodd" clip-rule="evenodd" d="M264.36 94.3965L275.117 99.6499V98.9111L264.278 93.6577L264.36 94.3965Z" fill="#FC2615"/>
<path fill-rule="evenodd" clip-rule="evenodd" d="M264.359 95.1352L275.198 100.307L275.116 99.6499L264.359 94.3965V95.1352Z" fill="#FC2516"/>
<path fill-rule="evenodd" clip-rule="evenodd" d="M264.441 95.7919L275.281 101.045L275.198 100.307L264.359 95.1353L264.441 95.7919Z" fill="#FB2417"/>
<path fill-rule="evenodd" clip-rule="evenodd" d="M264.524 96.5298L275.281 101.783V101.044L264.442 95.791L264.524 96.5298Z" fill="#FA2318"/>
<path fill-rule="evenodd" clip-rule="evenodd" d="M264.524 97.2695L275.363 102.441L275.281 101.784L264.524 96.5308V97.2695Z" fill="#F92219"/>
<path fill-rule="evenodd" clip-rule="evenodd" d="M264.606 97.9267L275.363 103.18V102.441L264.524 97.27L264.606 97.9267Z" fill="#F8201A"/>
<path fill-rule="evenodd" clip-rule="evenodd" d="M264.606 98.665L275.445 103.918L275.363 103.18L264.606 97.9263V98.665Z" fill="#F71F1C"/>
<path fill-rule="evenodd" clip-rule="evenodd" d="M264.688 99.4043L275.527 104.658L275.445 103.919L264.606 98.6655L264.688 99.4043Z" fill="#F71E1D"/>
<path fill-rule="evenodd" clip-rule="evenodd" d="M264.77 100.06L275.527 105.313V104.657L264.688 99.4033L264.77 100.06Z" fill="#F61D1E"/>
<path fill-rule="evenodd" clip-rule="evenodd" d="M264.77 100.799L275.609 106.053L275.527 105.314L264.77 100.061V100.799Z" fill="#F51C1F"/>
<path fill-rule="evenodd" clip-rule="evenodd" d="M264.852 101.538L275.609 106.791V106.053L264.77 100.799L264.852 101.538Z" fill="#F41B20"/>
<path fill-rule="evenodd" clip-rule="evenodd" d="M264.852 102.277L275.691 107.448L275.609 106.792L264.852 101.538V102.277Z" fill="#F31A21"/>
<path fill-rule="evenodd" clip-rule="evenodd" d="M264.934 102.934L274.542 107.613L275.691 107.531V107.449L264.852 102.277L264.934 102.934Z" fill="#F31922"/>
<path fill-rule="evenodd" clip-rule="evenodd" d="M265.017 103.672L273.31 107.694L274.542 107.612L264.935 102.933L265.017 103.672Z" fill="#F21823"/>
<path fill-rule="evenodd" clip-rule="evenodd" d="M265.017 104.411L272.078 107.777L273.31 107.694L265.017 103.672V104.411Z" fill="#F11724"/>
<path fill-rule="evenodd" clip-rule="evenodd" d="M265.099 105.067L270.847 107.858L272.078 107.776L265.017 104.411L265.099 105.067Z" fill="#F01725"/>
<path fill-rule="evenodd" clip-rule="evenodd" d="M265.098 105.806L269.615 107.94L270.846 107.858L265.098 105.067V105.806Z" fill="#F01626"/>
<path fill-rule="evenodd" clip-rule="evenodd" d="M265.18 106.544L268.301 108.022L269.615 107.94L265.098 105.806L265.18 106.544Z" fill="#EF1527"/>
<path fill-rule="evenodd" clip-rule="evenodd" d="M265.181 107.202L267.069 108.105L268.301 108.023L265.181 106.545V107.202Z" fill="#EE1428"/>
<path fill-rule="evenodd" clip-rule="evenodd" d="M265.263 107.94L265.838 108.187L267.069 108.105L265.181 107.202L265.263 107.94Z" fill="#ED1329"/>
</g>
<path d="M272.16 117.38L273.721 116.395L273.639 104L272.078 104.903L272.16 117.38Z" fill="url(#paint27_linear)"/>
<path d="M283.492 103.098L285.298 101.948L285.216 100.061L283.492 101.128V103.098Z" fill="url(#paint28_linear)"/>
<path opacity="0.36" d="M277.17 157.356L280.372 155.386L280.208 144.797L277.087 146.767L277.17 157.356Z" fill="url(#paint29_linear)"/>
<path opacity="0.36" d="M277.087 142.909L280.208 141.021L279.797 91.0312L276.595 93.0013L277.087 142.909Z" fill="url(#paint30_linear)"/>
<path d="M264.196 168.437L265.428 167.698L265.345 157.273L264.114 158.094L264.196 168.437Z" fill="url(#paint31_linear)"/>
<path d="M273.721 145.043L274.788 144.386L274.706 135.767L273.639 136.424L273.721 145.043Z" fill="url(#paint32_linear)"/>
<path opacity="0.35" d="M268.055 163.019L271.175 161.049V157.601L268.055 159.571V163.019Z" fill="url(#paint33_linear)"/>
<path opacity="0.35" d="M267.973 156.452L271.175 154.482L271.093 151.035L267.973 153.005V156.452Z" fill="url(#paint34_linear)"/>
<path opacity="0.35" d="M267.973 149.804L271.093 147.834V144.386L267.891 146.356L267.973 149.804Z" fill="url(#paint35_linear)"/>
<path opacity="0.36" d="M267.89 143.237L271.011 141.267L270.847 115.574L267.644 117.544L267.89 143.237Z" fill="url(#paint36_linear)"/>
<path d="M273.556 150.461L275.034 149.558V147.998L273.556 148.901V150.461Z" fill="url(#paint37_linear)"/>
<path d="M273.556 153.497L275.034 152.594V151.035L273.556 151.938V153.497Z" fill="url(#paint38_linear)"/>
<path d="M273.639 156.535L275.034 155.632V154.072L273.556 154.975L273.639 156.535Z" fill="url(#paint39_linear)"/>
<path opacity="0.35" d="M269.287 102.605L270.354 101.948L270.272 93.3291L269.205 93.9858L269.287 102.605Z" fill="url(#paint40_linear)"/>
<path d="M269.122 108.023L270.6 107.12V105.561L269.122 106.463V108.023Z" fill="url(#paint41_linear)"/>
<path d="M269.205 111.059L270.6 110.156V108.597L269.205 109.5V111.059Z" fill="url(#paint42_linear)"/>
<path d="M269.205 114.097L270.683 113.194V111.552L269.205 112.455V114.097Z" fill="url(#paint43_linear)"/>
<path d="M258.283 88.7331L259.351 87.9944L259.269 79.3755L258.201 80.0322L258.283 88.7331Z" fill="url(#paint44_linear)"/>
<path d="M258.119 94.0685L259.597 93.1656V91.606L258.119 92.5089V94.0685Z" fill="url(#paint45_linear)"/>
<path d="M258.119 97.1056L259.597 96.2027V94.6431L258.119 95.546V97.1056Z" fill="url(#paint46_linear)"/>
<path d="M258.201 100.142L259.597 99.2388V97.6792L258.119 98.5821L258.201 100.142Z" fill="url(#paint47_linear)"/>
<path d="M256.066 112.866L256.723 112.456L256.641 106.874L255.984 107.284L256.066 112.866Z" fill="url(#paint48_linear)"/>
<path d="M255.902 116.396L256.887 115.821V114.754L255.902 115.328V116.396Z" fill="url(#paint49_linear)"/>
<path d="M255.984 118.365L256.887 117.791V116.724L255.984 117.298V118.365Z" fill="url(#paint50_linear)"/>
<path d="M255.984 120.336L256.887 119.761V118.694L255.984 119.268V120.336Z" fill="url(#paint51_linear)"/>
<path d="M256.148 127.968L256.887 127.476L256.805 121.894L256.148 122.304V127.968Z" fill="url(#paint52_linear)"/>
<path d="M256.066 131.417L257.052 130.842L256.97 129.775L256.066 130.432V131.417Z" fill="url(#paint53_linear)"/>
<path d="M256.066 133.386L257.052 132.812V131.745L256.066 132.319V133.386Z" fill="url(#paint54_linear)"/>
<path d="M256.066 135.357L257.052 134.782V133.715L256.066 134.29V135.357Z" fill="url(#paint55_linear)"/>
<path d="M256.313 142.991L256.97 142.498V136.917L256.231 137.409L256.313 142.991Z" fill="url(#paint56_linear)"/>
<path d="M256.231 146.439L257.134 145.864V144.879L256.231 145.453V146.439Z" fill="url(#paint57_linear)"/>
<path d="M256.231 148.408L257.134 147.833V146.766L256.231 147.423V148.408Z" fill="url(#paint58_linear)"/>
<path d="M256.231 150.378L257.216 149.803L257.134 148.736L256.231 149.311V150.378Z" fill="url(#paint59_linear)"/>
<path d="M283.656 157.848C283.739 167.863 265.673 176.153 243.339 176.399C221.004 176.564 202.774 168.601 202.692 158.587L173.295 50.4818L307.634 49.2505L283.656 157.848Z" fill="url(#paint60_linear)"/>
<path d="M216.405 67.3911L217.309 165.728C217.226 165.728 218.048 100.799 216.405 67.3911Z" fill="url(#paint61_linear)"/>
<path opacity="0.35" d="M263.621 69.1143L264.524 167.451C264.524 167.451 265.345 102.523 263.621 69.1143Z" fill="url(#paint62_linear)"/>
<path d="M272.489 46.5415L273.228 131.171C273.228 131.171 274.213 79.8678 272.489 46.5415Z" fill="url(#paint63_linear)"/>
<path d="M175.348 157.767L175.512 173.527L128.297 201.929L128.133 185.101L175.348 157.767Z" fill="#29293F"/>
<path d="M80.4248 158.587L80.5069 174.43L128.297 201.928L128.133 185.101L80.4248 158.587Z" fill="#0F0F1E"/>
<path d="M80.4248 158.587L128.133 185.101L175.348 157.766L127.64 130.843L80.4248 158.587Z" fill="#32324C"/>
<path d="M191.278 205.95L191.361 214.323L166.48 229.262L166.398 220.397L191.278 205.95Z" fill="#29293F"/>
<path d="M141.271 206.443L141.353 214.733L166.48 229.262L166.398 220.397L141.271 206.443Z" fill="#0F0F1E"/>
<path d="M141.271 206.443L166.398 220.397L191.278 205.95L166.151 191.832L141.271 206.443Z" fill="#32324C"/>
<path d="M338.426 201.518L338.508 209.891L313.628 224.83L313.546 215.965L338.426 201.518Z" fill="#29293F"/>
<path d="M288.419 202.01L288.501 210.301L313.628 224.83L313.546 215.965L288.419 202.01Z" fill="#0F0F1E"/>
<path d="M288.419 202.01L313.546 215.965L338.426 201.518L313.299 187.399L288.419 202.01Z" fill="#32324C"/>
<path opacity="0.37" d="M92.1672 158.424L128.051 178.37L163.606 157.849L127.723 137.574L92.1672 158.424Z" fill="url(#paint64_linear)"/>
<path opacity="0.37" d="M96.7651 158.341L128.051 175.743L159.007 157.848L127.722 140.2L96.7651 158.341Z" fill="url(#paint65_linear)"/>
<path opacity="0.48" d="M94.7947 136.835L127.887 155.222L160.732 136.26L127.558 117.545L94.7947 136.835Z" fill="url(#paint66_linear)"/>
<path opacity="0.18" d="M94.7947 136.835L127.887 155.222L160.732 136.26L127.558 117.545L94.7947 136.835Z" fill="url(#paint67_linear)"/>
<path d="M172.72 34.0654L159.007 157.685L128.05 175.579L96.765 158.259L83.2983 34.8863L172.72 34.0654Z" fill="url(#paint68_linear)"/>
<path d="M144.227 40.1397L146.116 40.468L141.6 37.8413C141.435 37.7592 141.271 37.6771 141.107 37.513L140.943 37.4309C137.001 35.3788 131.664 35.8713 125.752 39.4009C113.599 46.7885 103.827 64.6008 103.992 79.1298C104.074 86.107 106.373 91.0321 109.986 93.5767H110.068C110.479 93.8229 110.889 94.0692 111.3 94.2333L115.652 96.778L115.405 95.3004C118.608 95.5467 122.303 94.5617 126.244 92.1812C138.397 84.7936 148.169 66.9813 148.005 52.4523C148.005 47.1989 146.609 42.9305 144.227 40.1397ZM126.162 80.3611C119.511 84.3832 114.009 81.1819 114.009 73.2197C113.927 65.2575 119.265 55.4895 125.916 51.4673C132.567 47.4452 138.069 50.6465 138.069 58.6087C138.151 66.653 132.813 76.3389 126.162 80.3611Z" fill="url(#paint69_linear)"/>
<path d="M130.843 42.4378C118.69 49.8254 108.918 67.6377 109.082 82.1667C109.247 96.7777 119.182 102.606 131.335 95.3002C143.488 87.9126 153.26 70.1003 153.095 55.5713C153.013 40.8782 143.077 35.0502 130.843 42.4378ZM131.253 83.3159C124.602 87.338 119.1 84.1367 119.1 76.1745C119.018 68.2123 124.356 58.4443 131.007 54.4221C137.658 50.4 143.16 53.6013 143.16 61.5635C143.242 69.5257 137.904 79.2937 131.253 83.3159Z" fill="url(#paint70_linear)"/>
<path d="M130.843 42.6019C118.69 49.9895 108.918 67.8019 109.082 82.3308C109.247 96.8598 119.182 102.77 131.335 95.4644C143.488 88.0767 153.26 70.2644 153.095 55.7354C152.931 41.2065 143.077 35.2964 130.843 42.6019ZM131.253 83.5621C124.602 87.5842 119.1 84.3829 119.1 76.4207C119.018 68.4585 124.356 58.6905 131.007 54.6683C137.658 50.6462 143.16 53.8475 143.16 61.8097C143.16 69.7719 137.904 79.54 131.253 83.5621Z" fill="url(#paint71_linear)"/>
<path d="M130.925 45.8033C120.332 52.2059 111.792 67.7199 111.874 80.443C111.956 93.1661 120.661 98.2553 131.253 91.8527C141.846 85.4501 150.386 69.9362 150.222 57.2131C150.222 44.49 141.517 39.4007 130.925 45.8033Z" fill="url(#paint72_linear)"/>
<path d="M411.918 161.05L412 178.123L361.007 208.823L360.843 190.6L411.918 161.05Z" fill="#29293F"/>
<path d="M309.276 161.953L309.44 179.026L361.008 208.823L360.843 190.6L309.276 161.953Z" fill="#0F0F1E"/>
<path d="M309.276 161.953L360.843 190.6L411.918 161.05L360.269 131.992L309.276 161.953Z" fill="#32324C"/>
<path d="M486.214 200.208L486.296 211.946L451.397 232.878L451.233 220.401L486.214 200.208Z" fill="#29293F"/>
<path d="M416.006 200.864L416.088 212.52L451.397 232.877L451.233 220.4L416.006 200.864Z" fill="#0F0F1E"/>
<path d="M416.006 200.864L451.233 220.4L486.214 200.208L450.905 180.343L416.006 200.864Z" fill="#32324C"/>
<path opacity="0.37" d="M424.71 200.7L451.233 215.476L477.51 200.29L450.987 185.351L424.71 200.7Z" fill="url(#paint73_linear)"/>
<path opacity="0.37" d="M428.159 200.7L451.233 213.505L474.061 200.29L450.987 187.32L428.159 200.7Z" fill="url(#paint74_linear)"/>
<path d="M484.243 108.93L474.061 200.29L451.233 213.505L428.159 200.7L418.141 109.504L484.243 108.93Z" fill="url(#paint75_linear)"/>
<path d="M432.155 163.257C432.025 162.597 431.378 162.2 430.731 162.333C430.084 162.465 429.696 163.125 429.825 163.785C429.955 164.446 430.602 164.842 431.249 164.71C432.025 164.578 432.414 163.918 432.155 163.257Z" fill="url(#paint76_linear)"/>
<path d="M451.101 196.916C450.771 198.562 449.118 199.549 447.466 199.22C445.814 198.891 444.823 197.245 445.154 195.599C445.484 193.953 447.136 192.965 448.788 193.295C450.44 193.624 451.431 195.27 451.101 196.916Z" fill="#D4271C"/>
<path d="M442.483 180.063C442.183 181.258 441.284 181.855 440.085 181.557C438.886 181.258 438.286 180.362 438.586 179.167C438.886 177.973 439.785 177.376 440.984 177.674C442.183 177.973 442.782 178.869 442.483 180.063Z" fill="#FF9E93"/>
<path d="M442.483 142.745C442.183 143.94 441.284 144.537 440.085 144.238C438.886 143.94 438.286 143.044 438.586 141.849C438.886 140.655 439.785 140.057 440.984 140.356C442.183 140.655 442.782 141.849 442.483 142.745Z" fill="#FF9E93"/>
<mask id="mask4" mask-type="alpha" maskUnits="userSpaceOnUse" x="123" y="73" width="16" height="12">
<path fill-rule="evenodd" clip-rule="evenodd" d="M123.781 81.1004C123.616 81.1824 123.452 81.4287 123.452 81.5929V84.3017C123.452 84.4658 123.616 84.5479 123.781 84.4658L138.479 77.2424C138.643 77.1603 138.807 76.9141 138.807 76.7499V74.0411C138.807 73.8769 138.643 73.7948 138.479 73.8769L123.781 81.1004Z" fill="white"/>
</mask>
<g mask="url(#mask4)">
<path fill-rule="evenodd" clip-rule="evenodd" d="M124.273 73.7944L123.452 74.2049V73.7944H124.273Z" fill="#F51C1F"/>
<path fill-rule="evenodd" clip-rule="evenodd" d="M126.162 73.7944L123.452 75.1078V74.2049L124.273 73.7944H126.162Z" fill="#F41B20"/>
<path fill-rule="evenodd" clip-rule="evenodd" d="M127.968 73.7944L123.452 76.0107V75.1078L126.162 73.7944H127.968Z" fill="#F31A21"/>
<path fill-rule="evenodd" clip-rule="evenodd" d="M129.775 73.7944L123.452 76.9137V76.0107L127.968 73.7944H129.775Z" fill="#F31922"/>
<path fill-rule="evenodd" clip-rule="evenodd" d="M131.581 73.7944L123.452 77.7345V76.9136L129.775 73.7944H131.581Z" fill="#F21823"/>
<path fill-rule="evenodd" clip-rule="evenodd" d="M133.47 73.7944L123.452 78.6374V77.7345L131.581 73.7944H133.47Z" fill="#F11724"/>
<path fill-rule="evenodd" clip-rule="evenodd" d="M135.277 73.7944L123.452 79.5403V78.6374L133.47 73.7944H135.277Z" fill="#F01725"/>
<path fill-rule="evenodd" clip-rule="evenodd" d="M137.083 73.7944L123.452 80.4433V79.5403L135.277 73.7944H137.083Z" fill="#F01626"/>
<path fill-rule="evenodd" clip-rule="evenodd" d="M138.807 73.7944L123.452 81.3462V80.4433L137.083 73.7944H138.807Z" fill="#EF1527"/>
<path fill-rule="evenodd" clip-rule="evenodd" d="M138.807 74.6974L123.452 82.2491V81.3462L138.807 73.7944V74.6974Z" fill="#EE1428"/>
<path fill-rule="evenodd" clip-rule="evenodd" d="M138.807 75.6002L123.452 83.152V82.249L138.807 74.6973V75.6002Z" fill="#ED1329"/>
<path fill-rule="evenodd" clip-rule="evenodd" d="M138.807 76.504L123.452 84.0558V83.1528L138.807 75.6011V76.504Z" fill="#ED122A"/>
<path fill-rule="evenodd" clip-rule="evenodd" d="M138.807 77.4064L124.109 84.6298H123.452V84.0552L138.807 76.5034V77.4064Z" fill="#EC112B"/>
<path fill-rule="evenodd" clip-rule="evenodd" d="M138.807 78.3092L125.915 84.6297H124.109L138.807 77.4062V78.3092Z" fill="#EB102C"/>
<path fill-rule="evenodd" clip-rule="evenodd" d="M138.807 79.2125L127.722 84.6301H125.916L138.807 78.3096V79.2125Z" fill="#EB0F2D"/>
<path fill-rule="evenodd" clip-rule="evenodd" d="M138.807 80.1153L129.611 84.63H127.722L138.807 79.2124V80.1153Z" fill="#EA0F2E"/>
<path fill-rule="evenodd" clip-rule="evenodd" d="M138.808 80.9356L131.417 84.6294H129.611L138.808 80.1147V80.9356Z" fill="#EA0E2F"/>
<path fill-rule="evenodd" clip-rule="evenodd" d="M138.807 81.8395L133.224 84.6303H131.417L138.807 80.9365V81.8395Z" fill="#E90D30"/>
<path fill-rule="evenodd" clip-rule="evenodd" d="M138.807 82.7413L135.03 84.6292H133.223L138.807 81.8384V82.7413Z" fill="#E80D30"/>
<path fill-rule="evenodd" clip-rule="evenodd" d="M138.808 83.6446L136.837 84.6296H135.03L138.808 82.7417V83.6446Z" fill="#E80C31"/>
<path fill-rule="evenodd" clip-rule="evenodd" d="M136.837 84.63L138.807 83.645V84.63H136.837Z" fill="#E80C31"/>
</g>
<mask id="mask5" mask-type="alpha" maskUnits="userSpaceOnUse" x="123" y="54" width="16" height="21">
<path fill-rule="evenodd" clip-rule="evenodd" d="M135.524 55.4076C134.785 55.7359 134.21 56.7209 134.21 57.4597V63.7802C134.21 66.1607 132.897 67.8844 131.09 68.7874C129.284 69.6903 127.97 69.1978 127.97 66.8173V60.4968C127.97 59.7581 127.395 59.3476 126.656 59.7581L124.849 60.661C124.11 60.9893 123.536 61.9744 123.536 62.7131V68.8694C123.536 71.4141 124.275 73.0558 125.671 73.7945C127.067 74.4512 128.873 74.287 131.09 73.2199C133.307 72.1528 135.032 70.5932 136.51 68.459C137.906 66.3248 138.645 64.0265 138.645 61.4818V55.3255C138.645 54.5867 138.07 54.2584 137.331 54.5867L135.524 55.4076Z" fill="white"/>
</mask>
<g mask="url(#mask5)">
<path fill-rule="evenodd" clip-rule="evenodd" d="M137.494 54.1758L123.534 60.9888V54.1758H137.494Z" fill="#FF2911"/>
<path fill-rule="evenodd" clip-rule="evenodd" d="M138.643 54.5041L123.534 61.8917V60.9888L137.494 54.1758H138.643V54.5041Z" fill="#FF2911"/>
<path fill-rule="evenodd" clip-rule="evenodd" d="M138.643 55.4068L123.534 62.7944V61.8915L138.643 54.5039V55.4068Z" fill="#FE2812"/>
<path fill-rule="evenodd" clip-rule="evenodd" d="M138.643 56.3097L123.534 63.6973V62.7943L138.643 55.4067V56.3097Z" fill="#FD2713"/>
<path fill-rule="evenodd" clip-rule="evenodd" d="M138.643 57.1304L123.534 64.518V63.6972L138.643 56.3096V57.1304Z" fill="#FC2615"/>
<path fill-rule="evenodd" clip-rule="evenodd" d="M138.643 58.0333L123.534 65.4209V64.518L138.643 57.1304V58.0333Z" fill="#FC2516"/>
<path fill-rule="evenodd" clip-rule="evenodd" d="M138.643 58.9361L123.534 66.3237V65.4208L138.643 58.0332V58.9361Z" fill="#FB2417"/>
<path fill-rule="evenodd" clip-rule="evenodd" d="M138.643 59.839L123.534 67.2266V66.3236L138.643 58.936V59.839Z" fill="#FA2318"/>
<path fill-rule="evenodd" clip-rule="evenodd" d="M138.643 60.7423L123.534 68.1299V67.227L138.643 59.8394V60.7423Z" fill="#F92219"/>
<path fill-rule="evenodd" clip-rule="evenodd" d="M138.643 61.563L123.534 69.0327V68.1298L138.643 60.7422V61.563Z" fill="#F8201A"/>
<path fill-rule="evenodd" clip-rule="evenodd" d="M138.643 62.4664L123.534 69.854V69.0332L138.643 61.5635V62.4664Z" fill="#F71F1C"/>
<path fill-rule="evenodd" clip-rule="evenodd" d="M138.643 63.3692L123.534 70.7568V69.8539L138.643 62.4663V63.3692Z" fill="#F71E1D"/>
<path fill-rule="evenodd" clip-rule="evenodd" d="M138.643 64.2721L123.534 71.6597V70.7567L138.643 63.3691V64.2721Z" fill="#F61D1E"/>
<path fill-rule="evenodd" clip-rule="evenodd" d="M138.643 65.1754L123.534 72.563V71.6601L138.643 64.2725V65.1754Z" fill="#F51C1F"/>
<path fill-rule="evenodd" clip-rule="evenodd" d="M138.643 65.9952L123.534 73.4648V72.5619L138.643 65.1743V65.9952Z" fill="#F41B20"/>
<path fill-rule="evenodd" clip-rule="evenodd" d="M138.643 66.898L123.534 74.2857V73.4648L138.643 65.9951V66.898Z" fill="#F31A21"/>
<path fill-rule="evenodd" clip-rule="evenodd" d="M138.643 67.8009L125.176 74.3676H123.534V74.2856L138.643 66.8979V67.8009Z" fill="#F31922"/>
<path fill-rule="evenodd" clip-rule="evenodd" d="M138.643 68.7042L126.983 74.368H125.176L138.643 67.8013V68.7042Z" fill="#F21823"/>
<path fill-rule="evenodd" clip-rule="evenodd" d="M138.643 69.607L128.79 74.3679H126.983L138.643 68.7041V69.607Z" fill="#F11724"/>
<path fill-rule="evenodd" clip-rule="evenodd" d="M138.643 70.4283L130.596 74.3683H128.79L138.643 69.6074V70.4283Z" fill="#F01725"/>
<path fill-rule="evenodd" clip-rule="evenodd" d="M138.643 71.3307L132.402 74.3678H130.596L138.643 70.4277V71.3307Z" fill="#F01626"/>
<path fill-rule="evenodd" clip-rule="evenodd" d="M138.643 72.234L134.209 74.3682H132.403L138.643 71.3311V72.234Z" fill="#EF1527"/>
<path fill-rule="evenodd" clip-rule="evenodd" d="M138.643 73.1373L136.015 74.3686H134.209L138.643 72.2344V73.1373Z" fill="#EE1428"/>
<path fill-rule="evenodd" clip-rule="evenodd" d="M138.643 74.0401L137.822 74.3685H136.015L138.643 73.1372V74.0401Z" fill="#ED1329"/>
<path fill-rule="evenodd" clip-rule="evenodd" d="M137.822 74.3679L138.643 74.0396V74.3679H137.822Z" fill="#ED122A"/>
</g>
<path opacity="0.37" d="M324.713 161.05L360.597 180.997L396.152 160.476L360.269 140.283L324.713 161.05Z" fill="url(#paint77_linear)"/>
<path opacity="0.37" d="M329.394 161.05L360.597 178.37L391.554 160.476L360.268 142.91L329.394 161.05Z" fill="url(#paint78_linear)"/>
<path opacity="0.48" d="M327.341 139.461L360.433 157.848L393.278 138.887L360.104 120.171L327.341 139.461Z" fill="url(#paint79_linear)"/>
<path opacity="0.18" d="M327.341 139.461L360.433 157.848L393.278 138.887L360.104 120.171L327.341 139.461Z" fill="url(#paint80_linear)"/>
<path d="M405.267 36.6919L391.554 160.311L360.597 178.206L329.394 160.886L315.845 37.5127L405.267 36.6919Z" fill="url(#paint81_linear)"/>
<path d="M376.773 42.7656L378.662 43.094L374.146 40.4673C373.982 40.3852 373.817 40.3031 373.653 40.1389L373.489 40.0569C369.547 38.0047 364.21 38.4972 358.298 42.0269C346.145 49.4145 336.373 67.2268 336.538 81.7558C336.62 88.733 338.919 93.658 342.532 96.2026H342.614C343.025 96.4489 343.435 96.6951 343.846 96.8593L348.198 99.4039L347.951 97.9264C351.154 98.1727 354.849 97.1877 358.791 94.8072C370.943 87.4196 380.715 69.6073 380.551 55.0783C380.633 49.8249 379.155 45.5565 376.773 42.7656ZM358.708 82.987C352.057 87.0092 346.556 83.8079 346.556 75.8457C346.473 67.8835 351.811 58.1154 358.462 54.0933C365.113 50.0712 370.615 53.2725 370.615 61.2346C370.779 69.2789 365.442 78.9649 358.708 82.987Z" fill="url(#paint82_linear)"/>
<path d="M363.471 45.0647C351.318 52.4524 341.547 70.2647 341.711 84.7937C341.875 99.4047 351.811 105.233 363.964 97.9272C376.116 90.5396 385.888 72.7272 385.724 58.1983C385.56 43.5051 375.624 37.6771 363.471 45.0647ZM363.799 85.9428C357.148 89.965 351.647 86.7637 351.647 78.8015C351.564 70.8393 356.902 61.0712 363.553 57.0491C370.204 53.0269 375.706 56.2282 375.706 64.1904C375.788 72.1526 370.451 81.9207 363.799 85.9428Z" fill="url(#paint83_linear)"/>
<path d="M363.471 45.2289C351.318 52.6165 341.547 70.4288 341.711 84.9578C341.875 99.4867 351.811 105.397 363.964 98.0913C376.116 90.7037 385.888 72.8913 385.724 58.3624C385.56 43.8334 375.624 37.9234 363.471 45.2289ZM363.799 86.189C357.148 90.2112 351.647 87.0099 351.647 79.0477C351.564 71.0855 356.902 61.3174 363.553 57.2953C370.204 53.2732 375.706 56.4745 375.706 64.4366C375.706 72.3988 370.451 82.1669 363.799 86.189Z" fill="url(#paint84_linear)"/>
<path d="M363.471 48.4303C352.878 54.8329 344.338 70.3468 344.503 83.0699C344.585 95.793 353.289 100.882 363.881 94.4797C374.474 88.0771 383.014 72.5631 382.85 59.84C382.768 47.1169 374.064 42.0277 363.471 48.4303Z" fill="url(#paint85_linear)"/>
<mask id="mask6" mask-type="alpha" maskUnits="userSpaceOnUse" x="355" y="76" width="17" height="12">
<path fill-rule="evenodd" clip-rule="evenodd" d="M356.327 83.7268C356.163 83.8089 355.999 84.0552 355.999 84.2193V86.9281C355.999 87.0923 356.163 87.1744 356.327 87.0923L371.026 79.8689C371.19 79.7868 371.354 79.5405 371.354 79.3764V76.6676C371.354 76.5034 371.19 76.4213 371.026 76.5034L356.327 83.7268Z" fill="white"/>
</mask>
<g mask="url(#mask6)">
<path fill-rule="evenodd" clip-rule="evenodd" d="M356.902 76.4204L355.999 76.8308V76.4204H356.902Z" fill="#F51C1F"/>
<path fill-rule="evenodd" clip-rule="evenodd" d="M358.709 76.4204L355.999 77.7337V76.8308L356.902 76.4204H358.709Z" fill="#F41B20"/>
<path fill-rule="evenodd" clip-rule="evenodd" d="M360.515 76.4204L355.999 78.6367V77.7338L358.709 76.4204H360.515Z" fill="#F31A21"/>
<path fill-rule="evenodd" clip-rule="evenodd" d="M362.322 76.4204L355.999 79.5396V78.6367L360.515 76.4204H362.322Z" fill="#F31922"/>
<path fill-rule="evenodd" clip-rule="evenodd" d="M364.128 76.4204L355.999 80.4425V79.5396L362.322 76.4204H364.128Z" fill="#F21823"/>
<path fill-rule="evenodd" clip-rule="evenodd" d="M366.017 76.4204L355.999 81.2634V80.4425L364.128 76.4204H366.017Z" fill="#F11724"/>
<path fill-rule="evenodd" clip-rule="evenodd" d="M367.823 76.4204L355.999 82.1663V81.2634L366.017 76.4204H367.823Z" fill="#F01725"/>
<path fill-rule="evenodd" clip-rule="evenodd" d="M369.63 76.4204L355.999 83.0692V82.1663L367.823 76.4204H369.63Z" fill="#F01626"/>
<path fill-rule="evenodd" clip-rule="evenodd" d="M371.354 76.4204L355.999 83.9722V83.0692L369.63 76.4204H371.354Z" fill="#EF1527"/>
<path fill-rule="evenodd" clip-rule="evenodd" d="M371.354 77.3233L355.999 84.8751V83.9722L371.354 76.4204V77.3233Z" fill="#EE1428"/>
<path fill-rule="evenodd" clip-rule="evenodd" d="M371.354 78.2267L355.999 85.7784V84.8755L371.354 77.3237V78.2267Z" fill="#ED1329"/>
<path fill-rule="evenodd" clip-rule="evenodd" d="M371.354 79.13L355.999 86.6817V85.7788L371.354 78.2271V79.13Z" fill="#ED122A"/>
<path fill-rule="evenodd" clip-rule="evenodd" d="M371.354 80.0323L356.656 87.2558H355.999V86.6812L371.354 79.1294V80.0323Z" fill="#EC112B"/>
<path fill-rule="evenodd" clip-rule="evenodd" d="M371.354 80.9352L358.462 87.2557H356.656L371.354 80.0322V80.9352Z" fill="#EB102C"/>
<path fill-rule="evenodd" clip-rule="evenodd" d="M371.354 81.8375L360.269 87.2551H358.462L371.354 80.9346V81.8375Z" fill="#EB0F2D"/>
<path fill-rule="evenodd" clip-rule="evenodd" d="M371.354 82.7408L362.157 87.2555H360.269L371.354 81.8379V82.7408Z" fill="#EA0F2E"/>
<path fill-rule="evenodd" clip-rule="evenodd" d="M371.354 83.6437L363.964 87.2554H362.157L371.354 82.7407V83.6437Z" fill="#EA0E2F"/>
<path fill-rule="evenodd" clip-rule="evenodd" d="M371.354 84.4649L365.77 87.2558H363.964L371.354 83.644V84.4649Z" fill="#E90D30"/>
<path fill-rule="evenodd" clip-rule="evenodd" d="M371.354 85.3673L367.577 87.2552H365.77L371.354 84.4644V85.3673Z" fill="#E80D30"/>
<path fill-rule="evenodd" clip-rule="evenodd" d="M371.354 86.2711L369.466 87.2561H367.577L371.354 85.3682V86.2711Z" fill="#E80C31"/>
<path fill-rule="evenodd" clip-rule="evenodd" d="M369.466 87.256L371.354 86.271V87.256H369.466Z" fill="#E80C31"/>
</g>
<mask id="mask7" mask-type="alpha" maskUnits="userSpaceOnUse" x="356" y="57" width="16" height="20">
<path fill-rule="evenodd" clip-rule="evenodd" d="M368.071 58.0336C367.332 58.362 366.757 59.347 366.757 60.0857V66.4062C366.757 68.7867 365.443 70.5105 363.636 71.4134C361.83 72.3163 360.516 71.8238 360.516 69.4434V63.1229C360.516 62.3841 359.941 61.9737 359.202 62.3841L357.396 63.287C356.657 63.6154 356.082 64.6004 356.082 65.3391V71.4134C356.082 73.958 356.821 75.5997 358.217 76.3385C359.613 76.9951 361.419 76.831 363.636 75.7639C365.854 74.6968 367.578 73.1372 369.056 71.003C370.452 68.8688 371.191 66.5704 371.191 64.0258V57.8695C371.191 57.1307 370.616 56.8024 369.877 57.1307L368.071 58.0336Z" fill="white"/>
</mask>
<g mask="url(#mask7)">
<path fill-rule="evenodd" clip-rule="evenodd" d="M370.122 56.8013L356.081 63.6143V56.8013H370.122Z" fill="#FF2911"/>
<path fill-rule="evenodd" clip-rule="evenodd" d="M371.19 57.1296L356.081 64.5172V63.6143L370.122 56.8013H371.19V57.1296Z" fill="#FF2911"/>
<path fill-rule="evenodd" clip-rule="evenodd" d="M371.19 58.0338L356.082 65.4214V64.5185L371.19 57.1309V58.0338Z" fill="#FE2812"/>
<path fill-rule="evenodd" clip-rule="evenodd" d="M371.19 58.9371L356.081 66.3247V65.4218L371.19 58.0342V58.9371Z" fill="#FD2713"/>
<path fill-rule="evenodd" clip-rule="evenodd" d="M371.19 59.7574L356.081 67.227V66.3241L371.19 58.9365V59.7574Z" fill="#FC2615"/>
<path fill-rule="evenodd" clip-rule="evenodd" d="M371.19 60.6607L356.081 68.0483V67.2275L371.19 59.7578V60.6607Z" fill="#FC2516"/>
<path fill-rule="evenodd" clip-rule="evenodd" d="M371.19 61.5636L356.081 68.9512V68.0482L371.19 60.6606V61.5636Z" fill="#FB2417"/>
<path fill-rule="evenodd" clip-rule="evenodd" d="M371.19 62.4664L356.081 69.854V68.9511L371.19 61.5635V62.4664Z" fill="#FA2318"/>
<path fill-rule="evenodd" clip-rule="evenodd" d="M371.19 63.3697L356.081 70.7573V69.8544L371.19 62.4668V63.3697Z" fill="#F92219"/>
<path fill-rule="evenodd" clip-rule="evenodd" d="M371.19 64.2726L356.081 71.6602V70.7572L371.19 63.3696V64.2726Z" fill="#F8201A"/>
<path fill-rule="evenodd" clip-rule="evenodd" d="M371.19 65.0933L356.081 72.4809V71.6601L371.19 64.2725V65.0933Z" fill="#F71F1C"/>
<path fill-rule="evenodd" clip-rule="evenodd" d="M371.19 65.9957L356.081 73.3833V72.4804L371.19 65.0928V65.9957Z" fill="#F71E1D"/>
<path fill-rule="evenodd" clip-rule="evenodd" d="M371.19 66.8995L356.081 74.2871V73.3842L371.19 65.9966V66.8995Z" fill="#F61D1E"/>
<path fill-rule="evenodd" clip-rule="evenodd" d="M371.19 67.8019L356.081 75.1895V74.2865L371.19 66.8989V67.8019Z" fill="#F51C1F"/>
<path fill-rule="evenodd" clip-rule="evenodd" d="M371.19 68.7042L356.081 76.0918V75.1889L371.19 67.8013V68.7042Z" fill="#F41B20"/>
<path fill-rule="evenodd" clip-rule="evenodd" d="M371.19 69.5254L356.081 76.913V76.0922L371.19 68.7046V69.5254Z" fill="#F31A21"/>
<path fill-rule="evenodd" clip-rule="evenodd" d="M371.19 70.4283L357.723 77.0772H356.081V76.913L371.19 69.5254V70.4283Z" fill="#F31922"/>
<path fill-rule="evenodd" clip-rule="evenodd" d="M371.19 71.3312L359.53 77.0771H357.723L371.19 70.4282V71.3312Z" fill="#F21823"/>
<path fill-rule="evenodd" clip-rule="evenodd" d="M371.19 72.2345L361.337 77.0775H359.53L371.19 71.3315V72.2345Z" fill="#F11724"/>
<path fill-rule="evenodd" clip-rule="evenodd" d="M371.19 73.1373L363.143 77.0774H361.336L371.19 72.2344V73.1373Z" fill="#F01725"/>
<path fill-rule="evenodd" clip-rule="evenodd" d="M371.19 73.9581L364.949 77.0773H363.143L371.19 73.1372V73.9581Z" fill="#F01626"/>
<path fill-rule="evenodd" clip-rule="evenodd" d="M371.19 74.8609L366.756 77.0772H364.949L371.19 73.958V74.8609Z" fill="#EF1527"/>
<path fill-rule="evenodd" clip-rule="evenodd" d="M371.19 75.7638L368.562 77.0771H366.756L371.19 74.8608V75.7638Z" fill="#EE1428"/>
<path fill-rule="evenodd" clip-rule="evenodd" d="M371.19 76.6676L370.369 77.078H368.562L371.19 75.7646V76.6676Z" fill="#ED1329"/>
<path fill-rule="evenodd" clip-rule="evenodd" d="M370.369 77.0774L371.19 76.667V77.0774H370.369Z" fill="#ED122A"/>
</g>
<path d="M336.231 16.997C336.231 18.4539 335.013 19.4251 333.796 19.4251C332.336 19.4251 331.362 18.2111 331.362 16.997C331.362 15.7829 332.579 14.5688 333.796 14.5688C335.013 14.5688 336.231 15.5401 336.231 16.997Z" fill="url(#paint86_linear)"/>
<path opacity="0.3" d="M333.1 49.8322C333.1 51.2181 332.057 51.9111 331.014 51.9111C329.623 51.9111 328.927 50.8717 328.927 49.8322C328.927 48.4464 329.971 47.7534 331.014 47.7534C332.057 47.7534 333.1 48.7928 333.1 49.8322Z" fill="#FF9E93"/>
<path opacity="0.2" d="M414.533 106.43C414.533 107.618 413.639 108.509 412.447 108.509C411.254 108.509 410.36 107.618 410.36 106.43C410.36 105.242 411.254 104.351 412.447 104.351C413.639 104.351 414.533 105.242 414.533 106.43Z" fill="#E82818"/>
<path opacity="0.2" d="M183.682 50.5866C183.682 51.2804 183.16 51.8007 182.465 51.8007C181.769 51.8007 181.248 51.2804 181.248 50.5866C181.248 49.8929 181.769 49.3726 182.465 49.3726C183.16 49.3726 183.682 49.8929 183.682 50.5866Z" fill="#E82818"/>
<path opacity="0.2" d="M95.9023 63.6942C96.7185 63.6942 97.3801 63.0248 97.3801 62.1991C97.3801 61.3735 96.7185 60.7041 95.9023 60.7041C95.0862 60.7041 94.4246 61.3735 94.4246 62.1991C94.4246 63.0248 95.0862 63.6942 95.9023 63.6942Z" fill="#FF9E93"/>
<path opacity="0.2" d="M186.782 15.1312C187.599 15.1312 188.26 14.4618 188.26 13.6362C188.26 12.8105 187.599 12.1411 186.782 12.1411C185.966 12.1411 185.305 12.8105 185.305 13.6362C185.305 14.4618 185.966 15.1312 186.782 15.1312Z" fill="#FF9E93"/>
<path opacity="0.2" d="M171.365 61.266C172.182 61.266 172.843 60.5966 172.843 59.7709C172.843 58.9452 172.182 58.2759 171.365 58.2759C170.549 58.2759 169.888 58.9452 169.888 59.7709C169.888 60.5966 170.549 61.266 171.365 61.266Z" fill="#FF9E93"/>
<path d="M180.516 20.9035C180.646 21.564 181.293 21.9602 181.94 21.8281C182.587 21.696 182.975 21.0356 182.846 20.3752C182.717 19.7148 182.069 19.3185 181.422 19.4506C180.646 19.5827 180.258 20.2431 180.516 20.9035Z" fill="url(#paint87_linear)"/>
<path opacity="0.2" d="M98.5804 27.7697C98.9499 28.5172 99.6888 28.891 100.428 28.891C101.167 28.5172 101.536 27.7697 101.536 27.0222C101.167 26.2746 100.428 25.9009 99.6888 25.9009C98.9499 26.2746 98.211 27.0222 98.5804 27.7697Z" fill="#FF9E93"/>
<path d="M167.867 124.667C168.207 126.364 169.91 127.381 171.612 127.042C173.315 126.703 174.336 125.007 173.996 123.31C173.655 121.614 171.953 120.596 170.25 120.936C168.548 121.275 167.526 122.971 167.867 124.667Z" fill="url(#paint88_linear)"/>
<path d="M234.878 238.345C235.275 240.327 237.262 241.515 239.248 241.119C241.234 240.723 242.426 238.742 242.029 236.76C241.631 234.779 239.645 233.59 237.659 233.987C235.673 234.383 234.481 236.364 234.878 238.345Z" fill="url(#paint89_linear)"/>
<path d="M197.552 235.918C197.95 237.899 199.936 239.088 201.922 238.692C203.909 238.296 205.1 236.314 204.703 234.333C204.306 232.352 202.32 231.163 200.333 231.559C198.347 231.956 197.155 233.937 197.552 235.918Z" fill="url(#paint90_linear)"/>
<path d="M300.604 219.731C301.001 221.712 302.987 222.901 304.974 222.504C306.96 222.108 308.152 220.127 307.754 218.146C307.357 216.164 305.371 214.976 303.385 215.372C301.398 215.768 300.206 217.749 300.604 219.731Z" fill="url(#paint91_linear)"/>
<path d="M236.467 237.994C236.688 239.095 237.791 239.755 238.895 239.535C239.998 239.315 240.66 238.214 240.439 237.113C240.219 236.013 239.115 235.352 238.012 235.572C236.908 235.793 236.246 236.893 236.467 237.994Z" fill="#FF2911"/>
<path d="M199.141 235.565C199.362 236.666 200.465 237.326 201.569 237.106C202.672 236.886 203.334 235.785 203.114 234.685C202.893 233.584 201.79 232.924 200.686 233.144C199.583 233.364 198.92 234.465 199.141 235.565Z" fill="#FF2911"/>
<path d="M302.193 219.378C302.413 220.479 303.517 221.139 304.62 220.919C305.724 220.699 306.386 219.598 306.165 218.497C305.945 217.397 304.841 216.736 303.738 216.956C302.634 217.176 301.972 218.277 302.193 219.378Z" fill="#FF2911"/>
<path opacity="0.9" d="M176.748 107.3C177.057 108.531 177.983 109.147 179.219 108.839C180.455 108.531 181.072 107.608 180.764 106.377C180.455 105.146 179.528 104.53 178.292 104.838C177.057 105.146 176.439 106.069 176.748 107.3Z" fill="url(#paint92_linear)"/>
<path opacity="0.9" d="M410.07 59.4897C410.07 58.2757 411.085 57.4663 412.099 57.4663C413.316 57.4663 414.127 58.478 414.127 59.4897C414.127 60.5015 413.113 61.5132 412.099 61.5132C411.085 61.5132 410.07 60.5015 410.07 59.4897Z" fill="url(#paint93_linear)"/>
<path d="M91.9907 45.7308C91.9907 44.9214 91.3821 44.5167 90.7735 44.5167C89.9621 44.5167 89.5564 45.1237 89.5564 45.7308C89.5564 46.5401 90.165 46.9448 90.7735 46.9448C91.3821 46.9448 91.9907 46.3378 91.9907 45.7308Z" fill="url(#paint94_linear)"/>
<path opacity="0.3" d="M342.838 6.12619C342.838 7.51207 341.794 8.20502 340.751 8.20502C339.36 8.20502 338.665 7.1656 338.665 6.12619C338.665 4.74031 339.708 4.04736 340.751 4.04736C341.794 4.04736 342.838 5.08678 342.838 6.12619Z" fill="#FF9E93"/>
<path opacity="0.2" d="M405.202 92.675C405.202 93.3688 404.68 93.8891 403.984 93.8891C403.289 93.8891 402.767 93.3688 402.767 92.675C402.767 91.9813 403.289 91.4609 403.984 91.4609C404.68 91.6344 405.202 92.1547 405.202 92.675Z" fill="#FF9E93"/>
<path opacity="0.2" d="M197.476 73.2492C197.476 73.943 196.955 74.4633 196.259 74.4633C195.564 74.4633 195.042 73.943 195.042 73.2492C195.042 72.5555 195.564 72.0352 196.259 72.0352C196.955 72.2086 197.476 72.7289 197.476 73.2492Z" fill="#FF9E93"/>
<path opacity="0.2" d="M175.423 27.2718C176.239 27.2718 176.901 26.6025 176.901 25.7768C176.901 24.9511 176.239 24.2817 175.423 24.2817C174.607 24.2817 173.945 24.9511 173.945 25.7768C173.945 26.6025 174.607 27.2718 175.423 27.2718Z" fill="#E82818"/>
<path opacity="0.2" d="M215.994 20.7977C216.81 20.7977 217.472 20.1283 217.472 19.3027C217.472 18.477 216.81 17.8076 215.994 17.8076C215.178 17.8076 214.516 18.477 214.516 19.3027C214.516 20.1283 215.178 20.7977 215.994 20.7977Z" fill="#E82818"/>
<path d="M178.027 38.7107C178.16 39.3711 178.822 39.7673 179.484 39.6353C180.146 39.5032 180.543 38.8427 180.411 38.1823C180.278 37.5219 179.616 37.1256 178.954 37.2577C178.292 37.3898 177.895 38.0502 178.027 38.7107Z" fill="url(#paint95_linear)"/>
<path opacity="0.9" d="M172.368 51.1267C172.548 50.4077 173.089 50.0483 173.809 50.228C174.53 50.4077 174.891 50.9469 174.71 51.6659C174.53 52.3848 173.99 52.7443 173.269 52.5645C172.548 52.3848 172.188 51.6659 172.368 51.1267Z" fill="url(#paint96_linear)"/>
<path d="M398.71 128.174C398.71 130.292 400.481 131.704 402.253 131.704C404.379 131.704 405.796 129.939 405.796 128.174C405.796 126.409 404.025 124.644 402.253 124.644C400.481 124.644 398.71 126.056 398.71 128.174Z" fill="url(#paint97_linear)"/>
<path opacity="0.3" d="M94.5404 137.234C94.5404 138.579 95.5528 139.251 96.5651 139.251C97.9149 139.251 98.5898 138.243 98.5898 137.234C98.5898 135.889 97.5775 135.217 96.5651 135.217C95.5528 135.217 94.5404 136.225 94.5404 137.234Z" fill="#FF9E93"/>
<path opacity="0.2" d="M394.653 147.706C394.653 148.858 395.52 149.723 396.677 149.723C397.834 149.723 398.702 148.858 398.702 147.706C398.702 146.553 397.834 145.688 396.677 145.688C395.52 145.688 394.653 146.553 394.653 147.706Z" fill="#E82818"/>
<path opacity="0.2" d="M397.898 44.1046C397.898 45.2573 398.766 46.1219 399.923 46.1219C401.08 46.1219 401.948 45.2573 401.948 44.1046C401.948 42.9519 401.08 42.0874 399.923 42.0874C398.766 42.0874 397.898 42.9519 397.898 44.1046Z" fill="#E82818"/>
<path opacity="0.2" d="M103.767 125.15C102.975 125.15 102.333 124.5 102.333 123.699C102.333 122.898 102.975 122.248 103.767 122.248C104.559 122.248 105.201 122.898 105.201 123.699C105.201 124.5 104.559 125.15 103.767 125.15Z" fill="#FF9E93"/>
<path opacity="0.2" d="M96.6805 163.476C95.8886 163.476 95.2466 162.826 95.2466 162.025C95.2466 161.224 95.8886 160.574 96.6805 160.574C97.4725 160.574 98.1145 161.224 98.1145 162.025C98.1145 162.826 97.4725 163.476 96.6805 163.476Z" fill="#FF9E93"/>
<path opacity="0.2" d="M118.266 101.367C117.907 102.092 117.19 102.455 116.474 102.455C115.757 102.092 115.398 101.367 115.398 100.641C115.757 99.9159 116.474 99.5532 117.19 99.5532C117.907 99.9159 118.624 100.641 118.266 101.367Z" fill="#FF9E93"/>
<path opacity="0.9" d="M335.419 36.422C335.419 37.3932 336.23 38.0407 337.041 38.0407C338.015 38.0407 338.664 37.2314 338.664 36.422C338.664 35.6126 337.853 34.8032 337.041 34.8032C336.23 34.8032 335.419 35.6126 335.419 36.422Z" fill="url(#paint98_linear)"/>
<path opacity="0.9" d="M406.824 141.237C406.824 142.451 407.838 143.26 408.853 143.26C410.07 143.26 410.881 142.249 410.881 141.237C410.881 140.225 409.867 139.213 408.853 139.213C407.838 139.213 406.824 140.225 406.824 141.237Z" fill="url(#paint99_linear)"/>
<path opacity="0.3" d="M402.84 116.14C402.84 117.485 403.853 118.157 404.865 118.157C406.215 118.157 406.89 117.149 406.89 116.14C406.89 114.795 405.877 114.123 404.865 114.123C403.853 114.123 402.84 115.132 402.84 116.14Z" fill="#E82818"/>
<path opacity="0.3" d="M103.177 149.481C103.177 150.825 104.189 151.498 105.201 151.498C106.551 151.498 107.226 150.489 107.226 149.481C107.226 148.136 106.214 147.463 105.201 147.463C104.189 147.463 103.177 148.472 103.177 149.481Z" fill="#FF9E93"/>
<path opacity="0.2" d="M98.4816 108.855C98.4816 110.008 99.3493 110.872 100.506 110.872C101.663 110.872 102.531 110.008 102.531 108.855C102.531 107.702 101.663 106.838 100.506 106.838C99.3493 107.126 98.4816 107.991 98.4816 108.855Z" fill="#FF9E93"/>
<path opacity="0.2" d="M389.764 127.613C388.972 127.613 388.33 126.964 388.33 126.163C388.33 125.361 388.972 124.712 389.764 124.712C390.556 124.712 391.198 125.361 391.198 126.163C391.198 126.964 390.556 127.613 389.764 127.613Z" fill="#E82818"/>
<path opacity="0.2" d="M414.919 87.0768C414.127 87.0768 413.485 86.4273 413.485 85.626C413.485 84.8248 414.127 84.1753 414.919 84.1753C415.711 84.1753 416.353 84.8248 416.353 85.626C416.353 86.4273 415.711 87.0768 414.919 87.0768Z" fill="#E82818"/>
<path d="M107.365 42.0529C107.144 40.9522 106.041 40.2917 104.938 40.5119C103.834 40.732 103.172 41.8327 103.393 42.9334C103.613 44.0341 104.717 44.6946 105.82 44.4744C106.924 44.2543 107.586 43.1536 107.365 42.0529Z" fill="url(#paint100_linear)"/>
</g>
<defs>
<radialGradient id="paint0_radial" cx="0" cy="0" r="1" gradientUnits="userSpaceOnUse" gradientTransform="translate(246.018 173.53) rotate(90) scale(118.801 194.887)">
<stop stop-color="#FF0000"/>
<stop offset="0.916667" stop-color="#FF0000" stop-opacity="0"/>
</radialGradient>
<linearGradient id="paint1_linear" x1="179.315" y1="182.982" x2="349.025" y2="181.484" gradientUnits="userSpaceOnUse">
<stop stop-color="#32324C"/>
<stop offset="0.6231" stop-color="#19192C"/>
<stop offset="0.9861" stop-color="#0F0F1E"/>
</linearGradient>
<linearGradient id="paint2_linear" x1="9.747" y1="201.685" x2="62.5023" y2="201.219" gradientUnits="userSpaceOnUse">
<stop stop-color="#F9993A"/>
<stop offset="0.1488" stop-color="#F7983E" stop-opacity="0.9403"/>
<stop offset="0.3015" stop-color="#F3954A" stop-opacity="0.8789"/>
<stop offset="0.456" stop-color="#EB8F5F" stop-opacity="0.8169"/>
<stop offset="0.6119" stop-color="#E0887C" stop-opacity="0.7543"/>
<stop offset="0.7688" stop-color="#D27EA1" stop-opacity="0.6913"/>
<stop offset="0.9244" stop-color="#C172CE" stop-opacity="0.6288"/>
<stop offset="0.9962" stop-color="#B86CE5" stop-opacity="0.6"/>
</linearGradient>
<linearGradient id="paint3_linear" x1="13.152" y1="201.655" x2="59.0978" y2="201.249" gradientUnits="userSpaceOnUse">
<stop stop-color="#F9993A"/>
<stop offset="0.1488" stop-color="#F7983E" stop-opacity="0.9403"/>
<stop offset="0.3015" stop-color="#F3954A" stop-opacity="0.8789"/>
<stop offset="0.456" stop-color="#EB8F5F" stop-opacity="0.8169"/>
<stop offset="0.6119" stop-color="#E0887C" stop-opacity="0.7543"/>
<stop offset="0.7688" stop-color="#D27EA1" stop-opacity="0.6913"/>
<stop offset="0.9244" stop-color="#C172CE" stop-opacity="0.6288"/>
<stop offset="0.9962" stop-color="#B86CE5" stop-opacity="0.6"/>
</linearGradient>
<linearGradient id="paint4_linear" x1="38.8067" y1="209.16" x2="36.3393" y2="114.944" gradientUnits="userSpaceOnUse">
<stop stop-color="#FF2911" stop-opacity="0.64"/>
<stop offset="0.8351" stop-color="#FF2911" stop-opacity="0"/>
</linearGradient>
<linearGradient id="paint5_linear" x1="15.389" y1="160.902" x2="16.5734" y2="169.143" gradientUnits="userSpaceOnUse">
<stop stop-color="#FF2911" stop-opacity="0.64"/>
<stop offset="0.8351" stop-color="#FF2911" stop-opacity="0"/>
</linearGradient>
<linearGradient id="paint6_linear" x1="199.745" y1="158.727" x2="331.839" y2="160.982" gradientUnits="userSpaceOnUse">
<stop stop-color="#F9993A"/>
<stop offset="0.1488" stop-color="#F7983E" stop-opacity="0.9403"/>
<stop offset="0.3015" stop-color="#F3954A" stop-opacity="0.8789"/>
<stop offset="0.456" stop-color="#EB8F5F" stop-opacity="0.8169"/>
<stop offset="0.6119" stop-color="#E0887C" stop-opacity="0.7543"/>
<stop offset="0.7688" stop-color="#D27EA1" stop-opacity="0.6913"/>
<stop offset="0.9244" stop-color="#C172CE" stop-opacity="0.6288"/>
<stop offset="0.9962" stop-color="#B86CE5" stop-opacity="0.6"/>
</linearGradient>
<linearGradient id="paint7_linear" x1="198.074" y1="159.169" x2="288.495" y2="159.169" gradientUnits="userSpaceOnUse">
<stop stop-color="#F9993A"/>
<stop offset="0.1488" stop-color="#F7983E" stop-opacity="0.9403"/>
<stop offset="0.3015" stop-color="#F3954A" stop-opacity="0.8789"/>
<stop offset="0.456" stop-color="#EB8F5F" stop-opacity="0.8169"/>
<stop offset="0.6119" stop-color="#E0887C" stop-opacity="0.7543"/>
<stop offset="0.7688" stop-color="#D27EA1" stop-opacity="0.6913"/>
<stop offset="0.9244" stop-color="#C172CE" stop-opacity="0.6288"/>
<stop offset="0.9962" stop-color="#B86CE5" stop-opacity="0.6"/>
</linearGradient>
<linearGradient id="paint8_linear" x1="202.661" y1="150.311" x2="283.739" y2="149.596" gradientUnits="userSpaceOnUse">
<stop stop-color="#FF2911" stop-opacity="0.64"/>
<stop offset="0.8351" stop-color="#FF2911" stop-opacity="0"/>
</linearGradient>
<linearGradient id="paint9_linear" x1="193.844" y1="123.688" x2="284.973" y2="122.884" gradientUnits="userSpaceOnUse">
<stop stop-color="#F9993A"/>
<stop offset="0.1165" stop-color="#F69741"/>
<stop offset="0.282" stop-color="#EF9253"/>
<stop offset="0.4767" stop-color="#E48A72"/>
<stop offset="0.6937" stop-color="#D47F9C"/>
<stop offset="0.9264" stop-color="#BF71D2"/>
<stop offset="1" stop-color="#B86CE5"/>
</linearGradient>
<linearGradient id="paint10_linear" x1="207.122" y1="49.1996" x2="275.593" y2="49.1996" gradientUnits="userSpaceOnUse">
<stop stop-color="#32324C"/>
<stop offset="0.6231" stop-color="#19192C"/>
<stop offset="0.9861" stop-color="#0F0F1E"/>
</linearGradient>
<linearGradient id="paint11_linear" x1="214.803" y1="52.9308" x2="283.634" y2="52.3231" gradientUnits="userSpaceOnUse">
<stop stop-color="#FF2911"/>
<stop offset="0.3993" stop-color="#F51C1F"/>
<stop offset="1" stop-color="#E80C31"/>
</linearGradient>
<linearGradient id="paint12_linear" x1="219.366" y1="52.6242" x2="279.056" y2="52.6242" gradientUnits="userSpaceOnUse">
<stop stop-color="#32324C"/>
<stop offset="0.6231" stop-color="#19192C"/>
<stop offset="0.9861" stop-color="#0F0F1E"/>
</linearGradient>
<linearGradient id="paint13_linear" x1="259.884" y1="110.445" x2="261.869" y2="110.445" gradientUnits="userSpaceOnUse">
<stop stop-color="#FF2911"/>
<stop offset="0.3846" stop-color="#FC5923"/>
<stop offset="0.794" stop-color="#FA8734"/>
<stop offset="1" stop-color="#F9993A"/>
</linearGradient>
<linearGradient id="paint14_linear" x1="213.752" y1="122.109" x2="221.778" y2="108.618" gradientUnits="userSpaceOnUse">
<stop stop-color="#FF2911"/>
<stop offset="0.3846" stop-color="#FC5923"/>
<stop offset="0.794" stop-color="#FA8734"/>
<stop offset="1" stop-color="#F9993A"/>
</linearGradient>
<linearGradient id="paint15_linear" x1="211.412" y1="89.0395" x2="215.519" y2="89.0395" gradientUnits="userSpaceOnUse">
<stop stop-color="#FF2911"/>
<stop offset="0.3846" stop-color="#FC5923"/>
<stop offset="0.794" stop-color="#FA8734"/>
<stop offset="1" stop-color="#F9993A"/>
</linearGradient>
<linearGradient id="paint16_linear" x1="218.947" y1="107.962" x2="225.485" y2="96.9712" gradientUnits="userSpaceOnUse">
<stop stop-color="#F9993A"/>
<stop offset="0.9861" stop-color="#F9993A" stop-opacity="0"/>
</linearGradient>
<linearGradient id="paint17_linear" x1="224.839" y1="128.42" x2="228.367" y2="122.489" gradientUnits="userSpaceOnUse">
<stop stop-color="#FF2911"/>
<stop offset="0.3846" stop-color="#FC5923"/>
<stop offset="0.794" stop-color="#FA8734"/>
<stop offset="1" stop-color="#F9993A"/>
</linearGradient>
<linearGradient id="paint18_linear" x1="224.769" y1="120.503" x2="228.297" y2="114.573" gradientUnits="userSpaceOnUse">
<stop stop-color="#FF2911"/>
<stop offset="0.3846" stop-color="#FC5923"/>
<stop offset="0.794" stop-color="#FA8734"/>
<stop offset="1" stop-color="#F9993A"/>
</linearGradient>
<linearGradient id="paint19_linear" x1="224.699" y1="112.587" x2="228.227" y2="106.657" gradientUnits="userSpaceOnUse">
<stop stop-color="#FF2911"/>
<stop offset="0.3846" stop-color="#FC5923"/>
<stop offset="0.794" stop-color="#FA8734"/>
<stop offset="1" stop-color="#F9993A"/>
</linearGradient>
<linearGradient id="paint20_linear" x1="211.378" y1="134.553" x2="216.185" y2="126.472" gradientUnits="userSpaceOnUse">
<stop stop-color="#FF2911"/>
<stop offset="0.3846" stop-color="#FC5923"/>
<stop offset="0.794" stop-color="#FA8734"/>
<stop offset="1" stop-color="#F9993A"/>
</linearGradient>
<linearGradient id="paint21_linear" x1="219" y1="114.039" x2="220.629" y2="111.301" gradientUnits="userSpaceOnUse">
<stop stop-color="#F9993A"/>
<stop offset="0.9861" stop-color="#F9993A" stop-opacity="0"/>
</linearGradient>
<linearGradient id="paint22_linear" x1="219.032" y1="117.683" x2="220.661" y2="114.945" gradientUnits="userSpaceOnUse">
<stop stop-color="#F9993A"/>
<stop offset="0.9861" stop-color="#F9993A" stop-opacity="0"/>
</linearGradient>
<linearGradient id="paint23_linear" x1="261.356" y1="100.938" x2="286.502" y2="100.938" gradientUnits="userSpaceOnUse">
<stop stop-color="#32324C"/>
<stop offset="0.4857" stop-color="#24243B"/>
<stop offset="0.9861" stop-color="#19192D"/>
</linearGradient>
<linearGradient id="paint24_linear" x1="258.532" y1="102.236" x2="283.677" y2="102.236" gradientUnits="userSpaceOnUse">
<stop stop-color="#FF2911"/>
<stop offset="0.3846" stop-color="#FC5923"/>
<stop offset="0.794" stop-color="#FA8734"/>
<stop offset="1" stop-color="#F9993A"/>
</linearGradient>
<radialGradient id="paint25_radial" cx="0" cy="0" r="1" gradientUnits="userSpaceOnUse" gradientTransform="translate(280.702 92.3582) rotate(171.029) scale(21.2393 29.0024)">
<stop stop-color="#3500BE"/>
<stop offset="0.2718" stop-color="#3200B8"/>
<stop offset="0.6363" stop-color="#2A00A7"/>
<stop offset="1" stop-color="#1F008F"/>
</radialGradient>
<linearGradient id="paint26_linear" x1="260.144" y1="102.236" x2="282.065" y2="102.236" gradientUnits="userSpaceOnUse">
<stop stop-color="#32324C"/>
<stop offset="0.4857" stop-color="#24243B"/>
<stop offset="0.9861" stop-color="#19192D"/>
</linearGradient>
<linearGradient id="paint27_linear" x1="273.028" y1="117.249" x2="264.968" y2="104.229" gradientUnits="userSpaceOnUse">
<stop stop-color="#F9993A"/>
<stop offset="0.9861" stop-color="#F9993A" stop-opacity="0"/>
</linearGradient>
<linearGradient id="paint28_linear" x1="284.454" y1="102.529" x2="282.778" y2="99.8208" gradientUnits="userSpaceOnUse">
<stop stop-color="#F9993A"/>
<stop offset="0.9861" stop-color="#F9993A" stop-opacity="0"/>
</linearGradient>
<linearGradient id="paint29_linear" x1="278.797" y1="156.695" x2="271.922" y2="145.59" gradientUnits="userSpaceOnUse">
<stop stop-color="#FF2911"/>
<stop offset="0.3846" stop-color="#FC5923"/>
<stop offset="0.794" stop-color="#FA8734"/>
<stop offset="1" stop-color="#F9993A"/>
</linearGradient>
<linearGradient id="paint30_linear" x1="278.681" y1="143.599" x2="246.35" y2="91.3722" gradientUnits="userSpaceOnUse">
<stop stop-color="#FF2911"/>
<stop offset="0.3846" stop-color="#FC5923"/>
<stop offset="0.794" stop-color="#FA8734"/>
<stop offset="1" stop-color="#F9993A"/>
</linearGradient>
<linearGradient id="paint31_linear" x1="264.858" y1="168.368" x2="258.151" y2="157.535" gradientUnits="userSpaceOnUse">
<stop stop-color="#FFB9FF"/>
<stop offset="0.1034" stop-color="#E4A5F2" stop-opacity="0.8951"/>
<stop offset="0.4242" stop-color="#9569CC" stop-opacity="0.5699"/>
<stop offset="0.6883" stop-color="#5A3DB0" stop-opacity="0.302"/>
<stop offset="0.8826" stop-color="#37229F" stop-opacity="0.105"/>
<stop offset="0.9861" stop-color="#291898" stop-opacity="0"/>
</linearGradient>
<linearGradient id="paint32_linear" x1="274.267" y1="145.001" x2="268.666" y2="135.953" gradientUnits="userSpaceOnUse">
<stop stop-color="#F9993A"/>
<stop offset="0.9861" stop-color="#F9993A" stop-opacity="0"/>
</linearGradient>
<linearGradient id="paint33_linear" x1="269.665" y1="162.107" x2="266.643" y2="157.225" gradientUnits="userSpaceOnUse">
<stop stop-color="#9000D9"/>
<stop offset="0.00843201" stop-color="#9001D9" stop-opacity="0.9914"/>
<stop offset="0.4662" stop-color="#A63BE0" stop-opacity="0.5272"/>
<stop offset="0.8053" stop-color="#B35EE3" stop-opacity="0.1834"/>
<stop offset="0.9861" stop-color="#B86CE5" stop-opacity="0"/>
</linearGradient>
<linearGradient id="paint34_linear" x1="269.607" y1="155.52" x2="266.585" y2="150.638" gradientUnits="userSpaceOnUse">
<stop stop-color="#9000D9"/>
<stop offset="0.00843201" stop-color="#9001D9" stop-opacity="0.9914"/>
<stop offset="0.4662" stop-color="#A63BE0" stop-opacity="0.5272"/>
<stop offset="0.8053" stop-color="#B35EE3" stop-opacity="0.1834"/>
<stop offset="0.9861" stop-color="#B86CE5" stop-opacity="0"/>
</linearGradient>
<linearGradient id="paint35_linear" x1="269.549" y1="148.933" x2="266.527" y2="144.051" gradientUnits="userSpaceOnUse">
<stop stop-color="#9000D9"/>
<stop offset="0.00843201" stop-color="#9001D9" stop-opacity="0.9914"/>
<stop offset="0.4662" stop-color="#A63BE0" stop-opacity="0.5272"/>
<stop offset="0.8053" stop-color="#B35EE3" stop-opacity="0.1834"/>
<stop offset="0.9861" stop-color="#B86CE5" stop-opacity="0"/>
</linearGradient>
<linearGradient id="paint36_linear" x1="269.497" y1="143.088" x2="246.966" y2="106.691" gradientUnits="userSpaceOnUse">
<stop stop-color="#FF2911"/>
<stop offset="0.3846" stop-color="#FC5923"/>
<stop offset="0.794" stop-color="#FA8734"/>
<stop offset="1" stop-color="#F9993A"/>
</linearGradient>
<linearGradient id="paint37_linear" x1="274.312" y1="150.058" x2="272.917" y2="147.805" gradientUnits="userSpaceOnUse">
<stop stop-color="#F9993A"/>
<stop offset="0.9861" stop-color="#F9993A" stop-opacity="0"/>
</linearGradient>
<linearGradient id="paint38_linear" x1="274.339" y1="153.089" x2="272.943" y2="150.835" gradientUnits="userSpaceOnUse">
<stop stop-color="#F9993A"/>
<stop offset="0.9861" stop-color="#F9993A" stop-opacity="0"/>
</linearGradient>
<linearGradient id="paint39_linear" x1="274.365" y1="156.12" x2="272.97" y2="153.867" gradientUnits="userSpaceOnUse">
<stop stop-color="#F9993A"/>
<stop offset="0.9861" stop-color="#F9993A" stop-opacity="0"/>
</linearGradient>
<linearGradient id="paint40_linear" x1="269.873" y1="102.531" x2="264.271" y2="93.4828" gradientUnits="userSpaceOnUse">
<stop stop-color="#9000D9"/>
<stop offset="0.00843201" stop-color="#9001D9" stop-opacity="0.9914"/>
<stop offset="0.4662" stop-color="#A63BE0" stop-opacity="0.5272"/>
<stop offset="0.8053" stop-color="#B35EE3" stop-opacity="0.1834"/>
<stop offset="0.9861" stop-color="#B86CE5" stop-opacity="0"/>
</linearGradient>
<linearGradient id="paint41_linear" x1="269.917" y1="107.588" x2="268.522" y2="105.335" gradientUnits="userSpaceOnUse">
<stop stop-color="#F9993A"/>
<stop offset="0.9861" stop-color="#F9993A" stop-opacity="0"/>
</linearGradient>
<linearGradient id="paint42_linear" x1="269.944" y1="110.618" x2="268.549" y2="108.365" gradientUnits="userSpaceOnUse">
<stop stop-color="#F9993A"/>
<stop offset="0.9861" stop-color="#F9993A" stop-opacity="0"/>
</linearGradient>
<linearGradient id="paint43_linear" x1="269.971" y1="113.65" x2="268.575" y2="111.396" gradientUnits="userSpaceOnUse">
<stop stop-color="#F9993A"/>
<stop offset="0.9861" stop-color="#F9993A" stop-opacity="0"/>
</linearGradient>
<linearGradient id="paint44_linear" x1="258.835" y1="88.6157" x2="253.234" y2="79.5676" gradientUnits="userSpaceOnUse">
<stop stop-color="#FF2911"/>
<stop offset="0.3846" stop-color="#FC5923"/>
<stop offset="0.794" stop-color="#FA8734"/>
<stop offset="1" stop-color="#F9993A"/>
</linearGradient>
<linearGradient id="paint45_linear" x1="258.879" y1="93.6724" x2="257.484" y2="91.4186" gradientUnits="userSpaceOnUse">
<stop stop-color="#F9993A"/>
<stop offset="0.9861" stop-color="#F9993A" stop-opacity="0"/>
</linearGradient>
<linearGradient id="paint46_linear" x1="258.906" y1="96.7034" x2="257.511" y2="94.4496" gradientUnits="userSpaceOnUse">
<stop stop-color="#FF2911"/>
<stop offset="0.3846" stop-color="#FC5923"/>
<stop offset="0.794" stop-color="#FA8734"/>
<stop offset="1" stop-color="#F9993A"/>
</linearGradient>
<linearGradient id="paint47_linear" x1="258.933" y1="99.7334" x2="257.537" y2="97.4797" gradientUnits="userSpaceOnUse">
<stop stop-color="#FF2911"/>
<stop offset="0.3846" stop-color="#FC5923"/>
<stop offset="0.794" stop-color="#FA8734"/>
<stop offset="1" stop-color="#F9993A"/>
</linearGradient>
<linearGradient id="paint48_linear" x1="256.413" y1="112.837" x2="252.792" y2="106.988" gradientUnits="userSpaceOnUse">
<stop stop-color="#FF2911"/>
<stop offset="0.3846" stop-color="#FC5923"/>
<stop offset="0.794" stop-color="#FA8734"/>
<stop offset="1" stop-color="#F9993A"/>
</linearGradient>
<linearGradient id="paint49_linear" x1="256.442" y1="116.106" x2="255.54" y2="114.649" gradientUnits="userSpaceOnUse">
<stop stop-color="#F9993A"/>
<stop offset="0.9861" stop-color="#F9993A" stop-opacity="0"/>
</linearGradient>
<linearGradient id="paint50_linear" x1="256.459" y1="118.065" x2="255.557" y2="116.608" gradientUnits="userSpaceOnUse">
<stop stop-color="#F9993A"/>
<stop offset="0.9861" stop-color="#F9993A" stop-opacity="0"/>
</linearGradient>
<linearGradient id="paint51_linear" x1="256.476" y1="120.024" x2="255.575" y2="118.567" gradientUnits="userSpaceOnUse">
<stop stop-color="#FF2911"/>
<stop offset="0.3846" stop-color="#FC5923"/>
<stop offset="0.794" stop-color="#FA8734"/>
<stop offset="1" stop-color="#F9993A"/>
</linearGradient>
<linearGradient id="paint52_linear" x1="256.546" y1="127.867" x2="252.925" y2="122.018" gradientUnits="userSpaceOnUse">
<stop stop-color="#FF2911"/>
<stop offset="0.3846" stop-color="#FC5923"/>
<stop offset="0.794" stop-color="#FA8734"/>
<stop offset="1" stop-color="#F9993A"/>
</linearGradient>
<linearGradient id="paint53_linear" x1="256.575" y1="131.137" x2="255.673" y2="129.68" gradientUnits="userSpaceOnUse">
<stop stop-color="#F9993A"/>
<stop offset="0.9861" stop-color="#F9993A" stop-opacity="0"/>
</linearGradient>
<linearGradient id="paint54_linear" x1="256.592" y1="133.096" x2="255.69" y2="131.639" gradientUnits="userSpaceOnUse">
<stop stop-color="#FF2911"/>
<stop offset="0.3846" stop-color="#FC5923"/>
<stop offset="0.794" stop-color="#FA8734"/>
<stop offset="1" stop-color="#F9993A"/>
</linearGradient>
<linearGradient id="paint55_linear" x1="256.61" y1="135.056" x2="255.708" y2="133.599" gradientUnits="userSpaceOnUse">
<stop stop-color="#FF2911"/>
<stop offset="0.3846" stop-color="#FC5923"/>
<stop offset="0.794" stop-color="#FA8734"/>
<stop offset="1" stop-color="#F9993A"/>
</linearGradient>
<linearGradient id="paint56_linear" x1="256.679" y1="142.9" x2="253.058" y2="137.051" gradientUnits="userSpaceOnUse">
<stop stop-color="#FF2911"/>
<stop offset="0.3846" stop-color="#FC5923"/>
<stop offset="0.794" stop-color="#FA8734"/>
<stop offset="1" stop-color="#F9993A"/>
</linearGradient>
<linearGradient id="paint57_linear" x1="256.708" y1="146.169" x2="255.806" y2="144.712" gradientUnits="userSpaceOnUse">
<stop stop-color="#F9993A"/>
<stop offset="0.9861" stop-color="#F9993A" stop-opacity="0"/>
</linearGradient>
<linearGradient id="paint58_linear" x1="256.725" y1="148.127" x2="255.823" y2="146.67" gradientUnits="userSpaceOnUse">
<stop stop-color="#FF2911"/>
<stop offset="0.3846" stop-color="#FC5923"/>
<stop offset="0.794" stop-color="#FA8734"/>
<stop offset="1" stop-color="#F9993A"/>
</linearGradient>
<linearGradient id="paint59_linear" x1="256.742" y1="150.087" x2="255.84" y2="148.63" gradientUnits="userSpaceOnUse">
<stop stop-color="#FF2911"/>
<stop offset="0.3846" stop-color="#FC5923"/>
<stop offset="0.794" stop-color="#FA8734"/>
<stop offset="1" stop-color="#F9993A"/>
</linearGradient>
<linearGradient id="paint60_linear" x1="241.61" y1="180.65" x2="240.313" y2="33.6076" gradientUnits="userSpaceOnUse">
<stop stop-color="#FF2911" stop-opacity="0.64"/>
<stop offset="0.8351" stop-color="#FF2911" stop-opacity="0"/>
</linearGradient>
<linearGradient id="paint61_linear" x1="216.827" y1="116.569" x2="217.447" y2="116.564" gradientUnits="userSpaceOnUse">
<stop stop-color="#F9993A"/>
<stop offset="0.9861" stop-color="#F9993A" stop-opacity="0"/>
</linearGradient>
<linearGradient id="paint62_linear" x1="264.079" y1="118.289" x2="264.699" y2="118.284" gradientUnits="userSpaceOnUse">
<stop stop-color="#9000D9"/>
<stop offset="0.00843201" stop-color="#9001D9" stop-opacity="0.9914"/>
<stop offset="0.4662" stop-color="#A63BE0" stop-opacity="0.5272"/>
<stop offset="0.8053" stop-color="#B35EE3" stop-opacity="0.1834"/>
<stop offset="0.9861" stop-color="#B86CE5" stop-opacity="0"/>
</linearGradient>
<linearGradient id="paint63_linear" x1="272.9" y1="88.8506" x2="273.521" y2="88.8451" gradientUnits="userSpaceOnUse">
<stop stop-color="#FF2911"/>
<stop offset="0.3846" stop-color="#FC5923"/>
<stop offset="0.794" stop-color="#FA8734"/>
<stop offset="1" stop-color="#F9993A"/>
</linearGradient>
<linearGradient id="paint64_linear" x1="92.1933" y1="158.309" x2="163.58" y2="157.679" gradientUnits="userSpaceOnUse">
<stop stop-color="#F9993A"/>
<stop offset="0.1488" stop-color="#F7983E" stop-opacity="0.9403"/>
<stop offset="0.3015" stop-color="#F3954A" stop-opacity="0.8789"/>
<stop offset="0.456" stop-color="#EB8F5F" stop-opacity="0.8169"/>
<stop offset="0.6119" stop-color="#E0887C" stop-opacity="0.7543"/>
<stop offset="0.7688" stop-color="#D27EA1" stop-opacity="0.6913"/>
<stop offset="0.9244" stop-color="#C172CE" stop-opacity="0.6288"/>
<stop offset="0.9962" stop-color="#B86CE5" stop-opacity="0.6"/>
</linearGradient>
<linearGradient id="paint65_linear" x1="96.8" y1="158.268" x2="158.972" y2="157.719" gradientUnits="userSpaceOnUse">
<stop stop-color="#F9993A"/>
<stop offset="0.1488" stop-color="#F7983E" stop-opacity="0.9403"/>
<stop offset="0.3015" stop-color="#F3954A" stop-opacity="0.8789"/>
<stop offset="0.456" stop-color="#EB8F5F" stop-opacity="0.8169"/>
<stop offset="0.6119" stop-color="#E0887C" stop-opacity="0.7543"/>
<stop offset="0.7688" stop-color="#D27EA1" stop-opacity="0.6913"/>
<stop offset="0.9244" stop-color="#C172CE" stop-opacity="0.6288"/>
<stop offset="0.9962" stop-color="#B86CE5" stop-opacity="0.6"/>
</linearGradient>
<linearGradient id="paint66_linear" x1="94.7567" y1="136.691" x2="160.722" y2="136.109" gradientUnits="userSpaceOnUse">
<stop stop-color="#F9993A"/>
<stop offset="0.1165" stop-color="#F69741"/>
<stop offset="0.282" stop-color="#EF9253"/>
<stop offset="0.4767" stop-color="#E48A72"/>
<stop offset="0.6937" stop-color="#D47F9C"/>
<stop offset="0.9264" stop-color="#BF71D2"/>
<stop offset="1" stop-color="#B86CE5"/>
</linearGradient>
<linearGradient id="paint67_linear" x1="94.7567" y1="136.691" x2="160.722" y2="136.109" gradientUnits="userSpaceOnUse">
<stop stop-color="#FF2911"/>
<stop offset="0.3993" stop-color="#F51C1F"/>
<stop offset="1" stop-color="#E80C31"/>
</linearGradient>
<linearGradient id="paint68_linear" x1="131.515" y1="168.319" x2="128.176" y2="40.8301" gradientUnits="userSpaceOnUse">
<stop stop-color="#FF2911" stop-opacity="0.64"/>
<stop offset="0.8351" stop-color="#FF2911" stop-opacity="0"/>
</linearGradient>
<linearGradient id="paint69_linear" x1="104.03" y1="66.6334" x2="148.09" y2="66.6334" gradientUnits="userSpaceOnUse">
<stop stop-color="#32324C"/>
<stop offset="0.6231" stop-color="#19192C"/>
<stop offset="0.9861" stop-color="#0F0F1E"/>
</linearGradient>
<linearGradient id="paint70_linear" x1="108.97" y1="69.0353" x2="153.262" y2="68.6442" gradientUnits="userSpaceOnUse">
<stop stop-color="#FF0DFF"/>
<stop offset="0.5289" stop-color="#F4FFFF"/>
<stop offset="0.6031" stop-color="#F5FAFF"/>
<stop offset="0.6971" stop-color="#F6EAFF"/>
<stop offset="0.8019" stop-color="#F8D0FF"/>
<stop offset="0.9136" stop-color="#FCACFF"/>
<stop offset="1" stop-color="#FF8BFF"/>
</linearGradient>
<linearGradient id="paint71_linear" x1="108.976" y1="69.2633" x2="153.268" y2="68.8723" gradientUnits="userSpaceOnUse">
<stop stop-color="#FF2911"/>
<stop offset="0.3993" stop-color="#F51C1F"/>
<stop offset="1" stop-color="#E80C31"/>
</linearGradient>
<linearGradient id="paint72_linear" x1="111.908" y1="68.8373" x2="150.318" y2="68.8373" gradientUnits="userSpaceOnUse">
<stop stop-color="#32324C"/>
<stop offset="0.6231" stop-color="#19192C"/>
<stop offset="0.9861" stop-color="#0F0F1E"/>
</linearGradient>
<linearGradient id="paint73_linear" x1="424.716" y1="200.647" x2="477.471" y2="200.182" gradientUnits="userSpaceOnUse">
<stop stop-color="#F9993A"/>
<stop offset="0.1488" stop-color="#F7983E" stop-opacity="0.9403"/>
<stop offset="0.3015" stop-color="#F3954A" stop-opacity="0.8789"/>
<stop offset="0.456" stop-color="#EB8F5F" stop-opacity="0.8169"/>
<stop offset="0.6119" stop-color="#E0887C" stop-opacity="0.7543"/>
<stop offset="0.7688" stop-color="#D27EA1" stop-opacity="0.6913"/>
<stop offset="0.9244" stop-color="#C172CE" stop-opacity="0.6288"/>
<stop offset="0.9962" stop-color="#B86CE5" stop-opacity="0.6"/>
</linearGradient>
<linearGradient id="paint74_linear" x1="428.121" y1="200.617" x2="474.067" y2="200.211" gradientUnits="userSpaceOnUse">
<stop stop-color="#F9993A"/>
<stop offset="0.1488" stop-color="#F7983E" stop-opacity="0.9403"/>
<stop offset="0.3015" stop-color="#F3954A" stop-opacity="0.8789"/>
<stop offset="0.456" stop-color="#EB8F5F" stop-opacity="0.8169"/>
<stop offset="0.6119" stop-color="#E0887C" stop-opacity="0.7543"/>
<stop offset="0.7688" stop-color="#D27EA1" stop-opacity="0.6913"/>
<stop offset="0.9244" stop-color="#C172CE" stop-opacity="0.6288"/>
<stop offset="0.9962" stop-color="#B86CE5" stop-opacity="0.6"/>
</linearGradient>
<linearGradient id="paint75_linear" x1="453.775" y1="208.123" x2="451.308" y2="113.907" gradientUnits="userSpaceOnUse">
<stop stop-color="#FF2911" stop-opacity="0.64"/>
<stop offset="0.8351" stop-color="#FF2911" stop-opacity="0"/>
</linearGradient>
<linearGradient id="paint76_linear" x1="430.358" y1="159.864" x2="431.542" y2="168.106" gradientUnits="userSpaceOnUse">
<stop stop-color="#FF2911" stop-opacity="0.64"/>
<stop offset="0.8351" stop-color="#FF2911" stop-opacity="0"/>
</linearGradient>
<linearGradient id="paint77_linear" x1="324.763" y1="160.943" x2="396.15" y2="160.313" gradientUnits="userSpaceOnUse">
<stop stop-color="#F9993A"/>
<stop offset="0.1488" stop-color="#F7983E" stop-opacity="0.9403"/>
<stop offset="0.3015" stop-color="#F3954A" stop-opacity="0.8789"/>
<stop offset="0.456" stop-color="#EB8F5F" stop-opacity="0.8169"/>
<stop offset="0.6119" stop-color="#E0887C" stop-opacity="0.7543"/>
<stop offset="0.7688" stop-color="#D27EA1" stop-opacity="0.6913"/>
<stop offset="0.9244" stop-color="#C172CE" stop-opacity="0.6288"/>
<stop offset="0.9962" stop-color="#B86CE5" stop-opacity="0.6"/>
</linearGradient>
<linearGradient id="paint78_linear" x1="329.37" y1="160.903" x2="391.542" y2="160.354" gradientUnits="userSpaceOnUse">
<stop stop-color="#F9993A"/>
<stop offset="0.1488" stop-color="#F7983E" stop-opacity="0.9403"/>
<stop offset="0.3015" stop-color="#F3954A" stop-opacity="0.8789"/>
<stop offset="0.456" stop-color="#EB8F5F" stop-opacity="0.8169"/>
<stop offset="0.6119" stop-color="#E0887C" stop-opacity="0.7543"/>
<stop offset="0.7688" stop-color="#D27EA1" stop-opacity="0.6913"/>
<stop offset="0.9244" stop-color="#C172CE" stop-opacity="0.6288"/>
<stop offset="0.9962" stop-color="#B86CE5" stop-opacity="0.6"/>
</linearGradient>
<linearGradient id="paint79_linear" x1="327.327" y1="139.325" x2="393.292" y2="138.742" gradientUnits="userSpaceOnUse">
<stop stop-color="#F9993A"/>
<stop offset="0.1165" stop-color="#F69741"/>
<stop offset="0.282" stop-color="#EF9253"/>
<stop offset="0.4767" stop-color="#E48A72"/>
<stop offset="0.6937" stop-color="#D47F9C"/>
<stop offset="0.9264" stop-color="#BF71D2"/>
<stop offset="1" stop-color="#B86CE5"/>
</linearGradient>
<linearGradient id="paint80_linear" x1="327.327" y1="139.325" x2="393.292" y2="138.742" gradientUnits="userSpaceOnUse">
<stop stop-color="#FF2911"/>
<stop offset="0.3993" stop-color="#F51C1F"/>
<stop offset="1" stop-color="#E80C31"/>
</linearGradient>
<linearGradient id="paint81_linear" x1="364.085" y1="170.953" x2="360.746" y2="43.464" gradientUnits="userSpaceOnUse">
<stop stop-color="#FF2911" stop-opacity="0.64"/>
<stop offset="0.8351" stop-color="#FF2911" stop-opacity="0"/>
</linearGradient>
<linearGradient id="paint82_linear" x1="336.59" y1="69.2666" x2="380.651" y2="69.2666" gradientUnits="userSpaceOnUse">
<stop stop-color="#32324C"/>
<stop offset="0.6231" stop-color="#19192C"/>
<stop offset="0.9861" stop-color="#0F0F1E"/>
</linearGradient>
<linearGradient id="paint83_linear" x1="341.54" y1="71.6697" x2="385.832" y2="71.2787" gradientUnits="userSpaceOnUse">
<stop stop-color="#FF0DFF"/>
<stop offset="0.5289" stop-color="#F4FFFF"/>
<stop offset="0.6031" stop-color="#F5FAFF"/>
<stop offset="0.6971" stop-color="#F6EAFF"/>
<stop offset="0.8019" stop-color="#F8D0FF"/>
<stop offset="0.9136" stop-color="#FCACFF"/>
<stop offset="1" stop-color="#FF8BFF"/>
</linearGradient>
<linearGradient id="paint84_linear" x1="341.537" y1="71.8975" x2="385.829" y2="71.5065" gradientUnits="userSpaceOnUse">
<stop stop-color="#FF2911"/>
<stop offset="0.3993" stop-color="#F51C1F"/>
<stop offset="1" stop-color="#E80C31"/>
</linearGradient>
<linearGradient id="paint85_linear" x1="344.469" y1="71.4715" x2="382.878" y2="71.4715" gradientUnits="userSpaceOnUse">
<stop stop-color="#32324C"/>
<stop offset="0.6231" stop-color="#19192C"/>
<stop offset="0.9861" stop-color="#0F0F1E"/>
</linearGradient>
<linearGradient id="paint86_linear" x1="335.116" y1="24.3113" x2="332.747" y2="7.82814" gradientUnits="userSpaceOnUse">
<stop stop-color="#FF2911" stop-opacity="0.64"/>
<stop offset="0.8351" stop-color="#FF2911" stop-opacity="0"/>
</linearGradient>
<linearGradient id="paint87_linear" x1="182.313" y1="24.2965" x2="181.129" y2="16.0549" gradientUnits="userSpaceOnUse">
<stop stop-color="#FF2911" stop-opacity="0.64"/>
<stop offset="0.8351" stop-color="#FF2911" stop-opacity="0"/>
</linearGradient>
<linearGradient id="paint88_linear" x1="172.627" y1="133.382" x2="169.589" y2="112.213" gradientUnits="userSpaceOnUse">
<stop stop-color="#FF2911" stop-opacity="0.64"/>
<stop offset="0.8351" stop-color="#FF2911" stop-opacity="0"/>
</linearGradient>
<linearGradient id="paint89_linear" x1="240.433" y1="248.524" x2="236.879" y2="223.8" gradientUnits="userSpaceOnUse">
<stop stop-color="#FF2911" stop-opacity="0.64"/>
<stop offset="0.8351" stop-color="#FF2911" stop-opacity="0"/>
</linearGradient>
<linearGradient id="paint90_linear" x1="203.107" y1="246.097" x2="199.554" y2="221.372" gradientUnits="userSpaceOnUse">
<stop stop-color="#FF2911" stop-opacity="0.64"/>
<stop offset="0.8351" stop-color="#FF2911" stop-opacity="0"/>
</linearGradient>
<linearGradient id="paint91_linear" x1="306.158" y1="229.91" x2="302.605" y2="205.185" gradientUnits="userSpaceOnUse">
<stop stop-color="#FF2911" stop-opacity="0.64"/>
<stop offset="0.8351" stop-color="#FF2911" stop-opacity="0"/>
</linearGradient>
<linearGradient id="paint92_linear" x1="182.754" y1="117.867" x2="176.57" y2="98.7928" gradientUnits="userSpaceOnUse">
<stop stop-color="#FF9E93"/>
<stop offset="1" stop-color="#FF9E93" stop-opacity="0"/>
</linearGradient>
<linearGradient id="paint93_linear" x1="408.212" y1="48.7552" x2="414.237" y2="67.3171" gradientUnits="userSpaceOnUse">
<stop stop-color="#FF9E93"/>
<stop offset="1" stop-color="#FF9E93" stop-opacity="0"/>
</linearGradient>
<linearGradient id="paint94_linear" x1="91.4332" y1="42.0736" x2="90.2488" y2="50.3152" gradientUnits="userSpaceOnUse">
<stop stop-color="#FF2911" stop-opacity="0.64"/>
<stop offset="0.8351" stop-color="#FF2911" stop-opacity="0"/>
</linearGradient>
<linearGradient id="paint95_linear" x1="179.879" y1="42.1037" x2="178.694" y2="33.8621" gradientUnits="userSpaceOnUse">
<stop stop-color="#FF2911" stop-opacity="0.64"/>
<stop offset="0.8351" stop-color="#FF2911" stop-opacity="0"/>
</linearGradient>
<linearGradient id="paint96_linear" x1="175.871" y1="44.9555" x2="172.257" y2="56.0927" gradientUnits="userSpaceOnUse">
<stop stop-color="#FF9E93"/>
<stop offset="1" stop-color="#FF9E93" stop-opacity="0"/>
</linearGradient>
<linearGradient id="paint97_linear" x1="400.332" y1="138.808" x2="403.773" y2="114.843" gradientUnits="userSpaceOnUse">
<stop stop-color="#FF2911" stop-opacity="0.64"/>
<stop offset="0.8351" stop-color="#FF2911" stop-opacity="0"/>
</linearGradient>
<linearGradient id="paint98_linear" x1="333.932" y1="45.0096" x2="338.752" y2="30.1601" gradientUnits="userSpaceOnUse">
<stop stop-color="#FF9E93"/>
<stop offset="1" stop-color="#FF9E93" stop-opacity="0"/>
</linearGradient>
<linearGradient id="paint99_linear" x1="404.966" y1="151.971" x2="410.99" y2="133.409" gradientUnits="userSpaceOnUse">
<stop stop-color="#FF9E93"/>
<stop offset="1" stop-color="#FF9E93" stop-opacity="0"/>
</linearGradient>
<linearGradient id="paint100_linear" x1="104.279" y1="36.3979" x2="106.253" y2="50.1339" gradientUnits="userSpaceOnUse">
<stop stop-color="#FF2911" stop-opacity="0.64"/>
<stop offset="0.8351" stop-color="#FF2911" stop-opacity="0"/>
</linearGradient>
<clipPath id="clip0">
<rect width="499" height="273.879" fill="white"/>
</clipPath>
</defs>
</svg>
