<svg width="334" height="193" viewBox="0 0 334 193" fill="none" xmlns="http://www.w3.org/2000/svg">
<g clip-path="url(#clip0)">
<g opacity="0.3">
<g opacity="0.1">
<path opacity="0.1" d="M257.759 118.257C246.211 111.247 232.766 107.853 219.31 108.764C218.295 108.789 217.312 108.926 216.255 109.018C212.217 109.409 208.129 110.046 204.156 110.66C190.869 112.773 178.306 114.684 168.293 108.605C168.147 108.516 168.074 108.472 167.927 108.383C164.46 106.186 161.448 103.074 158.461 98.6018C155.929 94.8637 153.836 90.567 151.662 86.4043C149.975 83.0874 148.255 79.6591 146.299 76.4544C141.52 68.5094 134.358 62.5112 127.161 60.5263C121.856 59.0485 116.566 59.6887 111.778 62.4677C103.861 67.1067 98.6286 77.0439 96.285 91.9443C96.0727 93.2827 95.8604 94.6211 95.7211 96.0038C94.3405 105.528 92.9433 115.409 87.1035 123.052C85.6639 124.929 83.9319 126.629 82.0213 128.128C75.5904 133.119 66.846 135.331 58.7869 134.106C48.2255 132.555 39.2848 126.027 32.6997 120.562C-13.1366 82.3747 -35.9332 17.2739 -26.8293 -49.4614L-29.3233 -49.9667C-33.8912 -17.0672 -30.5943 16.3883 -19.9418 46.7895C-9.25693 77.302 8.43534 103.357 31.0814 122.24C37.9914 127.993 47.2975 134.743 58.5657 136.448C67.3723 137.759 76.7668 135.301 83.7017 129.974C85.7668 128.384 87.5801 126.551 89.1418 124.473C95.3801 116.338 96.8263 106.212 98.1827 96.3977C98.3951 95.0593 98.6073 93.721 98.7466 92.3382C100.984 78.107 105.818 68.6615 113.118 64.3811C117.288 61.9606 121.789 61.3005 126.533 62.7131C133.097 64.5885 139.682 70.0533 144.113 77.4197C145.963 80.4686 147.683 83.8969 149.37 87.2139C151.504 91.4436 153.67 95.7847 156.307 99.6784C159.432 104.418 162.842 107.863 166.602 110.238C177.589 117.183 191.331 114.979 204.69 112.91C208.664 112.296 212.678 111.615 216.603 111.247C217.586 111.11 218.602 111.084 219.544 111.015C237.372 109.824 254.99 116.393 267.931 129.017C279.363 140.175 286.517 155.248 287.902 171.586C289.392 188.08 285.755 204.947 282.289 221.366L282.101 222.17C278.831 237.608 275.463 253.537 275.873 269.009C276.977 301.133 295.594 329.95 322.512 340.972L323.367 338.739C297.407 328.116 279.424 300.234 278.603 269.29C278.144 254.064 281.544 238.246 284.733 222.942L284.921 222.139C288.428 205.652 292 188.563 290.526 171.712C289.053 154.861 281.663 139.187 269.728 127.541C266.099 123.962 262.071 120.875 257.759 118.257Z" fill="#2B2225"/>
</g>
<g opacity="0.2">
<path opacity="0.2" d="M257.149 119.262C245.527 112.207 231.823 108.748 217.993 109.615C216.978 109.64 215.994 109.777 214.979 109.802C211.168 110.148 207.349 110.673 203.643 111.174C190.219 113.021 177.51 114.842 167.407 108.251C163.94 106.054 161.042 102.919 158.128 98.4914C155.669 94.7977 153.535 90.568 151.467 86.5611C149.779 83.2442 147.986 79.7715 146.071 76.4998C141.324 68.6661 134.236 62.7123 127.079 60.6604C121.702 59.1382 116.566 59.6888 111.819 62.4008C103.869 66.9284 98.4581 76.6655 95.7814 91.4554C95.5285 92.8608 95.2755 94.2662 95.0225 95.6716C93.4633 104.996 91.8144 114.632 85.9421 122.164C84.5025 124.041 82.7705 125.74 80.7869 127.196C74.3236 132.075 65.5792 134.287 57.4469 133.018C46.8124 131.423 37.9125 124.828 31.3273 119.363C-13.8511 81.5743 -36.3884 17.3645 -27.3666 -48.4118L-29.8606 -48.9171C-34.2574 -16.464 -31.0902 16.546 -20.5674 46.5016C-10.0121 76.5686 7.35535 102.334 29.7498 120.973C36.5866 126.682 45.9251 133.543 57.1933 135.248C65.9592 136.627 75.3862 134.279 82.3942 128.997C84.4592 127.407 86.3457 125.618 87.9804 123.584C94.2105 115.628 95.9083 105.746 97.5572 96.1098C97.8102 94.7045 98.0632 93.2991 98.3161 91.8937C100.846 77.84 105.858 68.5946 113.304 64.4029C117.434 62.0495 121.968 61.5007 126.639 62.869C133.129 64.6999 139.601 70.1874 144.072 77.4868C145.954 80.6471 147.715 84.0084 149.402 87.3254C151.504 91.4437 153.71 95.7178 156.202 99.5228C159.326 104.262 162.663 107.663 166.309 110.06C177.289 117.184 191.054 115.27 204.364 113.446C208.07 112.944 211.889 112.42 215.586 112.097C216.529 112.027 217.585 111.935 218.528 111.865C236.388 110.786 253.941 117.132 266.753 129.311C278.274 140.156 285.437 155.05 287.016 171.232C288.629 187.525 285.292 204.391 282.094 220.698L282.037 221.122C278.994 236.515 275.886 252.51 276.483 268.004C277.04 283.564 281.757 298.533 289.994 311.328C298.304 324.167 309.615 333.876 322.7 339.344L323.555 337.111C297.612 326.131 280.156 299.028 278.961 268.041C278.315 252.793 281.488 237.02 284.491 221.694L284.548 221.27C287.827 204.829 291.172 187.785 289.535 171.202C287.875 154.33 280.436 138.901 268.444 127.678C264.872 124.501 261.096 121.658 257.149 119.262Z" fill="#322225"/>
</g>
<g opacity="0.25">
<path opacity="0.25" d="M256.246 120.09C244.625 113.035 230.993 109.62 216.644 110.355C215.628 110.38 214.686 110.45 213.629 110.542C210.16 110.82 206.495 111.255 203.058 111.644C189.569 113.268 176.835 114.8 166.741 108.03C163.387 105.811 160.416 102.631 157.576 98.2477C155.19 94.5985 153.089 90.4801 151.093 86.5176C149.373 83.0893 147.58 79.6166 145.625 76.4119C140.837 68.6452 133.821 62.7358 126.779 60.6612C121.442 59.072 116.306 59.6226 111.526 62.2232C103.43 66.6621 98.0036 75.9311 94.9125 90.7445C94.6189 92.2169 94.3659 93.6223 94.0722 95.0947C92.2937 104.286 90.4256 113.789 84.4885 121.098C82.9758 122.93 81.2438 124.63 79.3008 126.018C72.7644 130.854 64.0283 132.887 55.896 131.618C45.2291 129.911 36.3616 123.428 29.8171 117.896C-14.6387 80.7294 -36.8029 17.388 -28.0499 -47.4511L-30.5439 -47.9564C-34.8836 -15.9271 -31.7322 16.6147 -21.3797 46.1918C-10.9948 75.8804 6.12925 101.223 28.1906 119.751C35.0275 125.461 44.2929 132.277 55.5935 134.094C64.3594 135.472 73.8188 133.236 80.8592 128.065C82.9973 126.52 84.8838 124.731 86.4778 122.764C92.7728 115.031 94.6898 105.282 96.5173 95.8454C96.811 94.373 97.0639 92.9676 97.3576 91.4952C100.302 77.418 105.371 68.5737 112.849 64.4934C117.011 62.2513 121.504 61.7696 126.102 63.0935C132.552 64.9914 138.991 70.3675 143.389 77.6226C145.272 80.7829 147.065 84.2556 148.752 87.5725C150.821 91.5794 152.954 95.8091 155.413 99.5028C158.505 104.131 161.688 107.622 165.334 110.019C176.265 117.388 190.095 115.696 203.47 114.095C206.907 113.706 210.458 113.294 213.928 113.016C214.871 112.946 215.886 112.921 216.829 112.851C234.908 111.905 251.99 117.873 264.859 129.629C276.356 140.184 283.641 154.877 285.448 171.014C287.223 187.039 284.114 203.859 281.144 220.121C278.321 235.647 275.399 251.664 276.224 267.113C277.767 298.678 295.864 326.538 322.27 338.074L323.198 335.886C297.71 324.815 280.214 297.779 278.775 267.194C278.015 251.969 280.855 236.086 283.63 220.805C286.649 204.297 289.726 187.366 287.967 170.984C286.185 154.312 278.551 139.041 266.551 127.996C263.498 124.951 259.974 122.353 256.246 120.09Z" fill="#392125"/>
</g>
<g opacity="0.3">
<path opacity="0.3" d="M255.677 121.028C243.982 113.929 230.091 110.448 215.368 111.139C214.352 111.164 213.41 111.234 212.394 111.259C209.152 111.492 205.869 111.792 202.659 112.136C189.105 113.537 176.307 114.846 166.189 107.786C162.949 105.544 159.978 102.365 157.21 98.0258C154.857 94.4879 152.829 90.414 150.865 86.5628C149.146 83.1345 147.28 79.6174 145.292 76.3014C140.577 68.5791 133.594 62.781 126.592 60.6394C121.328 59.0946 116.274 59.5112 111.462 62.0005C103.374 66.2609 97.7279 75.3968 94.2713 89.9884C93.9046 91.4164 93.5702 92.9558 93.2766 94.4282C91.2788 103.486 89.159 112.745 83.1895 119.942C81.6768 121.775 79.8717 123.43 77.9287 124.818C71.3599 129.543 62.5507 131.531 54.4591 130.195C43.7191 128.444 34.8922 121.894 28.3478 116.362C-15.3854 79.8175 -37.2903 17.3672 -28.6193 -46.513L-31.1133 -47.0183C-35.3551 -15.4798 -32.2196 16.5938 -22.0375 45.7925C-11.7822 75.0355 5.01708 100.09 26.7537 118.329C33.5499 124.105 42.8152 130.922 54.189 132.783C62.9142 134.228 72.4467 132.036 79.5195 126.976C81.617 125.499 83.5034 123.709 85.2112 121.72C91.5386 114.098 93.6343 104.549 95.7541 95.2902C96.0477 93.8178 96.4552 92.3228 96.7488 90.8504C99.9854 76.9507 105.274 68.2395 112.857 64.315C116.979 62.1399 121.431 61.7252 126.102 63.0934C132.438 65.014 138.877 70.3901 143.243 77.5338C145.199 80.7385 146.992 84.2111 148.752 87.5725C150.748 91.535 152.89 95.5863 155.235 99.3026C158.254 103.886 161.436 107.377 165.042 109.841C175.964 117.389 189.892 116.031 203.332 114.653C206.501 114.376 209.751 113.965 212.952 113.799C213.895 113.729 214.911 113.704 215.853 113.634C234.038 112.844 251.056 118.589 263.722 129.855C275.268 140.165 282.674 154.657 284.563 170.66C286.501 186.417 283.66 203.125 280.958 219.275L280.95 219.453C278.403 234.688 275.717 250.482 276.72 266.13C278.695 297.315 296.686 325.019 322.637 336.646L323.565 334.458C298.5 323.185 281.141 296.416 279.239 266.1C278.26 250.742 280.864 235.082 283.444 219.958L283.452 219.78C286.235 203.496 289.044 186.677 287.123 170.563C285.113 153.937 277.43 138.91 265.454 128.155C262.198 125.445 259.039 123.069 255.677 121.028Z" fill="#402026"/>
</g>
<g opacity="0.35">
<path opacity="0.35" d="M255.14 122.077C243.372 114.934 229.221 111.387 214.165 111.967C213.222 112.037 212.206 112.062 211.264 112.132C208.363 112.297 205.381 112.596 202.48 112.76C188.862 113.938 175.925 114.981 165.815 107.743C162.616 105.434 159.718 102.299 156.95 97.9595C154.67 94.466 152.674 90.5034 150.744 86.7636C148.951 83.2909 147.125 79.7069 145.097 76.4578C137.964 64.9749 124.459 55.5846 111.494 62.1116C103.301 66.2164 97.5494 75.1964 93.7274 89.5662C93.32 91.0612 92.9857 92.6006 92.5782 94.0956C90.4018 102.953 88.0627 112.079 82.0608 119.165C80.475 120.953 78.7106 122.542 76.727 123.997C70.0851 128.677 61.2435 130.554 53.1519 129.218C42.4525 127.4 33.6257 120.849 27.0812 115.317C-16.1645 78.7941 -37.6963 17.2121 -29.2294 -45.5081L-31.7234 -46.0134C-35.8672 -14.9657 -32.7884 16.7068 -22.7358 45.4599C-12.6426 74.146 4.01875 98.9329 25.3492 117.017C32.1454 122.793 41.4108 129.61 52.7438 131.538C61.6152 133.072 70.8795 130.993 78.1392 125.955C80.2366 124.477 82.1962 122.732 83.8633 120.809C90.2555 113.41 92.6111 103.928 94.9095 94.8689C95.317 93.3739 95.6513 91.8345 96.0587 90.3395C99.7015 76.5946 105.168 68.0836 112.671 64.293C124.172 58.5285 136.361 67.1201 142.902 77.6015C144.858 80.8062 146.724 84.3232 148.443 87.7515C150.407 91.6027 152.475 95.6097 154.788 99.2146C157.734 103.754 160.916 107.245 164.408 109.731C175.355 117.569 189.388 116.367 202.852 115.279C205.72 115.002 208.662 114.771 211.563 114.606C212.505 114.536 213.521 114.511 214.423 114.508C232.64 113.829 249.593 119.352 262.056 130.127C273.618 140.081 281.147 154.372 283.19 170.285C285.25 185.841 282.686 202.258 280.22 218.184L280.122 218.675C277.917 233.018 275.434 249.301 276.624 264.971C278.956 295.731 296.883 323.212 322.37 335.108L323.298 332.92C298.729 321.49 281.329 294.788 279.143 264.941C278.017 249.494 280.419 233.344 282.656 219.113L282.754 218.622C285.229 202.518 287.801 185.922 285.718 170.076C283.553 153.54 275.789 138.647 263.683 128.272C260.971 125.984 258.137 123.896 255.14 122.077Z" fill="#471F26"/>
</g>
<g opacity="0.4">
<path opacity="0.4" d="M254.529 123.083C242.761 115.939 228.237 112.349 212.774 112.774C211.832 112.844 210.857 112.802 209.914 112.872C207.354 112.969 204.714 113.2 202.154 113.297C188.398 114.208 175.356 115.094 165.222 107.567C162.022 105.258 159.165 102.056 156.471 97.7607C154.336 94.356 152.333 90.5718 150.402 86.832C148.609 83.3593 146.71 79.7308 144.649 76.3704C137.622 65.0432 124.19 55.6973 111.274 61.979C103.089 65.9053 97.1186 74.7523 92.9311 88.9002C92.483 90.4622 92.0349 92.0242 91.5868 93.5862C89.1911 102.311 86.6735 111.237 80.6067 118.1C79.0209 119.888 77.2565 121.476 75.2404 122.82C68.4523 127.411 59.8383 129.243 51.6005 127.819C43.249 126.417 35.1842 122.071 25.5705 113.851C-16.9525 77.9496 -38.1113 17.2361 -29.8725 -44.6139L-32.3665 -45.1192C-36.4532 -14.4953 -33.3495 16.642 -23.4673 45.0166C-13.5444 73.3242 2.83284 97.7553 23.7978 115.618C30.594 121.394 39.8188 128.278 51.1518 130.206C60.0232 131.74 69.3199 129.772 76.612 124.845C78.7825 123.411 80.742 121.667 82.4092 119.744C88.8338 112.456 91.4004 103.285 93.845 94.3152C94.2931 92.7532 94.7412 91.1911 95.1893 89.6291C99.1244 76.0617 104.81 67.6837 112.345 64.0046C123.912 58.4628 135.703 66.7212 142.349 77.3584C144.378 80.6074 146.203 84.1915 147.996 87.6641C149.927 91.4039 151.963 95.2995 154.171 98.7487C157.116 103.288 160.152 106.69 163.604 109.244C174.574 117.371 188.103 116.505 202.388 115.548C204.915 115.34 207.515 115.176 210.075 115.079C211.017 115.009 211.992 115.051 212.935 114.981C231.331 114.502 248.218 119.802 260.406 130.044C271.944 139.707 279.595 153.797 281.793 169.62C284.015 184.908 281.76 201.146 279.57 216.782L279.456 217.63C277.086 234.715 275.409 249.011 276.649 263.611C279.477 294.214 297.371 321.584 322.403 333.57L323.404 331.427C299.217 319.861 281.923 293.315 279.379 263.893C278.09 249.538 279.759 235.42 282.161 218.446L282.275 217.599C284.473 201.785 286.737 185.368 284.49 169.791C282.171 153.344 274.285 138.652 262.13 128.522C259.743 126.523 257.233 124.725 254.529 123.083Z" fill="#4E1F26"/>
</g>
<g opacity="0.45">
<path opacity="0.45" d="M253.813 123.932C242.119 116.833 227.667 113.287 211.498 113.559C210.555 113.628 209.58 113.587 208.638 113.656C206.379 113.752 204.234 113.826 201.975 113.922C188.04 114.633 174.86 115.252 164.629 107.39C161.543 105.058 158.726 101.789 156.064 97.606C153.963 94.3126 152.032 90.5728 150.133 86.9443C148.308 83.3603 146.41 79.7318 144.275 76.327C137.069 64.7997 123.995 55.854 111.096 61.7789C102.764 65.6165 96.7777 73.9953 92.1759 88.1668C91.614 89.7514 91.1659 91.3135 90.6771 92.9425C88.1028 101.467 85.3659 110.26 79.2667 117.011C77.6809 118.8 75.8435 120.344 73.8274 121.687C66.9662 126.234 58.3197 127.955 50.1226 126.463C39.204 124.512 30.0606 117.494 24.0602 112.384C-17.6995 77.0378 -38.4852 17.1927 -30.4829 -43.6087L-32.9769 -44.114C-41.0937 17.5349 -19.9349 78.2485 22.393 114.307C28.5721 119.617 38.2271 126.945 49.7794 129.006C58.6101 130.607 67.9392 128.751 75.3044 123.868C77.475 122.435 79.4345 120.69 81.1341 118.879C87.6235 111.814 90.4093 102.776 93.0732 93.9386C93.562 92.3095 94.0101 90.7475 94.572 89.1628C98.9132 75.7502 104.705 67.5281 112.304 64.0717C123.822 58.7753 135.54 66.9893 142.154 77.5151C144.256 80.8085 146.081 84.3925 147.906 87.9766C149.805 91.605 151.735 95.3449 153.943 98.794C156.816 103.289 159.811 106.758 163.189 109.267C174.257 117.729 187.891 117.019 202.314 116.329C204.5 116.188 206.718 116.159 208.904 116.019C209.846 115.949 210.821 115.991 211.764 115.921C230.493 115.553 246.869 120.542 259 130.382C270.409 139.601 278.352 153.868 280.712 169.423C283.097 184.443 281.078 200.457 279.197 215.914L279.066 217.118C277.071 233.422 275.523 248.164 276.991 262.718C280.054 293.098 297.421 319.688 322.364 331.987L323.365 329.844C299.234 317.855 282.428 292.154 279.436 262.644C277.961 248.268 279.5 233.704 281.528 217.512L281.658 216.308C283.621 200.717 285.575 184.48 283.239 169.215C280.758 153.036 272.539 138.234 260.586 128.594C258.41 126.906 256.152 125.352 253.813 123.932Z" fill="#551E26"/>
</g>
<g opacity="0.5">
<path opacity="0.5" d="M253.285 124.803C241.59 117.704 226.879 114.092 210.222 114.343C209.32 114.346 208.304 114.371 207.402 114.374C205.599 114.379 203.827 114.496 202.023 114.501C187.837 114.968 174.479 115.387 164.15 107.191C161.105 104.792 158.361 101.568 155.699 97.3841C153.671 94.1351 151.772 90.5067 149.979 87.034C148.081 83.4056 146.15 79.6657 144.016 76.261C136.875 64.9564 123.914 55.9881 111.064 61.6675C100.132 66.494 94.7187 78.7059 91.6405 87.5664C91.0786 89.1511 90.4761 90.8028 89.9873 92.4318C87.1937 100.823 84.2375 109.483 78.0735 116.012C76.4146 117.756 74.5771 119.3 72.5611 120.643C65.6675 125.079 56.9479 126.755 48.7508 125.263C37.8729 123.245 28.6157 116.25 22.6884 111.184C-18.3728 76.1704 -38.9723 17.1719 -31.1251 -42.7149L-33.6191 -43.2202C-41.5807 17.5142 -20.6812 77.3367 20.9157 112.951C27.0948 118.261 36.6767 125.545 48.2614 127.717C57.1652 129.363 66.4536 127.573 73.8513 122.802C76.0218 121.369 78.0137 119.735 79.754 117.857C86.2758 110.904 89.2403 102.066 92.1559 93.4732C92.7177 91.8885 93.2472 90.1925 93.8091 88.6078C96.8301 80.171 101.918 68.4952 112.045 64.0056C123.473 59.0216 135.118 67.1912 141.667 77.4943C143.768 80.7877 145.699 84.5275 147.565 88.0446C149.431 91.5616 151.289 95.2571 153.391 98.5505C156.191 103.001 159.186 106.47 162.45 109.002C173.615 117.797 187.461 117.399 202.176 116.886C203.907 116.837 205.751 116.764 207.555 116.759C208.457 116.756 209.472 116.731 210.374 116.728C229.322 116.493 245.593 121.326 257.489 130.565C268.947 139.538 276.939 153.56 279.454 169.026C281.888 183.8 280.218 199.568 278.573 214.801L278.425 216.362C276.804 231.884 275.427 247.005 277.114 261.692C280.535 291.647 297.797 318.082 322.316 330.583L323.391 328.484C299.642 316.36 282.868 290.771 279.633 261.663C277.97 247.265 279.379 232.256 280.992 216.912L281.14 215.35C282.793 199.939 284.544 184.037 282.013 168.929C279.377 152.839 271.036 138.239 259.034 128.844C257.223 127.378 255.331 126.046 253.285 124.803Z" fill="#5D1D26"/>
</g>
<g opacity="0.55">
<path opacity="0.55" d="M252.569 125.652C240.948 118.597 226.342 115.141 208.905 115.193L208.791 115.216C207.889 115.219 206.987 115.221 206.086 115.224C204.769 115.25 203.453 115.277 202.137 115.303C187.698 115.525 174.048 115.767 163.549 107.192C160.618 104.771 157.874 101.546 155.285 97.4071C153.289 94.2694 151.537 90.7297 149.703 87.324C147.805 83.6956 145.801 79.9114 143.634 76.3953C136.525 65.2021 123.67 56.3895 110.95 61.6895C99.9531 66.2932 94.2479 78.3276 90.9504 87.0551C90.3478 88.7068 89.7453 90.3584 89.1427 92.0101C86.1299 100.268 82.9951 108.728 76.7987 115.145C75.1805 116.822 73.2699 118.322 71.2538 119.666C64.2872 124.057 55.6083 125.666 47.3788 124.063C39.0355 122.483 30.7514 118.004 21.2839 109.872C-19.1194 75.2579 -39.3865 17.1948 -31.7351 -41.7105L-34.2291 -42.2157C-41.995 17.5371 -21.4279 76.4242 19.4382 111.595C29.2304 120.015 37.9531 124.76 46.7432 126.428C55.6063 128.141 64.9678 126.396 72.3979 121.736C74.6415 120.347 76.6334 118.713 78.4468 116.879C85.0334 110.149 88.2579 101.377 91.2789 92.9401C91.8815 91.2884 92.484 89.6367 93.0866 87.9851C96.2538 79.637 101.747 68.1161 111.94 63.8492C124.05 58.7294 135.418 68.0146 141.366 77.4946C143.5 80.8993 145.472 84.5722 147.37 88.2006C149.204 91.6063 151.029 95.1903 153.058 98.4393C155.858 102.89 158.707 106.27 161.931 108.869C173.225 118.11 187.363 117.889 202.33 117.621C203.646 117.595 204.962 117.569 206.279 117.542C207.181 117.54 208.083 117.537 208.984 117.534L209.098 117.512C228.452 117.431 244.252 121.887 255.978 130.748C267.411 139.431 275.566 153.185 278.235 168.56C280.832 183.067 279.398 198.611 277.989 213.62L277.784 215.605C276.399 230.904 275.331 245.845 277.204 260.554C280.87 290.107 298.18 316.297 322.277 328.999L323.351 326.9C300.058 314.686 283.357 289.141 279.691 260.413C277.882 245.927 278.982 231.097 280.286 215.932L280.45 214.014C281.868 198.827 283.31 183.104 280.689 168.308C277.899 152.308 269.362 137.864 257.417 128.87C255.964 127.805 254.25 126.673 252.569 125.652Z" fill="#641C26"/>
</g>
<g opacity="0.6">
<path opacity="0.6" d="M252.04 126.524C240.565 119.557 225.626 115.99 207.669 115.911L202.486 115.882C187.682 115.882 173.666 115.902 162.964 106.837C160.033 104.416 157.403 101.169 154.814 97.0297C152.891 93.9364 151.13 90.5751 149.402 87.3252C147.471 83.5854 145.394 79.7568 143.228 76.2407C136.711 66.049 124.288 56.0312 110.771 61.4897C99.7828 65.915 93.7852 77.7719 90.1953 86.3219C89.479 87.9962 88.8765 89.6479 88.1601 91.3222C84.9687 99.3804 81.6877 107.751 75.3452 114.08C73.6539 115.712 71.7433 117.212 69.6541 118.511C62.655 122.791 53.903 124.356 45.7142 122.686C37.2979 121.061 29.0544 116.516 19.66 108.428C-19.9069 74.4133 -39.874 17.1742 -32.3046 -40.772L-34.7986 -41.2773C-42.4094 17.5609 -22.2153 75.5796 18.0336 110.284C27.8258 118.704 36.5485 123.449 45.371 125.229C54.2341 126.941 63.628 125.307 71.0905 120.759C73.3341 119.37 75.3991 117.781 77.1718 116.014C83.7908 109.395 87.1939 100.823 90.4342 92.5193C91.0775 90.8006 91.7531 89.1933 92.4694 87.519C95.8559 79.3041 101.642 67.9606 111.826 63.8721C123.847 59.0647 135.109 68.1942 141.098 77.6071C143.305 81.0563 145.309 84.8405 147.208 88.4689C148.895 91.7858 150.729 95.1915 152.684 98.3961C155.411 102.802 158.26 106.183 161.443 108.849C172.941 118.579 187.371 118.536 202.703 118.49L207.814 118.474C227.387 118.527 243.081 122.827 254.531 131.153C265.981 139.48 274.217 153.1 277.114 168.43C279.833 182.736 278.675 197.989 277.502 212.775L277.28 215.116C276.197 229.589 275.331 245.02 277.392 259.751C281.415 288.879 298.62 314.913 322.294 327.818L323.369 325.719C300.498 313.302 283.788 287.936 279.878 259.61C277.883 245.102 278.74 229.849 279.783 215.443L280.004 213.102C281.186 198.138 282.352 182.706 279.609 168.111C276.591 152.156 268.005 137.958 256.012 129.209C254.704 128.232 253.389 127.434 252.04 126.524Z" fill="#6B1C27"/>
</g>
<g opacity="0.65">
<path opacity="0.65" d="M251.325 127.373C239.996 120.495 225.203 117.017 206.312 116.829L203.046 116.772C187.763 116.573 173.268 116.393 162.363 106.839C159.473 104.351 156.916 101.148 154.327 97.0087C152.509 94.0712 150.822 90.7543 149.126 87.6157C147.122 83.8315 145.086 79.936 142.773 76.3311C136.289 66.2508 123.971 56.3887 110.512 61.4234C99.4585 65.626 93.1686 77.3054 89.3594 85.7223C88.6431 87.3966 87.8861 89.1379 87.1698 90.8122C83.7591 98.7374 80.2588 106.975 73.9245 113.125C72.2332 114.758 70.3226 116.257 68.1604 117.513C61.1289 121.681 52.3445 123.134 44.115 121.531C35.7393 119.84 27.4228 115.25 18.1015 107.207C-20.767 73.524 -40.3286 17.2646 -33.028 -39.7444L-35.522 -40.2497C-42.8557 17.4729 -22.9616 74.6676 16.5564 108.928C26.308 117.416 34.9575 122.116 43.8937 123.873C52.7162 125.652 62.1426 124.13 69.7188 119.559C71.9217 118.237 73.9868 116.648 75.8732 114.858C82.484 108.417 86.1063 99.9788 89.639 91.8527C90.3553 90.1784 91.1123 88.437 91.8287 86.7627C95.4344 78.6809 101.44 67.4705 111.729 63.5378C123.701 58.9758 134.85 68.128 140.774 77.3181C143.054 80.8116 145.017 84.6628 147.062 88.38C148.717 91.5855 150.518 94.8798 152.368 97.9287C155.022 102.291 157.83 105.738 160.899 108.426C172.6 118.647 187.582 118.847 203.353 119.067L206.619 119.124C226.745 119.42 241.968 123.343 253.175 131.247C264.6 139.283 272.959 152.702 276.01 167.943C278.891 181.98 277.97 197.01 277.032 211.572L276.908 214.248C276.06 228.497 275.43 243.705 277.751 258.502C282.132 287.205 299.304 313.127 322.451 326.078L323.598 324.024C301.15 311.405 284.505 286.261 280.278 258.293C278.022 243.719 278.684 228.623 279.451 214.508L279.575 211.832C280.48 197.159 281.451 181.884 278.545 167.556C275.373 151.692 266.666 137.694 254.582 129.258C253.445 128.66 252.349 127.994 251.325 127.373Z" fill="#721B27"/>
</g>
<g opacity="0.7">
<path opacity="0.7" d="M250.544 128C239.361 121.211 225.121 117.977 205.003 117.502C204.101 117.505 203.126 117.463 202.224 117.466C185.073 117.05 172.195 116.018 161.81 106.596C159.034 104.085 156.477 100.882 153.961 96.7876C152.217 93.8945 150.521 90.7559 148.971 87.7061C146.894 83.8776 144.826 79.8706 142.44 76.2214C136.021 66.3638 123.816 56.4791 110.406 61.2684C99.4422 65.1586 93.0391 76.0357 88.6363 85.1009C87.8062 86.7979 87.0492 88.5392 86.2191 90.2362C82.6623 98.0726 78.9103 106.066 72.5436 112.105C70.8523 113.737 68.8686 115.192 66.747 116.38C59.6424 120.504 50.8987 121.891 42.6368 120.176C34.1881 118.44 25.9446 113.895 16.5909 105.741C-21.4411 72.6572 -40.7028 17.2219 -33.5573 -38.8726L-36.0513 -39.3778C-43.2705 17.4972 -23.7089 73.7565 15.1189 107.506C24.7974 115.949 33.4794 120.761 42.4156 122.518C51.3112 124.342 60.6968 122.887 68.3054 118.427C70.5815 117.149 72.6465 115.56 74.4923 113.838C81.2086 107.552 85.0095 99.314 88.6477 91.3436C89.4047 89.6023 90.2348 87.9053 91.0242 86.2754C95.183 77.6122 101.301 67.2041 111.501 63.5839C123.383 59.3342 134.5 68.375 140.391 77.4538C142.672 80.9473 144.781 84.8872 146.744 88.7384C148.367 91.8326 150.063 94.9711 151.88 97.9086C154.534 102.271 157.269 105.674 160.225 108.385C172.16 119.207 188.223 119.604 202.409 119.963C203.311 119.96 204.286 120.002 205.188 119.999C226.207 120.471 240.472 123.995 251.549 131.453C263.024 139.244 271.472 152.351 274.637 167.569C277.608 181.294 276.954 196.211 276.293 210.483L276.112 213.582C275.565 227.006 275.179 242.636 277.645 257.522C282.4 286.269 299.086 311.345 322.175 324.72L323.322 322.665C300.964 309.734 284.774 285.325 280.099 257.269C277.625 242.562 278.075 227.154 278.582 213.798L278.722 210.765C279.392 196.316 280.086 181.331 277.018 167.272C273.617 151.452 264.861 137.7 252.802 129.554C252.112 129.043 251.348 128.488 250.544 128Z" fill="#791A27"/>
</g>
<g opacity="0.75">
<path opacity="0.75" d="M249.942 128.826C236.128 120.44 218.847 118.753 203.686 118.353C202.784 118.356 201.85 118.247 200.948 118.25C185.494 117.672 171.878 116.376 161.217 106.419C158.481 103.841 155.997 100.683 153.482 96.588C151.843 93.8506 150.179 90.8234 148.662 87.885C146.553 83.9451 144.411 79.8938 141.952 76.2001C135.249 65.9867 123.393 56.6806 110.187 61.1349C99.2309 64.8466 92.5356 75.5463 87.9135 84.4784C87.0834 86.1754 86.2126 87.9393 85.3418 89.7033C81.6064 97.3396 77.7082 105.244 71.236 111.127C69.4716 112.715 67.4879 114.171 65.3663 115.359C58.0749 119.461 49.5263 120.69 41.1913 118.932C32.7425 117.196 24.4667 112.539 15.1861 104.429C-22.1881 71.7449 -41.1905 17.2007 -34.2408 -37.9122L-36.7348 -38.4175C-43.7583 17.476 -24.4966 72.9112 13.5679 106.106C23.2464 114.549 31.9283 119.361 40.897 121.229C49.8657 123.097 59.0562 121.799 66.8517 117.361C69.1277 116.083 71.2658 114.538 73.1116 112.816C79.8603 106.642 83.8398 98.6037 87.6973 90.7664C88.568 89.0024 89.3981 87.3055 90.2282 85.6085C94.6063 77.0785 101.017 66.8479 111.209 63.406C123.042 59.4017 133.841 67.9752 139.871 77.3212C142.184 80.926 144.366 84.9104 146.403 88.8059C147.92 91.7443 149.583 94.7715 151.255 97.6203C153.835 101.938 156.497 105.296 159.412 108.075C170.722 118.609 184.899 119.97 200.914 120.613C201.815 120.611 202.75 120.719 203.652 120.717C218.886 121.161 236.354 122.87 249.851 131.614C261.269 139.004 269.798 151.976 273.231 167.082C276.284 180.673 275.866 195.367 275.473 209.526L275.397 212.781C275.01 229.236 275.203 242.925 277.622 256.407C282.67 284.506 299.03 309.294 321.396 322.871C321.616 323.004 321.762 323.093 321.981 323.226L323.201 321.216C301.152 308.106 285.108 283.785 280.108 256.265C277.909 242.917 277.708 229.407 278.086 213.13L278.194 209.986C278.596 195.649 279.022 180.776 275.904 166.963C272.277 151.188 263.399 137.637 251.323 129.848C250.892 129.403 250.454 129.137 249.942 128.826Z" fill="#801927"/>
</g>
<g opacity="0.75">
<path opacity="0.75" d="M249.194 129.564C235.307 121.134 217.823 119.782 202.369 119.204C201.467 119.207 200.533 119.098 199.631 119.101C185.835 118.429 171.406 116.823 160.616 106.421C157.953 103.887 155.51 100.662 153.108 96.5445C151.501 93.9185 149.984 90.9801 148.532 88.2644C146.39 84.2131 144.175 80.1174 141.684 76.3124C135.086 66.2547 123.304 56.993 110.146 61.2019C99.1256 64.6909 92.1378 75.2131 87.2964 84.012C86.3526 85.7316 85.368 87.5183 84.4972 89.2822C80.5425 96.7854 76.4251 104.557 69.9612 110.261C68.1968 111.85 66.14 113.26 64.0184 114.449C56.6945 118.439 48.1459 119.669 39.7378 117.866C31.3298 116.063 22.8347 111.273 13.7002 103.252C-22.9755 70.9 -41.6048 17.2242 -34.8102 -36.9741L-37.3042 -37.4794C-44.1725 17.4995 -25.1702 72.0437 12.1634 104.795C21.6226 113.105 30.5969 118.094 39.4518 119.985C48.3798 121.92 57.6434 120.666 65.4713 116.339C67.7473 115.062 69.8448 113.584 71.7636 111.906C78.5772 105.955 82.7435 97.9381 86.7796 90.3009C87.7235 88.5813 88.5942 86.8174 89.5381 85.0978C94.1354 76.7009 100.838 66.6477 111.136 63.3616C122.92 59.6028 133.533 68.1545 139.644 77.3664C142.103 81.0601 144.245 85.1114 146.354 89.0513C147.839 91.8784 149.396 94.7498 150.962 97.4428C153.47 101.716 156.091 105.142 158.933 107.875C170.478 119.011 185.395 120.638 199.751 121.375C200.653 121.372 201.587 121.481 202.489 121.478C217.715 122.101 235.126 123.409 248.453 131.774C259.92 138.919 268.498 151.646 272.159 166.706C275.374 180.029 275.192 194.5 275.035 208.435L274.984 211.98C274.899 225.959 275.148 240.874 277.94 255.224C283.402 283.3 299.95 308.109 322.161 321.776L323.381 319.766C301.828 306.498 285.775 282.356 280.385 255.15C277.658 241.023 277.329 226.242 277.445 212.374L277.497 208.829C277.662 194.715 277.812 180.133 274.572 166.521C270.79 150.836 261.676 137.509 249.738 129.986C249.56 129.786 249.414 129.698 249.194 129.564Z" fill="#871927"/>
</g>
<g opacity="0.8">
<path opacity="0.8" d="M248.925 130.502C248.706 130.368 248.487 130.235 248.195 130.058C234.656 122.206 218.188 120.829 201.093 119.988C200.232 119.924 199.257 119.882 198.396 119.818C182.585 118.84 170.009 116.158 160.064 106.177C157.441 103.577 155.071 100.396 152.67 96.2782C151.209 93.7409 149.757 91.0252 148.337 88.4209C146.122 84.3253 143.875 80.1182 141.351 76.2018C134.745 66.3225 123.109 57.1496 110.008 60.9347C98.9228 64.2009 91.6427 74.5456 86.5821 83.2114C85.5244 84.9537 84.5399 86.7403 83.5554 88.5269C79.3814 95.8969 75.1585 103.512 68.589 109.061C66.7515 110.605 64.7354 111.949 62.6138 113.137C55.2575 117.016 46.6359 118.202 38.2685 116.332C29.8604 114.529 21.2922 109.694 12.2715 101.651C-23.7223 69.9881 -42.0192 17.2476 -35.4203 -35.9691L-37.9143 -36.4744C-44.5869 17.5229 -25.9576 71.1987 10.7588 103.483C20.218 111.793 29.0786 116.805 38.0065 118.741C46.9669 120.787 56.2306 119.533 64.0909 115.318C66.3669 114.04 68.5374 112.607 70.4563 110.929C77.3022 105.089 81.6472 97.2724 85.9025 89.7684C86.8464 88.0488 87.8716 86.1952 88.8886 84.5199C93.7458 76.1891 100.668 66.2691 110.989 63.2727C122.684 59.8263 133.265 68.2667 139.343 77.3672C141.835 81.1722 144.049 85.2679 146.264 89.3636C147.644 92.0349 149.169 94.7949 150.629 97.3322C153.137 101.605 155.685 104.987 158.413 107.743C168.894 118.324 182.063 121.183 198.475 122.159C199.336 122.223 200.311 122.265 201.172 122.329C217.893 123.126 233.988 124.46 246.974 132.068C258.352 138.7 267.093 151.159 270.932 166.42C274.27 179.542 274.291 193.677 274.37 207.389C274.385 208.682 274.359 210.042 274.375 211.335C274.526 225.091 275.084 239.826 278.022 254.265C283.777 281.693 300.292 306.392 322.008 320.216L323.301 318.25C302.13 304.848 286.11 280.817 280.476 254.012C277.489 239.819 276.964 225.195 276.845 211.55C276.829 210.257 276.855 208.897 276.84 207.604C276.769 193.714 276.756 179.401 273.354 166.056C269.418 150.461 260.547 137.557 248.925 130.502Z" fill="#8E1827"/>
</g>
<g opacity="0.8">
<path opacity="0.8" d="M247.633 130.818C247.341 130.64 247.049 130.463 246.756 130.285C233.543 122.722 217.391 121.812 201.726 120.923L199.89 120.817C199.029 120.753 198.127 120.756 197.193 120.647C183.974 119.684 170.301 117.161 159.617 106.09C157.109 103.467 154.665 100.241 152.41 96.2123C151.055 93.8308 149.635 91.2265 148.321 88.778C146.073 84.5709 143.72 80.2081 141.123 76.2473C134.623 66.5238 122.987 57.3509 110.008 60.9349C98.8581 63.9784 91.3587 74.19 86.0057 82.6784C84.9481 84.4206 83.8498 86.2298 82.7921 87.9721C78.5127 95.1864 74.0705 102.669 67.4279 108.173C65.5904 109.717 63.5743 111.061 61.3796 112.205C54.0234 116.084 45.2962 117.114 36.9694 115.177C28.529 113.262 20.0339 108.472 10.9725 100.495C-24.5096 69.1435 -42.5065 17.2271 -36.0628 -35.0751L-38.5568 -35.5804C-45.0012 17.5467 -26.7043 70.2872 9.28118 102.128C18.7404 110.438 27.601 115.45 36.4883 117.452C45.4487 119.499 54.7447 118.356 62.6374 114.252C64.9459 113.086 67.1164 111.652 69.0353 109.974C75.9136 104.246 80.4372 96.6298 84.9118 89.2588C85.9694 87.5166 87.0677 85.7074 88.1254 83.9651C93.2019 75.7674 100.417 66.0249 110.843 63.1843C125.496 59.1492 136.088 73.0074 138.969 77.324C141.534 81.1734 143.854 85.4248 146.029 89.5875C147.416 92.0804 148.763 94.6404 150.15 97.1333C152.585 101.362 155.133 104.743 157.747 107.522C169.113 119.282 183.346 121.87 197.085 122.966C197.946 123.03 198.881 123.139 199.782 123.136L201.619 123.242C216.983 124.132 232.834 125.043 245.463 132.251C256.882 138.816 265.704 151.141 269.673 166.023C273.1 178.832 273.431 192.788 273.704 206.343C273.711 207.815 273.759 209.219 273.839 210.735C274.219 223.62 274.946 238.735 278.217 253.284C284.42 280.8 300.375 304.608 322.074 318.789L323.368 316.823C302.619 303.219 286.59 279.366 280.712 252.964C277.506 238.638 276.697 223.658 276.35 210.883C276.343 209.412 276.295 208.007 276.288 206.536C275.982 192.87 275.733 178.78 272.168 165.703C268.101 150.488 259.182 137.828 247.633 130.818Z" fill="#951728"/>
</g>
<g opacity="0.85">
<path opacity="0.85" d="M246.78 131.4C246.268 131.089 245.683 130.734 245.131 130.491C232.819 123.75 217.983 122.814 203.594 121.965C201.945 121.881 200.222 121.752 198.573 121.668C197.712 121.604 196.85 121.54 195.916 121.431C178.741 119.9 167.646 115.273 159.024 105.913C156.556 103.223 154.227 99.9746 151.931 96.0129C150.608 93.7427 149.367 91.3386 148.158 89.0458C145.878 84.7273 143.493 80.2532 140.75 76.2037C132.382 63.788 120.776 58.0262 109.862 60.846C98.7202 63.711 91.1807 73.1647 85.283 82.0561C84.1116 83.8209 83.0133 85.6302 81.8419 87.395C77.3431 94.4762 72.6817 101.825 66.0474 107.152C64.1368 108.651 62.1207 109.995 59.926 111.139C52.5373 114.907 43.8101 115.936 35.4103 113.955C26.8967 111.996 18.4423 107.139 9.38096 99.1623C-25.2565 68.2314 -42.921 17.2504 -36.673 -34.0702L-39.2077 -34.5085C-45.5294 17.5927 -27.4918 69.4421 7.76275 100.839C17.1082 109.172 26.0419 114.228 35.0022 116.275C43.922 118.388 53.2911 117.29 61.2162 113.298C63.5247 112.131 65.6952 110.698 67.7602 109.109C74.671 103.492 79.4138 96.0084 83.994 88.7932C85.0923 86.9839 86.2637 85.219 87.3944 83.5212C93.0887 74.9649 100.238 65.8245 110.616 63.2293C120.425 60.7473 130.886 66.0889 138.587 77.4587C141.225 81.3525 143.61 85.8267 145.858 90.0337C147.14 92.3709 148.381 94.7751 149.703 97.0452C152.138 101.274 154.613 104.611 157.187 107.457C166.385 117.351 177.918 122.243 195.841 123.861C196.702 123.926 197.637 124.034 198.539 124.032C200.188 124.116 201.91 124.244 203.56 124.329C217.648 125.178 232.224 126.048 243.984 132.545C255.378 138.821 264.323 150.945 268.487 165.669C272.036 178.278 272.529 191.966 273.08 205.23C273.119 206.813 273.231 208.44 273.271 210.023C273.846 222.752 274.923 237.62 278.413 252.302C284.9 279.349 300.823 303.046 322.026 317.385L323.393 315.463C302.701 301.435 287.241 278.294 280.875 251.871C277.409 237.478 276.405 222.655 275.822 210.104C275.783 208.522 275.743 206.939 275.631 205.311C275.162 191.913 274.563 178.07 270.95 165.238C266.826 150.447 258.036 138.233 246.78 131.4Z" fill="#9C1628"/>
</g>
<g opacity="0.9">
<path opacity="0.9" d="M245.966 131.915C245.236 131.472 244.432 130.984 243.66 130.607C232.143 124.533 218.356 123.682 205.015 122.92C202.504 122.772 199.88 122.646 197.337 122.386C196.476 122.321 195.615 122.257 194.68 122.149C178.301 120.459 167.15 115.431 158.545 105.714C156.15 103.068 153.861 99.7531 151.565 95.7914C150.348 93.677 149.171 91.4956 148.068 89.3586C145.683 84.8844 143.224 80.3658 140.376 76.1606C132 63.9233 120.621 58.1162 109.756 60.6906C98.5495 63.3329 90.7908 72.6534 84.6738 81.4117C83.4293 83.1322 82.2172 84.964 81.0052 86.7959C76.3602 93.7884 71.5201 100.937 64.8534 106.152C62.9429 107.652 60.8537 108.951 58.6997 110.028C51.2379 113.752 42.519 114.603 34.1192 112.621C25.5325 110.618 17.0781 105.761 8.13047 97.7618C-25.9712 67.4313 -43.3357 17.2743 -37.2429 -33.1317L-39.7776 -33.57C-45.9035 17.5496 -28.239 68.5306 6.32539 99.4171C15.6708 107.75 24.5314 112.762 33.5242 114.92C42.517 117.078 51.8048 116.113 59.803 112.165C62.1115 110.999 64.3551 109.61 66.4201 108.02C73.4364 102.559 78.2847 95.2318 83.0841 88.1497C84.2555 86.3848 85.4676 84.5529 86.7121 82.8324C92.6257 74.4093 100.067 65.4464 110.477 62.9625C120.205 60.6145 130.625 66.0232 138.295 77.2816C141.038 81.3311 143.496 85.8497 145.849 90.2125C147.025 92.3939 148.202 94.5753 149.419 96.6897C151.78 100.874 154.142 104.234 156.715 107.08C165.897 117.33 177.56 122.668 194.687 124.445C195.548 124.509 196.482 124.618 197.343 124.682C199.927 124.875 202.511 125.068 205.021 125.216C218.061 125.98 231.548 126.831 242.626 132.639C253.997 138.625 263.104 150.481 267.456 165.227C271.094 177.523 271.823 190.987 272.609 204.028C272.681 205.722 272.826 207.461 272.897 209.155C273.595 220.858 274.948 236.26 278.771 251.053C285.616 277.675 301.433 301.216 322.255 315.69L323.621 313.768C303.385 299.649 287.843 276.643 281.234 250.622C277.548 236.096 276.195 221.519 275.489 209.169C275.417 207.475 275.273 205.737 275.201 204.042C274.496 190.868 273.735 177.292 269.999 164.662C265.477 150.362 256.857 138.527 245.966 131.915Z" fill="#A31628"/>
</g>
<g opacity="0.95">
<path opacity="0.95" d="M245.04 132.453C244.09 131.876 243.026 131.322 242.035 130.812C231.127 125.383 218.274 124.641 205.835 123.876C202.577 123.64 199.164 123.495 195.947 123.192C195.086 123.128 194.225 123.064 193.331 122.888C177.749 121.04 166.467 115.567 157.879 105.493C155.524 102.78 153.309 99.5091 151.086 95.5918C150.047 93.6775 148.903 91.6075 147.865 89.6932C145.447 85.1076 142.81 80.3889 139.929 76.0723C131.659 63.9908 120.28 58.1836 109.537 60.557C98.3387 63.0209 90.2876 72.164 83.8783 80.7448C82.5931 82.5323 81.2672 84.3868 80.0227 86.1073C75.1992 92.8996 70.1723 100.027 63.4001 105.086C61.4164 106.541 59.3272 107.841 57.1732 108.917C49.679 112.53 40.887 113.336 32.5279 111.288C23.9819 109.218 15.4543 104.316 6.50675 96.3171C-26.7909 66.4746 -43.7824 17.186 -37.8853 -32.2384L-40.42 -32.6767C-46.3177 17.5727 -29.0263 67.6853 4.84785 98.0611C14.1202 106.349 23.0132 111.473 32.006 113.631C40.9581 115.856 50.319 114.936 58.3496 111.099C60.7312 109.977 62.9341 108.655 64.9992 107.066C72.0072 101.783 77.1155 94.5214 82.0204 87.5951C83.3055 85.8076 84.5907 84.0201 85.8759 82.2325C92.0087 73.9425 99.7426 65.1571 110.218 62.896C124.147 59.8888 134.22 71.9648 137.807 77.2603C140.656 81.4656 143.147 86.0955 145.605 90.6141C146.717 92.5727 147.788 94.5984 148.899 96.557C151.228 100.63 153.549 104.057 156.009 106.925C165.101 117.488 176.967 123.316 193.224 125.207C194.158 125.316 195.019 125.38 195.88 125.444C199.211 125.724 202.583 125.937 205.882 126.105C218.061 126.804 230.614 127.547 241.042 132.777C252.388 138.473 261.618 150.128 266.124 164.785C269.884 176.88 270.849 190.12 271.724 202.848C271.902 204.698 271.965 206.571 272.142 208.421C273.035 219.967 274.665 235.079 278.707 250.004C285.837 276.158 301.622 299.587 322.021 314.263L323.46 312.386C303.605 298.132 288.21 275.214 281.17 249.573C277.192 234.87 275.595 219.87 274.694 208.502C274.516 206.652 274.412 204.847 274.276 202.93C273.335 189.979 272.338 176.627 268.513 164.309C264.16 150.388 255.711 138.931 245.04 132.453Z" fill="#AA1528"/>
</g>
<path d="M244.227 132.968C243.057 132.259 241.774 131.571 240.523 130.995C230.192 126.099 218.086 125.444 206.468 124.811C202.609 124.577 198.522 124.389 194.671 123.977C193.81 123.912 192.989 123.781 192.128 123.717C177.114 121.755 166.036 115.947 157.391 105.472C155.151 102.737 152.935 99.4658 150.712 95.5485C149.738 93.857 148.805 92.0985 147.84 90.2286C145.317 85.4873 142.688 80.5902 139.588 76.1405C131.277 64.126 120.272 58.3623 109.464 60.5129C98.2007 62.7541 89.8572 71.7197 83.2286 80.1673C81.8704 81.9104 80.4307 83.7876 79.1456 85.5751C74.1028 92.2343 68.9703 99.2059 62.1657 104.154C60.182 105.609 58.0198 106.864 55.8658 107.941C48.3391 111.441 39.5471 112.248 31.1149 110.156C22.4958 108.041 14.009 103.073 5.13447 95.1175C-27.5053 65.6744 -44.2375 17.2768 -38.4955 -31.233L-41.0302 -31.6713C-46.846 17.6191 -29.8138 66.8407 3.37007 96.7058C12.6018 105.061 21.4216 110.14 30.5606 112.387C39.5128 114.612 48.906 113.803 56.9691 110.078C59.3099 109.023 61.5536 107.634 63.6917 106.089C70.7321 100.917 76.019 93.8561 81.1432 87.0629C82.5014 85.3197 83.8273 83.4652 85.1856 81.7221C91.5377 73.5651 99.564 64.9572 110.031 62.8745C123.87 60.1797 133.838 72.1 137.425 77.3955C140.42 81.6895 142.976 86.5422 145.54 91.2165C146.546 93.0194 147.479 94.7779 148.412 96.5365C150.74 100.61 152.988 103.992 155.334 106.883C164.515 117.958 176.105 124.077 191.866 126.125C192.8 126.234 193.621 126.365 194.482 126.43C198.447 126.819 202.42 127.03 206.393 127.241C217.824 127.853 229.557 128.464 239.409 133.161C250.804 138.612 260.009 149.977 264.742 164.588C268.593 176.371 269.793 189.388 270.904 201.892C271.073 203.921 271.283 205.882 271.493 207.843C273.194 224.649 275.386 237.351 278.789 249.046C286.236 274.841 301.956 298.048 321.9 312.815L323.339 310.937C303.867 296.549 288.504 273.742 281.219 248.503C277.921 236.964 275.648 224.396 274.052 207.747C273.843 205.785 273.674 203.757 273.464 201.796C272.361 189.113 271.128 175.984 267.213 163.979C262.812 150.303 254.533 139.225 244.227 132.968Z" fill="#B11428"/>
<path d="M243.341 133.439C241.952 132.596 240.45 131.776 239.012 131.178C229.111 126.727 217.825 126.203 206.841 125.679C202.453 125.491 197.879 125.282 193.467 124.805C192.606 124.741 191.786 124.609 190.965 124.478C176.52 122.404 165.719 116.305 156.912 105.273C154.671 102.537 152.569 99.244 150.419 95.371C149.551 93.8353 148.756 92.3439 147.929 90.7411C145.3 85.844 142.606 80.7242 139.36 76.1857C131.082 64.2826 120.15 58.5633 109.391 60.4685C98.0626 62.4869 89.4999 71.3194 82.5382 79.6565C81.0662 81.4223 79.6266 83.2995 78.2683 85.0426C73.0793 91.6131 67.7683 98.3846 60.8906 103.288C58.9069 104.743 56.7446 105.998 54.4851 106.919C46.7716 110.398 38.1748 111.048 29.6694 108.911C21.1641 106.774 12.3849 101.628 3.7297 93.8062C-28.293 64.8295 -44.6521 17.3003 -39.179 -30.2723L-41.7136 -30.7106C-47.2605 17.6426 -30.6014 65.9958 1.85153 95.4172C10.9046 103.572 20.0493 108.94 29.0014 111.165C38.0997 113.479 47.2655 112.715 55.4747 109.079C57.8156 108.024 60.1323 106.679 62.2297 105.201C69.3025 100.141 74.8087 93.2131 80.079 86.5086C81.478 84.6985 82.95 82.9327 84.349 81.1226C91.0341 73.0761 99.2066 64.5569 109.811 62.7414C123.561 60.3589 133.424 72.1235 137.051 77.352C140.152 81.8017 142.813 86.8102 145.442 91.7073C146.269 93.3101 147.137 94.8458 147.932 96.3372C150.188 100.366 152.395 103.815 154.668 106.662C163.832 118.094 175.511 124.725 190.476 126.932C191.41 127.041 192.231 127.172 193.092 127.236C197.576 127.758 202.191 127.9 206.652 128.132C217.937 128.655 228.508 129.203 237.856 133.411C249.227 138.572 258.554 149.736 263.442 164.258C267.342 175.795 268.705 188.544 270.052 200.825C270.253 202.964 270.495 205.037 270.77 207.221C272.683 223.514 275.2 236.504 278.757 248.109C286.659 273.814 301.884 296.354 321.697 311.5L323.137 309.623C303.795 294.854 288.886 272.782 281.114 247.523C277.589 236.029 275.064 223.217 273.256 207.08C273.014 205.007 272.813 202.868 272.611 200.728C271.272 188.269 269.877 175.409 265.84 163.604C261.536 150.262 253.427 139.562 243.341 133.439Z" fill="#B81328"/>
<path d="M242.455 133.91C240.847 132.934 239.158 132.091 237.428 131.316C227.998 127.242 217.232 126.851 206.84 126.503C201.965 126.295 196.936 126.177 192.118 125.545C191.298 125.413 190.437 125.349 189.616 125.218C175.667 122.986 165.142 116.596 156.246 105.052C154.119 102.293 152.017 99 149.908 95.0601C149.178 93.7914 148.488 92.4558 147.799 91.1201C145.032 85.9559 142.233 80.6803 138.922 75.9191C130.708 64.2387 119.89 58.4968 109.221 60.0896C97.8277 61.8852 88.9726 70.5402 81.8648 78.7887C80.3196 80.5101 78.7662 82.4099 77.2942 84.1756C71.8859 90.613 66.3556 97.2514 59.4862 101.976C57.4294 103.387 55.2671 104.642 53.0076 105.563C45.2618 108.931 36.6649 109.581 28.1271 107.333C19.5487 105.151 10.7695 100.005 2.15497 92.1161C-29.0396 63.9172 -45.0663 17.3235 -39.7482 -29.3346L-42.2829 -29.7728C-47.6747 17.6658 -31.348 65.0835 0.414722 93.9942C9.35404 102.172 18.5394 107.473 27.5239 109.809C36.5816 112.19 45.7797 111.538 54.062 107.946C56.4029 106.891 58.752 105.657 60.8902 104.113C68.0685 99.2082 73.6801 92.4358 79.1698 85.8644C80.6418 84.0987 82.1545 82.2659 83.6996 80.5445C90.6041 72.6311 99.0689 64.2894 109.665 62.6522C119.279 61.1518 129.138 66.4953 136.678 77.3081C139.884 81.9136 142.723 87.1222 145.417 92.242C146.107 93.5777 146.837 94.8463 147.526 96.182C149.782 100.211 151.916 103.615 154.075 106.485C163.215 118.452 174.731 125.352 189.127 127.672C190.02 127.847 190.881 127.912 191.775 128.087C196.707 128.697 201.809 128.86 206.725 129.001C217.376 129.415 227.354 129.786 236.345 133.594C247.692 138.465 257.1 149.495 262.297 163.837C266.319 175.174 267.885 187.587 269.427 199.711C269.734 202.007 270.009 204.191 270.316 206.487C272.505 222.488 275.217 235.322 279.035 246.993C287.181 272.296 302.414 294.657 321.845 309.938L323.358 308.105C304.365 293.091 289.521 271.242 281.505 246.384C277.793 234.868 275.041 222.101 272.843 206.278C272.495 204.05 272.261 201.799 271.955 199.503C270.453 187.312 268.821 174.676 264.735 163.117C260.261 150.221 252.249 139.855 242.455 133.91Z" fill="#BF1329"/>
<path d="M126.101 63.9182C120.692 60.6348 114.892 59.3146 109.106 60.1123C97.6894 61.6182 88.9323 69.7824 81.1742 78.278C79.5884 80.0665 78.0026 81.8549 76.4168 83.6433C70.903 89.9249 65.1128 96.4972 58.2109 101.111C56.1542 102.522 53.9595 103.665 51.6593 104.653C43.8403 107.977 35.211 108.515 26.6733 106.267C18.0625 103.974 9.35634 98.8724 0.7418 90.9834C-29.7542 63.1168 -45.4809 17.3471 -40.318 -28.3963L-42.8527 -28.8346C-48.0894 17.6894 -32.022 64.2161 -0.949508 92.6161C7.98981 100.794 17.1345 106.162 26.1921 108.542C35.3228 110.967 44.4803 110.382 52.8357 106.835C55.2497 105.824 57.5257 104.546 59.6962 103.113C66.907 98.32 72.7379 91.6807 78.333 85.2651C79.9188 83.4767 81.5047 81.6882 83.0905 79.8998C90.572 71.6949 98.9714 63.9554 109.673 62.4739C122.756 60.6955 132.124 70.9678 136.531 77.2195C139.916 82.0251 142.894 87.5008 145.693 92.7764C146.244 93.8449 146.763 94.8021 147.315 95.8706C149.457 99.9219 151.632 103.26 153.677 106.152C162.832 118.587 174.104 125.889 188.045 128.299C188.939 128.475 189.873 128.584 190.694 128.715C195.999 129.368 201.516 129.507 206.919 129.669C217.051 129.951 226.581 130.234 235.102 133.664C246.424 138.245 255.955 149.075 261.306 163.328C265.417 174.351 267.219 186.542 268.851 198.353C269.191 200.76 269.53 203.167 269.942 205.618C272.335 221.285 275.388 234.051 279.352 245.811C287.856 270.689 302.984 292.894 321.919 308.333L323.432 306.5C304.821 291.351 290.01 269.613 281.677 245.113C277.704 233.531 274.797 220.854 272.323 205.321C271.984 202.914 271.645 200.508 271.232 198.056C269.495 186.089 267.733 173.832 263.484 162.541C257.979 147.552 247.799 136.146 235.737 131.299C226.664 127.626 216.492 127.411 206.588 127.084C201.298 126.899 195.855 126.804 190.663 126.129C189.843 125.997 189.022 125.866 188.202 125.735C174.821 123.389 164.459 116.732 155.588 104.652C153.575 101.871 151.473 98.5781 149.364 94.6382C148.771 93.6366 148.293 92.6125 147.7 91.611C144.869 86.224 141.891 80.7483 138.401 75.787C134.765 70.7368 130.56 66.6249 126.101 63.9182Z" fill="#C61229"/>
<path d="M125.687 63.9422C120.352 60.7032 114.665 59.3603 108.961 60.024C97.552 61.3515 88.5431 69.2712 80.452 77.6564C78.7931 79.4004 77.0936 81.2115 75.5078 82.9999C69.8478 89.1928 63.879 95.5649 56.904 100.134C54.7742 101.501 52.5795 102.644 50.32 103.565C42.4686 106.777 33.8069 107.205 25.2691 104.956C16.5852 102.619 7.87909 97.5172 -0.662366 89.6727C-30.4682 62.3168 -45.8625 17.4825 -40.8547 -27.3464L-43.3894 -27.7847C-45.8609 -5.25886 -43.3926 17.698 -36.202 38.478C-29.0114 59.2579 -17.3093 77.5495 -2.28058 91.3497C6.58565 99.4831 15.7303 104.851 24.8204 107.343C33.9104 109.835 43.141 109.294 51.5288 105.858C53.9021 104.914 56.2512 103.681 58.4624 102.181C65.7056 97.4991 71.7558 90.9929 77.4971 84.666C79.156 82.922 80.7825 81.0666 82.4414 79.3225C90.1422 71.2507 98.8746 63.6217 109.528 62.3856C122.448 60.8752 131.784 71.0361 136.231 77.2208C139.794 82.2266 142.869 88.0364 145.806 93.5791L146.909 95.7162C149.051 99.7675 151.112 103.128 153.158 106.02C162.361 119.035 173.357 126.627 186.842 129.128C187.736 129.304 188.63 129.48 189.491 129.544C195.129 130.307 201.06 130.423 206.732 130.473C216.344 130.622 225.468 130.751 233.664 133.892C244.962 138.183 254.615 148.812 260.121 162.975C264.28 173.753 266.245 185.675 268.113 197.263C268.558 199.826 268.93 202.344 269.375 204.907C271.979 220.06 275.357 233.115 279.516 244.718C288.264 269.195 303.4 291.222 321.913 306.862L323.499 305.073C305.27 289.789 290.532 268.095 281.873 244.132C277.746 232.64 274.401 219.696 271.829 204.654C271.384 202.092 271.012 199.573 270.567 197.011C268.667 185.311 266.71 173.211 262.372 162.232C256.599 147.356 246.37 136.195 234.373 131.571C225.657 128.298 215.931 128.171 206.474 127.932C200.843 127.815 195.058 127.788 189.534 127.002C188.713 126.871 187.893 126.739 187.072 126.608C174.147 124.172 163.988 117.18 155.101 104.632C153.088 101.851 151.173 98.5794 149.063 94.6395L147.96 92.5025C144.991 86.8484 141.916 81.0385 138.247 75.877C134.392 70.6938 130.219 66.6932 125.687 63.9422Z" fill="#CE1129"/>
<path d="M125.273 63.9654C120.01 60.7707 114.437 59.4052 108.814 59.9349C97.3408 61.0396 88.0396 68.7819 79.7292 77.0339C77.9566 78.8006 76.1839 80.5673 74.4843 82.3783C68.6051 88.4381 62.4901 94.7215 55.4827 99.1794C53.3528 100.546 51.0851 101.645 48.8256 102.566C40.9418 105.667 32.28 106.094 23.7099 103.734C14.9529 101.353 6.28747 96.1839 -2.25398 88.3394C-31.3289 61.4272 -46.4639 17.4839 -41.6111 -26.4304L-44.1458 -26.8686C-46.5601 -4.76661 -44.0671 17.6551 -37.0875 38.1235C-30.0672 58.525 -18.5762 76.5051 -3.94529 89.972C4.92094 98.1054 13.9518 103.496 23.115 106.032C32.205 108.524 41.468 108.095 49.8882 104.77C52.2615 103.827 54.6106 102.593 56.9273 101.249C64.2029 96.6783 70.3586 90.3279 76.3923 84.1785C78.0512 82.4345 79.8645 80.6008 81.5965 78.9011C89.5897 71.0067 98.4683 63.4664 109.186 62.4532C121.415 61.257 130.371 69.9029 135.735 77.378C139.509 82.6953 142.722 88.7722 145.87 94.6264L146.422 95.695C148.564 99.7463 150.479 103.018 152.483 105.977C161.767 119.683 172.235 127.321 185.412 130.002C186.305 130.177 187.199 130.353 188.019 130.484C193.991 131.358 200.19 131.362 206.203 131.344C215.408 131.338 224.086 131.379 232.071 134.209C243.418 138.255 253.12 148.637 258.853 162.755C263.176 173.266 265.263 184.987 267.366 196.351C267.843 199.025 268.321 201.699 268.839 204.306C271.72 219.169 275.293 232.067 279.671 243.803C288.874 268.189 303.442 289.504 321.938 305.501L323.483 303.78C305.677 288.294 290.931 266.778 281.955 243.172C277.609 231.547 274.068 218.76 271.179 204.076C270.661 201.469 270.184 198.795 269.706 196.121C267.643 184.69 265.451 172.813 261.104 162.013C255.039 146.959 244.972 136.355 232.739 131.955C224.348 128.97 214.955 128.954 205.977 128.914C200.078 128.91 193.92 128.839 188.208 128.031C187.388 127.9 186.567 127.769 185.787 127.57C173.317 125.044 163.435 117.761 154.572 104.678C152.673 101.874 150.791 98.714 148.649 94.6627L148.097 93.5941C144.99 87.6729 141.745 81.4846 137.825 76.0786C134.051 70.7614 129.804 66.7164 125.273 63.9654Z" fill="#D51029"/>
<path d="M124.826 63.8773C120.222 61.082 114.852 59.3814 108.669 59.8459C97.1302 60.7279 87.6097 68.337 79.007 76.4116C77.1612 78.1339 75.3886 79.9006 73.6159 81.6672C67.5905 87.6383 61.2562 93.7886 54.1433 98.0907C51.9404 99.4128 49.6726 100.512 47.4131 101.433C39.4562 104.489 30.7621 104.805 22.2326 102.378C13.4432 99.8855 4.77777 94.7167 -3.69059 86.9166C-32.0752 60.5151 -46.8372 17.4402 -42.2533 -25.5368L-44.7149 -25.9307C-47.0313 -4.31951 -44.5949 17.701 -37.7449 37.724C-30.8949 57.7469 -19.6473 75.3041 -5.34949 88.6606C3.40297 96.8166 12.507 102.252 21.7432 104.832C30.8656 107.436 40.1286 107.007 48.5813 103.793C50.9139 102.916 53.3361 101.727 55.6935 100.316C63.0746 95.9012 69.4171 89.5725 75.597 83.5118C77.3697 81.7451 79.1423 79.9784 80.9474 78.3231C89.2006 70.4949 98.3308 63.1991 109.154 62.3416C121.294 61.4578 130.143 69.948 135.476 77.3117C139.575 82.9178 143.023 89.596 146.057 95.4729C148.158 99.5912 150.073 102.863 151.931 105.733C161.191 119.975 171.455 127.948 184.136 130.786C185.029 130.961 185.85 131.093 186.744 131.268C192.934 132.275 199.475 132.211 205.756 132.08C214.628 131.965 222.973 131.895 230.633 134.436C242.103 138.281 251.715 148.151 257.668 162.402C262.039 172.667 264.321 184.231 266.514 195.283C267.097 198.113 267.647 200.831 268.23 203.661C271.315 218.189 275.115 231.042 279.867 242.822C289.355 266.738 303.89 287.942 321.891 304.097L323.509 302.419C305.833 286.554 291.468 265.729 282.151 242.19C277.545 230.499 273.736 217.825 270.684 203.409C270.061 200.646 269.551 197.86 269.041 195.075C266.783 183.8 264.501 172.236 259.992 161.704C253.731 146.807 243.51 136.292 231.26 132.249C223.121 129.509 214.135 129.647 205.489 129.718C199.322 129.826 192.895 129.867 186.892 128.882C186.071 128.751 185.251 128.62 184.471 128.421C172.456 125.804 162.777 118.186 153.939 104.568C152.154 101.742 150.271 98.5815 148.202 94.5746C145.095 88.6534 141.615 81.8638 137.411 76.1019C134.383 71.6965 130.162 67.1164 124.826 63.8773Z" fill="#DC1029"/>
<path d="M124.526 63.878C119.482 60.8164 114.137 59.4056 108.636 59.7343C97.0329 60.3935 87.2932 67.8695 78.4712 75.811C76.6254 77.5333 74.6659 79.2782 72.8201 81.0005C66.5754 86.8384 60.095 92.9 52.9497 97.0908C50.6736 98.3685 48.4059 99.4678 46.187 100.322C38.2708 103.311 29.5036 103.582 20.901 101.111C12.0385 98.574 3.3 93.3609 -5.05458 85.5381C-33.22 59.2697 -47.244 18.1101 -42.7091 -24.6216L-45.2438 -25.0599C-47.5437 -3.80544 -45.2369 17.7696 -38.5165 37.347C-31.7962 56.9244 -20.8734 74.1928 -6.90035 87.2604C1.77902 95.3721 10.883 100.807 20.1517 103.499C29.2741 106.103 38.5695 105.785 47.0546 102.682C49.3872 101.806 51.8094 100.617 54.1992 99.3166C61.6127 95.0135 68.1745 88.8179 74.4599 82.913C76.3057 81.1907 78.1921 79.4014 80.0378 77.6791C88.5103 69.9839 97.8598 62.8212 108.748 62.1864C120.766 61.5037 129.615 69.9939 134.915 77.2462C138.909 82.6966 142.292 89.152 145.431 95.1846C147.532 99.303 149.374 102.53 151.119 105.423C160.313 120.267 170.3 128.531 182.64 131.436C183.493 131.679 184.314 131.81 185.207 131.986C191.658 133.059 198.353 132.905 204.975 132.707C213.1 132.504 221.526 132.3 228.935 134.597C240.38 138.152 250.074 147.888 256.222 161.982C260.642 172.002 263.087 183.298 265.475 194.194C266.131 197.068 266.746 200.009 267.402 202.883C270.763 217.12 274.758 229.816 279.73 241.729C289.461 265.244 304.005 286.269 321.624 302.559L323.242 300.882C305.875 284.837 291.615 264.167 281.981 240.987C277.115 229.229 273.111 216.711 269.783 202.586C269.127 199.712 268.512 196.771 267.856 193.897C265.435 182.89 262.958 171.482 258.4 161.196C251.911 146.344 241.6 136.142 229.416 132.321C221.561 129.937 212.948 130.119 204.595 130.367C198.2 130.52 191.578 130.718 185.388 129.711C184.567 129.58 183.787 129.382 183.008 129.183C171.301 126.387 162.11 118.79 153.232 104.414C151.52 101.632 149.678 98.4047 147.609 94.3977C144.437 88.2538 141.022 81.6869 136.85 76.0364C133.23 70.6296 128.984 66.5846 124.526 63.878Z" fill="#E30F29"/>
<path d="M124.111 63.9021C119.14 60.8849 113.909 59.4515 108.489 59.6462C96.8214 60.0826 86.7893 67.3812 77.748 75.1895C75.8291 76.8674 73.8289 78.6794 71.9101 80.3573C65.5192 86.1065 58.8926 92.0793 51.6418 96.1143C49.3657 97.392 47.0249 98.447 44.806 99.3009C36.7436 102.201 28.204 102.428 19.4552 99.8677C10.7065 97.3078 1.74869 91.9616 -6.45972 84.2275C-33.8618 58.5142 -47.659 18.1342 -43.3198 -23.6159L-45.8545 -24.0542C-48.0158 -3.3575 -45.6518 17.7937 -39.1018 36.9926C-32.6249 56.1472 -21.9862 73.0597 -8.2648 85.8828C0.268389 93.9057 9.59164 99.4738 18.7465 102.189C27.9421 104.836 37.2699 104.63 45.7143 101.595C48.1199 100.762 50.5015 99.6404 52.932 98.2731C60.3779 94.0814 67.1183 88.086 73.5905 82.2028C75.5094 80.5248 77.4689 78.7799 79.4284 77.0349C88.1932 69.5173 97.8027 62.4207 108.756 62.0087C118.279 61.6456 127.058 66.7917 134.769 77.1581C138.762 82.6085 142.186 88.9969 145.252 94.9852C146.696 97.8792 148.668 101.552 150.753 105.202C156.993 115.685 166.14 128.298 181.518 132.132C182.371 132.374 183.191 132.506 184.085 132.681C190.682 133.843 197.645 133.577 204.422 133.289C212.328 132.953 220.421 132.639 227.65 134.735C239.072 138 248.814 147.491 255.19 161.54C259.732 171.359 262.339 182.387 264.85 193.081C265.538 196.067 266.3 199.097 267.061 202.127C270.593 215.917 274.954 228.835 280.12 240.592C290.137 263.637 304.575 284.507 321.771 300.998L323.462 299.366C306.477 283.186 292.291 262.561 282.371 239.849C277.237 228.204 272.949 215.33 269.482 201.763C268.68 198.8 268.033 195.747 267.344 192.762C264.802 181.956 262.089 170.772 257.481 160.731C250.725 145.992 240.333 135.923 228.131 132.459C220.455 130.275 212.134 130.635 204.042 130.949C197.452 131.259 190.602 131.502 184.265 130.407C183.445 130.275 182.665 130.077 181.885 129.879C170.594 127.059 161.605 119.126 152.793 104.148C150.667 100.565 148.769 96.9366 147.325 94.0425C144.226 87.9429 140.77 81.443 136.671 75.8369C132.815 70.6537 128.569 66.6087 124.111 63.9021Z" fill="#EA0E2A"/>
<path d="M123.664 63.8143C118.84 60.8859 113.722 59.4298 108.343 59.5575C97.3257 59.7467 87.8795 65.7503 76.9849 74.6344C74.9929 76.268 73.0741 77.9459 71.1553 79.6239C64.5044 85.3069 57.6178 91.2137 50.2533 95.2713C47.9041 96.5046 45.5633 97.5596 43.3444 98.4135C35.209 101.269 26.6369 101.384 17.9288 98.7576C9.10698 96.1533 0.116763 90.6957 -7.94546 83.0503C-34.6573 57.8478 -48.1221 18.4032 -44.0111 -22.4767L-46.5458 -22.915C-50.8036 18.7011 -37.0388 58.9697 -9.75054 84.7056C-1.36353 92.6398 7.99213 98.3193 17.2201 101.078C26.5618 103.815 35.6214 103.721 44.2527 100.707C46.6583 99.875 49.113 98.7974 51.5435 97.4301C59.1356 93.3272 66.1035 87.2864 72.8681 81.5807C74.7463 79.9698 76.7789 78.2692 78.6571 76.6583C89.0884 68.0431 98.1849 62.2858 108.488 62.121C118.002 61.9363 126.668 67.105 134.305 77.4271C138.55 83.1219 142.071 89.8445 144.684 95.0984C146.298 98.3709 148.091 101.844 149.997 105.294C156.18 116.2 165.197 129.193 180.079 133.184C180.859 133.382 181.712 133.625 182.605 133.8C189.421 135.095 196.58 134.672 203.511 134.295C211.084 133.848 218.958 133.401 225.976 135.186C237.374 138.161 247.238 147.451 253.882 161.388C258.473 170.961 261.276 181.833 263.949 192.259C264.783 195.334 265.536 198.542 266.444 201.66C270.211 215.227 274.8 228.1 280.194 239.811C290.422 262.343 304.828 283.101 321.715 299.772L323.48 298.184C306.82 281.468 292.625 261.021 282.535 238.756C277.173 227.156 272.69 214.439 268.955 200.984C268.121 197.91 267.254 194.724 266.492 191.694C263.787 181.157 260.952 170.174 256.296 160.378C249.312 145.684 238.83 135.928 226.693 132.687C219.268 130.747 211.167 131.24 203.407 131.664C196.663 132.064 189.619 132.464 183.176 131.212C182.356 131.081 181.576 130.883 180.796 130.685C166.954 126.958 158.708 115.167 152.42 104.105C150.472 100.722 148.752 97.2934 147.138 94.0208C144.453 88.7226 140.826 81.8442 136.476 75.9936C132.369 70.5659 128.123 66.5209 123.664 63.8143Z" fill="#F10D2A"/>
<path d="M123.176 63.7935C118.426 60.9094 113.422 59.4306 108.124 59.4243C97.0414 59.3908 87.303 65.2169 76.1891 73.9679C74.124 75.5571 72.0507 77.3247 70.0588 78.9583C63.2618 84.5526 56.1966 90.2592 48.8403 94.1385C46.4912 95.3718 44.0772 96.3823 41.826 97.1249C33.6581 99.8695 25.1266 99.9175 16.3048 97.3132C7.4099 94.6646 -1.53964 89.14 -9.60186 81.4946C-35.6234 56.8028 -48.7882 18.1822 -44.7593 -21.7387L-47.2209 -22.1326C-51.3236 18.5689 -37.8181 57.9465 -11.2201 83.1716C-2.83308 91.1058 6.48191 96.8523 15.8236 99.5888C25.1247 102.392 34.2574 102.342 42.921 99.4403C45.3267 98.6081 47.7814 97.5305 50.2443 96.2746C57.8688 92.283 65.0153 86.4424 71.853 80.7811C73.8449 79.1475 75.9507 77.4913 77.9426 75.8577C88.6663 67.4201 97.9821 61.7959 108.35 61.8538C117.742 61.8701 126.408 67.0388 133.94 77.2052C138.436 83.1445 141.949 90.0455 144.253 94.6537C145.941 97.9706 147.62 101.466 149.453 104.872C155.887 116.847 164.425 129.641 178.811 133.79C179.664 134.032 180.444 134.231 181.337 134.406C188.186 135.812 195.613 135.277 202.739 134.743C210.092 134.164 217.706 133.65 224.546 135.235C235.879 137.988 245.865 147.076 252.704 160.857C257.303 170.251 260.269 180.855 263.137 191.125C264.004 194.31 264.903 197.607 265.884 200.77C269.855 214.002 274.712 226.762 280.366 238.54C291.049 260.981 305 281.005 321.716 298.122L323.481 296.534C306.902 279.684 293.203 259.905 282.658 237.73C277.077 225.997 272.212 213.415 268.346 200.339C267.406 197.109 266.466 193.879 265.599 190.694C262.699 180.313 259.774 169.642 254.996 160.047C247.817 145.51 237.18 135.843 225.027 132.959C217.781 131.22 209.94 131.778 202.359 132.403C195.419 132.959 188.22 133.449 181.705 132.153C180.925 131.955 180.104 131.824 179.365 131.558C165.978 127.742 157.83 115.459 151.672 104.018C149.912 100.656 148.192 97.2281 146.504 93.9112C144.168 89.1916 140.477 82.0905 135.875 75.9954C131.995 70.5224 127.708 66.5444 123.176 63.7935Z" fill="#F80D2A"/>
<path d="M122.803 63.7501C118.491 61.1322 113.609 59.4525 108.092 59.313C93.9057 58.9544 81.3122 68.8247 69.1495 78.3145C60.0275 85.432 50.6698 92.773 40.5595 96.0809C17.0962 103.754 -3.22812 87.473 -10.8925 80.1609C-36.2238 55.9798 -49.0156 18.2276 -45.2555 -20.7561L-47.8308 -21.1274C-51.7378 18.5925 -38.6054 57.1017 -12.6976 81.8162C4.28746 97.9961 23.9942 104.09 41.4677 98.3746C51.96 94.9318 61.586 87.4784 70.7893 80.227C83.1877 70.5135 94.9194 61.4039 108.171 61.6538C126.038 62.0459 137.131 80.5177 143.888 94.432L144.715 96.0348C152.333 111.663 160.907 129.34 177.543 134.395C185.325 136.735 193.703 135.952 201.894 135.147C209.028 134.434 216.422 133.788 223.043 135.239C234.351 137.702 244.46 146.59 251.453 160.281C256.175 169.475 259.23 179.766 262.22 189.834C263.233 193.109 264.165 196.517 265.251 199.836C276.931 236.454 296.388 269.817 321.572 296.384L323.409 294.84C298.51 268.629 279.263 235.578 267.681 199.293C266.668 196.019 265.622 192.633 264.609 189.359C261.587 179.179 258.426 168.732 253.64 159.315C246.192 144.891 235.434 135.425 223.305 132.831C216.238 131.291 208.616 131.983 201.294 132.674C193.331 133.434 185.181 134.172 177.992 132.009C162.542 127.306 154.511 110.876 146.829 95.0251L146.001 93.4223C141.102 83.2035 133.694 70.3613 122.803 63.7501Z" fill="#FF0C2A"/>
</g>
<path opacity="0.2" fill-rule="evenodd" clip-rule="evenodd" d="M109.858 118.034C109.677 118.034 109.531 118.178 109.531 118.354V120.846C109.531 121.023 109.677 121.166 109.858 121.166H124.567C124.747 121.166 124.894 121.023 124.894 120.846V118.354C124.894 118.178 124.747 118.034 124.567 118.034H109.858Z" fill="url(#paint0_linear)"/>
<path opacity="0.2" fill-rule="evenodd" clip-rule="evenodd" d="M39.583 154.43C39.4767 154.43 39.3906 154.505 39.3906 154.598V155.904C39.3906 155.996 39.4767 156.071 39.583 156.071H48.2253C48.3316 156.071 48.4177 155.996 48.4177 155.904V154.598C48.4177 154.505 48.3316 154.43 48.2253 154.43H39.583Z" fill="#FF9E93"/>
<path opacity="0.2" fill-rule="evenodd" clip-rule="evenodd" d="M27.2034 46.9263C27.1358 46.9263 27.0811 46.9638 27.0811 47.0102V47.663C27.0811 47.7093 27.1358 47.7469 27.2034 47.7469H32.7031C32.7708 47.7469 32.8255 47.7093 32.8255 47.663V47.0102C32.8255 46.9638 32.7708 46.9263 32.7031 46.9263H27.2034Z" fill="#FF9E93"/>
<path opacity="0.2" fill-rule="evenodd" clip-rule="evenodd" d="M121.618 99.9634C120.891 99.9634 120.302 100.537 120.302 101.244V107.011C120.302 109.136 119.026 110.163 117.185 110.163C115.393 110.163 114.067 109.136 114.067 107.011V101.244C114.067 100.537 113.478 99.9634 112.751 99.9634H110.965C110.238 99.9634 109.649 100.537 109.649 101.244V106.796C109.649 109.112 110.361 110.927 111.784 112.216C113.208 113.482 115 114.127 117.185 114.127C119.369 114.127 121.161 113.482 122.585 112.216C124.001 110.934 124.713 109.131 124.72 106.832V101.232C124.714 100.53 124.127 99.9634 123.404 99.9634H121.618Z" fill="url(#paint1_linear)"/>
<path opacity="0.2" fill-rule="evenodd" clip-rule="evenodd" d="M46.5595 143.762C46.1241 143.762 45.7713 144.094 45.7713 144.503V147.845C45.7713 149.077 45.0068 149.671 43.9042 149.671C42.8309 149.671 42.037 149.077 42.037 147.845V144.503C42.037 144.094 41.6841 143.762 41.2488 143.762H40.1788C39.7435 143.762 39.3906 144.094 39.3906 144.503V147.721C39.3906 149.063 39.817 150.114 40.6697 150.861C41.5224 151.595 42.5957 151.968 43.9042 151.968C45.2127 151.968 46.2858 151.595 47.1386 150.861C47.9869 150.118 48.4133 149.074 48.4177 147.741V144.497C48.4138 144.09 48.0624 143.762 47.6294 143.762H46.5595Z" fill="#FF9E93"/>
<path opacity="0.2" fill-rule="evenodd" clip-rule="evenodd" d="M31.6431 39.5405C31.366 39.5405 31.1415 39.773 31.1415 40.0597V42.399C31.1415 43.2609 30.655 43.6773 29.9533 43.6773C29.2703 43.6773 28.7651 43.2609 28.7651 42.399V40.0597C28.7651 39.773 28.5405 39.5405 28.2635 39.5405H27.5826C27.3056 39.5405 27.0811 39.773 27.0811 40.0597V42.3118C27.0811 43.2513 27.3524 43.9872 27.895 44.5102C28.4376 45.0235 29.1207 45.285 29.9533 45.285C30.786 45.285 31.4689 45.0235 32.0116 44.5102C32.5514 43.9899 32.8227 43.2588 32.8255 42.3263V40.0551C32.8231 39.7705 32.5995 39.5405 32.3239 39.5405H31.6431Z" fill="#FF9E93"/>
</g>
<defs>
<linearGradient id="paint0_linear" x1="53.4437" y1="101.086" x2="53.4437" y2="127.085" gradientUnits="userSpaceOnUse">
<stop stop-color="#FF421D"/>
<stop offset="1" stop-color="#FF0400"/>
</linearGradient>
<linearGradient id="paint1_linear" x1="103.478" y1="99.7404" x2="103.478" y2="125.501" gradientUnits="userSpaceOnUse">
<stop stop-color="#FF421D"/>
<stop offset="1" stop-color="#FF0400"/>
</linearGradient>
<clipPath id="clip0">
<rect width="334" height="192.029" fill="white" transform="translate(0 0.970703)"/>
</clipPath>
</defs>
</svg>
