<svg width="482" height="315" viewBox="0 0 482 315" fill="none" xmlns="http://www.w3.org/2000/svg">
<g clip-path="url(#clip0)">
<g opacity="0.27">
<path opacity="0.27" d="M186.497 243.093L160.778 259.068L162.911 262.516L188.63 246.542L186.497 243.093Z" fill="#FF2911"/>
</g>
<g opacity="0.27">
<path opacity="0.27" d="M177.127 236.926L151.408 252.901L153.54 256.349L179.259 240.375L177.127 236.926Z" fill="#FF2911"/>
</g>
<path opacity="0.27" d="M237.914 305.771H226.276C214.436 305.771 202.798 302.627 192.577 296.745L42.0979 210.541L44.1218 206.991L193.691 292.79C203.911 298.672 215.549 301.816 227.389 301.816H236.902C248.64 301.816 260.076 298.773 270.297 292.992L370.785 235.996L372.809 239.546L271.308 297.049C261.088 302.83 249.652 305.771 237.914 305.771Z" fill="#FF2911"/>
<path opacity="0.27" d="M233.764 295.731H230.83C218.99 295.731 207.352 292.587 197.131 286.705L77.719 218.147L79.7429 214.598L198.244 282.547C208.465 288.429 220.103 291.573 231.943 291.573H232.752C244.491 291.573 255.926 288.53 266.147 282.75L352.367 233.867L354.391 237.416L267.159 286.908C256.938 292.688 245.402 295.731 233.764 295.731Z" fill="#FF2911"/>
<path d="M352.266 231.636L354.29 235.185L267.159 284.575C256.938 290.356 245.503 293.398 233.764 293.398H230.83C218.99 293.398 207.352 290.255 197.131 284.372L77.719 215.815L79.7429 212.265" stroke="#FF2911" stroke-width="1.5" stroke-miterlimit="10"/>
<ellipse cx="233" cy="163" rx="246" ry="150" fill="url(#paint0_radial)" fill-opacity="0.3"/>
<path d="M369.672 238.938L270.6 295.123C260.683 300.802 249.45 303.743 238.015 303.743H226.58C215.043 303.743 203.709 300.7 193.691 295.021L46.7529 210.642L48.6757 207.194" stroke="#FF2911" stroke-width="1.5" stroke-miterlimit="10"/>
<path d="M187.517 244.82L161.813 260.844" stroke="#FF2911" stroke-width="1.5" stroke-miterlimit="10"/>
<path d="M178.106 238.633L152.503 254.556" stroke="#FF2911" stroke-width="1.5" stroke-miterlimit="10"/>
<path d="M309.055 225.347C309.257 247.456 277.178 265.711 237.408 266.015C197.637 266.32 165.254 248.673 165.052 226.564C165.052 223.218 163.433 203.543 164.849 200.399C172.54 182.955 203.001 186.201 236.699 185.896C268.88 185.592 299.137 178.899 308.448 195.125C310.674 198.878 309.055 221.189 309.055 225.347Z" fill="url(#paint1_linear)"/>
<path d="M237.264 239.959C277.057 239.607 309.158 221.386 308.963 199.262C308.768 177.138 276.352 159.488 236.558 159.84C196.765 160.192 164.664 178.412 164.859 200.537C165.054 222.661 197.471 240.311 237.264 239.959Z" fill="#32324C"/>
<path d="M237.205 235.185C200.268 235.489 170.112 219.769 169.505 199.892C169.505 200.095 169.505 200.196 169.505 200.399C169.707 220.479 200.066 236.503 237.306 236.098C274.547 235.793 304.602 219.262 304.4 199.182C304.4 198.979 304.4 198.878 304.4 198.675C303.995 218.654 274.142 234.881 237.205 235.185Z" fill="#19192D"/>
<path opacity="0.13" d="M236.598 164.903C273.535 164.599 303.691 179.406 304.299 199.284C304.299 199.081 304.299 198.979 304.299 198.777C304.096 178.696 273.737 162.672 236.497 163.078C199.256 163.382 169.201 179.913 169.403 199.993C169.403 200.196 169.403 200.298 169.403 200.501C169.707 180.623 199.56 165.208 236.598 164.903Z" fill="white"/>
<path opacity="0.37" d="M184.785 196.14C184.583 209.426 208.06 220.074 237.408 219.77C266.653 219.466 290.637 208.513 290.839 195.126C291.042 181.739 267.564 171.192 238.217 171.394C208.971 171.699 184.988 182.753 184.785 196.14Z" fill="url(#paint2_linear)"/>
<path opacity="0.37" d="M182.761 197.154C182.862 211.454 207.959 222.914 238.723 222.61C269.487 222.305 294.28 210.44 294.179 196.14C294.078 181.739 268.981 170.38 238.217 170.684C207.453 170.988 182.66 182.854 182.761 197.154Z" fill="url(#paint3_linear)"/>
<path d="M238.318 177.378C264.225 177.175 285.577 185.795 288.208 197.154C288.411 196.444 288.411 195.633 288.411 194.923C288.31 182.449 265.844 172.611 238.217 172.814C210.59 173.017 188.327 183.361 188.428 195.734C188.428 196.546 188.53 197.256 188.732 197.965C191.161 186.708 212.412 177.682 238.318 177.378Z" fill="url(#paint4_linear)"/>
<path opacity="0.64" d="M177.499 152.835C177.6 168.25 204.62 180.522 237.711 180.218C270.802 179.913 297.62 167.135 297.417 151.72C297.316 136.304 270.296 124.033 237.205 124.337C204.114 124.641 177.398 137.42 177.499 152.835Z" fill="url(#paint5_linear)"/>
<path d="M270.904 9.93902L274.547 10.6489L265.945 5.67952C265.641 5.47669 265.338 5.27385 264.933 5.07102L264.63 4.86819C257.04 0.91294 246.819 1.82569 235.586 8.6206C212.311 22.7175 193.589 56.8949 193.893 84.9873C193.994 98.2729 198.346 107.806 205.429 112.674L205.531 112.775C206.239 113.283 207.049 113.688 207.858 114.094L216.258 119.063L215.853 116.224C222.026 116.629 229.008 114.702 236.497 110.24C259.772 96.1431 278.493 61.9657 278.19 33.8733C278.19 23.4274 275.458 15.3141 270.904 9.93902ZM236.294 87.2185C223.544 94.9261 213.12 88.7397 212.918 73.4258C212.817 58.1119 223.038 39.3498 235.788 31.6422C248.539 23.9345 258.963 30.1209 259.165 45.4348C259.266 60.7487 249.045 79.5108 236.294 87.2185Z" fill="url(#paint6_linear)"/>
<path d="M245.301 14.2999C222.026 28.3968 203.304 62.5742 203.608 90.6666C203.81 118.658 222.936 130.016 246.212 115.818C269.487 101.721 288.208 67.5436 287.905 39.4512C287.702 11.3588 268.576 0.10154 245.301 14.2999ZM246.009 92.7963C233.259 100.504 222.835 94.3176 222.633 79.0037C222.532 63.6897 232.753 44.9277 245.503 37.22C258.254 29.5124 268.677 35.6988 268.88 51.0127C268.981 66.3266 258.76 85.0886 246.009 92.7963Z" fill="url(#paint7_linear)"/>
<path d="M245.402 20.7907C225.062 33.0621 208.769 62.8786 208.971 87.32C209.174 111.761 225.871 121.599 246.111 109.226C266.451 96.9546 282.744 67.1381 282.541 42.6967C282.339 18.2553 265.642 8.41789 245.402 20.7907Z" fill="url(#paint8_linear)"/>
<mask id="mask0" mask-type="alpha" maskUnits="userSpaceOnUse" x="227" y="75" width="36" height="22">
<path fill-rule="evenodd" clip-rule="evenodd" d="M229.211 89.1456C228.806 89.3484 228.502 89.7541 228.401 90.1597L227.996 95.9405C227.996 96.3461 228.3 96.549 228.705 96.3461L260.885 83.162C261.29 82.9592 261.594 82.5535 261.695 82.1478L262.1 76.3671C262.1 75.9614 261.796 75.7586 261.391 75.9614L229.211 89.1456Z" fill="white"/>
</mask>
<g mask="url(#mask0)">
<path fill-rule="evenodd" clip-rule="evenodd" d="M235.282 74.0347L229.413 76.4687L229.514 74.5418L231.437 73.7305L235.282 74.0347Z" fill="#F41B20"/>
<path fill-rule="evenodd" clip-rule="evenodd" d="M239.229 74.2375L229.312 78.2942L229.413 76.4687L235.283 74.0347L239.229 74.2375Z" fill="#F31A21"/>
<path fill-rule="evenodd" clip-rule="evenodd" d="M243.075 74.5416L229.109 80.2209L229.312 78.294L239.229 74.2373L243.075 74.5416Z" fill="#F31922"/>
<path fill-rule="evenodd" clip-rule="evenodd" d="M246.92 74.8458L229.008 82.1477L229.109 80.2208L243.075 74.5415L246.92 74.8458Z" fill="#F21823"/>
<path fill-rule="evenodd" clip-rule="evenodd" d="M250.766 75.0485L228.907 84.0746L229.008 82.1477L246.92 74.8457L250.766 75.0485Z" fill="#F11724"/>
<path fill-rule="evenodd" clip-rule="evenodd" d="M254.611 75.3531L228.705 85.9004L228.907 84.0749L250.765 75.0488L254.611 75.3531Z" fill="#F01725"/>
<path fill-rule="evenodd" clip-rule="evenodd" d="M258.558 75.5559L228.604 87.8273L228.705 85.9003L254.611 75.353L258.558 75.5559Z" fill="#F01626"/>
<path fill-rule="evenodd" clip-rule="evenodd" d="M262.1 75.9613L228.502 89.754L228.604 87.8271L258.558 75.5557L262.201 75.8599L262.1 75.9613Z" fill="#EF1527"/>
<path fill-rule="evenodd" clip-rule="evenodd" d="M261.998 77.8883L228.401 91.681L228.502 89.7541L262.1 75.9614L261.998 77.8883Z" fill="#EE1428"/>
<path fill-rule="evenodd" clip-rule="evenodd" d="M261.897 79.7137L228.199 93.5063L228.401 91.6808L261.998 77.8882L261.897 79.7137Z" fill="#ED1329"/>
<path fill-rule="evenodd" clip-rule="evenodd" d="M261.796 81.6408L228.097 95.4334L228.199 93.5065L261.897 79.7139L261.796 81.6408Z" fill="#ED122A"/>
<path fill-rule="evenodd" clip-rule="evenodd" d="M261.594 83.5675L229.413 96.7517L227.996 96.6503L228.098 95.4333L261.796 81.6406L261.594 83.5675Z" fill="#EC112B"/>
<path fill-rule="evenodd" clip-rule="evenodd" d="M261.492 85.4948L233.259 97.0563L229.413 96.752L261.594 83.5679L261.492 85.4948Z" fill="#EB102C"/>
<path fill-rule="evenodd" clip-rule="evenodd" d="M261.391 87.3201L237.205 97.259L233.259 97.0561L261.492 85.4946L261.391 87.3201Z" fill="#EB0F2D"/>
<path fill-rule="evenodd" clip-rule="evenodd" d="M261.29 89.2472L241.051 97.5634L237.205 97.2591L261.391 87.3203L261.29 89.2472Z" fill="#EA0F2E"/>
<path fill-rule="evenodd" clip-rule="evenodd" d="M261.088 91.174L244.896 97.7661L241.051 97.5632L261.29 89.2471L261.088 91.174Z" fill="#EA0E2F"/>
<path fill-rule="evenodd" clip-rule="evenodd" d="M260.987 93.1007L248.742 98.0702L244.896 97.7659L261.088 91.1738L260.987 93.1007Z" fill="#E90D30"/>
<path fill-rule="evenodd" clip-rule="evenodd" d="M260.885 94.9266L252.688 98.3747L248.742 98.0705L260.986 93.1011L260.885 94.9266Z" fill="#E80D30"/>
<path fill-rule="evenodd" clip-rule="evenodd" d="M260.683 96.8532L256.534 98.5773L252.688 98.3744L260.885 94.9263L260.683 96.8532Z" fill="#E80C31"/>
</g>
<mask id="mask1" mask-type="alpha" maskUnits="userSpaceOnUse" x="230" y="34" width="35" height="41">
<path fill-rule="evenodd" clip-rule="evenodd" d="M257.849 36.3075C256.23 36.916 254.915 38.8429 254.814 40.4655L253.903 53.954C253.599 58.9234 250.563 62.473 246.617 64.0956C242.67 65.7183 239.938 64.5013 240.241 59.5319L241.152 46.0435C241.253 44.4208 240.039 43.6095 238.521 44.218L234.574 45.8406C232.955 46.4491 231.639 48.376 231.538 49.9987L230.628 62.98C230.223 68.3551 231.538 72.0061 234.473 73.7302C237.408 75.4543 241.253 75.3529 246.009 73.3245C250.766 71.3976 254.814 68.2537 258.153 63.9942C261.493 59.7347 263.314 54.8667 263.719 49.4916L264.63 36.4089C264.731 34.7862 263.516 33.9749 261.998 34.5834L257.849 36.3075Z" fill="white"/>
</mask>
<g mask="url(#mask1)">
<path fill-rule="evenodd" clip-rule="evenodd" d="M262.302 33.9751L231.64 46.5508L232.652 31.9468L262.302 33.9751Z" fill="#FF2911"/>
<path fill-rule="evenodd" clip-rule="evenodd" d="M264.528 34.8878L231.538 48.4777L231.64 46.5508L262.302 33.9751L264.63 34.1779L264.528 34.8878Z" fill="#FF2911"/>
<path fill-rule="evenodd" clip-rule="evenodd" d="M264.427 36.8146L231.437 50.303L231.538 48.4775L264.528 34.8877L264.427 36.8146Z" fill="#FE2812"/>
<path fill-rule="evenodd" clip-rule="evenodd" d="M264.326 38.6404L231.336 52.2303L231.437 50.3033L264.427 36.8149L264.326 38.6404Z" fill="#FD2713"/>
<path fill-rule="evenodd" clip-rule="evenodd" d="M264.225 40.5671L231.134 54.0555L231.336 52.23L264.326 38.6401L264.225 40.5671Z" fill="#FC2615"/>
<path fill-rule="evenodd" clip-rule="evenodd" d="M264.023 42.4943L231.032 55.9827L231.134 54.0558L264.225 40.5674L264.023 42.4943Z" fill="#FC2516"/>
<path fill-rule="evenodd" clip-rule="evenodd" d="M263.921 44.3196L230.931 57.9095L231.032 55.9825L264.022 42.4941L263.921 44.3196Z" fill="#FB2417"/>
<path fill-rule="evenodd" clip-rule="evenodd" d="M263.82 46.2467L230.83 59.7352L230.931 57.9096L263.921 44.3198L263.82 46.2467Z" fill="#FA2318"/>
<path fill-rule="evenodd" clip-rule="evenodd" d="M263.719 48.0721L230.627 61.6619L230.83 59.735L263.82 46.2466L263.719 48.0721Z" fill="#F92219"/>
<path fill-rule="evenodd" clip-rule="evenodd" d="M263.516 49.9987L230.526 63.4871L230.628 61.6616L263.719 48.0718L263.516 49.9987Z" fill="#F8201A"/>
<path fill-rule="evenodd" clip-rule="evenodd" d="M263.415 51.8245L230.425 65.4143L230.526 63.4874L263.517 49.999L263.415 51.8245Z" fill="#F71F1C"/>
<path fill-rule="evenodd" clip-rule="evenodd" d="M263.314 53.7511L230.324 67.2395L230.425 65.414L263.415 51.8242L263.314 53.7511Z" fill="#F71E1D"/>
<path fill-rule="evenodd" clip-rule="evenodd" d="M263.112 55.6784L230.122 69.1668L230.324 67.2399L263.314 53.7515L263.112 55.6784Z" fill="#F61D1E"/>
<path fill-rule="evenodd" clip-rule="evenodd" d="M263.011 57.5037L230.021 71.0935L230.122 69.1666L263.112 55.6782L263.011 57.5037Z" fill="#F51C1F"/>
<path fill-rule="evenodd" clip-rule="evenodd" d="M262.909 59.4308L229.919 72.9192L230.02 71.0937L263.011 57.5039L262.909 59.4308Z" fill="#F41B20"/>
<path fill-rule="evenodd" clip-rule="evenodd" d="M262.808 61.2562L229.717 74.846L229.919 72.9191L262.909 59.4307L262.808 61.2562Z" fill="#F31A21"/>
<path fill-rule="evenodd" clip-rule="evenodd" d="M262.606 63.1833L233.157 75.2518L229.717 75.049V74.8462L262.808 61.2563L262.606 63.1833Z" fill="#F31922"/>
<path fill-rule="evenodd" clip-rule="evenodd" d="M262.505 65.11L237.003 75.4545L233.157 75.2517L262.606 63.1831L262.505 65.11Z" fill="#F21823"/>
<path fill-rule="evenodd" clip-rule="evenodd" d="M262.403 66.9354L240.848 75.7586L237.003 75.4544L262.505 65.1099L262.403 66.9354Z" fill="#F11724"/>
<path fill-rule="evenodd" clip-rule="evenodd" d="M262.302 68.8625L244.694 76.063L240.848 75.7588L262.403 66.9355L262.302 68.8625Z" fill="#F01725"/>
<path fill-rule="evenodd" clip-rule="evenodd" d="M262.1 70.6878L248.539 76.2657L244.694 76.0629L262.302 68.8623L262.1 70.6878Z" fill="#F01626"/>
<path fill-rule="evenodd" clip-rule="evenodd" d="M261.998 72.6149L252.385 76.5702L248.539 76.2659L262.1 70.688L261.998 72.6149Z" fill="#EF1527"/>
<path fill-rule="evenodd" clip-rule="evenodd" d="M261.897 74.4402L256.23 76.7728L252.385 76.57L261.998 72.6147L261.897 74.4402Z" fill="#EE1428"/>
<path fill-rule="evenodd" clip-rule="evenodd" d="M261.796 76.3673L259.975 77.0773L256.23 76.773L261.897 74.4404L261.796 76.3673Z" fill="#ED1329"/>
</g>
<path d="M261.391 135.493L258.861 137.318L258.963 137.42L261.391 135.594V135.493Z" fill="url(#paint9_linear)"/>
<path opacity="0.36" d="M204.418 151.821L199.661 148.981L199.56 133.16L204.316 136L204.418 151.821Z" fill="url(#paint10_linear)"/>
<path opacity="0.36" d="M204.215 130.422L199.459 127.582L199.155 89.6523L203.912 92.492L204.215 130.422Z" fill="url(#paint11_linear)"/>
<path d="M209.275 133.465L207.656 132.552L207.555 119.672L209.174 120.585L209.275 133.465Z" fill="url(#paint12_linear)"/>
<path opacity="0.36" d="M218.079 159.934L213.323 157.095V152.024L218.079 154.762V159.934Z" fill="url(#paint13_linear)"/>
<path opacity="0.36" d="M217.978 150.097L213.323 147.359L213.222 142.187L217.978 145.026V150.097Z" fill="url(#paint14_linear)"/>
<path opacity="0.36" d="M217.877 140.361L213.222 137.521L213.12 132.45L217.877 135.29V140.361Z" fill="url(#paint15_linear)"/>
<path opacity="0.36" d="M202.393 167.946L195.917 164.092L195.816 157.095L202.292 160.949L202.393 167.946Z" fill="url(#paint16_linear)"/>
<path d="M209.579 141.476L207.453 140.158V137.825L209.579 139.144V141.476Z" fill="url(#paint17_linear)"/>
<path d="M209.68 146.04L207.453 144.722V142.288L209.68 143.606V146.04Z" fill="url(#paint18_linear)"/>
<path d="M260.683 115.209C260.784 125.351 267.767 137.724 276.368 142.693C279.101 144.316 281.732 144.924 283.958 144.722L283.857 145.736L286.893 143.91C287.196 143.809 287.5 143.606 287.702 143.403C290.232 141.578 291.75 138.129 291.75 133.261C291.649 123.12 284.666 110.747 276.065 105.778C271.916 103.344 268.273 103.141 265.54 104.561L265.439 104.662C265.338 104.763 265.237 104.763 265.136 104.865L261.998 106.69L263.314 106.386C261.594 108.414 260.683 111.355 260.683 115.209ZM267.767 119.266C267.767 113.688 271.511 111.355 276.166 114.094C280.821 116.832 284.666 123.525 284.768 129.103C284.768 134.681 281.023 137.014 276.368 134.276C271.612 131.537 267.767 124.844 267.767 119.266Z" fill="url(#paint19_linear)"/>
<path d="M257.242 117.339C257.343 127.48 264.326 139.853 272.928 144.823C281.529 149.792 288.309 145.634 288.309 135.391C288.208 125.249 281.226 112.877 272.624 107.907C264.022 102.836 257.141 107.096 257.242 117.339ZM264.225 121.395C264.225 115.818 267.969 113.485 272.624 116.223C277.279 118.962 281.125 125.655 281.226 131.233C281.226 136.811 277.481 139.143 272.826 136.405C268.171 133.667 264.326 126.973 264.225 121.395Z" fill="url(#paint20_linear)"/>
<path d="M272.624 110.24C280.112 114.601 286.184 125.351 286.285 134.174C286.387 143.099 280.416 146.75 272.927 142.389C265.439 138.028 259.367 127.278 259.266 118.455C259.165 109.53 265.135 105.879 272.624 110.24Z" fill="url(#paint21_radial)"/>
<path d="M272.624 110.24C280.112 114.601 286.184 125.351 286.285 134.174C286.387 143.099 280.416 146.75 272.927 142.389C265.439 138.028 259.367 127.278 259.266 118.455C259.165 109.53 265.135 105.879 272.624 110.24Z" fill="url(#paint22_linear)"/>
<mask id="mask2" mask-type="alpha" maskUnits="userSpaceOnUse" x="265" y="131" width="15" height="10">
<path fill-rule="evenodd" clip-rule="evenodd" d="M265.641 131.132C265.439 131.03 265.338 131.132 265.338 131.334L265.54 134.073C265.54 134.275 265.743 134.478 265.844 134.58L278.797 140.868C278.999 140.969 279.101 140.868 279.101 140.665L278.898 137.926C278.898 137.724 278.696 137.521 278.595 137.419L265.641 131.132Z" fill="white"/>
</mask>
<g mask="url(#mask2)">
<path fill-rule="evenodd" clip-rule="evenodd" d="M276.166 130.32L278.494 131.537V130.624L277.684 130.219L276.166 130.32Z" fill="#F41B20"/>
<path fill-rule="evenodd" clip-rule="evenodd" d="M274.648 130.422L278.595 132.349L278.493 131.537L276.166 130.32L274.648 130.422Z" fill="#F31A21"/>
<path fill-rule="evenodd" clip-rule="evenodd" d="M273.029 130.523L278.696 133.261L278.595 132.348L274.648 130.421L273.029 130.523Z" fill="#F31922"/>
<path fill-rule="evenodd" clip-rule="evenodd" d="M271.511 130.624L278.696 134.174V133.261L273.029 130.523L271.511 130.624Z" fill="#F21823"/>
<path fill-rule="evenodd" clip-rule="evenodd" d="M269.993 130.726L278.797 135.087L278.696 134.174L271.511 130.625L269.993 130.726Z" fill="#F11724"/>
<path fill-rule="evenodd" clip-rule="evenodd" d="M268.374 130.929L278.797 136V135.087L269.993 130.726L268.374 130.929Z" fill="#F01725"/>
<path fill-rule="evenodd" clip-rule="evenodd" d="M266.856 131.03L278.898 136.811L278.797 136L268.374 130.929L266.856 131.03Z" fill="#F01626"/>
<path fill-rule="evenodd" clip-rule="evenodd" d="M265.338 131.132L278.999 137.724L278.898 136.811L266.856 131.03L265.338 131.132Z" fill="#EF1527"/>
<path fill-rule="evenodd" clip-rule="evenodd" d="M265.439 132.044L278.999 138.636V137.723L265.338 131.131L265.439 132.044Z" fill="#EE1428"/>
<path fill-rule="evenodd" clip-rule="evenodd" d="M265.54 132.957L279.101 139.549L278.999 138.637L265.439 132.044L265.54 132.957Z" fill="#ED1329"/>
<path fill-rule="evenodd" clip-rule="evenodd" d="M265.54 133.768L279.101 140.36V139.549L265.54 132.957V133.768Z" fill="#ED122A"/>
<path fill-rule="evenodd" clip-rule="evenodd" d="M265.641 134.681L278.595 140.969H279.202L279.101 140.361L265.54 133.769L265.641 134.681Z" fill="#EC112B"/>
<path fill-rule="evenodd" clip-rule="evenodd" d="M265.642 135.594L277.077 141.07L278.595 140.969L265.642 134.681V135.594Z" fill="#EB102C"/>
<path fill-rule="evenodd" clip-rule="evenodd" d="M265.743 136.507L275.458 141.172L277.077 141.07L265.642 135.594L265.743 136.507Z" fill="#EB0F2D"/>
<path fill-rule="evenodd" clip-rule="evenodd" d="M265.844 137.318L273.94 141.273L275.458 141.172L265.743 136.507L265.844 137.318Z" fill="#EA0F2E"/>
<path fill-rule="evenodd" clip-rule="evenodd" d="M265.844 138.231L272.422 141.375L273.939 141.273L265.844 137.318V138.231Z" fill="#EA0E2F"/>
<path fill-rule="evenodd" clip-rule="evenodd" d="M265.945 139.143L270.802 141.577L272.422 141.374L265.844 138.23L265.945 139.143Z" fill="#E90D30"/>
<path fill-rule="evenodd" clip-rule="evenodd" d="M265.945 140.056L269.285 141.679L270.803 141.578L265.945 139.144V140.056Z" fill="#E80D30"/>
<path fill-rule="evenodd" clip-rule="evenodd" d="M266.046 140.867L267.767 141.78L269.285 141.679L265.945 140.056L266.046 140.867Z" fill="#E80C31"/>
<path fill-rule="evenodd" clip-rule="evenodd" d="M267.767 141.78L266.046 140.868L266.147 141.882L267.767 141.78Z" fill="#E80C31"/>
</g>
<mask id="mask3" mask-type="alpha" maskUnits="userSpaceOnUse" x="264" y="113" width="15" height="20">
<path fill-rule="evenodd" clip-rule="evenodd" d="M265.338 113.891C264.731 113.587 264.225 113.992 264.225 114.702L264.629 120.787C264.832 123.323 265.54 125.554 266.957 127.582C268.272 129.61 269.892 131.03 271.916 131.943C273.838 132.856 275.356 132.957 276.571 132.146C277.684 131.334 278.19 129.712 278.089 127.176L277.684 121.091C277.583 120.28 277.077 119.469 276.469 119.164L274.85 118.353C274.243 118.049 273.737 118.455 273.737 119.164L274.142 125.452C274.344 127.785 273.231 128.292 271.612 127.582C269.993 126.771 268.778 125.148 268.576 122.815L268.171 116.629C268.07 115.818 267.564 115.006 266.957 114.702L265.338 113.891Z" fill="white"/>
</mask>
<g mask="url(#mask3)">
<path fill-rule="evenodd" clip-rule="evenodd" d="M265.135 113.587L277.481 119.57L276.975 112.775L265.135 113.587Z" fill="#FF2911"/>
<path fill-rule="evenodd" clip-rule="evenodd" d="M264.225 113.993L277.583 120.483L277.481 119.57L265.135 113.587H264.225V113.993Z" fill="#FF2911"/>
<path fill-rule="evenodd" clip-rule="evenodd" d="M264.326 114.905L277.583 121.294V120.483L264.225 113.992L264.326 114.905Z" fill="#FE2812"/>
<path fill-rule="evenodd" clip-rule="evenodd" d="M264.326 115.717L277.684 122.207L277.582 121.295L264.326 114.905V115.717Z" fill="#FD2713"/>
<path fill-rule="evenodd" clip-rule="evenodd" d="M264.427 116.629L277.684 123.12V122.207L264.326 115.716L264.427 116.629Z" fill="#FC2615"/>
<path fill-rule="evenodd" clip-rule="evenodd" d="M264.427 117.542L277.785 123.931L277.684 123.12L264.427 116.629V117.542Z" fill="#FC2516"/>
<path fill-rule="evenodd" clip-rule="evenodd" d="M264.528 118.353L277.886 124.844L277.785 123.931L264.427 117.542L264.528 118.353Z" fill="#FB2417"/>
<path fill-rule="evenodd" clip-rule="evenodd" d="M264.629 119.266L277.886 125.757V124.844L264.528 118.354L264.629 119.266Z" fill="#FA2318"/>
<path fill-rule="evenodd" clip-rule="evenodd" d="M264.629 120.179L277.987 126.568L277.886 125.757L264.629 119.266V120.179Z" fill="#F92219"/>
<path fill-rule="evenodd" clip-rule="evenodd" d="M264.731 120.99L277.987 127.481V126.568L264.629 120.179L264.731 120.99Z" fill="#F8201A"/>
<path fill-rule="evenodd" clip-rule="evenodd" d="M264.73 121.903L278.088 128.394L277.987 127.481L264.73 120.99V121.903Z" fill="#F71F1C"/>
<path fill-rule="evenodd" clip-rule="evenodd" d="M264.832 122.816L278.19 129.306L278.088 128.393L264.73 121.903L264.832 122.816Z" fill="#F71E1D"/>
<path fill-rule="evenodd" clip-rule="evenodd" d="M264.933 123.627L278.19 130.117V129.306L264.832 122.815L264.933 123.627Z" fill="#F61D1E"/>
<path fill-rule="evenodd" clip-rule="evenodd" d="M264.933 124.54L278.291 131.03L278.19 130.118L264.933 123.627V124.54Z" fill="#F51C1F"/>
<path fill-rule="evenodd" clip-rule="evenodd" d="M265.034 125.452L278.291 131.943V131.03L264.933 124.54L265.034 125.452Z" fill="#F41B20"/>
<path fill-rule="evenodd" clip-rule="evenodd" d="M265.034 126.365L278.392 132.755L278.291 131.943L265.034 125.453V126.365Z" fill="#F31A21"/>
<path fill-rule="evenodd" clip-rule="evenodd" d="M265.135 127.177L276.975 132.957L278.392 132.856V132.754L265.034 126.365L265.135 127.177Z" fill="#F31922"/>
<path fill-rule="evenodd" clip-rule="evenodd" d="M265.236 128.09L275.457 133.059L276.975 132.958L265.135 127.177L265.236 128.09Z" fill="#F21823"/>
<path fill-rule="evenodd" clip-rule="evenodd" d="M265.237 129.002L273.939 133.16L275.457 133.059L265.237 128.089V129.002Z" fill="#F11724"/>
<path fill-rule="evenodd" clip-rule="evenodd" d="M265.338 129.813L272.422 133.261L273.939 133.16L265.237 129.002L265.338 129.813Z" fill="#F01725"/>
<path fill-rule="evenodd" clip-rule="evenodd" d="M265.338 130.726L270.904 133.363L272.422 133.262L265.338 129.813V130.726Z" fill="#F01626"/>
<path fill-rule="evenodd" clip-rule="evenodd" d="M265.439 131.639L269.285 133.464L270.904 133.363L265.338 130.726L265.439 131.639Z" fill="#EF1527"/>
<path fill-rule="evenodd" clip-rule="evenodd" d="M265.439 132.45L267.767 133.566L269.284 133.464L265.439 131.639V132.45Z" fill="#EE1428"/>
<path fill-rule="evenodd" clip-rule="evenodd" d="M265.54 133.363L266.249 133.667L267.767 133.566L265.439 132.45L265.54 133.363Z" fill="#ED1329"/>
</g>
<path d="M274.041 145.026L275.963 143.809L275.862 128.495L273.939 129.61L274.041 145.026Z" fill="url(#paint23_linear)"/>
<path d="M288.006 127.379L290.232 125.96L290.131 123.627L288.006 124.945V127.379Z" fill="url(#paint24_linear)"/>
<path opacity="0.36" d="M280.214 194.416L284.16 191.982L283.958 178.899L280.113 181.333L280.214 194.416Z" fill="url(#paint25_linear)"/>
<path opacity="0.36" d="M280.113 176.567L283.958 174.234L283.452 112.471L279.505 114.905L280.113 176.567Z" fill="url(#paint26_linear)"/>
<path d="M264.225 208.107L265.743 207.194L265.641 194.314L264.124 195.329L264.225 208.107Z" fill="url(#paint27_linear)"/>
<path d="M275.964 179.203L277.279 178.392L277.178 167.743L275.862 168.555L275.964 179.203Z" fill="url(#paint28_linear)"/>
<path opacity="0.35" d="M268.981 201.414L272.826 198.98V194.72L268.981 197.154V201.414Z" fill="url(#paint29_linear)"/>
<path opacity="0.35" d="M268.88 193.3L272.827 190.866L272.725 186.607L268.88 189.041V193.3Z" fill="url(#paint30_linear)"/>
<path opacity="0.35" d="M268.88 185.086L272.725 182.652V178.392L268.779 180.826L268.88 185.086Z" fill="url(#paint31_linear)"/>
<path opacity="0.36" d="M268.779 176.972L272.624 174.538L272.422 142.795L268.475 145.229L268.779 176.972Z" fill="url(#paint32_linear)"/>
<path d="M275.761 185.897L277.583 184.781V182.854L275.761 183.97V185.897Z" fill="url(#paint33_linear)"/>
<path d="M275.761 189.649L277.583 188.534V186.607L275.761 187.723V189.649Z" fill="url(#paint34_linear)"/>
<path d="M275.862 193.402L277.583 192.286V190.359L275.761 191.475L275.862 193.402Z" fill="url(#paint35_linear)"/>
<path opacity="0.35" d="M270.499 126.771L271.814 125.96L271.713 115.311L270.398 116.122L270.499 126.771Z" fill="url(#paint36_linear)"/>
<path d="M270.297 133.464L272.118 132.349V130.422L270.297 131.537V133.464Z" fill="url(#paint37_linear)"/>
<path d="M270.398 137.217L272.118 136.101V134.174L270.398 135.29V137.217Z" fill="url(#paint38_linear)"/>
<path d="M270.398 140.969L272.219 139.854V137.825L270.398 138.941V140.969Z" fill="url(#paint39_linear)"/>
<path d="M256.939 109.631L258.254 108.719L258.153 98.0698L256.837 98.8812L256.939 109.631Z" fill="url(#paint40_linear)"/>
<path d="M256.736 116.224L258.558 115.108V113.181L256.736 114.297V116.224Z" fill="url(#paint41_linear)"/>
<path d="M256.736 119.976L258.558 118.861V116.934L256.736 118.049V119.976Z" fill="url(#paint42_linear)"/>
<path d="M256.837 123.729L258.558 122.613V120.686L256.736 121.802L256.837 123.729Z" fill="url(#paint43_linear)"/>
<path d="M254.206 139.448L255.016 138.941L254.915 132.044L254.105 132.552L254.206 139.448Z" fill="url(#paint44_linear)"/>
<path d="M254.004 143.809L255.218 143.099V141.781L254.004 142.491V143.809Z" fill="url(#paint45_linear)"/>
<path d="M254.105 146.243L255.218 145.533V144.215L254.105 144.925V146.243Z" fill="url(#paint46_linear)"/>
<path d="M254.105 148.677L255.218 147.967V146.648L254.105 147.358V148.677Z" fill="url(#paint47_linear)"/>
<path d="M254.307 158.109L255.218 157.5L255.117 150.604L254.307 151.111V158.109Z" fill="url(#paint48_linear)"/>
<path d="M254.206 162.368L255.421 161.658L255.319 160.34L254.206 161.151V162.368Z" fill="url(#paint49_linear)"/>
<path d="M254.206 164.802L255.421 164.092V162.774L254.206 163.484V164.802Z" fill="url(#paint50_linear)"/>
<path d="M254.206 167.236L255.421 166.526V165.208L254.206 165.918V167.236Z" fill="url(#paint51_linear)"/>
<path d="M254.51 176.668L255.319 176.059V169.163L254.409 169.772L254.51 176.668Z" fill="url(#paint52_linear)"/>
<path d="M254.409 180.927L255.522 180.217V179L254.409 179.71V180.927Z" fill="url(#paint53_linear)"/>
<path d="M254.409 183.361L255.522 182.651V181.333L254.409 182.144V183.361Z" fill="url(#paint54_linear)"/>
<path d="M254.409 185.795L255.623 185.086L255.522 183.767L254.409 184.477V185.795Z" fill="url(#paint55_linear)"/>
<path d="M288.208 195.024C288.31 207.397 266.046 217.64 238.521 217.944C210.995 218.147 188.53 208.31 188.428 195.937L152.2 62.3713L317.758 60.8501L288.208 195.024Z" fill="url(#paint56_linear)"/>
<path d="M205.328 83.2632L206.441 204.76C206.34 204.76 207.352 124.54 205.328 83.2632Z" fill="url(#paint57_linear)"/>
<path opacity="0.35" d="M263.516 85.3931L264.63 206.89C264.63 206.89 265.641 126.67 263.516 85.3931Z" fill="url(#paint58_linear)"/>
<path d="M274.446 57.5034L275.356 162.064C275.356 162.064 276.571 98.6786 274.446 57.5034Z" fill="url(#paint59_linear)"/>
<path d="M154.73 194.923L154.932 214.395L96.7441 249.485L96.5417 228.695L154.73 194.923Z" fill="#29293F"/>
<path d="M37.7463 195.937L37.8475 215.51L96.744 249.485L96.5416 228.695L37.7463 195.937Z" fill="#0F0F1E"/>
<path d="M37.7463 195.937L96.5416 228.695L154.73 194.923L95.9345 161.658L37.7463 195.937Z" fill="#32324C"/>
<path d="M174.362 254.454L174.463 264.799L143.801 283.256L143.699 272.303L174.362 254.454Z" fill="#29293F"/>
<path d="M112.733 255.063L112.834 265.306L143.801 283.257L143.699 272.304L112.733 255.063Z" fill="#0F0F1E"/>
<path d="M112.733 255.063L143.699 272.304L174.362 254.454L143.396 237.011L112.733 255.063Z" fill="#32324C"/>
<path d="M355.707 248.978L355.808 259.322L325.145 277.78L325.044 266.827L355.707 248.978Z" fill="#29293F"/>
<path d="M294.078 249.586L294.179 259.83L325.145 277.78L325.044 266.827L294.078 249.586Z" fill="#0F0F1E"/>
<path d="M294.078 249.586L325.044 266.827L355.706 248.978L324.74 231.534L294.078 249.586Z" fill="#32324C"/>
<path opacity="0.37" d="M52.2175 195.734L96.4405 220.378L140.259 195.024L96.0357 169.974L52.2175 195.734Z" fill="url(#paint60_linear)"/>
<path opacity="0.37" d="M57.8845 195.633L96.4405 217.133L134.592 195.024L96.0357 173.22L57.8845 195.633Z" fill="url(#paint61_linear)"/>
<path opacity="0.48" d="M55.4558 169.061L96.2381 191.779L136.717 168.352L95.8333 145.229L55.4558 169.061Z" fill="url(#paint62_linear)"/>
<path opacity="0.18" d="M55.4558 169.061L96.2381 191.779L136.717 168.352L95.8333 145.229L55.4558 169.061Z" fill="url(#paint63_linear)"/>
<path d="M151.492 42.0879L134.592 194.821L96.4405 216.93L57.8846 195.531L41.2883 43.1021L151.492 42.0879Z" fill="url(#paint64_linear)"/>
<path d="M116.376 49.5925L118.704 49.9982L113.138 46.7529C112.936 46.6515 112.733 46.55 112.531 46.3472L112.328 46.2458C107.471 43.7104 100.893 44.3189 93.607 48.6798C78.6299 57.8073 66.5875 79.8147 66.7899 97.7654C66.8911 106.386 69.7246 112.471 74.1772 115.615H74.2784C74.7844 115.919 75.2904 116.223 75.7964 116.426L81.1598 119.57L80.8562 117.745C84.8029 118.049 89.3567 116.832 94.2142 113.891C109.191 104.763 121.234 82.7558 121.031 64.805C121.031 58.3144 119.311 53.0407 116.376 49.5925ZM94.113 99.2867C85.916 104.256 79.1359 100.301 79.1359 90.4634C79.0347 80.626 85.6125 68.5574 93.8094 63.588C102.006 58.6186 108.787 62.5739 108.787 72.4113C108.888 82.3501 102.31 94.3173 94.113 99.2867Z" fill="url(#paint65_linear)"/>
<path d="M99.8812 52.4321C84.9041 61.5595 72.8616 83.5669 73.064 101.518C73.2664 119.57 85.5112 126.77 100.488 117.744C115.465 108.617 127.508 86.6094 127.305 68.6587C127.204 50.5051 114.959 43.3046 99.8812 52.4321ZM100.387 102.938C92.1902 107.907 85.41 103.952 85.41 94.1143C85.3088 84.2769 91.8866 72.2083 100.084 67.2389C108.281 62.2695 115.061 66.2247 115.061 76.0621C115.162 85.8995 108.584 97.9681 100.387 102.938Z" fill="url(#paint66_linear)"/>
<path d="M99.8812 52.6349C84.9041 61.7624 72.8616 83.7698 73.064 101.721C73.2664 119.671 85.5112 126.973 100.488 117.947C115.465 108.82 127.508 86.8123 127.305 68.8615C127.103 50.9108 114.959 43.6088 99.8812 52.6349ZM100.387 103.242C92.1902 108.211 85.41 104.256 85.41 94.4185C85.3088 84.5811 91.8866 72.5125 100.084 67.5431C108.281 62.5737 115.061 66.5289 115.061 76.3664C115.061 86.2038 108.584 98.2724 100.387 103.242Z" fill="url(#paint67_linear)"/>
<path d="M99.9823 56.5903C86.9279 64.5008 76.4034 83.6686 76.5046 99.3881C76.6058 115.108 87.3327 121.396 100.387 113.485C113.441 105.575 123.966 86.4068 123.764 70.6872C123.764 54.9676 113.037 48.6798 99.9823 56.5903Z" fill="url(#paint68_linear)"/>
<path d="M446.278 198.979L446.379 220.074L383.536 258.004L383.333 235.489L446.278 198.979Z" fill="#29293F"/>
<path d="M319.782 200.095L319.984 221.19L383.536 258.004L383.333 235.49L319.782 200.095Z" fill="#0F0F1E"/>
<path d="M319.782 200.095L383.333 235.49L446.278 198.98L382.625 163.078L319.782 200.095Z" fill="#32324C"/>
<path d="M481.798 274.636L482 289.139L438.991 315L438.789 299.686L481.798 274.636Z" fill="#29293F"/>
<path d="M395.376 275.447L395.477 289.848L438.991 315L438.789 299.686L395.376 275.447Z" fill="#0F0F1E"/>
<path d="M395.376 275.447L438.789 299.686L481.798 274.636L438.384 250.093L395.376 275.447Z" fill="#32324C"/>
<path opacity="0.37" d="M406.103 275.346L438.789 293.5L471.071 274.738L438.384 256.28L406.103 275.346Z" fill="url(#paint69_linear)"/>
<path opacity="0.37" d="M410.251 275.245L438.688 291.066L466.922 274.738L438.485 258.714L410.251 275.245Z" fill="url(#paint70_linear)"/>
<path d="M479.47 161.861L466.922 274.738L438.688 291.066L410.252 275.245L398.007 162.571L479.47 161.861Z" fill="url(#paint71_linear)"/>
<path d="M86.5231 266.827L86.6243 281.33L43.6157 307.191L43.4133 291.776L86.5231 266.827Z" fill="#29293F"/>
<path d="M0 267.639L0.101197 282.04L43.6158 307.191L43.4134 291.776L0 267.639Z" fill="#0F0F1E"/>
<path d="M0 267.638L43.4134 291.775L86.5232 266.827L43.0086 242.284L0 267.638Z" fill="#32324C"/>
<path opacity="0.37" d="M10.7268 267.436L43.4133 285.691L75.7963 266.929L43.1098 248.471L10.7268 267.436Z" fill="url(#paint72_linear)"/>
<path opacity="0.37" d="M14.9771 267.436L43.4133 283.257L71.546 266.929L43.1097 250.905L14.9771 267.436Z" fill="url(#paint73_linear)"/>
<path d="M84.0945 154.052L71.5461 266.928L43.4134 283.257L14.9771 267.436L2.6311 154.762L84.0945 154.052Z" fill="url(#paint74_linear)"/>
<mask id="mask4" mask-type="alpha" maskUnits="userSpaceOnUse" x="90" y="91" width="20" height="14">
<path fill-rule="evenodd" clip-rule="evenodd" d="M91.1782 100.199C90.9758 100.301 90.7734 100.605 90.7734 100.808V104.155C90.7734 104.357 90.9758 104.459 91.1782 104.357L109.292 95.4327C109.495 95.3313 109.697 95.0271 109.697 94.8242V91.4775C109.697 91.2746 109.495 91.1732 109.292 91.2747L91.1782 100.199Z" fill="white"/>
</mask>
<g mask="url(#mask4)">
<path fill-rule="evenodd" clip-rule="evenodd" d="M91.7854 91.1733L90.7734 91.6804V91.1733H91.7854Z" fill="#F51C1F"/>
<path fill-rule="evenodd" clip-rule="evenodd" d="M94.1129 91.1733L90.7734 92.796V91.6804L91.7854 91.1733H94.1129Z" fill="#F41B20"/>
<path fill-rule="evenodd" clip-rule="evenodd" d="M96.3393 91.1733L90.7734 93.9116V92.796L94.1129 91.1733H96.3393Z" fill="#F31A21"/>
<path fill-rule="evenodd" clip-rule="evenodd" d="M98.5656 91.1733L90.7734 95.0272V93.9116L96.3393 91.1733H98.5656Z" fill="#F31922"/>
<path fill-rule="evenodd" clip-rule="evenodd" d="M100.792 91.1733L90.7734 96.0413V95.0272L98.5656 91.1733H100.792Z" fill="#F21823"/>
<path fill-rule="evenodd" clip-rule="evenodd" d="M103.119 91.1733L90.7734 97.1569V96.0413L100.792 91.1733H103.119Z" fill="#F11724"/>
<path fill-rule="evenodd" clip-rule="evenodd" d="M105.346 91.1733L90.7734 98.2725V97.1569L103.119 91.1733H105.346Z" fill="#F01725"/>
<path fill-rule="evenodd" clip-rule="evenodd" d="M107.572 91.1733L90.7734 99.3881V98.2725L105.346 91.1733H107.572Z" fill="#F01626"/>
<path fill-rule="evenodd" clip-rule="evenodd" d="M109.697 91.1733L90.7734 100.504V99.3881L107.572 91.1733H109.697Z" fill="#EF1527"/>
<path fill-rule="evenodd" clip-rule="evenodd" d="M109.697 92.2889L90.7734 101.619V100.504L109.697 91.1733V92.2889Z" fill="#EE1428"/>
<path fill-rule="evenodd" clip-rule="evenodd" d="M109.697 93.4046L90.7734 102.735V101.619L109.697 92.2891V93.4046Z" fill="#ED1329"/>
<path fill-rule="evenodd" clip-rule="evenodd" d="M109.697 94.5199L90.7734 103.85V102.735L109.697 93.4043V94.5199Z" fill="#ED122A"/>
<path fill-rule="evenodd" clip-rule="evenodd" d="M109.697 95.6356L91.583 104.56H90.7734V103.85L109.697 94.52V95.6356Z" fill="#EC112B"/>
<path fill-rule="evenodd" clip-rule="evenodd" d="M109.697 96.7513L93.8093 104.56H91.583L109.697 95.6357V96.7513Z" fill="#EB102C"/>
<path fill-rule="evenodd" clip-rule="evenodd" d="M109.697 97.867L96.0357 104.561H93.8093L109.697 96.7515V97.867Z" fill="#EB0F2D"/>
<path fill-rule="evenodd" clip-rule="evenodd" d="M109.697 98.9823L98.3632 104.56H96.0356L109.697 97.8667V98.9823Z" fill="#EA0F2E"/>
<path fill-rule="evenodd" clip-rule="evenodd" d="M109.697 99.9966L100.59 104.56H98.3633L109.697 98.9824V99.9966Z" fill="#EA0E2F"/>
<path fill-rule="evenodd" clip-rule="evenodd" d="M109.697 101.112L102.816 104.56H100.59L109.697 99.9966V101.112Z" fill="#E90D30"/>
<path fill-rule="evenodd" clip-rule="evenodd" d="M109.697 102.228L105.042 104.56H102.816L109.697 101.112V102.228Z" fill="#E80D30"/>
<path fill-rule="evenodd" clip-rule="evenodd" d="M109.697 103.343L107.269 104.56H105.042L109.697 102.228V103.343Z" fill="#E80C31"/>
<path fill-rule="evenodd" clip-rule="evenodd" d="M107.269 104.56L109.697 103.343V104.56H107.269Z" fill="#E80C31"/>
</g>
<mask id="mask5" mask-type="alpha" maskUnits="userSpaceOnUse" x="90" y="67" width="20" height="25">
<path fill-rule="evenodd" clip-rule="evenodd" d="M105.649 68.4561C104.739 68.8617 104.03 70.0787 104.03 70.9915V78.8006C104.03 81.7417 102.411 83.8714 100.185 84.987C97.9585 86.1026 96.3394 85.4941 96.3394 82.553V74.7439C96.3394 73.8312 95.631 73.3241 94.7202 73.8312L92.4939 74.9467C91.5831 75.3524 90.8748 76.5694 90.8748 77.4822V85.0884C90.8748 88.2323 91.7855 90.2607 93.5059 91.1734C95.2262 91.9847 97.4525 91.7819 100.185 90.4635C102.917 89.1451 105.042 87.2182 106.864 84.5813C108.584 81.9445 109.495 79.1048 109.495 75.9609V68.3547C109.495 67.4419 108.787 67.0362 107.876 67.4419L105.649 68.4561Z" fill="white"/>
</mask>
<g mask="url(#mask5)">
<path fill-rule="evenodd" clip-rule="evenodd" d="M108.078 66.9351L90.8748 75.3526V66.9351H108.078Z" fill="#FF2911"/>
<path fill-rule="evenodd" clip-rule="evenodd" d="M109.495 67.3407L90.8748 76.4682V75.3526L108.078 66.9351H109.495V67.3407Z" fill="#FF2911"/>
<path fill-rule="evenodd" clip-rule="evenodd" d="M109.495 68.4564L90.8748 77.5839V76.4683L109.495 67.3408V68.4564Z" fill="#FE2812"/>
<path fill-rule="evenodd" clip-rule="evenodd" d="M109.495 69.5721L90.8748 78.6996V77.584L109.495 68.4565V69.5721Z" fill="#FD2713"/>
<path fill-rule="evenodd" clip-rule="evenodd" d="M109.495 70.5859L90.8748 79.7134V78.6993L109.495 69.5718V70.5859Z" fill="#FC2615"/>
<path fill-rule="evenodd" clip-rule="evenodd" d="M109.495 71.7015L90.8748 80.829V79.7134L109.495 70.5859V71.7015Z" fill="#FC2516"/>
<path fill-rule="evenodd" clip-rule="evenodd" d="M109.495 72.8172L90.8748 81.9447V80.8292L109.495 71.7017V72.8172Z" fill="#FB2417"/>
<path fill-rule="evenodd" clip-rule="evenodd" d="M109.495 73.933L90.8748 83.0605V81.9449L109.495 72.8174V73.933Z" fill="#FA2318"/>
<path fill-rule="evenodd" clip-rule="evenodd" d="M109.495 75.0482L90.8748 84.1757V83.0601L109.495 73.9326V75.0482Z" fill="#F92219"/>
<path fill-rule="evenodd" clip-rule="evenodd" d="M109.495 76.0625L90.8748 85.2914V84.1758L109.495 75.0483V76.0625Z" fill="#F8201A"/>
<path fill-rule="evenodd" clip-rule="evenodd" d="M109.495 77.1781L90.8748 86.3056V85.2914L109.495 76.0625V77.1781Z" fill="#F71F1C"/>
<path fill-rule="evenodd" clip-rule="evenodd" d="M109.495 78.2938L90.8748 87.4213V86.3057L109.495 77.1782V78.2938Z" fill="#F71E1D"/>
<path fill-rule="evenodd" clip-rule="evenodd" d="M109.495 79.4095L90.8748 88.537V87.4214L109.495 78.2939V79.4095Z" fill="#F61D1E"/>
<path fill-rule="evenodd" clip-rule="evenodd" d="M109.495 80.5248L90.8748 89.6523V88.5367L109.495 79.4092V80.5248Z" fill="#F51C1F"/>
<path fill-rule="evenodd" clip-rule="evenodd" d="M109.495 81.5391L90.8748 90.768V89.6524L109.495 80.5249V81.5391Z" fill="#F41B20"/>
<path fill-rule="evenodd" clip-rule="evenodd" d="M109.495 82.6546L90.8748 91.7821V90.768L109.495 81.5391V82.6546Z" fill="#F31A21"/>
<path fill-rule="evenodd" clip-rule="evenodd" d="M109.495 83.7704L92.8987 91.8837H90.8748V91.7823L109.495 82.6548V83.7704Z" fill="#F31922"/>
<path fill-rule="evenodd" clip-rule="evenodd" d="M109.495 84.8856L95.125 91.8834H92.8987L109.495 83.77V84.8856Z" fill="#F21823"/>
<path fill-rule="evenodd" clip-rule="evenodd" d="M109.495 86.0013L97.3513 91.8835H95.125L109.495 84.8857V86.0013Z" fill="#F11724"/>
<path fill-rule="evenodd" clip-rule="evenodd" d="M109.495 87.0156L99.5776 91.8836H97.3513L109.495 86.0015V87.0156Z" fill="#F01725"/>
<path fill-rule="evenodd" clip-rule="evenodd" d="M109.495 88.1312L101.804 91.8836H99.5776L109.495 87.0156V88.1312Z" fill="#F01626"/>
<path fill-rule="evenodd" clip-rule="evenodd" d="M109.495 89.2469L104.03 91.8838H101.804L109.495 88.1313V89.2469Z" fill="#EF1527"/>
<path fill-rule="evenodd" clip-rule="evenodd" d="M109.495 90.3622L106.257 91.8834H104.03L109.495 89.2466V90.3622Z" fill="#EE1428"/>
<path fill-rule="evenodd" clip-rule="evenodd" d="M109.495 91.4779L108.483 91.8836H106.257L109.495 90.3623V91.4779Z" fill="#ED1329"/>
<path fill-rule="evenodd" clip-rule="evenodd" d="M108.483 91.8837L109.495 91.478V91.8837H108.483Z" fill="#ED122A"/>
</g>
<path opacity="0.37" d="M338.807 198.979L383.03 223.623L426.848 198.269L382.625 173.321L338.807 198.979Z" fill="url(#paint75_linear)"/>
<path opacity="0.37" d="M344.575 198.979L383.03 220.378L421.181 198.27L382.625 176.566L344.575 198.979Z" fill="url(#paint76_linear)"/>
<path opacity="0.48" d="M342.045 172.307L382.827 195.024L423.306 171.597L382.422 148.474L342.045 172.307Z" fill="url(#paint77_linear)"/>
<path opacity="0.18" d="M342.045 172.307L382.827 195.024L423.306 171.597L382.422 148.474L342.045 172.307Z" fill="url(#paint78_linear)"/>
<path d="M438.081 45.333L421.181 198.066L383.03 220.175L344.575 198.776L327.877 46.3472L438.081 45.333Z" fill="url(#paint79_linear)"/>
<path d="M402.965 52.8381L405.293 53.2438L399.727 49.9985C399.525 49.8971 399.322 49.7956 399.12 49.5928L398.917 49.4914C394.06 46.956 387.482 47.5645 380.196 51.9254C365.219 61.0529 353.177 83.0603 353.379 101.011C353.48 109.631 356.314 115.716 360.766 118.86H360.868C361.374 119.165 361.879 119.469 362.385 119.672L367.749 122.816L367.445 120.99C371.392 121.294 375.946 120.077 380.803 117.136C395.78 108.009 407.823 86.0014 407.62 68.0506C407.722 61.56 405.9 56.2863 402.965 52.8381ZM380.702 102.532C372.505 107.502 365.725 103.546 365.725 93.709C365.624 83.8716 372.202 71.8031 380.398 66.8336C388.595 61.8642 395.376 65.8195 395.376 75.6569C395.578 85.5957 389 97.5629 380.702 102.532Z" fill="url(#paint80_linear)"/>
<path d="M386.572 55.6777C371.594 64.8052 359.552 86.8126 359.754 104.763C359.957 122.815 372.202 130.016 387.179 120.99C402.156 111.862 414.198 89.8551 413.996 71.9043C413.793 53.7507 401.549 46.5502 386.572 55.6777ZM386.976 106.183C378.779 111.153 371.999 107.197 371.999 97.3599C371.898 87.5225 378.476 75.4539 386.673 70.4845C394.87 65.5151 401.65 69.4703 401.65 79.3077C401.751 89.1451 395.173 101.214 386.976 106.183Z" fill="url(#paint81_linear)"/>
<path d="M386.572 55.8805C371.594 65.008 359.552 87.0154 359.754 104.966C359.957 122.917 372.202 130.219 387.179 121.193C402.156 112.065 414.198 90.0579 413.996 72.1071C413.793 54.1564 401.549 46.8544 386.572 55.8805ZM386.976 106.487C378.779 111.457 371.999 107.502 371.999 97.6641C371.898 87.8267 378.476 75.7581 386.673 70.7887C394.87 65.8193 401.65 69.7746 401.65 79.612C401.65 89.4494 395.173 101.518 386.976 106.487Z" fill="url(#paint82_linear)"/>
<path d="M386.571 59.8359C373.517 67.7464 362.993 86.9142 363.195 102.634C363.296 118.353 374.023 124.641 387.077 116.731C400.132 108.82 410.656 89.6524 410.454 73.9328C410.353 58.2133 399.626 51.9254 386.571 59.8359Z" fill="url(#paint83_linear)"/>
<mask id="mask6" mask-type="alpha" maskUnits="userSpaceOnUse" x="377" y="94" width="20" height="14">
<path fill-rule="evenodd" clip-rule="evenodd" d="M377.767 103.445C377.565 103.546 377.363 103.851 377.363 104.053V107.4C377.363 107.603 377.565 107.704 377.767 107.603L395.882 98.6783C396.084 98.5769 396.286 98.2727 396.286 98.0698V94.7231C396.286 94.5203 396.084 94.4188 395.882 94.5203L377.767 103.445Z" fill="white"/>
</mask>
<g mask="url(#mask6)">
<path fill-rule="evenodd" clip-rule="evenodd" d="M378.476 94.4189L377.363 94.926V94.4189H378.476Z" fill="#F51C1F"/>
<path fill-rule="evenodd" clip-rule="evenodd" d="M380.702 94.4189L377.363 96.0416V94.926L378.476 94.4189H380.702Z" fill="#F41B20"/>
<path fill-rule="evenodd" clip-rule="evenodd" d="M382.928 94.4189L377.363 97.1572V96.0416L380.702 94.4189H382.928Z" fill="#F31A21"/>
<path fill-rule="evenodd" clip-rule="evenodd" d="M385.155 94.4189L377.363 98.2728V97.1572L382.928 94.4189H385.155Z" fill="#F31922"/>
<path fill-rule="evenodd" clip-rule="evenodd" d="M387.381 94.4189L377.363 99.3884V98.2728L385.155 94.4189H387.381Z" fill="#F21823"/>
<path fill-rule="evenodd" clip-rule="evenodd" d="M389.709 94.4189L377.363 100.403V99.3884L387.381 94.4189H389.709Z" fill="#F11724"/>
<path fill-rule="evenodd" clip-rule="evenodd" d="M391.935 94.4189L377.363 101.518V100.403L389.709 94.4189H391.935Z" fill="#F01725"/>
<path fill-rule="evenodd" clip-rule="evenodd" d="M394.161 94.4189L377.363 102.634V101.518L391.935 94.4189H394.161Z" fill="#F01626"/>
<path fill-rule="evenodd" clip-rule="evenodd" d="M396.286 94.4189L377.363 103.749V102.634L394.161 94.4189H396.286Z" fill="#EF1527"/>
<path fill-rule="evenodd" clip-rule="evenodd" d="M396.286 95.5345L377.363 104.865V103.749L396.286 94.4189V95.5345Z" fill="#EE1428"/>
<path fill-rule="evenodd" clip-rule="evenodd" d="M396.286 96.6503L377.363 105.981V104.865L396.286 95.5347V96.6503Z" fill="#ED1329"/>
<path fill-rule="evenodd" clip-rule="evenodd" d="M396.286 97.7655L377.363 107.096V105.98L396.286 96.6499V97.7655Z" fill="#ED122A"/>
<path fill-rule="evenodd" clip-rule="evenodd" d="M396.286 98.8812L378.172 107.806H377.363V107.096L396.286 97.7656V98.8812Z" fill="#EC112B"/>
<path fill-rule="evenodd" clip-rule="evenodd" d="M396.286 99.9969L380.398 107.806H378.172L396.286 98.8813V99.9969Z" fill="#EB102C"/>
<path fill-rule="evenodd" clip-rule="evenodd" d="M396.286 101.113L382.625 107.806H380.398L396.286 99.9971V101.113Z" fill="#EB0F2D"/>
<path fill-rule="evenodd" clip-rule="evenodd" d="M396.286 102.228L384.952 107.806H382.625L396.286 101.112V102.228Z" fill="#EA0F2E"/>
<path fill-rule="evenodd" clip-rule="evenodd" d="M396.286 103.344L387.179 107.806H384.952L396.286 102.228V103.344Z" fill="#EA0E2F"/>
<path fill-rule="evenodd" clip-rule="evenodd" d="M396.286 104.358L389.405 107.806H387.179L396.286 103.344V104.358Z" fill="#E90D30"/>
<path fill-rule="evenodd" clip-rule="evenodd" d="M396.286 105.473L391.631 107.806H389.405L396.286 104.358V105.473Z" fill="#E80D30"/>
<path fill-rule="evenodd" clip-rule="evenodd" d="M396.286 106.589L393.959 107.806H391.631L396.286 105.473V106.589Z" fill="#E80C31"/>
<path fill-rule="evenodd" clip-rule="evenodd" d="M393.959 107.806L396.286 106.589V107.806H393.959Z" fill="#E80C31"/>
</g>
<mask id="mask7" mask-type="alpha" maskUnits="userSpaceOnUse" x="377" y="70" width="20" height="25">
<path fill-rule="evenodd" clip-rule="evenodd" d="M392.239 71.7015C391.328 72.1072 390.619 73.3242 390.619 74.237V82.046C390.619 84.9871 389 87.1169 386.774 88.2324C384.548 89.348 382.928 88.7395 382.928 85.7984V77.9894C382.928 77.0766 382.22 76.5695 381.309 77.0766L379.083 78.1922C378.172 78.5979 377.464 79.8149 377.464 80.7276V88.2324C377.464 91.3764 378.375 93.4047 380.095 94.3174C381.815 95.1288 384.042 94.9259 386.774 93.6075C389.506 92.2891 391.631 90.3622 393.453 87.7254C395.173 85.0885 396.084 82.2489 396.084 79.105V71.4987C396.084 70.586 395.376 70.1803 394.465 70.586L392.239 71.7015Z" fill="white"/>
</mask>
<g mask="url(#mask7)">
<path fill-rule="evenodd" clip-rule="evenodd" d="M394.768 70.1802L377.464 78.5978V70.1802H394.768Z" fill="#FF2911"/>
<path fill-rule="evenodd" clip-rule="evenodd" d="M396.084 70.5858L377.464 79.7133V78.5978L394.769 70.1802H396.084V70.5858Z" fill="#FF2911"/>
<path fill-rule="evenodd" clip-rule="evenodd" d="M396.084 71.7015L377.464 80.829V79.7134L396.084 70.5859V71.7015Z" fill="#FE2812"/>
<path fill-rule="evenodd" clip-rule="evenodd" d="M396.084 72.8172L377.464 81.9447V80.8292L396.084 71.7017V72.8172Z" fill="#FD2713"/>
<path fill-rule="evenodd" clip-rule="evenodd" d="M396.084 73.8311L377.464 83.06V81.9444L396.084 72.8169V73.8311Z" fill="#FC2615"/>
<path fill-rule="evenodd" clip-rule="evenodd" d="M396.084 74.9466L377.464 84.0741V83.06L396.084 73.8311V74.9466Z" fill="#FC2516"/>
<path fill-rule="evenodd" clip-rule="evenodd" d="M396.084 76.0624L377.464 85.1898V84.0743L396.084 74.9468V76.0624Z" fill="#FB2417"/>
<path fill-rule="evenodd" clip-rule="evenodd" d="M396.084 77.1781L377.464 86.3056V85.19L396.084 76.0625V77.1781Z" fill="#FA2318"/>
<path fill-rule="evenodd" clip-rule="evenodd" d="M396.084 78.2933L377.464 87.4208V86.3052L396.084 77.1777V78.2933Z" fill="#F92219"/>
<path fill-rule="evenodd" clip-rule="evenodd" d="M396.084 79.409L377.464 88.5365V87.4209L396.084 78.2935V79.409Z" fill="#F8201A"/>
<path fill-rule="evenodd" clip-rule="evenodd" d="M396.084 80.4233L377.464 89.5508V88.5367L396.084 79.4092V80.4233Z" fill="#F71F1C"/>
<path fill-rule="evenodd" clip-rule="evenodd" d="M396.084 81.5389L377.464 90.6664V89.5508L396.084 80.4233V81.5389Z" fill="#F71E1D"/>
<path fill-rule="evenodd" clip-rule="evenodd" d="M396.084 82.6546L377.464 91.7821V90.6666L396.084 81.5391V82.6546Z" fill="#F61D1E"/>
<path fill-rule="evenodd" clip-rule="evenodd" d="M396.084 83.7699L377.464 92.8974V91.7818L396.084 82.6543V83.7699Z" fill="#F51C1F"/>
<path fill-rule="evenodd" clip-rule="evenodd" d="M396.084 84.8856L377.464 94.0131V92.8975L396.084 83.77V84.8856Z" fill="#F41B20"/>
<path fill-rule="evenodd" clip-rule="evenodd" d="M396.084 85.8999L377.464 95.0274V94.0132L396.084 84.8857V85.8999Z" fill="#F31A21"/>
<path fill-rule="evenodd" clip-rule="evenodd" d="M396.084 87.0155L379.488 95.2302H377.464V95.0274L396.084 85.8999V87.0155Z" fill="#F31922"/>
<path fill-rule="evenodd" clip-rule="evenodd" d="M396.084 88.1307L381.714 95.2299H379.488L396.084 87.0151V88.1307Z" fill="#F21823"/>
<path fill-rule="evenodd" clip-rule="evenodd" d="M396.084 89.2464L383.94 95.23H381.714L396.084 88.1309V89.2464Z" fill="#F11724"/>
<path fill-rule="evenodd" clip-rule="evenodd" d="M396.084 90.3622L386.167 95.2302H383.94L396.084 89.2466V90.3622Z" fill="#F01725"/>
<path fill-rule="evenodd" clip-rule="evenodd" d="M396.084 91.3765L388.393 95.2303H386.167L396.084 90.3623V91.3765Z" fill="#F01626"/>
<path fill-rule="evenodd" clip-rule="evenodd" d="M396.084 92.492L390.619 95.2303H388.393L396.084 91.3765V92.492Z" fill="#EF1527"/>
<path fill-rule="evenodd" clip-rule="evenodd" d="M396.084 93.6073L392.846 95.23H390.619L396.084 92.4917V93.6073Z" fill="#EE1428"/>
<path fill-rule="evenodd" clip-rule="evenodd" d="M396.084 94.723L395.072 95.2301H392.846L396.084 93.6074V94.723Z" fill="#ED1329"/>
<path fill-rule="evenodd" clip-rule="evenodd" d="M395.072 95.2302L396.084 94.7231V95.2302H395.072Z" fill="#ED122A"/>
</g>
<path d="M353 21C353 22.8 351.5 24 350 24C348.2 24 347 22.5 347 21C347 19.5 348.5 18 350 18C351.5 18 353 19.2 353 21Z" fill="url(#paint84_linear)"/>
<path opacity="0.3" d="M349.143 61.5684C349.143 63.2807 347.857 64.1368 346.571 64.1368C344.857 64.1368 344 62.8526 344 61.5684C344 59.8561 345.286 59 346.571 59C347.857 59 349.143 60.2842 349.143 61.5684Z" fill="#FF9E93"/>
<path opacity="0.2" d="M449.5 131.495C449.5 132.962 448.398 134.063 446.929 134.063C445.459 134.063 444.357 132.962 444.357 131.495C444.357 130.027 445.459 128.926 446.929 128.926C448.398 128.926 449.5 130.027 449.5 131.495Z" fill="#E82818"/>
<path opacity="0.2" d="M165 62.5C165 63.3571 164.357 64 163.5 64C162.643 64 162 63.3571 162 62.5C162 61.6429 162.643 61 163.5 61C164.357 61 165 61.6429 165 62.5Z" fill="#E82818"/>
<path opacity="0.2" d="M56.8212 78.6943C57.827 78.6943 58.6424 77.8673 58.6424 76.8471C58.6424 75.827 57.827 75 56.8212 75C55.8154 75 55 75.827 55 76.8471C55 77.8673 55.8154 78.6943 56.8212 78.6943Z" fill="#FF9E93"/>
<path opacity="0.2" d="M168.821 18.6943C169.827 18.6943 170.642 17.8673 170.642 16.8471C170.642 15.827 169.827 15 168.821 15C167.815 15 167 15.827 167 16.8471C167 17.8673 167.815 18.6943 168.821 18.6943Z" fill="#FF9E93"/>
<path opacity="0.2" d="M149.821 75.6943C150.827 75.6943 151.642 74.8673 151.642 73.8471C151.642 72.827 150.827 72 149.821 72C148.815 72 148 72.827 148 73.8471C148 74.8673 148.815 75.6943 149.821 75.6943Z" fill="#FF9E93"/>
<path d="M161.098 25.8264C161.258 26.6423 162.055 27.1319 162.853 26.9687C163.65 26.8055 164.129 25.9896 163.969 25.1736C163.81 24.3577 163.012 23.8681 162.215 24.0313C161.258 24.1945 160.779 25.0104 161.098 25.8264Z" fill="url(#paint85_linear)"/>
<path d="M434.253 228.691C434.663 230.787 436.714 232.044 438.765 231.625C440.815 231.206 442.046 229.11 441.636 227.014C441.226 224.919 439.175 223.661 437.124 224.08C434.663 224.499 433.433 226.595 434.253 228.691Z" fill="url(#paint86_linear)"/>
<path opacity="0.2" d="M60.1211 34.3089C60.5764 35.2325 61.487 35.6943 62.3976 35.6943C63.3082 35.2325 63.7635 34.3089 63.7635 33.3854C63.3082 32.4618 62.3976 32 61.487 32C60.5764 32.4618 59.6658 33.3854 60.1211 34.3089Z" fill="#FF9E93"/>
<path d="M145.509 154.028C145.929 156.124 148.027 157.381 150.125 156.962C152.223 156.543 153.482 154.447 153.063 152.351C152.643 150.256 150.545 148.998 148.447 149.417C146.348 149.836 145.089 151.932 145.509 154.028Z" fill="url(#paint87_linear)"/>
<path d="M228.094 294.479C228.583 296.927 231.031 298.396 233.479 297.906C235.927 297.417 237.396 294.969 236.906 292.521C236.417 290.073 233.969 288.604 231.521 289.094C229.073 289.583 227.604 292.031 228.094 294.479Z" fill="url(#paint88_linear)"/>
<path d="M182.094 291.479C182.583 293.927 185.031 295.396 187.479 294.906C189.927 294.417 191.396 291.969 190.906 289.521C190.417 287.073 187.969 285.604 185.521 286.094C183.073 286.583 181.604 289.031 182.094 291.479Z" fill="url(#paint89_linear)"/>
<path d="M309.094 271.479C309.583 273.927 312.031 275.396 314.479 274.906C316.927 274.417 318.396 271.969 317.906 269.521C317.417 267.073 314.969 265.604 312.521 266.094C310.073 266.583 308.604 269.031 309.094 271.479Z" fill="url(#paint90_linear)"/>
<path d="M230.052 294.044C230.324 295.404 231.684 296.22 233.044 295.948C234.404 295.676 235.22 294.316 234.948 292.956C234.676 291.596 233.316 290.78 231.956 291.052C230.596 291.324 229.78 292.684 230.052 294.044Z" fill="#FF2911"/>
<path d="M184.052 291.044C184.324 292.404 185.684 293.22 187.044 292.948C188.404 292.676 189.22 291.316 188.948 289.956C188.676 288.596 187.316 287.78 185.956 288.052C184.596 288.324 183.78 289.684 184.052 291.044Z" fill="#FF2911"/>
<path d="M311.052 271.044C311.324 272.404 312.684 273.22 314.044 272.948C315.404 272.676 316.22 271.316 315.948 269.956C315.676 268.596 314.316 267.78 312.956 268.052C311.596 268.324 310.78 269.684 311.052 271.044Z" fill="#FF2911"/>
<path opacity="0.9" d="M156.454 132.57C156.835 134.091 157.977 134.852 159.5 134.472C161.022 134.091 161.784 132.951 161.403 131.43C161.022 129.909 159.88 129.148 158.358 129.529C156.835 129.909 156.074 131.049 156.454 132.57Z" fill="url(#paint91_linear)"/>
<path opacity="0.9" d="M444 73.5C444 72 445.25 71 446.5 71C448 71 449 72.25 449 73.5C449 74.75 447.75 76 446.5 76C445.25 76 444 74.75 444 73.5Z" fill="url(#paint92_linear)"/>
<path d="M52 56.5C52 55.5 51.25 55 50.5 55C49.5 55 49 55.75 49 56.5C49 57.5 49.75 58 50.5 58C51.25 58 52 57.25 52 56.5Z" fill="url(#paint93_linear)"/>
<path opacity="0.3" d="M361.143 7.56842C361.143 9.2807 359.857 10.1368 358.571 10.1368C356.857 10.1368 356 8.85263 356 7.56842C356 5.85614 357.286 5 358.571 5C359.857 5 361.143 6.28421 361.143 7.56842Z" fill="#FF9E93"/>
<path opacity="0.2" d="M438 114.5C438 115.357 437.357 116 436.5 116C435.643 116 435 115.357 435 114.5C435 113.643 435.643 113 436.5 113C437.357 113.214 438 113.857 438 114.5Z" fill="#FF9E93"/>
<path opacity="0.2" d="M182 90.5C182 91.3571 181.357 92 180.5 92C179.643 92 179 91.3571 179 90.5C179 89.6429 179.643 89 180.5 89C181.357 89.2143 182 89.8571 182 90.5Z" fill="#FF9E93"/>
<path opacity="0.2" d="M154.821 33.6943C155.827 33.6943 156.642 32.8673 156.642 31.8471C156.642 30.827 155.827 30 154.821 30C153.815 30 153 30.827 153 31.8471C153 32.8673 153.815 33.6943 154.821 33.6943Z" fill="#E82818"/>
<path opacity="0.2" d="M204.821 25.6943C205.827 25.6943 206.642 24.8673 206.642 23.8471C206.642 22.827 205.827 22 204.821 22C203.815 22 203 22.827 203 23.8471C203 24.8673 203.815 25.6943 204.821 25.6943Z" fill="#E82818"/>
<path d="M158.031 47.8264C158.194 48.6423 159.01 49.1319 159.826 48.9687C160.642 48.8055 161.132 47.9896 160.969 47.1736C160.806 46.3577 159.99 45.8681 159.174 46.0313C158.358 46.1945 157.868 47.0104 158.031 47.8264Z" fill="url(#paint94_linear)"/>
<path opacity="0.9" d="M151.057 63.1669C151.279 62.2787 151.945 61.8345 152.833 62.0566C153.721 62.2787 154.165 62.9448 153.943 63.8331C153.721 64.7213 153.055 65.1655 152.167 64.9434C151.279 64.7213 150.835 63.8331 151.057 63.1669Z" fill="url(#paint95_linear)"/>
<path d="M430 158.362C430 160.978 432.183 162.723 434.366 162.723C436.986 162.723 438.733 160.542 438.733 158.362C438.733 156.181 436.55 154 434.366 154C432.183 154 430 155.745 430 158.362Z" fill="url(#paint96_linear)"/>
<path opacity="0.3" d="M55.1428 169.554C55.1428 171.216 56.3904 172.047 57.6381 172.047C59.3016 172.047 60.1333 170.8 60.1333 169.554C60.1333 167.893 58.8857 167.062 57.6381 167.062C56.3904 167.062 55.1428 168.308 55.1428 169.554Z" fill="#FF9E93"/>
<path opacity="0.2" d="M425 182.492C425 183.917 426.069 184.985 427.495 184.985C428.921 184.985 429.99 183.917 429.99 182.492C429.99 181.068 428.921 180 427.495 180C426.069 180 425 181.068 425 182.492Z" fill="#E82818"/>
<path opacity="0.2" d="M429 54.4923C429 55.9165 430.069 56.9846 431.495 56.9846C432.921 56.9846 433.99 55.9165 433.99 54.4923C433.99 53.0681 432.921 52 431.495 52C430.069 52 429 53.0681 429 54.4923Z" fill="#E82818"/>
<path opacity="0.2" d="M66.5135 154.624C65.5375 154.624 64.7463 153.821 64.7463 152.831C64.7463 151.842 65.5375 151.039 66.5135 151.039C67.4895 151.039 68.2808 151.842 68.2808 152.831C68.2808 153.821 67.4895 154.624 66.5135 154.624Z" fill="#FF9E93"/>
<path opacity="0.2" d="M57.7804 201.977C56.8044 201.977 56.0132 201.175 56.0132 200.185C56.0132 199.195 56.8044 198.393 57.7804 198.393C58.7564 198.393 59.5476 199.195 59.5476 200.185C59.5476 201.175 58.7564 201.977 57.7804 201.977Z" fill="#FF9E93"/>
<path d="M19.9016 221.174C19.7421 220.358 18.9446 219.868 18.1471 220.031C17.3496 220.194 16.8711 221.01 17.0306 221.826C17.1901 222.642 17.9876 223.132 18.7851 222.969C19.7421 222.806 20.2206 221.99 19.9016 221.174Z" fill="url(#paint97_linear)"/>
<path opacity="0.2" d="M84.3825 125.241C83.9407 126.137 83.0571 126.585 82.1735 126.585C81.2898 126.137 80.848 125.241 80.848 124.344C81.2898 123.448 82.1735 123 83.0571 123C83.9407 123.448 84.8243 124.344 84.3825 125.241Z" fill="#FF9E93"/>
<path d="M43.2503 262.76C42.8431 264.794 40.8071 266.014 38.7711 265.608C36.7351 265.201 35.5135 263.167 35.9207 261.134C36.3279 259.1 38.3639 257.88 40.3999 258.286C42.4359 258.693 43.6576 260.727 43.2503 262.76Z" fill="#D4271C"/>
<path d="M32.6295 241.939C32.2601 243.415 31.1519 244.153 29.6743 243.784C28.1967 243.415 27.4579 242.308 27.8273 240.832C28.1967 239.356 29.3049 238.618 30.7825 238.987C32.2601 239.356 32.9989 240.463 32.6295 241.939Z" fill="#FF9E93"/>
<path opacity="0.9" d="M352 45C352 46.2 353 47 354 47C355.2 47 356 46 356 45C356 44 355 43 354 43C353 43 352 44 352 45Z" fill="url(#paint98_linear)"/>
<path opacity="0.9" d="M440 174.5C440 176 441.25 177 442.5 177C444 177 445 175.75 445 174.5C445 173.25 443.75 172 442.5 172C441.25 172 440 173.25 440 174.5Z" fill="url(#paint99_linear)"/>
<path opacity="0.3" d="M435.09 143.492C435.09 145.154 436.338 145.985 437.585 145.985C439.249 145.985 440.081 144.738 440.081 143.492C440.081 141.831 438.833 141 437.585 141C436.338 141 435.09 142.246 435.09 143.492Z" fill="#E82818"/>
<path opacity="0.3" d="M65.7859 184.685C65.7859 186.346 67.0335 187.177 68.2811 187.177C69.9446 187.177 70.7764 185.931 70.7764 184.685C70.7764 183.023 69.5287 182.192 68.2811 182.192C67.0335 182.192 65.7859 183.439 65.7859 184.685Z" fill="#FF9E93"/>
<path opacity="0.2" d="M60 134.492C60 135.917 61.0694 136.985 62.4952 136.985C63.9211 136.985 64.9905 135.917 64.9905 134.492C64.9905 133.068 63.9211 132 62.4952 132C61.0694 132.356 60 133.424 60 134.492Z" fill="#FF9E93"/>
<path opacity="0.2" d="M418.975 157.669C417.999 157.669 417.208 156.866 417.208 155.876C417.208 154.886 417.999 154.084 418.975 154.084C419.951 154.084 420.743 154.886 420.743 155.876C420.743 156.866 419.951 157.669 418.975 157.669Z" fill="#E82818"/>
<path opacity="0.2" d="M449.975 107.585C448.999 107.585 448.208 106.782 448.208 105.792C448.208 104.802 448.999 104 449.975 104C450.951 104 451.743 104.802 451.743 105.792C451.743 106.782 450.951 107.585 449.975 107.585Z" fill="#E82818"/>
<path d="M70.9479 51.956C70.6759 50.5961 69.316 49.7801 67.956 50.0521C66.5961 50.3241 65.7801 51.684 66.0521 53.044C66.3241 54.4039 67.684 55.2199 69.044 54.9479C70.4039 54.6759 71.2199 53.316 70.9479 51.956Z" fill="url(#paint100_linear)"/>
<path d="M32.6295 195.831C32.2601 197.307 31.1519 198.045 29.6743 197.676C28.1967 197.307 27.4579 196.2 27.8273 194.724C28.1967 193.248 29.3049 192.51 30.7825 192.879C32.2601 193.248 32.9989 194.724 32.6295 195.831Z" fill="#FF9E93"/>
</g>
<defs>
<radialGradient id="paint0_radial" cx="0" cy="0" r="1" gradientUnits="userSpaceOnUse" gradientTransform="translate(233 163) rotate(90) scale(150 246)">
<stop stop-color="#FF0000"/>
<stop offset="0.916667" stop-color="#FF0000" stop-opacity="0"/>
</radialGradient>
<linearGradient id="paint1_linear" x1="159.619" y1="226.075" x2="368.769" y2="224.233" gradientUnits="userSpaceOnUse">
<stop stop-color="#32324C"/>
<stop offset="0.6231" stop-color="#19192C"/>
<stop offset="0.9861" stop-color="#0F0F1E"/>
</linearGradient>
<linearGradient id="paint2_linear" x1="184.797" y1="196.111" x2="347.589" y2="198.882" gradientUnits="userSpaceOnUse">
<stop stop-color="#F9993A"/>
<stop offset="0.1488" stop-color="#F7983E" stop-opacity="0.9403"/>
<stop offset="0.3015" stop-color="#F3954A" stop-opacity="0.8789"/>
<stop offset="0.456" stop-color="#EB8F5F" stop-opacity="0.8169"/>
<stop offset="0.6119" stop-color="#E0887C" stop-opacity="0.7543"/>
<stop offset="0.7688" stop-color="#D27EA1" stop-opacity="0.6913"/>
<stop offset="0.9244" stop-color="#C172CE" stop-opacity="0.6288"/>
<stop offset="0.9962" stop-color="#B86CE5" stop-opacity="0.6"/>
</linearGradient>
<linearGradient id="paint3_linear" x1="182.737" y1="196.656" x2="294.171" y2="196.656" gradientUnits="userSpaceOnUse">
<stop stop-color="#F9993A"/>
<stop offset="0.1488" stop-color="#F7983E" stop-opacity="0.9403"/>
<stop offset="0.3015" stop-color="#F3954A" stop-opacity="0.8789"/>
<stop offset="0.456" stop-color="#EB8F5F" stop-opacity="0.8169"/>
<stop offset="0.6119" stop-color="#E0887C" stop-opacity="0.7543"/>
<stop offset="0.7688" stop-color="#D27EA1" stop-opacity="0.6913"/>
<stop offset="0.9244" stop-color="#C172CE" stop-opacity="0.6288"/>
<stop offset="0.9962" stop-color="#B86CE5" stop-opacity="0.6"/>
</linearGradient>
<linearGradient id="paint4_linear" x1="188.391" y1="185.714" x2="288.31" y2="184.834" gradientUnits="userSpaceOnUse">
<stop stop-color="#FF2911" stop-opacity="0.64"/>
<stop offset="0.8351" stop-color="#FF2911" stop-opacity="0"/>
</linearGradient>
<linearGradient id="paint5_linear" x1="177.523" y1="152.821" x2="289.831" y2="151.832" gradientUnits="userSpaceOnUse">
<stop stop-color="#F9993A"/>
<stop offset="0.1165" stop-color="#F69741"/>
<stop offset="0.282" stop-color="#EF9253"/>
<stop offset="0.4767" stop-color="#E48A72"/>
<stop offset="0.6937" stop-color="#D47F9C"/>
<stop offset="0.9264" stop-color="#BF71D2"/>
<stop offset="1" stop-color="#B86CE5"/>
</linearGradient>
<linearGradient id="paint6_linear" x1="193.888" y1="60.7877" x2="278.272" y2="60.7877" gradientUnits="userSpaceOnUse">
<stop stop-color="#32324C"/>
<stop offset="0.6231" stop-color="#19192C"/>
<stop offset="0.9861" stop-color="#0F0F1E"/>
</linearGradient>
<linearGradient id="paint7_linear" x1="203.354" y1="65.3973" x2="288.181" y2="64.6503" gradientUnits="userSpaceOnUse">
<stop stop-color="#FF2911"/>
<stop offset="0.3993" stop-color="#F51C1F"/>
<stop offset="1" stop-color="#E80C31"/>
</linearGradient>
<linearGradient id="paint8_linear" x1="208.977" y1="65.0197" x2="282.539" y2="65.0197" gradientUnits="userSpaceOnUse">
<stop stop-color="#32324C"/>
<stop offset="0.6231" stop-color="#19192C"/>
<stop offset="0.9861" stop-color="#0F0F1E"/>
</linearGradient>
<linearGradient id="paint9_linear" x1="258.911" y1="136.457" x2="261.357" y2="136.457" gradientUnits="userSpaceOnUse">
<stop stop-color="#FF2911"/>
<stop offset="0.3846" stop-color="#FC5923"/>
<stop offset="0.794" stop-color="#FA8734"/>
<stop offset="1" stop-color="#F9993A"/>
</linearGradient>
<linearGradient id="paint10_linear" x1="202.058" y1="150.869" x2="211.986" y2="134.223" gradientUnits="userSpaceOnUse">
<stop stop-color="#FF2911"/>
<stop offset="0.3846" stop-color="#FC5923"/>
<stop offset="0.794" stop-color="#FA8734"/>
<stop offset="1" stop-color="#F9993A"/>
</linearGradient>
<linearGradient id="paint11_linear" x1="199.174" y1="110.01" x2="204.236" y2="110.01" gradientUnits="userSpaceOnUse">
<stop stop-color="#FF2911"/>
<stop offset="0.3846" stop-color="#FC5923"/>
<stop offset="0.794" stop-color="#FA8734"/>
<stop offset="1" stop-color="#F9993A"/>
</linearGradient>
<linearGradient id="paint12_linear" x1="208.461" y1="133.39" x2="216.549" y2="119.828" gradientUnits="userSpaceOnUse">
<stop stop-color="#F9993A"/>
<stop offset="0.9861" stop-color="#F9993A" stop-opacity="0"/>
</linearGradient>
<linearGradient id="paint13_linear" x1="215.722" y1="158.666" x2="220.086" y2="151.349" gradientUnits="userSpaceOnUse">
<stop stop-color="#FF2911"/>
<stop offset="0.3846" stop-color="#FC5923"/>
<stop offset="0.794" stop-color="#FA8734"/>
<stop offset="1" stop-color="#F9993A"/>
</linearGradient>
<linearGradient id="paint14_linear" x1="215.636" y1="148.884" x2="220" y2="141.567" gradientUnits="userSpaceOnUse">
<stop stop-color="#FF2911"/>
<stop offset="0.3846" stop-color="#FC5923"/>
<stop offset="0.794" stop-color="#FA8734"/>
<stop offset="1" stop-color="#F9993A"/>
</linearGradient>
<linearGradient id="paint15_linear" x1="215.55" y1="139.103" x2="219.914" y2="131.786" gradientUnits="userSpaceOnUse">
<stop stop-color="#FF2911"/>
<stop offset="0.3846" stop-color="#FC5923"/>
<stop offset="0.794" stop-color="#FA8734"/>
<stop offset="1" stop-color="#F9993A"/>
</linearGradient>
<linearGradient id="paint16_linear" x1="199.132" y1="166.244" x2="205.079" y2="156.272" gradientUnits="userSpaceOnUse">
<stop stop-color="#FF2911"/>
<stop offset="0.3846" stop-color="#FC5923"/>
<stop offset="0.794" stop-color="#FA8734"/>
<stop offset="1" stop-color="#F9993A"/>
</linearGradient>
<linearGradient id="paint17_linear" x1="208.527" y1="140.898" x2="210.541" y2="137.52" gradientUnits="userSpaceOnUse">
<stop stop-color="#F9993A"/>
<stop offset="0.9861" stop-color="#F9993A" stop-opacity="0"/>
</linearGradient>
<linearGradient id="paint18_linear" x1="208.566" y1="145.399" x2="210.581" y2="142.021" gradientUnits="userSpaceOnUse">
<stop stop-color="#F9993A"/>
<stop offset="0.9861" stop-color="#F9993A" stop-opacity="0"/>
</linearGradient>
<linearGradient id="paint19_linear" x1="260.726" y1="124.71" x2="291.715" y2="124.71" gradientUnits="userSpaceOnUse">
<stop stop-color="#32324C"/>
<stop offset="0.4857" stop-color="#24243B"/>
<stop offset="0.9861" stop-color="#19192D"/>
</linearGradient>
<linearGradient id="paint20_linear" x1="257.245" y1="126.315" x2="288.234" y2="126.315" gradientUnits="userSpaceOnUse">
<stop stop-color="#FF2911"/>
<stop offset="0.3846" stop-color="#FC5923"/>
<stop offset="0.794" stop-color="#FA8734"/>
<stop offset="1" stop-color="#F9993A"/>
</linearGradient>
<radialGradient id="paint21_radial" cx="0" cy="0" r="1" gradientUnits="userSpaceOnUse" gradientTransform="translate(284.568 114.111) rotate(171.006) scale(26.1769 35.8307)">
<stop stop-color="#3500BE"/>
<stop offset="0.2718" stop-color="#3200B8"/>
<stop offset="0.6363" stop-color="#2A00A7"/>
<stop offset="1" stop-color="#1F008F"/>
</radialGradient>
<linearGradient id="paint22_linear" x1="259.232" y1="126.315" x2="286.247" y2="126.315" gradientUnits="userSpaceOnUse">
<stop stop-color="#32324C"/>
<stop offset="0.4857" stop-color="#24243B"/>
<stop offset="0.9861" stop-color="#19192D"/>
</linearGradient>
<linearGradient id="paint23_linear" x1="275.109" y1="144.863" x2="265.14" y2="128.8" gradientUnits="userSpaceOnUse">
<stop stop-color="#F9993A"/>
<stop offset="0.9861" stop-color="#F9993A" stop-opacity="0"/>
</linearGradient>
<linearGradient id="paint24_linear" x1="289.192" y1="126.677" x2="287.118" y2="123.335" gradientUnits="userSpaceOnUse">
<stop stop-color="#F9993A"/>
<stop offset="0.9861" stop-color="#F9993A" stop-opacity="0"/>
</linearGradient>
<linearGradient id="paint25_linear" x1="282.22" y1="193.6" x2="273.716" y2="179.898" gradientUnits="userSpaceOnUse">
<stop stop-color="#FF2911"/>
<stop offset="0.3846" stop-color="#FC5923"/>
<stop offset="0.794" stop-color="#FA8734"/>
<stop offset="1" stop-color="#F9993A"/>
</linearGradient>
<linearGradient id="paint26_linear" x1="282.077" y1="177.419" x2="242.087" y2="112.983" gradientUnits="userSpaceOnUse">
<stop stop-color="#FF2911"/>
<stop offset="0.3846" stop-color="#FC5923"/>
<stop offset="0.794" stop-color="#FA8734"/>
<stop offset="1" stop-color="#F9993A"/>
</linearGradient>
<linearGradient id="paint27_linear" x1="265.04" y1="208.022" x2="256.745" y2="194.656" gradientUnits="userSpaceOnUse">
<stop stop-color="#FFB9FF"/>
<stop offset="0.1034" stop-color="#E4A5F2" stop-opacity="0.8951"/>
<stop offset="0.4242" stop-color="#9569CC" stop-opacity="0.5699"/>
<stop offset="0.6883" stop-color="#5A3DB0" stop-opacity="0.302"/>
<stop offset="0.8826" stop-color="#37229F" stop-opacity="0.105"/>
<stop offset="0.9861" stop-color="#291898" stop-opacity="0"/>
</linearGradient>
<linearGradient id="paint28_linear" x1="276.637" y1="179.152" x2="269.709" y2="167.989" gradientUnits="userSpaceOnUse">
<stop stop-color="#F9993A"/>
<stop offset="0.9861" stop-color="#F9993A" stop-opacity="0"/>
</linearGradient>
<linearGradient id="paint29_linear" x1="270.966" y1="200.288" x2="267.228" y2="194.265" gradientUnits="userSpaceOnUse">
<stop stop-color="#9000D9"/>
<stop offset="0.00843201" stop-color="#9001D9" stop-opacity="0.9914"/>
<stop offset="0.4662" stop-color="#A63BE0" stop-opacity="0.5272"/>
<stop offset="0.8053" stop-color="#B35EE3" stop-opacity="0.1834"/>
<stop offset="0.9861" stop-color="#B86CE5" stop-opacity="0"/>
</linearGradient>
<linearGradient id="paint30_linear" x1="270.894" y1="192.149" x2="267.156" y2="186.126" gradientUnits="userSpaceOnUse">
<stop stop-color="#9000D9"/>
<stop offset="0.00843201" stop-color="#9001D9" stop-opacity="0.9914"/>
<stop offset="0.4662" stop-color="#A63BE0" stop-opacity="0.5272"/>
<stop offset="0.8053" stop-color="#B35EE3" stop-opacity="0.1834"/>
<stop offset="0.9861" stop-color="#B86CE5" stop-opacity="0"/>
</linearGradient>
<linearGradient id="paint31_linear" x1="270.823" y1="184.01" x2="267.084" y2="177.987" gradientUnits="userSpaceOnUse">
<stop stop-color="#9000D9"/>
<stop offset="0.00843201" stop-color="#9001D9" stop-opacity="0.9914"/>
<stop offset="0.4662" stop-color="#A63BE0" stop-opacity="0.5272"/>
<stop offset="0.8053" stop-color="#B35EE3" stop-opacity="0.1834"/>
<stop offset="0.9861" stop-color="#B86CE5" stop-opacity="0"/>
</linearGradient>
<linearGradient id="paint32_linear" x1="270.759" y1="176.788" x2="242.89" y2="131.883" gradientUnits="userSpaceOnUse">
<stop stop-color="#FF2911"/>
<stop offset="0.3846" stop-color="#FC5923"/>
<stop offset="0.794" stop-color="#FA8734"/>
<stop offset="1" stop-color="#F9993A"/>
</linearGradient>
<linearGradient id="paint33_linear" x1="276.692" y1="185.4" x2="274.966" y2="182.619" gradientUnits="userSpaceOnUse">
<stop stop-color="#F9993A"/>
<stop offset="0.9861" stop-color="#F9993A" stop-opacity="0"/>
</linearGradient>
<linearGradient id="paint34_linear" x1="276.725" y1="189.145" x2="274.999" y2="186.364" gradientUnits="userSpaceOnUse">
<stop stop-color="#F9993A"/>
<stop offset="0.9861" stop-color="#F9993A" stop-opacity="0"/>
</linearGradient>
<linearGradient id="paint35_linear" x1="276.758" y1="192.89" x2="275.032" y2="190.109" gradientUnits="userSpaceOnUse">
<stop stop-color="#F9993A"/>
<stop offset="0.9861" stop-color="#F9993A" stop-opacity="0"/>
</linearGradient>
<linearGradient id="paint36_linear" x1="271.221" y1="126.68" x2="264.293" y2="115.516" gradientUnits="userSpaceOnUse">
<stop stop-color="#9000D9"/>
<stop offset="0.00843201" stop-color="#9001D9" stop-opacity="0.9914"/>
<stop offset="0.4662" stop-color="#A63BE0" stop-opacity="0.5272"/>
<stop offset="0.8053" stop-color="#B35EE3" stop-opacity="0.1834"/>
<stop offset="0.9861" stop-color="#B86CE5" stop-opacity="0"/>
</linearGradient>
<linearGradient id="paint37_linear" x1="271.276" y1="132.927" x2="269.55" y2="130.147" gradientUnits="userSpaceOnUse">
<stop stop-color="#F9993A"/>
<stop offset="0.9861" stop-color="#F9993A" stop-opacity="0"/>
</linearGradient>
<linearGradient id="paint38_linear" x1="271.309" y1="136.672" x2="269.583" y2="133.891" gradientUnits="userSpaceOnUse">
<stop stop-color="#F9993A"/>
<stop offset="0.9861" stop-color="#F9993A" stop-opacity="0"/>
</linearGradient>
<linearGradient id="paint39_linear" x1="271.342" y1="140.417" x2="269.616" y2="137.636" gradientUnits="userSpaceOnUse">
<stop stop-color="#F9993A"/>
<stop offset="0.9861" stop-color="#F9993A" stop-opacity="0"/>
</linearGradient>
<linearGradient id="paint40_linear" x1="257.618" y1="109.486" x2="250.69" y2="98.323" gradientUnits="userSpaceOnUse">
<stop stop-color="#FF2911"/>
<stop offset="0.3846" stop-color="#FC5923"/>
<stop offset="0.794" stop-color="#FA8734"/>
<stop offset="1" stop-color="#F9993A"/>
</linearGradient>
<linearGradient id="paint41_linear" x1="257.673" y1="115.734" x2="255.947" y2="112.954" gradientUnits="userSpaceOnUse">
<stop stop-color="#F9993A"/>
<stop offset="0.9861" stop-color="#F9993A" stop-opacity="0"/>
</linearGradient>
<linearGradient id="paint42_linear" x1="257.706" y1="119.479" x2="255.98" y2="116.698" gradientUnits="userSpaceOnUse">
<stop stop-color="#FF2911"/>
<stop offset="0.3846" stop-color="#FC5923"/>
<stop offset="0.794" stop-color="#FA8734"/>
<stop offset="1" stop-color="#F9993A"/>
</linearGradient>
<linearGradient id="paint43_linear" x1="257.739" y1="123.224" x2="256.013" y2="120.443" gradientUnits="userSpaceOnUse">
<stop stop-color="#FF2911"/>
<stop offset="0.3846" stop-color="#FC5923"/>
<stop offset="0.794" stop-color="#FA8734"/>
<stop offset="1" stop-color="#F9993A"/>
</linearGradient>
<linearGradient id="paint44_linear" x1="254.634" y1="139.412" x2="250.155" y2="132.196" gradientUnits="userSpaceOnUse">
<stop stop-color="#FF2911"/>
<stop offset="0.3846" stop-color="#FC5923"/>
<stop offset="0.794" stop-color="#FA8734"/>
<stop offset="1" stop-color="#F9993A"/>
</linearGradient>
<linearGradient id="paint45_linear" x1="254.67" y1="143.451" x2="253.554" y2="141.653" gradientUnits="userSpaceOnUse">
<stop stop-color="#F9993A"/>
<stop offset="0.9861" stop-color="#F9993A" stop-opacity="0"/>
</linearGradient>
<linearGradient id="paint46_linear" x1="254.691" y1="145.872" x2="253.575" y2="144.074" gradientUnits="userSpaceOnUse">
<stop stop-color="#F9993A"/>
<stop offset="0.9861" stop-color="#F9993A" stop-opacity="0"/>
</linearGradient>
<linearGradient id="paint47_linear" x1="254.712" y1="148.292" x2="253.597" y2="146.495" gradientUnits="userSpaceOnUse">
<stop stop-color="#FF2911"/>
<stop offset="0.3846" stop-color="#FC5923"/>
<stop offset="0.794" stop-color="#FA8734"/>
<stop offset="1" stop-color="#F9993A"/>
</linearGradient>
<linearGradient id="paint48_linear" x1="254.797" y1="157.984" x2="250.319" y2="150.768" gradientUnits="userSpaceOnUse">
<stop stop-color="#FF2911"/>
<stop offset="0.3846" stop-color="#FC5923"/>
<stop offset="0.794" stop-color="#FA8734"/>
<stop offset="1" stop-color="#F9993A"/>
</linearGradient>
<linearGradient id="paint49_linear" x1="254.833" y1="162.022" x2="253.718" y2="160.225" gradientUnits="userSpaceOnUse">
<stop stop-color="#F9993A"/>
<stop offset="0.9861" stop-color="#F9993A" stop-opacity="0"/>
</linearGradient>
<linearGradient id="paint50_linear" x1="254.854" y1="164.443" x2="253.739" y2="162.646" gradientUnits="userSpaceOnUse">
<stop stop-color="#FF2911"/>
<stop offset="0.3846" stop-color="#FC5923"/>
<stop offset="0.794" stop-color="#FA8734"/>
<stop offset="1" stop-color="#F9993A"/>
</linearGradient>
<linearGradient id="paint51_linear" x1="254.876" y1="166.864" x2="253.76" y2="165.066" gradientUnits="userSpaceOnUse">
<stop stop-color="#FF2911"/>
<stop offset="0.3846" stop-color="#FC5923"/>
<stop offset="0.794" stop-color="#FA8734"/>
<stop offset="1" stop-color="#F9993A"/>
</linearGradient>
<linearGradient id="paint52_linear" x1="254.961" y1="176.555" x2="250.483" y2="169.339" gradientUnits="userSpaceOnUse">
<stop stop-color="#FF2911"/>
<stop offset="0.3846" stop-color="#FC5923"/>
<stop offset="0.794" stop-color="#FA8734"/>
<stop offset="1" stop-color="#F9993A"/>
</linearGradient>
<linearGradient id="paint53_linear" x1="254.997" y1="180.594" x2="253.881" y2="178.796" gradientUnits="userSpaceOnUse">
<stop stop-color="#F9993A"/>
<stop offset="0.9861" stop-color="#F9993A" stop-opacity="0"/>
</linearGradient>
<linearGradient id="paint54_linear" x1="255.018" y1="183.015" x2="253.902" y2="181.217" gradientUnits="userSpaceOnUse">
<stop stop-color="#FF2911"/>
<stop offset="0.3846" stop-color="#FC5923"/>
<stop offset="0.794" stop-color="#FA8734"/>
<stop offset="1" stop-color="#F9993A"/>
</linearGradient>
<linearGradient id="paint55_linear" x1="255.039" y1="185.435" x2="253.924" y2="183.638" gradientUnits="userSpaceOnUse">
<stop stop-color="#FF2911"/>
<stop offset="0.3846" stop-color="#FC5923"/>
<stop offset="0.794" stop-color="#FA8734"/>
<stop offset="1" stop-color="#F9993A"/>
</linearGradient>
<linearGradient id="paint56_linear" x1="236.391" y1="223.196" x2="234.784" y2="41.5231" gradientUnits="userSpaceOnUse">
<stop stop-color="#FF2911" stop-opacity="0.64"/>
<stop offset="0.8351" stop-color="#FF2911" stop-opacity="0"/>
</linearGradient>
<linearGradient id="paint57_linear" x1="205.848" y1="144.023" x2="206.613" y2="144.017" gradientUnits="userSpaceOnUse">
<stop stop-color="#F9993A"/>
<stop offset="0.9861" stop-color="#F9993A" stop-opacity="0"/>
</linearGradient>
<linearGradient id="paint58_linear" x1="264.081" y1="146.149" x2="264.846" y2="146.143" gradientUnits="userSpaceOnUse">
<stop stop-color="#9000D9"/>
<stop offset="0.00843201" stop-color="#9001D9" stop-opacity="0.9914"/>
<stop offset="0.4662" stop-color="#A63BE0" stop-opacity="0.5272"/>
<stop offset="0.8053" stop-color="#B35EE3" stop-opacity="0.1834"/>
<stop offset="0.9861" stop-color="#B86CE5" stop-opacity="0"/>
</linearGradient>
<linearGradient id="paint59_linear" x1="274.952" y1="109.777" x2="275.717" y2="109.77" gradientUnits="userSpaceOnUse">
<stop stop-color="#FF2911"/>
<stop offset="0.3846" stop-color="#FC5923"/>
<stop offset="0.794" stop-color="#FA8734"/>
<stop offset="1" stop-color="#F9993A"/>
</linearGradient>
<linearGradient id="paint60_linear" x1="52.2496" y1="195.593" x2="140.226" y2="194.818" gradientUnits="userSpaceOnUse">
<stop stop-color="#F9993A"/>
<stop offset="0.1488" stop-color="#F7983E" stop-opacity="0.9403"/>
<stop offset="0.3015" stop-color="#F3954A" stop-opacity="0.8789"/>
<stop offset="0.456" stop-color="#EB8F5F" stop-opacity="0.8169"/>
<stop offset="0.6119" stop-color="#E0887C" stop-opacity="0.7543"/>
<stop offset="0.7688" stop-color="#D27EA1" stop-opacity="0.6913"/>
<stop offset="0.9244" stop-color="#C172CE" stop-opacity="0.6288"/>
<stop offset="0.9962" stop-color="#B86CE5" stop-opacity="0.6"/>
</linearGradient>
<linearGradient id="paint61_linear" x1="57.9275" y1="195.543" x2="134.548" y2="194.868" gradientUnits="userSpaceOnUse">
<stop stop-color="#F9993A"/>
<stop offset="0.1488" stop-color="#F7983E" stop-opacity="0.9403"/>
<stop offset="0.3015" stop-color="#F3954A" stop-opacity="0.8789"/>
<stop offset="0.456" stop-color="#EB8F5F" stop-opacity="0.8169"/>
<stop offset="0.6119" stop-color="#E0887C" stop-opacity="0.7543"/>
<stop offset="0.7688" stop-color="#D27EA1" stop-opacity="0.6913"/>
<stop offset="0.9244" stop-color="#C172CE" stop-opacity="0.6288"/>
<stop offset="0.9962" stop-color="#B86CE5" stop-opacity="0.6"/>
</linearGradient>
<linearGradient id="paint62_linear" x1="55.409" y1="168.884" x2="136.704" y2="168.168" gradientUnits="userSpaceOnUse">
<stop stop-color="#F9993A"/>
<stop offset="0.1165" stop-color="#F69741"/>
<stop offset="0.282" stop-color="#EF9253"/>
<stop offset="0.4767" stop-color="#E48A72"/>
<stop offset="0.6937" stop-color="#D47F9C"/>
<stop offset="0.9264" stop-color="#BF71D2"/>
<stop offset="1" stop-color="#B86CE5"/>
</linearGradient>
<linearGradient id="paint63_linear" x1="55.409" y1="168.884" x2="136.704" y2="168.168" gradientUnits="userSpaceOnUse">
<stop stop-color="#FF2911"/>
<stop offset="0.3993" stop-color="#F51C1F"/>
<stop offset="1" stop-color="#E80C31"/>
</linearGradient>
<linearGradient id="paint64_linear" x1="100.711" y1="207.96" x2="96.5751" y2="50.4463" gradientUnits="userSpaceOnUse">
<stop stop-color="#FF2911" stop-opacity="0.64"/>
<stop offset="0.8351" stop-color="#FF2911" stop-opacity="0"/>
</linearGradient>
<linearGradient id="paint65_linear" x1="66.8367" y1="82.326" x2="121.137" y2="82.326" gradientUnits="userSpaceOnUse">
<stop stop-color="#32324C"/>
<stop offset="0.6231" stop-color="#19192C"/>
<stop offset="0.9861" stop-color="#0F0F1E"/>
</linearGradient>
<linearGradient id="paint66_linear" x1="72.9256" y1="85.2936" x2="127.51" y2="84.813" gradientUnits="userSpaceOnUse">
<stop stop-color="#FF0DFF"/>
<stop offset="0.5289" stop-color="#F4FFFF"/>
<stop offset="0.6031" stop-color="#F5FAFF"/>
<stop offset="0.6971" stop-color="#F6EAFF"/>
<stop offset="0.8019" stop-color="#F8D0FF"/>
<stop offset="0.9136" stop-color="#FCACFF"/>
<stop offset="1" stop-color="#FF8BFF"/>
</linearGradient>
<linearGradient id="paint67_linear" x1="72.9333" y1="85.5754" x2="127.518" y2="85.0947" gradientUnits="userSpaceOnUse">
<stop stop-color="#FF2911"/>
<stop offset="0.3993" stop-color="#F51C1F"/>
<stop offset="1" stop-color="#E80C31"/>
</linearGradient>
<linearGradient id="paint68_linear" x1="76.546" y1="85.0491" x2="123.882" y2="85.0491" gradientUnits="userSpaceOnUse">
<stop stop-color="#32324C"/>
<stop offset="0.6231" stop-color="#19192C"/>
<stop offset="0.9861" stop-color="#0F0F1E"/>
</linearGradient>
<linearGradient id="paint69_linear" x1="406.102" y1="275.186" x2="471.118" y2="274.614" gradientUnits="userSpaceOnUse">
<stop stop-color="#F9993A"/>
<stop offset="0.1488" stop-color="#F7983E" stop-opacity="0.9403"/>
<stop offset="0.3015" stop-color="#F3954A" stop-opacity="0.8789"/>
<stop offset="0.456" stop-color="#EB8F5F" stop-opacity="0.8169"/>
<stop offset="0.6119" stop-color="#E0887C" stop-opacity="0.7543"/>
<stop offset="0.7688" stop-color="#D27EA1" stop-opacity="0.6913"/>
<stop offset="0.9244" stop-color="#C172CE" stop-opacity="0.6288"/>
<stop offset="0.9962" stop-color="#B86CE5" stop-opacity="0.6"/>
</linearGradient>
<linearGradient id="paint70_linear" x1="410.298" y1="275.149" x2="466.921" y2="274.651" gradientUnits="userSpaceOnUse">
<stop stop-color="#F9993A"/>
<stop offset="0.1488" stop-color="#F7983E" stop-opacity="0.9403"/>
<stop offset="0.3015" stop-color="#F3954A" stop-opacity="0.8789"/>
<stop offset="0.456" stop-color="#EB8F5F" stop-opacity="0.8169"/>
<stop offset="0.6119" stop-color="#E0887C" stop-opacity="0.7543"/>
<stop offset="0.7688" stop-color="#D27EA1" stop-opacity="0.6913"/>
<stop offset="0.9244" stop-color="#C172CE" stop-opacity="0.6288"/>
<stop offset="0.9962" stop-color="#B86CE5" stop-opacity="0.6"/>
</linearGradient>
<linearGradient id="paint71_linear" x1="441.915" y1="284.423" x2="438.859" y2="168.018" gradientUnits="userSpaceOnUse">
<stop stop-color="#FF2911" stop-opacity="0.64"/>
<stop offset="0.8351" stop-color="#FF2911" stop-opacity="0"/>
</linearGradient>
<linearGradient id="paint72_linear" x1="10.7336" y1="267.37" x2="75.7491" y2="266.797" gradientUnits="userSpaceOnUse">
<stop stop-color="#F9993A"/>
<stop offset="0.1488" stop-color="#F7983E" stop-opacity="0.9403"/>
<stop offset="0.3015" stop-color="#F3954A" stop-opacity="0.8789"/>
<stop offset="0.456" stop-color="#EB8F5F" stop-opacity="0.8169"/>
<stop offset="0.6119" stop-color="#E0887C" stop-opacity="0.7543"/>
<stop offset="0.7688" stop-color="#D27EA1" stop-opacity="0.6913"/>
<stop offset="0.9244" stop-color="#C172CE" stop-opacity="0.6288"/>
<stop offset="0.9962" stop-color="#B86CE5" stop-opacity="0.6"/>
</linearGradient>
<linearGradient id="paint73_linear" x1="14.9296" y1="267.333" x2="71.5531" y2="266.834" gradientUnits="userSpaceOnUse">
<stop stop-color="#F9993A"/>
<stop offset="0.1488" stop-color="#F7983E" stop-opacity="0.9403"/>
<stop offset="0.3015" stop-color="#F3954A" stop-opacity="0.8789"/>
<stop offset="0.456" stop-color="#EB8F5F" stop-opacity="0.8169"/>
<stop offset="0.6119" stop-color="#E0887C" stop-opacity="0.7543"/>
<stop offset="0.7688" stop-color="#D27EA1" stop-opacity="0.6913"/>
<stop offset="0.9244" stop-color="#C172CE" stop-opacity="0.6288"/>
<stop offset="0.9962" stop-color="#B86CE5" stop-opacity="0.6"/>
</linearGradient>
<linearGradient id="paint74_linear" x1="46.5467" y1="276.606" x2="43.4905" y2="160.202" gradientUnits="userSpaceOnUse">
<stop stop-color="#FF2911" stop-opacity="0.64"/>
<stop offset="0.8351" stop-color="#FF2911" stop-opacity="0"/>
</linearGradient>
<linearGradient id="paint75_linear" x1="338.868" y1="198.847" x2="426.845" y2="198.072" gradientUnits="userSpaceOnUse">
<stop stop-color="#F9993A"/>
<stop offset="0.1488" stop-color="#F7983E" stop-opacity="0.9403"/>
<stop offset="0.3015" stop-color="#F3954A" stop-opacity="0.8789"/>
<stop offset="0.456" stop-color="#EB8F5F" stop-opacity="0.8169"/>
<stop offset="0.6119" stop-color="#E0887C" stop-opacity="0.7543"/>
<stop offset="0.7688" stop-color="#D27EA1" stop-opacity="0.6913"/>
<stop offset="0.9244" stop-color="#C172CE" stop-opacity="0.6288"/>
<stop offset="0.9962" stop-color="#B86CE5" stop-opacity="0.6"/>
</linearGradient>
<linearGradient id="paint76_linear" x1="344.546" y1="198.797" x2="421.167" y2="198.122" gradientUnits="userSpaceOnUse">
<stop stop-color="#F9993A"/>
<stop offset="0.1488" stop-color="#F7983E" stop-opacity="0.9403"/>
<stop offset="0.3015" stop-color="#F3954A" stop-opacity="0.8789"/>
<stop offset="0.456" stop-color="#EB8F5F" stop-opacity="0.8169"/>
<stop offset="0.6119" stop-color="#E0887C" stop-opacity="0.7543"/>
<stop offset="0.7688" stop-color="#D27EA1" stop-opacity="0.6913"/>
<stop offset="0.9244" stop-color="#C172CE" stop-opacity="0.6288"/>
<stop offset="0.9962" stop-color="#B86CE5" stop-opacity="0.6"/>
</linearGradient>
<linearGradient id="paint77_linear" x1="342.027" y1="172.138" x2="423.322" y2="171.423" gradientUnits="userSpaceOnUse">
<stop stop-color="#F9993A"/>
<stop offset="0.1165" stop-color="#F69741"/>
<stop offset="0.282" stop-color="#EF9253"/>
<stop offset="0.4767" stop-color="#E48A72"/>
<stop offset="0.6937" stop-color="#D47F9C"/>
<stop offset="0.9264" stop-color="#BF71D2"/>
<stop offset="1" stop-color="#B86CE5"/>
</linearGradient>
<linearGradient id="paint78_linear" x1="342.027" y1="172.138" x2="423.322" y2="171.423" gradientUnits="userSpaceOnUse">
<stop stop-color="#FF2911"/>
<stop offset="0.3993" stop-color="#F51C1F"/>
<stop offset="1" stop-color="#E80C31"/>
</linearGradient>
<linearGradient id="paint79_linear" x1="387.329" y1="211.215" x2="383.193" y2="53.7006" gradientUnits="userSpaceOnUse">
<stop stop-color="#FF2911" stop-opacity="0.64"/>
<stop offset="0.8351" stop-color="#FF2911" stop-opacity="0"/>
</linearGradient>
<linearGradient id="paint80_linear" x1="353.444" y1="85.5805" x2="407.744" y2="85.5805" gradientUnits="userSpaceOnUse">
<stop stop-color="#32324C"/>
<stop offset="0.6231" stop-color="#19192C"/>
<stop offset="0.9861" stop-color="#0F0F1E"/>
</linearGradient>
<linearGradient id="paint81_linear" x1="359.544" y1="88.5484" x2="414.129" y2="88.0678" gradientUnits="userSpaceOnUse">
<stop stop-color="#FF0DFF"/>
<stop offset="0.5289" stop-color="#F4FFFF"/>
<stop offset="0.6031" stop-color="#F5FAFF"/>
<stop offset="0.6971" stop-color="#F6EAFF"/>
<stop offset="0.8019" stop-color="#F8D0FF"/>
<stop offset="0.9136" stop-color="#FCACFF"/>
<stop offset="1" stop-color="#FF8BFF"/>
</linearGradient>
<linearGradient id="paint82_linear" x1="359.541" y1="88.8299" x2="414.125" y2="88.3493" gradientUnits="userSpaceOnUse">
<stop stop-color="#FF2911"/>
<stop offset="0.3993" stop-color="#F51C1F"/>
<stop offset="1" stop-color="#E80C31"/>
</linearGradient>
<linearGradient id="paint83_linear" x1="363.153" y1="88.3037" x2="410.489" y2="88.3037" gradientUnits="userSpaceOnUse">
<stop stop-color="#32324C"/>
<stop offset="0.6231" stop-color="#19192C"/>
<stop offset="0.9861" stop-color="#0F0F1E"/>
</linearGradient>
<linearGradient id="paint84_linear" x1="351.626" y1="30.037" x2="348.692" y2="9.67384" gradientUnits="userSpaceOnUse">
<stop stop-color="#FF2911" stop-opacity="0.64"/>
<stop offset="0.8351" stop-color="#FF2911" stop-opacity="0"/>
</linearGradient>
<linearGradient id="paint85_linear" x1="163.313" y1="30.0185" x2="161.846" y2="19.8369" gradientUnits="userSpaceOnUse">
<stop stop-color="#FF2911" stop-opacity="0.64"/>
<stop offset="0.8351" stop-color="#FF2911" stop-opacity="0"/>
</linearGradient>
<linearGradient id="paint86_linear" x1="439.948" y1="239.458" x2="436.184" y2="213.306" gradientUnits="userSpaceOnUse">
<stop stop-color="#FF2911" stop-opacity="0.64"/>
<stop offset="0.8351" stop-color="#FF2911" stop-opacity="0"/>
</linearGradient>
<linearGradient id="paint87_linear" x1="151.376" y1="164.795" x2="147.613" y2="138.643" gradientUnits="userSpaceOnUse">
<stop stop-color="#FF2911" stop-opacity="0.64"/>
<stop offset="0.8351" stop-color="#FF2911" stop-opacity="0"/>
</linearGradient>
<linearGradient id="paint88_linear" x1="234.939" y1="307.055" x2="230.538" y2="276.511" gradientUnits="userSpaceOnUse">
<stop stop-color="#FF2911" stop-opacity="0.64"/>
<stop offset="0.8351" stop-color="#FF2911" stop-opacity="0"/>
</linearGradient>
<linearGradient id="paint89_linear" x1="188.939" y1="304.055" x2="184.538" y2="273.511" gradientUnits="userSpaceOnUse">
<stop stop-color="#FF2911" stop-opacity="0.64"/>
<stop offset="0.8351" stop-color="#FF2911" stop-opacity="0"/>
</linearGradient>
<linearGradient id="paint90_linear" x1="315.939" y1="284.055" x2="311.538" y2="253.511" gradientUnits="userSpaceOnUse">
<stop stop-color="#FF2911" stop-opacity="0.64"/>
<stop offset="0.8351" stop-color="#FF2911" stop-opacity="0"/>
</linearGradient>
<linearGradient id="paint91_linear" x1="163.856" y1="145.626" x2="156.2" y2="122.071" gradientUnits="userSpaceOnUse">
<stop stop-color="#FF9E93"/>
<stop offset="1" stop-color="#FF9E93" stop-opacity="0"/>
</linearGradient>
<linearGradient id="paint92_linear" x1="441.71" y1="60.2373" x2="449.168" y2="83.1597" gradientUnits="userSpaceOnUse">
<stop stop-color="#FF9E93"/>
<stop offset="1" stop-color="#FF9E93" stop-opacity="0"/>
</linearGradient>
<linearGradient id="paint93_linear" x1="51.313" y1="51.9815" x2="49.8461" y2="62.1631" gradientUnits="userSpaceOnUse">
<stop stop-color="#FF2911" stop-opacity="0.64"/>
<stop offset="0.8351" stop-color="#FF2911" stop-opacity="0"/>
</linearGradient>
<linearGradient id="paint94_linear" x1="160.313" y1="52.0185" x2="158.846" y2="41.8369" gradientUnits="userSpaceOnUse">
<stop stop-color="#FF2911" stop-opacity="0.64"/>
<stop offset="0.8351" stop-color="#FF2911" stop-opacity="0"/>
</linearGradient>
<linearGradient id="paint95_linear" x1="155.374" y1="55.5424" x2="150.899" y2="69.2958" gradientUnits="userSpaceOnUse">
<stop stop-color="#FF9E93"/>
<stop offset="1" stop-color="#FF9E93" stop-opacity="0"/>
</linearGradient>
<linearGradient id="paint96_linear" x1="432" y1="171.5" x2="436.26" y2="141.894" gradientUnits="userSpaceOnUse">
<stop stop-color="#FF2911" stop-opacity="0.64"/>
<stop offset="0.8351" stop-color="#FF2911" stop-opacity="0"/>
</linearGradient>
<linearGradient id="paint97_linear" x1="17.687" y1="216.982" x2="19.1539" y2="227.163" gradientUnits="userSpaceOnUse">
<stop stop-color="#FF2911" stop-opacity="0.64"/>
<stop offset="0.8351" stop-color="#FF2911" stop-opacity="0"/>
</linearGradient>
<linearGradient id="paint98_linear" x1="350.168" y1="55.6102" x2="356.135" y2="37.2722" gradientUnits="userSpaceOnUse">
<stop stop-color="#FF9E93"/>
<stop offset="1" stop-color="#FF9E93" stop-opacity="0"/>
</linearGradient>
<linearGradient id="paint99_linear" x1="437.71" y1="187.763" x2="445.168" y2="164.84" gradientUnits="userSpaceOnUse">
<stop stop-color="#FF9E93"/>
<stop offset="1" stop-color="#FF9E93" stop-opacity="0"/>
</linearGradient>
<linearGradient id="paint100_linear" x1="67.145" y1="44.9692" x2="69.5898" y2="61.9385" gradientUnits="userSpaceOnUse">
<stop stop-color="#FF2911" stop-opacity="0.64"/>
<stop offset="0.8351" stop-color="#FF2911" stop-opacity="0"/>
</linearGradient>
<clipPath id="clip0">
<rect width="482" height="315" fill="white"/>
</clipPath>
</defs>
</svg>
