<svg width="407" height="234" viewBox="0 0 407 234" fill="none" xmlns="http://www.w3.org/2000/svg">
<path d="M91.9479 64.956C91.6759 63.5961 90.316 62.7801 88.956 63.0521C87.5961 63.3241 86.7801 64.684 87.0521 66.044C87.3241 67.4039 88.684 68.2199 90.044 67.9479C91.4039 67.6759 92.2199 66.316 91.9479 64.956Z" fill="url(#paint0_linear)"/>
<g clip-path="url(#clip0)">
<path opacity="0.2" d="M66.0416 202.593C68.8762 202.593 71.174 200.262 71.174 197.387C71.174 194.512 68.8762 192.182 66.0416 192.182C63.207 192.182 60.9092 194.512 60.9092 197.387C60.9092 200.262 63.207 202.593 66.0416 202.593Z" fill="#FF9E93"/>
<path opacity="0.2" d="M47.3413 48.507C48.6244 51.1098 51.1906 52.4112 53.7568 52.4112C56.323 51.1098 57.6061 48.507 57.6061 45.9042C56.323 43.3014 53.7568 42 51.1906 42C48.6244 43.3014 46.0582 45.9042 47.3413 48.507Z" fill="#FF9E93"/>
<path d="M52.4545 140.045C52.4545 137.227 50.3409 135.818 48.2273 135.818C45.4091 135.818 44 137.932 44 140.045C44 142.863 46.1136 144.272 48.2273 144.272C50.3409 144.272 52.4545 142.159 52.4545 140.045Z" fill="url(#paint1_linear)"/>
<path d="M120.853 127.239C120.087 123.407 116.254 121.107 112.422 121.874C108.589 122.64 106.289 126.473 107.056 130.305C107.822 134.138 111.655 136.438 115.488 135.671C119.32 134.904 121.62 131.072 120.853 127.239Z" fill="url(#paint2_linear)"/>
<g opacity="0.3">
<g opacity="0.1">
<path opacity="0.1" d="M314.096 142.921C300.023 134.378 283.64 130.244 267.243 131.353C266.006 131.384 264.808 131.55 263.52 131.663C258.599 132.14 253.618 132.915 248.776 133.663C232.586 136.239 217.277 138.567 205.075 131.16C204.897 131.052 204.808 130.997 204.63 130.889C200.404 128.212 196.734 124.42 193.095 118.97C190.009 114.415 187.459 109.179 184.81 104.107C182.753 100.065 180.658 95.8872 178.275 91.9821C172.451 82.3005 163.724 74.9914 154.953 72.5726C148.489 70.7718 142.043 71.5519 136.209 74.9384C126.561 80.5913 120.185 92.7004 117.329 110.858C117.07 112.488 116.812 114.119 116.642 115.804C114.96 127.41 113.257 139.451 106.141 148.764C104.387 151.051 102.276 153.122 99.948 154.95C92.1116 161.032 81.456 163.727 71.6354 162.235C58.7657 160.344 47.8709 152.39 39.8465 145.731C-16.0078 99.1964 -43.787 19.8669 -32.6933 -61.4543L-35.7324 -62.07C-41.2986 -21.9799 -37.2812 18.7877 -24.3004 55.8335C-11.2802 93.0149 10.2789 124.764 37.8746 147.774C46.2948 154.785 57.6348 163.01 71.3658 165.088C82.0972 166.686 93.5451 163.69 101.996 157.199C104.512 155.262 106.722 153.028 108.625 150.495C116.227 140.583 117.989 128.243 119.642 116.284C119.9 114.653 120.159 113.022 120.329 111.337C123.055 93.9959 128.946 82.4859 137.841 77.27C142.922 74.3205 148.408 73.5161 154.189 75.2374C162.187 77.5226 170.211 84.1819 175.61 93.1584C177.865 96.8736 179.961 101.051 182.017 105.093C184.617 110.247 187.256 115.537 190.47 120.282C194.277 126.057 198.433 130.256 203.014 133.149C216.404 141.613 233.148 138.927 249.428 136.405C254.27 135.657 259.162 134.828 263.944 134.378C265.142 134.212 266.38 134.181 267.528 134.096C289.252 132.645 310.721 140.649 326.491 156.033C340.421 169.63 349.139 187.997 350.827 207.906C352.642 228.005 348.21 248.558 343.987 268.566L343.758 269.545C339.773 288.358 335.669 307.768 336.169 326.622C337.514 365.767 360.199 400.882 393.001 414.313L394.042 411.593C362.409 398.647 340.495 364.671 339.495 326.965C338.936 308.41 343.08 289.136 346.965 270.486L347.194 269.508C351.467 249.417 355.82 228.593 354.024 208.059C352.229 187.526 343.224 168.426 328.681 154.234C324.258 149.873 319.351 146.111 314.096 142.921Z" fill="#2B2225"/>
</g>
<g opacity="0.2">
<path opacity="0.2" d="M313.352 144.146C299.19 135.55 282.491 131.334 265.639 132.39C264.401 132.421 263.203 132.588 261.965 132.619C257.321 133.04 252.667 133.679 248.152 134.29C231.794 136.54 216.307 138.76 203.996 130.729C199.771 128.052 196.239 124.232 192.689 118.836C189.693 114.335 187.093 109.181 184.572 104.298C182.516 100.256 180.331 96.0243 177.997 92.0376C172.213 82.4918 163.575 75.2366 154.854 72.7363C148.301 70.8814 142.043 71.5523 136.258 74.8571C126.571 80.3743 119.977 92.2395 116.716 110.262C116.407 111.975 116.099 113.687 115.791 115.4C113.891 126.762 111.882 138.504 104.726 147.682C102.972 149.969 100.861 152.04 98.4439 153.814C90.5679 159.76 79.9123 162.455 70.0027 160.909C57.0439 158.964 46.1987 150.928 38.1743 144.269C-16.8785 98.2212 -44.3416 19.9775 -33.3479 -60.1751L-36.387 -60.7908C-41.7449 -21.2447 -37.8854 18.98 -25.0627 55.4829C-12.2004 92.1214 8.96293 123.519 36.2519 146.231C44.5831 153.188 55.9626 161.549 69.6936 163.626C80.3754 165.306 91.8628 162.446 100.403 156.008C102.919 154.072 105.218 151.891 107.21 149.413C114.801 139.718 116.87 127.676 118.88 115.934C119.188 114.221 119.496 112.509 119.804 110.796C122.887 93.6707 128.995 82.4046 138.068 77.2968C143.1 74.4289 148.626 73.7602 154.317 75.4275C162.226 77.6587 170.112 84.3455 175.561 93.2403C177.855 97.0914 180 101.187 182.056 105.229C184.617 110.248 187.306 115.456 190.341 120.093C194.149 125.868 198.215 130.012 202.658 132.933C216.037 141.614 232.811 139.281 249.031 137.059C253.546 136.448 258.2 135.809 262.706 135.415C263.854 135.33 265.141 135.217 266.29 135.132C288.053 133.817 309.443 141.55 325.055 156.391C339.094 169.607 347.823 187.756 349.748 207.475C351.712 227.329 347.647 247.881 343.75 267.752L343.68 268.269C339.972 287.026 336.185 306.517 336.912 325.397C337.59 344.359 343.339 362.598 353.376 378.19C363.502 393.836 377.285 405.667 393.23 412.329L394.272 409.609C362.659 396.229 341.388 363.202 339.932 325.442C339.145 306.862 343.011 287.642 346.67 268.966L346.739 268.45C350.735 248.415 354.811 227.646 352.817 207.438C350.794 186.878 341.729 168.078 327.116 154.402C322.763 150.53 318.162 147.066 313.352 144.146Z" fill="#322225"/>
</g>
<g opacity="0.25">
<path opacity="0.25" d="M312.252 145.154C298.09 136.558 281.48 132.397 263.994 133.291C262.756 133.322 261.608 133.407 260.321 133.52C256.093 133.859 251.627 134.388 247.438 134.863C231.001 136.841 215.485 138.708 203.185 130.459C199.098 127.754 195.477 123.88 192.016 118.538C189.108 114.092 186.548 109.073 184.116 104.245C182.02 100.067 179.836 95.8352 177.453 91.9301C171.618 82.4659 163.07 75.2649 154.488 72.7369C147.984 70.8004 141.726 71.4713 135.902 74.6403C126.036 80.0494 119.423 91.3442 115.657 109.395C115.299 111.19 114.991 112.902 114.633 114.696C112.466 125.896 110.189 137.477 102.954 146.383C101.111 148.616 99.0006 150.687 96.6329 152.379C88.6679 158.271 78.0224 160.748 68.1128 159.202C55.1144 157.122 44.3088 149.222 36.3339 142.481C-17.8382 97.1913 -44.8468 20.0058 -34.1807 -59.0047L-37.2198 -59.6205C-42.5079 -20.5908 -38.6678 19.0635 -26.0526 55.1051C-13.398 91.2824 7.46879 122.164 34.3519 144.742C42.6831 151.699 53.9736 160.006 67.7441 162.219C78.4259 163.899 89.9527 161.174 98.532 154.872C101.137 152.99 103.436 150.81 105.379 148.413C113.049 138.99 115.385 127.11 117.612 115.611C117.97 113.817 118.278 112.104 118.636 110.31C122.224 93.156 128.401 82.3788 137.514 77.4067C142.585 74.6746 148.061 74.0875 153.663 75.7008C161.523 78.0136 169.369 84.5647 174.729 93.4054C177.023 97.2564 179.207 101.488 181.264 105.53C183.785 110.413 186.384 115.567 189.381 120.068C193.149 125.707 197.027 129.961 201.47 132.882C214.789 141.862 231.643 139.801 247.941 137.85C252.13 137.375 256.457 136.873 260.685 136.534C261.833 136.449 263.071 136.419 264.219 136.334C286.25 135.18 307.066 142.453 322.748 156.778C336.757 169.641 345.634 187.545 347.837 207.209C350 226.736 346.211 247.232 342.592 267.049C339.151 285.969 335.591 305.486 336.596 324.311C338.477 362.776 360.529 396.724 392.706 410.782L393.837 408.116C362.778 394.625 341.458 361.68 339.705 324.41C338.779 305.857 342.24 286.503 345.621 267.882C349.3 247.766 353.049 227.134 350.906 207.172C348.734 186.857 339.432 168.247 324.809 154.789C321.089 151.078 316.794 147.912 312.252 145.154Z" fill="#392125"/>
</g>
<g opacity="0.3">
<path opacity="0.3" d="M311.558 146.298C297.308 137.647 280.38 133.405 262.439 134.247C261.201 134.278 260.053 134.363 258.815 134.394C254.864 134.678 250.864 135.043 246.953 135.462C230.437 137.169 214.842 138.765 202.512 130.162C198.563 127.43 194.943 123.556 191.571 118.268C188.703 113.957 186.231 108.993 183.839 104.3C181.743 100.122 179.469 95.8365 177.047 91.7957C171.302 82.3856 162.793 75.3203 154.26 72.7106C147.846 70.8282 141.687 71.3357 135.823 74.3691C125.968 79.5608 119.087 90.6934 114.875 108.474C114.429 110.214 114.021 112.09 113.663 113.884C111.229 124.922 108.646 136.205 101.372 144.975C99.5282 147.208 97.3286 149.225 94.961 150.917C86.9564 156.673 76.2219 159.097 66.3618 157.469C53.2744 155.335 42.5183 147.353 34.5434 140.612C-18.7481 96.0803 -45.4407 19.9806 -34.8745 -57.8614L-37.9136 -58.4772C-43.0825 -20.0455 -39.2617 19.0383 -26.8541 54.6186C-14.3574 90.2531 6.11356 120.783 32.601 143.008C40.8825 150.047 52.173 158.354 66.0326 160.622C76.6648 162.383 88.2808 159.712 96.8995 153.546C99.4553 151.745 101.754 149.565 103.835 147.141C111.545 137.853 114.099 126.217 116.682 114.935C117.04 113.141 117.537 111.319 117.894 109.525C121.838 92.5868 128.282 81.9718 137.524 77.1895C142.546 74.539 147.972 74.0336 153.664 75.7009C161.384 78.0413 169.231 84.5924 174.551 93.2975C176.934 97.2025 179.119 101.434 181.264 105.53C183.696 110.359 186.306 115.296 189.163 119.824C192.842 125.41 196.72 129.663 201.114 132.666C214.423 141.863 231.395 140.209 247.772 138.53C251.634 138.192 255.595 137.691 259.496 137.489C260.645 137.404 261.882 137.373 263.031 137.288C285.19 136.325 305.927 143.326 321.362 157.054C335.431 169.618 344.457 187.277 346.758 206.777C349.119 225.978 345.658 246.338 342.365 266.018L342.355 266.235C339.251 284.8 335.979 304.045 337.201 323.114C339.607 361.115 361.531 394.874 393.153 409.042L394.284 406.376C363.74 392.639 342.588 360.019 340.271 323.077C339.077 304.362 342.251 285.28 345.394 266.851L345.404 266.633C348.796 246.79 352.218 226.295 349.877 206.659C347.428 186.399 338.066 168.089 323.472 154.983C319.504 151.68 315.655 148.785 311.558 146.298Z" fill="#402026"/>
</g>
<g opacity="0.35">
<path opacity="0.35" d="M310.904 147.576C296.564 138.871 279.32 134.549 260.973 135.257C259.824 135.342 258.587 135.372 257.438 135.457C253.903 135.658 250.269 136.022 246.735 136.223C230.14 137.659 214.376 138.929 202.056 130.109C198.158 127.295 194.626 123.475 191.254 118.187C188.475 113.93 186.043 109.102 183.69 104.545C181.506 100.313 179.281 95.9454 176.809 91.9863C168.117 77.9936 151.661 66.551 135.863 74.5046C125.879 79.5064 118.87 90.4492 114.213 107.96C113.716 109.781 113.309 111.657 112.812 113.479C110.16 124.273 107.31 135.393 99.9962 144.028C98.0638 146.207 95.9138 148.142 93.4965 149.916C85.403 155.618 74.6289 157.906 64.7688 156.278C51.731 154.062 40.9749 146.08 33 139.339C-19.6975 94.8332 -45.9354 19.7917 -35.6179 -56.6369L-38.657 -57.2526C-43.7066 -19.419 -39.9548 19.1759 -27.7051 54.2134C-15.4059 89.1692 4.89699 119.374 30.8895 141.41C39.1711 148.449 50.4615 156.756 64.2715 159.105C75.0819 160.974 86.371 158.441 95.2174 152.301C97.7733 150.501 100.161 148.374 102.193 146.032C109.982 137.015 112.852 125.46 115.653 114.421C116.15 112.6 116.557 110.724 117.053 108.902C121.492 92.1529 128.154 81.7817 137.296 77.1627C151.312 70.1382 166.165 80.6077 174.135 93.38C176.518 97.285 178.792 101.571 180.888 105.748C183.28 110.441 185.801 115.324 188.619 119.717C192.209 125.248 196.087 129.502 200.342 132.532C213.681 142.082 230.781 140.618 247.188 139.292C250.683 138.955 254.267 138.673 257.802 138.472C258.951 138.387 260.188 138.356 261.287 138.353C283.486 137.525 304.144 144.255 319.332 157.386C333.421 169.515 342.596 186.929 345.085 206.32C347.595 225.276 344.47 245.281 341.465 264.689L341.346 265.287C338.659 282.764 335.633 302.606 337.084 321.701C339.925 359.185 361.77 392.672 392.828 407.168L393.959 404.502C364.019 390.573 342.817 358.035 340.153 321.665C338.782 302.841 341.708 283.162 344.434 265.821L344.554 265.223C347.569 245.598 350.704 225.375 348.165 206.066C345.527 185.915 336.066 167.768 321.314 155.125C318.009 152.337 314.556 149.793 310.904 147.576Z" fill="#471F26"/>
</g>
<g opacity="0.4">
<path opacity="0.4" d="M310.16 148.801C295.82 140.096 278.121 135.721 259.279 136.24C258.13 136.325 256.942 136.274 255.793 136.359C252.674 136.477 249.456 136.759 246.338 136.877C229.574 137.987 213.682 139.067 201.333 129.894C197.434 127.08 193.952 123.179 190.669 117.945C188.069 113.796 185.627 109.185 183.274 104.628C181.089 100.396 178.776 95.9744 176.264 91.8795C167.701 78.0766 151.334 66.688 135.595 74.3426C125.621 79.1271 118.345 89.9077 113.242 107.148C112.696 109.051 112.15 110.955 111.604 112.858C108.685 123.49 105.617 134.366 98.2243 142.729C96.2919 144.909 94.1419 146.844 91.6851 148.481C83.4134 154.076 72.9167 156.308 62.8784 154.572C52.7016 152.864 42.8741 147.569 31.1592 137.552C-20.6577 93.8039 -46.4411 19.8205 -36.4016 -55.5476L-39.4407 -56.1633C-44.4206 -18.8461 -40.6385 19.0967 -28.5965 53.6729C-16.5048 88.1675 3.45194 117.938 28.9991 139.705C37.2807 146.744 48.5216 155.132 62.3316 157.481C73.142 159.35 84.4706 156.953 93.3565 150.949C96.0014 149.202 98.3892 147.076 100.421 144.733C108.25 135.853 111.377 124.677 114.356 113.746C114.902 111.843 115.448 109.939 115.994 108.036C120.789 91.5032 127.718 81.2942 136.9 76.8109C150.994 70.0579 165.363 80.1213 173.461 93.0834C175.933 97.0425 178.158 101.41 180.342 105.642C182.695 110.199 185.177 114.946 187.866 119.149C191.456 124.68 195.156 128.826 199.361 131.938C212.73 141.841 229.216 140.786 246.622 139.62C249.702 139.366 252.87 139.166 255.989 139.048C257.138 138.963 258.326 139.014 259.474 138.929C281.891 138.345 302.47 144.804 317.321 157.284C331.381 169.06 340.704 186.229 343.382 205.51C346.09 224.14 343.342 243.927 340.674 262.98L340.534 264.013C337.647 284.832 335.603 302.253 337.114 320.044C340.56 357.336 362.365 390.687 392.869 405.293L394.088 402.682C364.614 388.588 343.541 356.24 340.44 320.387C338.87 302.895 340.903 285.692 343.831 265.008L343.97 263.975C346.649 244.705 349.407 224.7 346.669 205.718C343.843 185.676 334.234 167.774 319.422 155.43C316.513 152.993 313.455 150.802 310.16 148.801Z" fill="#4E1F26"/>
</g>
<g opacity="0.45">
<path opacity="0.45" d="M309.287 149.837C295.037 141.186 277.426 136.865 257.723 137.196C256.575 137.281 255.387 137.23 254.238 137.315C251.485 137.432 248.872 137.521 246.119 137.638C229.138 138.505 213.078 139.259 200.61 129.679C196.85 126.838 193.418 122.854 190.174 117.757C187.613 113.743 185.26 109.186 182.947 104.765C180.723 100.397 178.409 95.9758 175.809 91.8269C167.028 77.7801 151.096 66.8792 135.377 74.099C125.225 78.7754 117.93 88.9855 112.322 106.254C111.637 108.185 111.091 110.089 110.496 112.074C107.359 122.462 104.024 133.176 96.5916 141.403C94.6592 143.583 92.4201 145.464 89.9633 147.101C81.6026 152.642 71.0663 154.738 61.0776 152.921C47.7726 150.543 36.6308 141.991 29.3189 135.765C-21.5679 92.693 -46.8966 19.7679 -37.1453 -54.3224L-40.1844 -54.9381C-50.0752 20.185 -24.2918 94.1683 27.2874 138.107C34.8169 144.578 46.5821 153.508 60.6593 156.019C71.4202 157.97 82.7883 155.708 91.7632 149.758C94.4082 148.012 96.796 145.885 98.867 143.679C106.775 135.069 110.17 124.056 113.416 113.288C114.011 111.303 114.557 109.399 115.242 107.468C120.532 91.124 127.589 81.1048 136.85 76.893C150.885 70.4389 165.164 80.4482 173.223 93.2746C175.785 97.2878 178.009 101.655 180.233 106.023C182.546 110.444 184.899 115.001 187.589 119.204C191.09 124.682 194.74 128.909 198.856 131.967C212.343 142.277 228.958 141.412 246.532 140.571C249.196 140.4 251.899 140.365 254.562 140.194C255.711 140.109 256.899 140.16 258.048 140.075C280.87 139.626 300.825 145.706 315.608 157.697C329.51 168.93 339.189 186.315 342.066 205.27C344.972 223.573 342.511 243.087 340.219 261.922L340.059 263.389C337.628 283.257 335.743 301.221 337.531 318.956C341.264 355.976 362.426 388.378 392.821 403.365L394.04 400.753C364.636 386.144 344.156 354.826 340.511 318.866C338.713 301.348 340.588 283.601 343.059 263.869L343.219 262.402C345.61 243.404 347.992 223.618 345.145 205.016C342.121 185.301 332.105 167.265 317.54 155.517C314.889 153.461 312.138 151.567 309.287 149.837Z" fill="#551E26"/>
</g>
<g opacity="0.5">
<path opacity="0.5" d="M308.643 150.898C294.393 142.247 276.466 137.846 256.168 138.151C255.069 138.155 253.832 138.186 252.733 138.189C250.535 138.196 248.376 138.338 246.178 138.345C228.891 138.913 212.613 139.424 200.027 129.436C196.316 126.513 192.973 122.584 189.729 117.486C187.257 113.527 184.944 109.106 182.759 104.874C180.446 100.452 178.093 95.8953 175.492 91.7463C166.79 77.971 150.997 67.0426 135.338 73.9633C122.016 79.8447 115.421 94.7256 111.67 105.523C110.985 107.454 110.251 109.466 109.655 111.452C106.251 121.677 102.649 132.229 95.1374 140.185C93.1159 142.31 90.8768 144.192 88.4201 145.829C80.0198 151.234 69.3945 153.276 59.4058 151.459C46.1503 148.999 34.87 140.475 27.6471 134.303C-22.3885 91.636 -47.4903 19.7426 -37.928 -53.2333L-40.9671 -53.849C-50.6689 20.1597 -25.2015 93.0572 25.487 136.455C33.0166 142.926 44.6927 151.802 58.8094 154.449C69.6593 156.454 80.9778 154.274 89.9923 148.46C92.6372 146.713 95.0645 144.722 97.1851 142.434C105.132 133.961 108.745 123.191 112.298 112.72C112.982 110.789 113.627 108.723 114.312 106.792C117.993 96.511 124.193 82.2833 136.534 76.8124C150.459 70.7391 164.649 80.6943 172.63 93.2492C175.191 97.2624 177.544 101.82 179.817 106.105C182.091 110.391 184.355 114.894 186.916 118.907C190.328 124.331 193.978 128.558 197.956 131.643C211.561 142.361 228.433 141.876 246.364 141.251C248.473 141.19 250.72 141.102 252.919 141.095C254.018 141.092 255.255 141.061 256.354 141.058C279.443 140.771 299.27 146.661 313.767 157.92C327.728 168.854 337.467 185.94 340.532 204.786C343.498 222.79 341.463 242.004 339.458 260.566L339.278 262.468C337.303 281.383 335.625 299.808 337.68 317.706C341.85 354.208 362.884 386.421 392.763 401.654L394.072 399.096C365.133 384.322 344.692 353.14 340.75 317.67C338.724 300.125 340.441 281.836 342.406 263.138L342.586 261.236C344.601 242.456 346.735 223.079 343.65 204.668C340.438 185.062 330.274 167.27 315.649 155.822C313.443 154.035 311.137 152.412 308.643 150.898Z" fill="#5D1D26"/>
</g>
<g opacity="0.55">
<path opacity="0.55" d="M307.772 151.933C293.61 143.336 275.812 139.124 254.564 139.188L254.425 139.215C253.326 139.219 252.227 139.222 251.128 139.225C249.524 139.257 247.92 139.289 246.316 139.321C228.722 139.592 212.088 139.886 199.295 129.438C195.723 126.487 192.379 122.558 189.225 117.514C186.792 113.691 184.657 109.377 182.423 105.227C180.109 100.806 177.667 96.1945 175.027 91.9099C166.365 78.2703 150.7 67.5316 135.2 73.9901C121.799 79.5999 114.847 94.2646 110.829 104.9C110.095 106.912 109.36 108.925 108.626 110.938C104.955 121.001 101.135 131.309 93.5842 139.129C91.6123 141.173 89.2841 143 86.8274 144.638C78.338 149.988 67.7623 151.949 57.7341 149.996C47.5673 148.07 37.4726 142.613 25.9359 132.704C-23.2981 90.524 -47.9949 19.7704 -38.6711 -52.0093L-41.7102 -52.625C-51.1734 20.1875 -26.1111 91.9452 23.6867 134.803C35.6192 145.064 46.2483 150.846 56.9596 152.878C67.7599 154.965 79.1675 152.838 88.2214 147.16C90.9554 145.467 93.3827 143.477 95.5924 141.242C103.619 133.041 107.548 122.352 111.229 112.071C111.963 110.058 112.698 108.045 113.432 106.033C117.291 95.8602 123.986 81.8211 136.406 76.6218C151.163 70.3829 165.015 81.6976 172.264 93.2495C174.864 97.3984 177.267 101.874 179.58 106.295C181.814 110.445 184.039 114.813 186.511 118.772C189.922 124.195 193.394 128.315 197.323 131.481C211.086 142.742 228.314 142.473 246.552 142.146C248.156 142.114 249.76 142.082 251.364 142.05C252.463 142.047 253.562 142.044 254.661 142.04L254.799 142.013C278.384 141.914 297.637 147.344 311.925 158.142C325.857 168.722 335.795 185.483 339.047 204.219C342.212 221.896 340.464 240.838 338.747 259.127L338.497 261.546C336.809 280.188 335.508 298.395 337.791 316.319C342.257 352.331 363.351 384.245 392.715 399.724L394.024 397.166C365.64 382.282 345.288 351.154 340.821 316.147C338.617 298.494 339.958 280.423 341.546 261.944L341.746 259.607C343.474 241.1 345.231 221.941 342.038 203.911C338.637 184.414 328.235 166.814 313.679 155.854C311.908 154.555 309.82 153.176 307.772 151.933Z" fill="#641C26"/>
</g>
<g opacity="0.6">
<path opacity="0.6" d="M307.127 152.995C293.144 144.506 274.939 140.16 253.058 140.062L246.741 140.027C228.702 140.027 211.623 140.051 198.582 129.006C195.01 126.055 191.805 122.098 188.651 117.055C186.307 113.285 184.162 109.189 182.056 105.229C179.703 100.672 177.172 96.0065 174.532 91.7219C166.591 79.3027 151.452 67.0953 134.982 73.7469C121.591 79.1393 114.283 93.5878 109.909 104.006C109.036 106.047 108.301 108.059 107.429 110.1C103.54 119.919 99.5415 130.119 91.8127 137.831C89.7517 139.821 87.4236 141.648 84.8778 143.231C76.3489 148.446 65.6841 150.353 55.7055 148.318C45.4497 146.339 35.4046 140.799 23.9569 130.945C-24.2579 89.4951 -48.5891 19.7457 -39.3653 -50.8655L-42.4044 -51.4812C-51.6786 20.2169 -27.0709 90.9163 21.9749 133.206C33.9074 143.466 44.5365 149.248 55.2872 151.417C66.0876 153.503 77.5346 151.513 86.6281 145.97C89.3621 144.277 91.8785 142.341 94.0386 140.188C102.104 132.122 106.251 121.677 110.2 111.558C110.983 109.464 111.807 107.505 112.68 105.465C116.806 95.4548 123.857 81.632 136.267 76.65C150.915 70.7919 164.639 81.9167 171.937 93.3869C174.626 97.59 177.068 102.201 179.382 106.623C181.438 110.665 183.672 114.815 186.055 118.72C189.378 124.089 192.85 128.208 196.728 131.457C210.739 143.314 228.323 143.261 247.006 143.205L253.234 143.186C277.085 143.25 296.21 148.49 310.162 158.637C324.115 168.783 334.151 185.379 337.681 204.061C340.994 221.493 339.583 240.08 338.153 258.097L337.884 260.951C336.563 278.587 335.508 297.391 338.019 315.341C342.922 350.836 363.887 382.559 392.736 398.285L394.045 395.727C366.175 380.596 345.814 349.686 341.049 315.169C338.617 297.49 339.662 278.904 340.933 261.349L341.202 258.495C342.642 240.261 344.063 221.456 340.721 203.671C337.043 184.23 326.581 166.928 311.966 156.267C310.373 155.077 308.77 154.104 307.127 152.995Z" fill="#6B1C27"/>
</g>
<g opacity="0.65">
<path opacity="0.65" d="M306.256 154.029C292.45 145.648 274.424 141.41 251.404 141.181L247.424 141.111C228.801 140.868 211.138 140.65 197.85 129.007C194.327 125.975 191.212 122.072 188.057 117.029C185.842 113.449 183.786 109.407 181.72 105.583C179.278 100.971 176.796 96.2243 173.978 91.8315C166.077 79.5481 151.066 67.5305 134.666 73.6656C121.196 78.7867 113.532 93.0188 108.89 103.275C108.017 105.316 107.095 107.437 106.222 109.478C102.066 119.135 97.8003 129.173 90.0815 136.668C88.0206 138.657 85.6924 140.484 83.0575 142.014C74.4892 147.093 63.7849 148.864 53.7567 146.911C43.5504 144.85 33.4162 139.256 22.0576 129.455C-25.306 88.4109 -49.1431 19.8553 -40.2469 -49.6138L-43.286 -50.2295C-52.2225 20.1091 -27.9804 89.8045 20.1748 131.553C32.0577 141.896 42.5977 147.624 53.4871 149.764C64.2379 151.932 75.7245 150.078 84.9565 144.507C87.641 142.896 90.1573 140.96 92.4561 138.78C100.512 130.931 104.926 120.648 109.231 110.746C110.103 108.705 111.026 106.583 111.899 104.543C116.293 94.695 123.61 81.0344 136.149 76.2422C150.737 70.683 164.323 81.8355 171.541 93.0343C174.32 97.2914 176.713 101.984 179.204 106.514C181.221 110.42 183.416 114.434 185.67 118.15C188.904 123.465 192.326 127.666 196.066 130.942C210.323 143.396 228.581 143.64 247.798 143.908L251.778 143.978C276.303 144.339 294.853 149.119 308.509 158.75C322.432 168.543 332.617 184.894 336.335 203.466C339.847 220.572 338.723 238.887 337.581 256.631L337.43 259.892C336.396 277.255 335.629 295.787 338.456 313.818C343.795 348.795 364.721 380.383 392.926 396.164L394.324 393.66C366.97 378.284 346.687 347.645 341.536 313.564C338.787 295.804 339.594 277.409 340.528 260.208L340.679 256.948C341.783 239.068 342.966 220.454 339.425 202.995C335.559 183.663 324.949 166.606 310.224 156.326C308.838 155.597 307.502 154.786 306.256 154.029Z" fill="#721B27"/>
</g>
<g opacity="0.7">
<path opacity="0.7" d="M305.304 154.794C291.677 146.521 274.323 142.58 249.809 142.001C248.71 142.005 247.522 141.954 246.423 141.957C225.522 141.45 209.83 140.193 197.176 128.712C193.792 125.652 190.677 121.749 187.611 116.759C185.485 113.234 183.419 109.409 181.531 105.693C179 101.027 176.479 96.1447 173.572 91.6979C165.749 79.6858 150.878 67.6407 134.537 73.4768C121.176 78.2171 113.374 91.4716 108.009 102.518C106.997 104.586 106.075 106.708 105.063 108.776C100.729 118.325 96.157 128.065 88.3988 135.424C86.3378 137.413 83.9206 139.187 81.3353 140.634C72.6779 145.659 62.0231 147.349 51.9555 145.26C41.6601 143.145 31.615 137.605 20.2169 127.669C-26.1275 87.3547 -49.599 19.8033 -40.8918 -48.5513L-43.9309 -49.1671C-52.728 20.1388 -28.8909 88.6943 18.4232 129.821C30.217 140.109 40.7965 145.973 51.6859 148.113C62.5257 150.336 73.9627 148.562 83.2343 143.128C86.0078 141.571 88.5242 139.635 90.7734 137.536C98.9576 129.877 103.589 119.838 108.023 110.125C108.945 108.003 109.957 105.936 110.919 103.949C115.986 93.3927 123.442 80.7098 135.871 76.2983C150.35 71.1198 163.896 82.1366 171.075 93.1996C173.854 97.4567 176.425 102.258 178.817 106.951C180.794 110.721 182.861 114.546 185.076 118.125C188.309 123.44 191.642 127.587 195.244 130.891C209.788 144.078 229.362 144.562 246.648 144.999C247.747 144.996 248.935 145.047 250.034 145.044C275.648 145.618 293.03 149.913 306.528 159.001C320.511 168.495 330.805 184.466 334.662 203.01C338.282 219.735 337.486 237.913 336.68 255.304L336.459 259.081C335.793 275.438 335.323 294.484 338.328 312.624C344.122 347.654 364.455 378.211 392.59 394.509L393.988 392.005C366.743 376.248 347.014 346.504 341.318 312.316C338.303 294.394 338.852 275.619 339.469 259.343L339.64 255.648C340.456 238.04 341.302 219.781 337.563 202.649C333.42 183.371 322.75 166.614 308.055 156.687C307.214 156.065 306.284 155.388 305.304 154.794Z" fill="#791A27"/>
</g>
<g opacity="0.75">
<path opacity="0.75" d="M304.57 155.801C287.737 145.582 266.679 143.526 248.204 143.038C247.105 143.042 245.967 142.909 244.868 142.913C226.037 142.209 209.444 140.628 196.453 128.496C193.119 125.355 190.093 121.506 187.027 116.516C185.03 113.18 183.003 109.492 181.154 105.911C178.584 101.11 175.974 96.1731 172.977 91.6722C164.809 79.2265 150.363 67.8865 134.269 73.3143C120.919 77.8373 112.76 90.8755 107.128 101.76C106.117 103.828 105.055 105.977 103.994 108.127C99.4425 117.432 94.6923 127.064 86.8055 134.233C84.6555 136.168 82.2382 137.942 79.653 139.389C70.7679 144.388 60.3509 145.886 50.1942 143.743C39.8988 141.628 29.8142 135.953 18.5052 126.071C-27.0377 86.2432 -50.1932 19.7776 -41.7246 -47.3809L-44.7637 -47.9966C-53.3222 20.1131 -29.8507 87.6645 16.5333 128.114C28.3271 138.403 38.9066 144.266 49.8355 146.543C60.7644 148.819 71.9636 147.237 81.4629 141.829C84.2364 140.272 86.8418 138.39 89.091 136.291C97.3147 128.768 102.164 118.972 106.865 109.422C107.926 107.273 108.937 105.205 109.949 103.137C115.284 92.7425 123.095 80.2759 135.515 76.0817C149.934 71.2023 163.094 81.6496 170.442 93.0382C173.26 97.431 175.92 102.286 178.401 107.033C180.25 110.614 182.276 114.303 184.313 117.774C187.458 123.035 190.702 127.128 194.254 130.513C208.036 143.35 225.312 145.009 244.826 145.793C245.925 145.789 247.063 145.922 248.162 145.918C266.726 146.46 288.012 148.542 304.459 159.197C318.372 168.202 328.766 184.01 332.949 202.418C336.669 218.979 336.16 236.885 335.681 254.138L335.589 258.105C335.118 278.157 335.352 294.837 338.299 311.265C344.451 345.506 364.387 375.712 391.642 392.256C391.909 392.419 392.087 392.527 392.354 392.689L393.841 390.239C366.973 374.264 347.422 344.628 341.329 311.093C338.649 294.827 338.404 278.364 338.866 258.53L338.997 254.699C339.486 237.228 340.006 219.105 336.207 202.272C331.786 183.05 320.968 166.537 306.252 157.045C305.728 156.504 305.194 156.179 304.57 155.801Z" fill="#801927"/>
</g>
<g opacity="0.75">
<path opacity="0.75" d="M303.659 156.7C286.736 146.427 265.431 144.78 246.599 144.076C245.5 144.079 244.362 143.946 243.263 143.95C226.452 143.131 208.869 141.173 195.721 128.498C192.476 125.411 189.499 121.48 186.572 116.463C184.614 113.263 182.765 109.682 180.996 106.373C178.386 101.436 175.687 96.4456 172.651 91.809C164.611 79.5531 150.253 68.2671 134.22 73.3959C120.791 77.6474 112.276 90.4694 106.376 101.191C105.226 103.287 104.026 105.464 102.965 107.613C98.1461 116.757 93.1287 126.226 85.252 133.178C83.102 135.113 80.5957 136.833 78.0104 138.28C69.0858 143.143 58.6688 144.642 48.423 142.445C38.1772 140.248 27.8254 134.41 16.6945 124.636C-27.9972 85.2137 -50.6981 19.8063 -42.4185 -46.2378L-45.4576 -46.8535C-53.8271 20.1417 -30.6715 86.6073 14.8217 126.516C26.3484 136.643 37.2842 142.723 48.0744 145.027C58.9537 147.385 70.242 145.856 79.7808 140.584C82.5543 139.027 85.1102 137.226 87.4484 135.182C95.7512 127.93 100.828 118.161 105.746 108.855C106.896 106.759 107.958 104.61 109.108 102.514C114.71 92.2823 122.878 80.032 135.426 76.0276C149.786 71.4472 162.718 81.8681 170.165 93.0934C173.161 97.5943 175.771 102.531 178.341 107.332C180.151 110.777 182.049 114.276 183.957 117.558C187.012 122.765 190.207 126.939 193.67 130.27C207.738 143.839 225.915 145.822 243.409 146.72C244.508 146.717 245.647 146.85 246.746 146.846C265.3 147.605 286.516 149.199 302.756 159.392C316.729 168.098 327.182 183.607 331.643 201.96C335.561 218.195 335.339 235.828 335.147 252.808L335.085 257.128C334.982 274.163 335.285 292.338 338.687 309.824C345.343 344.036 365.507 374.268 392.573 390.922L394.06 388.473C367.796 372.305 348.235 342.886 341.667 309.734C338.344 292.519 337.942 274.507 338.084 257.608L338.147 253.288C338.349 236.09 338.531 218.321 334.584 201.733C329.975 182.621 318.869 166.38 304.322 157.214C304.104 156.97 303.926 156.862 303.659 156.7Z" fill="#871927"/>
</g>
<g opacity="0.8">
<path opacity="0.8" d="M303.331 157.842C303.064 157.68 302.797 157.517 302.441 157.301C285.943 147.733 265.875 146.055 245.044 145.031C243.995 144.953 242.807 144.902 241.757 144.824C222.491 143.632 207.167 140.363 195.048 128.201C191.852 125.032 188.964 121.156 186.038 116.139C184.258 113.047 182.488 109.737 180.758 106.564C178.059 101.573 175.32 96.4466 172.245 91.6742C164.195 79.6357 150.016 68.4579 134.052 73.0702C120.544 77.0503 111.672 89.656 105.506 100.216C104.217 102.339 103.017 104.516 101.817 106.693C96.7312 115.674 91.5853 124.954 83.58 131.716C81.3409 133.597 78.8842 135.235 76.2989 136.682C67.3348 141.409 56.8287 142.854 46.6325 140.575C36.3867 138.378 25.9458 132.487 14.9536 122.685C-28.9071 84.1023 -51.203 19.8348 -43.1619 -45.0131L-46.201 -45.6288C-54.332 20.1703 -31.631 85.5776 13.1102 124.919C24.6369 135.045 35.434 141.152 46.3134 143.51C57.2322 146.004 68.5205 144.476 78.0988 139.339C80.8722 137.782 83.5172 136.036 85.8554 133.991C94.1976 126.875 99.4922 117.35 104.678 108.206C105.828 106.11 107.077 103.852 108.316 101.81C114.235 91.6587 122.67 79.5706 135.248 75.9193C149.498 71.7196 162.391 82.0048 169.798 93.0943C172.834 97.731 175.533 102.722 178.232 107.713C179.913 110.968 181.772 114.331 183.551 117.423C186.607 122.63 189.712 126.75 193.036 130.109C205.808 143.003 221.855 146.486 241.854 147.676C242.904 147.754 244.092 147.805 245.141 147.883C265.517 148.854 285.129 150.48 300.953 159.751C314.818 167.832 325.47 183.015 330.148 201.611C334.215 217.601 334.241 234.825 334.337 251.534C334.355 253.109 334.324 254.767 334.343 256.342C334.528 273.105 335.207 291.061 338.787 308.655C345.8 342.078 365.925 372.175 392.387 389.021L393.963 386.625C368.164 370.293 348.643 341.01 341.777 308.347C338.137 291.052 337.498 273.232 337.352 256.605C337.334 255.029 337.365 253.372 337.346 251.796C337.261 234.871 337.245 217.429 333.099 201.167C328.302 182.164 317.493 166.439 303.331 157.842Z" fill="#8E1827"/>
</g>
<g opacity="0.8">
<path opacity="0.8" d="M301.757 158.227C301.4 158.011 301.044 157.795 300.688 157.578C284.586 148.362 264.904 147.253 245.816 146.17L243.578 146.041C242.529 145.962 241.43 145.966 240.291 145.833C224.183 144.659 207.523 141.585 194.503 128.094C191.447 124.898 188.469 120.967 185.721 116.058C184.07 113.156 182.339 109.983 180.738 106.999C177.999 101.872 175.132 96.5559 171.968 91.7295C164.046 79.8808 149.867 68.703 134.052 73.0704C120.465 76.779 111.326 89.2225 104.803 99.5661C103.515 101.689 102.176 103.894 100.887 106.017C95.6725 114.808 90.2594 123.926 82.165 130.633C79.9259 132.515 77.4692 134.152 74.7949 135.546C65.8308 140.273 55.1961 141.528 45.0495 139.167C34.7642 136.835 24.4124 130.998 13.3706 121.277C-29.8666 83.073 -51.797 19.8096 -43.9449 -43.9239L-46.984 -44.5396C-54.8369 20.1991 -32.541 84.4667 11.3096 123.267C22.8363 133.393 33.6334 139.501 44.4632 141.94C55.382 144.434 66.7098 143.042 76.3276 138.041C79.1406 136.62 81.7855 134.873 84.1237 132.828C92.5054 125.848 98.0177 116.567 103.47 107.585C104.759 105.462 106.097 103.257 107.386 101.134C113.572 91.1447 122.364 79.2728 135.069 75.8113C152.925 70.8944 165.832 87.7814 169.343 93.0415C172.468 97.7322 175.296 102.913 177.945 107.985C179.636 111.023 181.277 114.143 182.967 117.18C185.934 122.333 189.039 126.454 192.225 129.84C206.075 144.17 223.419 147.324 240.16 148.659C241.21 148.738 242.348 148.87 243.447 148.867L245.685 148.996C264.407 150.08 283.723 151.19 299.112 159.974C313.026 167.974 323.777 182.993 328.614 201.127C332.79 216.736 333.192 233.742 333.526 250.259C333.534 252.052 333.592 253.764 333.69 255.611C334.153 271.313 335.039 289.73 339.025 307.459C346.583 340.99 366.026 370.001 392.467 387.282L394.044 384.887C368.76 368.308 349.228 339.243 342.065 307.07C338.158 289.612 337.173 271.358 336.749 255.792C336.741 253.999 336.683 252.287 336.674 250.494C336.301 233.841 335.998 216.672 331.654 200.737C326.698 182.196 315.829 166.77 301.757 158.227Z" fill="#951728"/>
</g>
<g opacity="0.85">
<path opacity="0.85" d="M300.716 158.937C300.093 158.558 299.38 158.126 298.707 157.829C283.704 149.615 265.626 148.474 248.092 147.44C246.082 147.337 243.983 147.181 241.973 147.078C240.924 147 239.875 146.921 238.736 146.789C217.807 144.923 204.287 139.286 193.781 127.879C190.773 124.601 187.935 120.643 185.137 115.816C183.525 113.049 182.013 110.12 180.539 107.326C177.761 102.063 174.855 96.6113 171.512 91.6768C161.316 76.5475 147.173 69.5263 133.874 72.9624C120.297 76.4537 111.109 87.9736 103.923 98.8083C102.495 100.959 101.157 103.164 99.7294 105.314C94.2474 113.943 88.567 122.899 80.4828 129.389C78.1546 131.216 75.6979 132.854 73.0235 134.247C64.0199 138.839 53.3853 140.093 43.1496 137.679C32.7752 135.292 22.473 129.373 11.4311 119.653C-30.7767 81.9621 -52.3021 19.8385 -44.6885 -42.6989L-47.7772 -43.2329C-55.4806 20.2556 -33.5006 83.4374 9.45927 121.697C20.8473 131.851 31.7335 138.012 42.6523 140.506C53.5215 143.082 64.9384 141.743 74.5957 136.878C77.4087 135.457 80.0536 133.71 82.57 131.773C90.9912 124.929 96.7706 115.81 102.352 107.018C103.69 104.813 105.118 102.663 106.495 100.594C113.434 90.1672 122.146 79.0291 134.792 75.8667C146.745 72.8422 159.492 79.3514 168.877 93.2061C172.091 97.9509 174.998 103.403 177.737 108.53C179.299 111.378 180.811 114.307 182.423 117.073C185.389 122.227 188.406 126.293 191.542 129.761C202.75 141.817 216.805 147.779 238.645 149.751C239.694 149.829 240.833 149.961 241.932 149.958C243.941 150.061 246.04 150.217 248.05 150.32C265.218 151.355 282.979 152.416 297.309 160.333C311.194 167.98 322.094 182.753 327.169 200.696C331.493 216.061 332.094 232.74 332.764 248.903C332.812 250.832 332.949 252.815 332.997 254.744C333.698 270.255 335.011 288.372 339.264 306.263C347.169 339.222 366.572 368.098 392.409 385.571L394.074 383.229C368.86 366.135 350.021 337.937 342.264 305.738C338.04 288.2 336.817 270.137 336.106 254.843C336.058 252.914 336.01 250.986 335.873 249.003C335.302 232.676 334.573 215.807 330.169 200.171C325.144 182.147 314.433 167.263 300.716 158.937Z" fill="#9C1628"/>
</g>
<g opacity="0.9">
<path opacity="0.9" d="M299.726 159.565C298.835 159.024 297.855 158.43 296.915 157.971C282.881 150.569 266.08 149.533 249.824 148.603C246.764 148.422 243.566 148.269 240.468 147.952C239.418 147.874 238.369 147.796 237.23 147.663C217.271 145.604 203.682 139.478 193.197 127.637C190.278 124.413 187.489 120.373 184.691 115.546C183.208 112.969 181.775 110.311 180.43 107.707C177.524 102.255 174.528 96.7485 171.057 91.6241C160.851 76.7122 146.985 69.6359 133.745 72.773C120.089 75.9928 110.634 87.3505 103.18 98.0229C101.664 100.119 100.187 102.352 98.71 104.584C93.0498 113.105 87.1519 121.816 79.0281 128.171C76.6999 129.998 74.1541 131.582 71.5293 132.894C62.4367 137.431 51.8121 138.468 41.5764 136.054C31.113 133.613 20.8108 127.694 9.90758 117.947C-31.6474 80.9869 -52.8072 19.8675 -45.3827 -41.5554L-48.4714 -42.0895C-55.9362 20.2029 -34.4108 82.3265 7.70797 119.964C19.096 130.117 29.8931 136.225 40.8515 138.855C51.8098 141.484 63.1275 140.309 72.8738 135.498C75.6868 134.077 78.4208 132.384 80.9372 130.447C89.487 123.793 95.395 114.864 101.243 106.234C102.671 104.083 104.148 101.851 105.664 99.7542C112.87 89.49 121.938 78.5682 134.624 75.5415C146.478 72.6803 159.175 79.2711 168.521 92.9901C171.864 97.9247 174.859 103.431 177.726 108.747C179.16 111.405 180.593 114.064 182.077 116.64C184.954 121.739 187.832 125.833 190.968 129.301C202.156 141.792 216.368 148.297 237.238 150.462C238.287 150.54 239.426 150.672 240.475 150.751C243.624 150.986 246.772 151.221 249.831 151.402C265.722 152.332 282.156 153.369 295.656 160.447C309.511 167.74 320.609 182.188 325.912 200.157C330.345 215.141 331.233 231.548 332.191 247.438C332.279 249.503 332.455 251.622 332.543 253.686C333.393 267.947 335.041 286.715 339.701 304.741C348.041 337.182 367.316 365.868 392.688 383.506L394.353 381.164C369.693 363.959 350.755 335.924 342.701 304.216C338.21 286.516 336.561 268.752 335.701 253.704C335.614 251.639 335.437 249.521 335.35 247.456C334.491 231.402 333.563 214.859 329.011 199.469C323.5 182.043 312.997 167.621 299.726 159.565Z" fill="#A31628"/>
</g>
<g opacity="0.95">
<path opacity="0.95" d="M298.597 160.22C297.439 159.517 296.142 158.842 294.935 158.22C281.643 151.604 265.98 150.701 250.823 149.768C246.853 149.481 242.694 149.304 238.774 148.935C237.724 148.857 236.675 148.778 235.586 148.564C216.598 146.312 202.851 139.643 192.385 127.367C189.516 124.061 186.817 120.076 184.107 115.302C182.842 112.97 181.448 110.447 180.182 108.114C177.236 102.527 174.023 96.7766 170.512 91.5165C160.435 76.7945 146.569 69.7181 133.478 72.6102C119.832 75.6127 110.021 86.7541 102.211 97.2103C100.645 99.3884 99.0292 101.648 97.5127 103.745C91.6349 112.022 85.5093 120.707 77.2569 126.872C74.8397 128.645 72.2939 130.228 69.6691 131.54C60.537 135.942 49.8233 136.925 39.6372 134.429C29.2234 131.907 18.832 125.934 7.92885 116.186C-32.6464 79.8211 -53.3516 19.7599 -46.1656 -40.4668L-49.2543 -41.0009C-56.4411 20.2311 -35.3703 81.2964 5.90738 118.311C17.2063 128.411 28.043 134.654 39.0013 137.284C49.91 139.995 61.3168 138.874 71.1027 134.199C74.0047 132.831 76.6892 131.22 79.2055 129.284C87.7452 122.846 93.97 113.998 99.9469 105.558C101.513 103.38 103.079 101.201 104.645 99.0232C112.118 88.9212 121.543 78.2157 134.307 75.4604C151.28 71.7959 163.556 86.5113 167.927 92.9642C171.398 98.0886 174.433 103.73 177.429 109.237C178.784 111.623 180.089 114.092 181.443 116.478C184.281 121.442 187.109 125.617 190.106 129.113C201.185 141.984 215.645 149.086 235.455 151.39C236.594 151.523 237.643 151.601 238.693 151.679C242.752 152.02 246.86 152.28 250.88 152.485C265.721 153.337 281.017 154.241 293.725 160.615C307.551 167.556 318.797 181.758 324.288 199.618C328.871 214.357 330.046 230.491 331.113 246.001C331.329 248.255 331.407 250.537 331.623 252.792C332.711 266.862 334.696 285.276 339.622 303.464C348.31 335.333 367.545 363.884 392.402 381.767L394.156 379.48C369.962 362.11 351.202 334.184 342.623 302.939C337.776 285.022 335.83 266.744 334.731 252.891C334.515 250.637 334.388 248.436 334.222 246.1C333.076 230.319 331.861 214.049 327.2 199.039C321.896 182.075 311.6 168.114 298.597 160.22Z" fill="#AA1528"/>
</g>
<path d="M297.606 160.848C296.181 159.983 294.617 159.145 293.093 158.444C280.504 152.477 265.752 151.68 251.594 150.907C246.891 150.622 241.911 150.393 237.219 149.891C236.169 149.812 235.169 149.652 234.12 149.574C215.825 147.184 202.325 140.107 191.791 127.342C189.061 124.009 186.361 120.023 183.652 115.249C182.465 113.188 181.328 111.045 180.152 108.767C177.077 102.989 173.874 97.0218 170.096 91.5995C159.969 76.9591 146.559 69.9357 133.389 72.5564C119.664 75.2874 109.497 86.2125 101.419 96.5065C99.7641 98.6306 98.0098 100.918 96.4438 103.096C90.2988 111.211 84.0446 119.706 75.7527 125.735C73.3355 127.509 70.7007 129.038 68.0759 130.35C58.9042 134.616 48.1906 135.599 37.9154 133.049C27.4125 130.472 17.0707 124.418 6.25661 114.724C-33.5171 78.8459 -53.9063 19.8705 -46.9093 -39.2418L-49.998 -39.7759C-57.0848 20.2876 -36.3301 80.2671 4.10657 116.66C15.356 126.841 26.1036 133.03 37.24 135.768C48.1487 138.479 59.595 137.494 69.4203 132.954C72.2728 131.669 75.0068 129.976 77.6123 128.093C86.1915 121.792 92.6339 113.187 98.878 104.909C100.533 102.785 102.149 100.525 103.804 98.4011C111.544 88.4613 121.325 77.972 134.079 75.4341C150.943 72.1503 163.09 86.676 167.461 93.1289C171.111 98.3614 174.225 104.275 177.349 109.971C178.575 112.168 179.712 114.31 180.849 116.453C183.687 121.417 186.426 125.538 189.285 129.061C200.472 142.557 214.595 150.013 233.801 152.509C234.939 152.642 235.939 152.802 236.988 152.88C241.82 153.355 246.661 153.612 251.503 153.869C265.433 154.615 279.729 155.359 291.734 161.083C305.62 167.725 316.837 181.574 322.605 199.379C327.297 213.737 328.76 229.599 330.114 244.836C330.32 247.308 330.575 249.698 330.831 252.088C332.904 272.567 335.575 288.045 339.722 302.295C348.796 333.729 367.952 362.008 392.255 380.002L394.009 377.714C370.281 360.181 351.56 332.39 342.683 301.635C338.664 287.573 335.894 272.259 333.95 251.97C333.694 249.58 333.488 247.108 333.233 244.718C331.889 229.263 330.386 213.266 325.616 198.636C320.253 181.971 310.164 168.472 297.606 160.848Z" fill="#B11428"/>
<path d="M296.526 161.422C294.834 160.394 293.003 159.395 291.251 158.666C279.186 153.242 265.434 152.604 252.048 151.965C246.702 151.737 241.128 151.482 235.752 150.9C234.703 150.822 233.703 150.662 232.703 150.502C215.101 147.974 201.939 140.542 191.207 127.099C188.477 123.766 185.915 119.752 183.295 115.033C182.237 113.162 181.269 111.344 180.26 109.391C177.057 103.424 173.775 97.1849 169.819 91.6545C159.731 77.1498 146.41 70.1805 133.299 72.5021C119.495 74.9617 109.061 85.7246 100.578 95.884C98.7842 98.0357 97.0299 100.323 95.3748 102.447C89.0517 110.454 82.5799 118.705 74.1989 124.68C71.7817 126.454 69.1469 127.983 66.3935 129.105C56.9942 133.345 46.5183 134.137 36.154 131.533C25.7898 128.929 15.0918 122.658 4.54483 113.126C-34.4768 77.8163 -54.4114 19.899 -47.7421 -38.0712L-50.8307 -38.6053C-57.5899 20.3161 -37.2898 79.2375 2.25616 115.089C13.2879 125.027 24.4313 131.568 35.34 134.279C46.4269 137.098 57.5959 136.168 67.5993 131.737C70.4518 130.451 73.2749 128.813 75.8308 127.012C84.4495 120.846 91.1591 112.404 97.5813 104.234C99.286 102.028 101.08 99.8762 102.784 97.6704C110.931 87.8653 120.889 77.4841 133.812 75.2718C150.567 72.3686 162.585 86.7045 167.006 93.0757C170.784 98.498 174.026 104.601 177.23 110.569C178.238 112.522 179.296 114.393 180.265 116.21C183.013 121.12 185.703 125.323 188.473 128.792C199.64 142.723 213.871 150.803 232.107 153.492C233.245 153.625 234.245 153.785 235.294 153.863C240.759 154.499 246.383 154.672 251.818 154.954C265.57 155.592 278.451 156.26 289.843 161.387C303.699 167.676 315.065 181.28 321.021 198.976C325.772 213.035 327.434 228.57 329.075 243.535C329.321 246.142 329.616 248.668 329.95 251.33C332.281 271.183 335.348 287.013 339.683 301.154C349.312 332.478 367.865 359.943 392.009 378.399L393.763 376.112C370.193 358.116 352.026 331.22 342.555 300.439C338.259 286.433 335.182 270.821 332.98 251.158C332.685 248.632 332.44 246.024 332.194 243.417C330.562 228.235 328.862 212.564 323.943 198.179C318.698 181.921 308.817 168.883 296.526 161.422Z" fill="#B81328"/>
<path d="M295.447 161.995C293.487 160.805 291.429 159.779 289.321 158.835C277.829 153.87 264.711 153.394 252.048 152.97C246.108 152.716 239.979 152.572 234.108 151.801C233.108 151.641 232.059 151.563 231.059 151.403C214.061 148.683 201.236 140.897 190.395 126.83C187.804 123.468 185.243 119.455 182.672 114.654C181.782 113.108 180.942 111.481 180.102 109.853C176.731 103.56 173.32 97.1315 169.285 91.3297C159.276 77.0964 146.094 70.0995 133.092 72.0405C119.209 74.2286 108.419 84.7752 99.7574 94.8265C97.8746 96.9241 95.9817 99.2391 94.1879 101.391C87.5976 109.235 80.8586 117.324 72.4877 123.082C69.9814 124.801 67.3465 126.331 64.5932 127.453C55.1543 131.557 44.6785 132.349 34.2747 129.609C23.8214 126.951 13.1234 120.68 2.62601 111.067C-35.3865 76.7047 -54.916 19.9272 -48.4357 -36.9285L-51.5244 -37.4626C-58.0946 20.3444 -38.1995 78.1259 0.505407 113.355C11.3985 123.321 22.5915 129.78 33.5397 132.627C44.577 135.528 55.7855 134.733 65.878 130.356C68.7305 129.071 71.5931 127.568 74.1985 125.685C82.9458 119.709 89.7839 111.456 96.4734 103.449C98.2672 101.297 100.111 99.0637 101.993 96.966C110.407 87.3231 120.722 77.1582 133.634 75.1632C145.348 73.3348 157.363 79.8462 166.551 93.0223C170.457 98.6344 173.918 104.981 177.2 111.22C178.04 112.848 178.93 114.394 179.77 116.021C182.519 120.931 185.12 125.079 187.75 128.576C198.888 143.159 212.92 151.566 230.463 154.393C231.552 154.607 232.601 154.686 233.69 154.9C239.699 155.642 245.917 155.841 251.907 156.013C264.887 156.518 277.045 156.97 288.002 161.61C301.829 167.545 313.293 180.986 319.626 198.464C324.526 212.278 326.435 227.405 328.314 242.179C328.688 244.976 329.023 247.637 329.397 250.434C332.065 269.933 335.369 285.572 340.021 299.795C349.948 330.628 368.51 357.876 392.189 376.497L394.032 374.263C370.888 355.967 352.8 329.342 343.032 299.052C338.508 285.02 335.154 269.462 332.476 250.181C332.053 247.465 331.768 244.722 331.394 241.925C329.564 227.069 327.576 211.671 322.597 197.585C317.144 181.871 307.382 169.24 295.447 161.995Z" fill="#BF1329"/>
<path d="M153.662 76.7059C147.071 72.7048 140.003 71.096 132.953 72.0681C119.041 73.9031 108.37 83.8517 98.9159 94.2042C96.9835 96.3835 95.0511 98.5627 93.1187 100.742C86.3998 108.397 79.344 116.405 70.9336 122.027C68.4273 123.746 65.753 125.14 62.9501 126.344C53.4222 130.394 42.9068 131.05 32.503 128.31C22.0102 125.516 11.4013 119.3 0.903905 109.686C-36.2574 75.7293 -55.4214 19.956 -49.1301 -35.7853L-52.2187 -36.3193C-58.6 20.3731 -39.0208 77.0688 -1.15706 111.676C9.73607 121.641 20.8794 128.182 31.9167 131.083C43.0431 134.038 54.202 133.325 64.3836 129.002C67.3252 127.771 70.0987 126.214 72.7436 124.467C81.5304 118.627 88.6357 110.536 95.4537 102.718C97.3861 100.539 99.3185 98.3597 101.251 96.1804C110.368 86.1822 120.603 76.7511 133.644 74.9459C149.586 72.7787 161.002 85.2961 166.372 92.9143C170.496 98.7702 174.125 105.443 177.535 111.871C178.208 113.173 178.84 114.34 179.513 115.642C182.123 120.579 184.773 124.646 187.265 128.17C198.422 143.324 212.157 152.221 229.145 155.158C230.234 155.372 231.372 155.505 232.372 155.665C238.837 156.46 245.56 156.63 252.143 156.828C264.49 157.171 276.103 157.516 286.486 161.696C300.284 167.278 311.897 180.474 318.418 197.842C323.427 211.276 325.623 226.13 327.612 240.523C328.026 243.456 328.439 246.389 328.942 249.376C331.857 268.467 335.578 284.023 340.408 298.353C350.77 328.669 369.205 355.728 392.279 374.54L394.122 372.307C371.444 353.846 353.395 327.357 343.241 297.503C338.4 283.39 334.858 267.942 331.843 249.014C331.43 246.081 331.016 243.148 330.513 240.161C328.396 225.578 326.25 210.642 321.072 196.884C314.364 178.619 301.959 164.719 287.261 158.814C276.205 154.337 263.809 154.076 251.74 153.677C245.295 153.452 238.661 153.336 232.335 152.513C231.335 152.353 230.335 152.193 229.335 152.033C213.031 149.175 200.404 141.063 189.593 126.343C187.141 122.954 184.579 118.941 182.009 114.14C181.287 112.92 180.704 111.672 179.982 110.451C176.532 103.887 172.903 97.2143 168.651 91.1686C164.22 85.0147 159.095 80.004 153.662 76.7059Z" fill="#C61229"/>
<path d="M153.158 76.735C146.656 72.788 139.727 71.1516 132.776 71.9604C118.873 73.5781 107.895 83.2287 98.036 93.4465C96.0145 95.5718 93.9435 97.7787 92.0111 99.9579C85.1141 107.504 77.8406 115.269 69.3412 120.837C66.7459 122.502 64.0715 123.896 61.3182 125.018C51.7507 128.932 41.1959 129.453 30.7921 126.713C20.2102 123.865 9.60127 117.648 -0.807027 108.089C-37.1273 74.7543 -55.8862 20.1209 -49.7839 -34.506L-52.8726 -35.04C-55.8842 -7.59088 -52.8765 20.3835 -44.1143 45.7052C-35.3521 71.0269 -21.0924 93.3163 -2.77893 110.133C8.02514 120.044 19.1685 126.585 30.2453 129.622C41.3221 132.658 52.5701 132 62.7912 127.812C65.6832 126.662 68.5458 125.159 71.2403 123.331C80.0665 117.626 87.4391 109.698 94.4352 101.988C96.4567 99.863 98.4387 97.6021 100.46 95.4769C109.844 85.6408 120.485 76.3444 133.466 74.8382C149.21 72.9977 160.587 85.3793 166.007 92.9158C170.348 99.0156 174.095 106.095 177.674 112.849L179.019 115.454C181.628 120.39 184.14 124.485 186.632 128.01C197.848 143.869 211.246 153.121 227.679 156.168C228.768 156.382 229.857 156.596 230.907 156.675C237.777 157.605 245.005 157.746 251.916 157.807C263.628 157.989 274.747 158.146 284.734 161.973C298.502 167.203 310.264 180.154 316.974 197.413C322.042 210.547 324.437 225.075 326.713 239.195C327.255 242.318 327.708 245.387 328.25 248.509C331.424 266.974 335.54 282.883 340.608 297.022C351.268 326.848 369.712 353.689 392.271 372.748L394.204 370.568C371.99 351.944 354.031 325.508 343.48 296.307C338.451 282.303 334.375 266.531 331.24 248.202C330.698 245.079 330.245 242.01 329.703 238.887C327.388 224.631 325.003 209.886 319.717 196.508C312.682 178.38 300.217 164.779 285.598 159.145C274.977 155.156 263.126 155.002 251.601 154.711C244.74 154.568 237.691 154.535 230.959 153.577C229.959 153.417 228.959 153.257 227.959 153.097C212.209 150.129 199.83 141.608 189 126.318C186.547 122.929 184.214 118.943 181.643 114.142L180.299 111.537C176.68 104.648 172.934 97.5679 168.463 91.2783C163.765 84.9622 158.68 80.0872 153.158 76.735Z" fill="#CE1129"/>
<path d="M152.653 76.7636C146.24 72.8707 139.449 71.2067 132.597 71.8522C118.616 73.1984 107.282 82.6328 97.1551 92.6884C94.995 94.8412 92.8349 96.994 90.7639 99.2009C83.5997 106.585 76.1481 114.242 67.6092 119.674C65.0138 121.339 62.2504 122.679 59.4971 123.801C49.8901 127.579 39.3353 128.1 28.8921 125.224C18.2211 122.322 7.66172 116.024 -2.74658 106.465C-38.1762 73.6706 -56.6191 20.123 -50.7058 -33.3893L-53.7944 -33.9234C-56.7364 -6.99066 -53.6985 20.3316 -45.1934 45.2737C-36.6387 70.1341 -22.6362 92.044 -4.80755 108.454C5.99651 118.365 17.0012 124.934 28.1671 128.025C39.2439 131.062 50.5314 130.539 60.792 126.487C63.684 125.337 66.5465 123.834 69.3696 122.195C78.2353 116.626 85.7365 108.888 93.0889 101.395C95.1103 99.2693 97.32 97.0349 99.4306 94.9637C109.171 85.3439 119.99 76.1556 133.05 74.9209C147.952 73.4632 158.865 83.9989 165.402 93.1077C170.001 99.5871 173.916 106.992 177.752 114.126L178.424 115.428C181.034 120.365 183.368 124.352 185.81 127.958C197.124 144.659 209.879 153.967 225.936 157.233C227.025 157.447 228.114 157.661 229.113 157.821C236.39 158.886 243.944 158.89 251.271 158.868C262.489 158.862 273.063 158.911 282.793 162.36C296.621 167.29 308.442 179.942 315.429 197.145C320.696 209.953 323.239 224.236 325.803 238.084C326.384 241.343 326.966 244.601 327.597 247.778C331.107 265.888 335.461 281.606 340.797 295.908C352.011 325.623 369.763 351.597 392.302 371.09L394.185 368.993C372.487 350.122 354.517 323.904 343.579 295.138C338.284 280.972 333.969 265.391 330.449 247.497C329.817 244.321 329.236 241.062 328.654 237.804C326.14 223.874 323.469 209.401 318.172 196.241C310.781 177.897 298.514 164.975 283.607 159.613C273.382 155.976 261.937 155.956 250.996 155.908C243.808 155.902 236.303 155.816 229.344 154.832C228.344 154.672 227.344 154.512 226.393 154.27C211.198 151.192 199.155 142.317 188.356 126.374C186.042 122.958 183.748 119.107 181.138 114.17L180.466 112.868C176.679 105.653 172.725 98.1118 167.948 91.5243C163.349 85.0449 158.175 80.1159 152.653 76.7636Z" fill="#D51029"/>
<path d="M152.109 76.6563C146.497 73.25 139.954 71.1777 132.419 71.7438C118.359 72.8185 106.758 82.0907 96.2749 91.9301C94.0257 94.0288 91.8656 96.1816 89.7055 98.3344C82.3631 105.61 74.6444 113.105 65.9769 118.347C63.2925 119.958 60.5291 121.298 57.7757 122.42C48.0798 126.144 37.4854 126.529 27.0917 123.572C16.3813 120.534 5.82188 114.236 -4.49734 104.731C-39.0858 72.5592 -57.0742 20.0698 -51.4884 -32.3005L-54.4881 -32.7805C-57.3107 -6.44584 -54.3418 20.3876 -45.9946 44.7868C-37.6475 69.186 -23.9416 90.5806 -6.51881 106.856C4.14661 116.795 15.2404 123.418 26.4953 126.563C37.6116 129.735 48.8991 129.212 59.1992 125.296C62.0416 124.228 64.9932 122.779 67.8659 121.059C76.8602 115.679 84.589 107.967 92.1195 100.582C94.2797 98.4293 96.4398 96.2765 98.6394 94.2594C108.696 84.7202 119.822 75.8298 133.011 74.7849C147.804 73.7079 158.588 84.0538 165.086 93.0269C170.08 99.8583 174.282 107.996 177.979 115.157C180.54 120.176 182.873 124.163 185.138 127.661C196.421 145.014 208.928 154.73 224.381 158.188C225.47 158.402 226.47 158.562 227.559 158.776C235.102 160.003 243.073 159.925 250.726 159.766C261.538 159.625 271.706 159.54 281.041 162.636C295.017 167.321 306.73 179.349 313.984 196.715C319.311 209.223 322.092 223.315 324.764 236.783C325.474 240.231 326.145 243.544 326.855 246.992C330.614 264.694 335.245 280.356 341.036 294.711C352.597 323.855 370.309 349.693 392.244 369.379L394.216 367.335C372.677 348.002 355.172 322.625 343.818 293.942C338.206 279.695 333.564 264.251 329.846 246.684C329.086 243.317 328.465 239.923 327.844 236.529C325.092 222.79 322.311 208.698 316.816 195.864C309.187 177.711 296.732 164.898 281.805 159.971C271.887 156.632 260.936 156.801 250.402 156.887C242.887 157.019 235.055 157.069 227.739 155.869C226.739 155.709 225.739 155.549 224.789 155.307C210.148 152.118 198.353 142.835 187.584 126.24C185.409 122.797 183.115 118.946 180.594 114.063C176.807 106.847 172.566 98.5739 167.443 91.5527C163.754 86.1845 158.61 80.6033 152.109 76.6563Z" fill="#DC1029"/>
<path d="M151.742 76.6571C145.597 72.9264 139.083 71.2072 132.38 71.6078C118.241 72.4111 106.372 81.521 95.6219 91.1982C93.3727 93.2969 90.9849 95.4233 88.7357 97.522C81.1262 104.636 73.2293 112.022 64.5223 117.129C61.7488 118.686 58.9854 120.026 56.2816 121.066C46.6352 124.709 35.9518 125.04 25.4691 122.028C14.6695 118.936 4.0211 112.584 -6.15949 103.051C-40.4808 71.0417 -57.57 20.886 -52.0439 -31.1852L-55.1326 -31.7193C-57.9351 -5.8194 -55.1241 20.4711 -46.935 44.3275C-38.7459 68.1838 -25.4357 89.2263 -8.40867 105.15C2.16769 115.035 13.2615 121.658 24.5559 124.938C35.6722 128.11 46.9992 127.723 57.3388 123.943C60.1812 122.875 63.1328 121.426 66.045 119.841C75.0788 114.598 83.0748 107.048 90.7339 99.8525C92.9831 97.7537 95.2818 95.5733 97.531 93.4746C107.855 84.0976 119.248 75.3694 132.516 74.5959C147.16 73.7639 157.944 84.1097 164.403 92.9472C169.269 99.5887 173.391 107.455 177.217 114.806C179.777 119.825 182.022 123.757 184.148 127.283C195.351 145.37 207.522 155.44 222.558 158.981C223.598 159.277 224.598 159.437 225.687 159.651C233.547 160.959 241.705 160.771 249.775 160.529C259.676 160.282 269.944 160.034 278.971 162.832C292.918 167.164 304.731 179.029 312.222 196.204C317.608 208.413 320.588 222.178 323.498 235.455C324.297 238.957 325.047 242.541 325.846 246.044C329.941 263.392 334.81 278.863 340.868 293.38C352.727 322.034 370.449 347.655 391.919 367.505L393.891 365.461C372.728 345.909 355.352 320.722 343.611 292.475C337.682 278.148 332.803 262.894 328.747 245.682C327.948 242.179 327.198 238.595 326.399 235.093C323.449 221.681 320.431 207.78 314.876 195.245C306.97 177.147 294.405 164.715 279.557 160.059C269.985 157.154 259.49 157.376 249.312 157.678C241.52 157.865 233.45 158.106 225.907 156.879C224.907 156.719 223.956 156.478 223.006 156.236C208.741 152.829 197.541 143.571 186.723 126.052C184.637 122.663 182.392 118.73 179.871 113.847C176.006 106.361 171.844 98.3584 166.76 91.473C162.349 84.8843 157.175 79.9553 151.742 76.6571Z" fill="#E30F29"/>
<path d="M151.237 76.6864C145.18 73.0097 138.805 71.263 132.201 71.5002C117.983 72.0321 105.758 80.9258 94.7409 90.4407C92.4027 92.4854 89.9653 94.6934 87.627 96.738C79.8394 103.744 71.7644 111.022 62.9288 115.939C60.1553 117.496 57.3028 118.781 54.599 119.822C44.7745 123.356 34.3684 123.632 23.7075 120.513C13.0466 117.393 2.13096 110.879 -7.8715 101.454C-41.2626 70.1209 -58.0754 20.9153 -52.7878 -29.9598L-55.8765 -30.4939C-58.5102 -5.27373 -55.6295 20.5004 -47.6479 43.8955C-39.7554 67.2365 -26.7915 87.8454 -10.0711 103.471C0.327115 113.248 11.6881 120.033 22.8439 123.341C34.0492 126.567 45.4158 126.316 55.7058 122.617C58.6372 121.603 61.5393 120.236 64.501 118.57C73.5743 113.462 81.788 106.156 89.6748 98.9868C92.013 96.9422 94.4008 94.8158 96.7886 92.6895C107.469 83.5288 119.179 74.8811 132.526 74.3791C144.13 73.9366 154.828 80.2074 164.224 92.8396C169.09 99.4812 173.262 107.266 176.999 114.563C178.759 118.09 181.161 122.565 183.702 127.013C191.306 139.786 202.452 155.157 221.191 159.828C222.23 160.124 223.23 160.284 224.319 160.498C232.358 161.914 240.843 161.589 249.101 161.238C258.735 160.829 268.596 160.446 277.406 163.001C291.324 166.98 303.196 178.545 310.965 195.665C316.5 207.629 319.677 221.068 322.736 234.1C323.575 237.738 324.503 241.43 325.431 245.122C329.734 261.926 335.049 277.668 341.344 291.994C353.55 320.076 371.144 345.507 392.098 365.603L394.159 363.613C373.462 343.897 356.175 318.764 344.087 291.089C337.831 276.899 332.606 261.211 328.381 244.678C327.404 241.068 326.615 237.348 325.776 233.71C322.678 220.543 319.372 206.914 313.757 194.678C305.524 176.717 292.86 164.448 277.992 160.228C268.638 157.566 258.499 158.004 248.638 158.387C240.608 158.764 232.261 159.061 224.539 157.726C223.539 157.566 222.589 157.324 221.639 157.083C207.879 153.647 196.926 143.981 186.188 125.729C183.598 121.362 181.284 116.941 179.525 113.414C175.748 105.982 171.537 98.0611 166.542 91.2297C161.844 84.9136 156.67 79.9845 151.237 76.6864Z" fill="#EA0E2A"/>
<path d="M150.692 76.5793C144.814 73.0108 138.578 71.2365 132.023 71.3921C118.597 71.6227 107.087 78.9385 93.8108 89.7643C91.3835 91.7549 89.0453 93.7996 86.7071 95.8442C78.6026 102.769 70.2108 109.967 61.2367 114.912C58.3741 116.415 55.5216 117.7 52.8179 118.741C42.9042 122.221 32.4586 122.361 21.8473 119.16C11.0973 115.986 0.142207 109.336 -9.68213 100.02C-42.2322 69.3087 -58.6399 21.243 -53.6304 -28.5717L-56.7191 -29.1058C-61.9075 21.606 -45.1342 70.6759 -11.8817 102.037C-1.66163 111.705 9.73883 118.626 20.9837 121.988C32.3672 125.323 43.4069 125.208 53.9246 121.536C56.856 120.521 59.8472 119.208 62.8089 117.542C72.0603 112.543 80.5512 105.182 88.7943 98.2288C91.083 96.2657 93.5598 94.1935 95.8485 92.2305C108.56 81.7324 119.644 74.7167 132.199 74.5159C143.793 74.2908 154.353 80.5892 163.66 93.1673C168.832 100.107 173.123 108.299 176.306 114.701C178.273 118.689 180.458 122.92 182.781 127.125C190.315 140.414 201.303 156.248 219.438 161.11C220.388 161.352 221.427 161.648 222.516 161.862C230.822 163.44 239.545 162.924 247.991 162.464C257.219 161.92 266.814 161.375 275.366 163.55C289.254 167.176 301.275 178.496 309.371 195.479C314.966 207.145 318.381 220.393 321.638 233.098C322.655 236.844 323.573 240.753 324.679 244.553C329.27 261.085 334.861 276.772 341.434 291.042C353.898 318.499 371.452 343.794 392.03 364.109L394.18 362.173C373.879 341.804 356.582 316.888 344.287 289.757C337.753 275.622 332.29 260.125 327.739 243.729C326.722 239.983 325.665 236.101 324.738 232.409C321.441 219.568 317.986 206.185 312.312 194.248C303.802 176.342 291.029 164.454 276.24 160.505C267.192 158.141 257.321 158.741 247.865 159.259C239.647 159.745 231.062 160.233 223.212 158.708C222.212 158.548 221.262 158.307 220.311 158.065C203.444 153.524 193.396 139.155 185.733 125.676C183.36 121.553 181.264 117.376 179.297 113.388C176.025 106.932 171.606 98.5499 166.304 91.4206C161.3 84.8066 156.125 79.8775 150.692 76.5793Z" fill="#F10D2A"/>
<path d="M150.098 76.5537C144.309 73.0393 138.211 71.2373 131.756 71.2296C118.251 71.1888 106.384 78.2883 92.8412 88.9519C90.3248 90.8885 87.7984 93.0424 85.3711 95.033C77.0885 101.85 68.4791 108.804 59.515 113.531C56.6524 115.034 53.7109 116.265 50.9676 117.17C41.0145 120.515 30.6184 120.573 19.8685 117.4C9.02945 114.172 -1.87611 107.44 -11.7004 98.1237C-43.4094 68.0351 -59.4515 20.9735 -54.542 -27.6726L-57.5416 -28.1526C-62.541 21.4447 -46.0837 69.4288 -13.6723 100.167C-3.45225 109.836 7.89864 116.838 19.2821 120.173C30.6161 123.589 41.7448 123.528 52.302 119.992C55.2335 118.978 58.2246 117.664 61.2258 116.134C70.5167 111.27 79.2253 104.153 87.5574 97.2542C89.9847 95.2636 92.5507 93.2454 94.978 91.2548C108.045 80.973 119.397 74.1195 132.031 74.1901C143.476 74.21 154.036 80.5084 163.214 92.8967C168.694 100.134 172.974 108.543 175.782 114.159C177.838 118.201 179.884 122.46 182.118 126.61C189.958 141.203 200.362 156.794 217.892 161.848C218.932 162.144 219.882 162.386 220.971 162.6C229.316 164.313 238.366 163.661 247.05 163.01C256.011 162.304 265.289 161.678 273.624 163.609C287.433 166.964 299.602 178.039 307.936 194.831C313.54 206.279 317.154 219.201 320.649 231.715C321.705 235.597 322.801 239.614 323.996 243.469C328.835 259.592 334.754 275.142 341.643 289.493C354.661 316.839 371.662 341.24 392.032 362.098L394.182 360.163C373.98 339.63 357.286 315.527 344.436 288.506C337.635 274.209 331.707 258.877 326.997 242.943C325.851 239.007 324.706 235.071 323.65 231.189C320.115 218.54 316.551 205.537 310.728 193.845C301.98 176.13 289.019 164.351 274.21 160.837C265.38 158.717 255.825 159.398 246.587 160.159C238.131 160.837 229.358 161.433 221.419 159.854C220.468 159.613 219.469 159.453 218.568 159.129C202.255 154.478 192.326 139.511 184.822 125.57C182.677 121.474 180.581 117.296 178.525 113.254C175.678 107.503 171.18 98.8498 165.572 91.4225C160.844 84.7534 155.62 79.906 150.098 76.5537Z" fill="#F80D2A"/>
<path d="M149.643 76.5008C144.388 73.3108 138.439 71.2639 131.717 71.094C114.43 70.657 99.0839 82.6845 84.2629 94.2485C73.1472 102.922 61.7441 111.867 49.4242 115.898C20.8327 125.248 -3.9338 105.409 -13.2733 96.4984C-44.1411 67.0322 -59.7287 21.0287 -55.1468 -26.4754L-58.285 -26.9278C-63.0459 21.4734 -47.0432 68.3993 -15.4729 98.5155C5.22441 118.232 29.2383 125.658 50.5309 118.693C63.3163 114.498 75.0462 105.415 86.2611 96.579C101.369 84.7424 115.665 73.6418 131.813 73.9464C153.585 74.4241 167.102 96.9332 175.336 113.889L176.345 115.842C185.627 134.886 196.075 156.426 216.347 162.587C225.83 165.438 236.039 164.483 246.02 163.502C254.714 162.634 263.724 161.846 271.792 163.615C285.572 166.616 297.89 177.447 306.412 194.13C312.165 205.333 315.888 217.873 319.532 230.142C320.766 234.132 321.902 238.286 323.225 242.33C337.457 286.952 361.168 327.606 391.855 359.98L394.094 358.098C363.753 326.158 340.3 285.884 326.186 241.669C324.952 237.679 323.678 233.553 322.443 229.563C318.76 217.158 314.908 204.428 309.076 192.953C300.001 175.375 286.891 163.841 272.111 160.68C263.499 158.804 254.211 159.647 245.29 160.489C235.586 161.415 225.655 162.314 216.894 159.678C198.067 153.948 188.281 133.927 178.92 114.611L177.912 112.658C171.941 100.206 162.914 84.557 149.643 76.5008Z" fill="#FF0C2A"/>
</g>
<path d="M377.944 145.512C377.177 141.68 373.345 139.38 369.512 140.147C365.68 140.913 363.38 144.746 364.147 148.578C364.913 152.411 368.746 154.71 372.578 153.944C376.411 153.177 378.71 149.345 377.944 145.512Z" fill="url(#paint3_linear)"/>
</g>
<defs>
<linearGradient id="paint0_linear" x1="88.145" y1="57.9692" x2="90.5898" y2="74.9385" gradientUnits="userSpaceOnUse">
<stop stop-color="#FF2911" stop-opacity="0.64"/>
<stop offset="0.8351" stop-color="#FF2911" stop-opacity="0"/>
</linearGradient>
<linearGradient id="paint1_linear" x1="50.5185" y1="127.311" x2="46.3845" y2="156.005" gradientUnits="userSpaceOnUse">
<stop stop-color="#FF2911" stop-opacity="0.64"/>
<stop offset="0.8351" stop-color="#FF2911" stop-opacity="0"/>
</linearGradient>
<linearGradient id="paint2_linear" x1="110.136" y1="107.549" x2="117.026" y2="155.372" gradientUnits="userSpaceOnUse">
<stop stop-color="#FF2911" stop-opacity="0.64"/>
<stop offset="0.8351" stop-color="#FF2911" stop-opacity="0"/>
</linearGradient>
<linearGradient id="paint3_linear" x1="367.227" y1="125.822" x2="374.117" y2="173.645" gradientUnits="userSpaceOnUse">
<stop stop-color="#FF2911" stop-opacity="0.64"/>
<stop offset="0.8351" stop-color="#FF2911" stop-opacity="0"/>
</linearGradient>
<clipPath id="clip0">
<rect width="407" height="234" fill="white"/>
</clipPath>
</defs>
</svg>
