<svg width="21" height="25" viewBox="0 0 21 25" fill="none" xmlns="http://www.w3.org/2000/svg">
<path d="M15.226 19.8127L14.863 19.4689L15.226 19.8127ZM12.0292 22.7354L11.7177 22.3443L12.0292 22.7354ZM4.77405 19.8127L5.13702 19.4689L4.77405 19.8127ZM7.97082 22.7354L8.28229 22.3443L7.97082 22.7354ZM9.02779 23.5392L9.32054 23.1339L9.32054 23.1339L9.02779 23.5392ZM9.4453 23.8321L9.16795 24.2481L9.16795 24.2481L9.4453 23.8321ZM10.5547 23.8321L10.832 24.2481L10.8321 24.2481L10.5547 23.8321ZM10.9722 23.5392L10.6795 23.1339L10.6795 23.1339L10.9722 23.5392ZM14.863 19.4689C13.8618 20.5257 12.7906 21.49 11.7177 22.3443L12.3406 23.1265C13.4459 22.2464 14.5522 21.2509 15.5889 20.1566L14.863 19.4689ZM19.5 10C19.5 13.1889 17.7933 16.3757 14.863 19.4689L15.5889 20.1566C18.6019 16.9763 20.5 13.5543 20.5 10H19.5ZM10 0.5C15.2467 0.5 19.5 4.75329 19.5 10H20.5C20.5 4.20101 15.799 -0.5 10 -0.5V0.5ZM0.5 10C0.5 4.75329 4.75329 0.5 10 0.5V-0.5C4.20101 -0.5 -0.5 4.20101 -0.5 10H0.5ZM5.13702 19.4689C2.20666 16.3757 0.5 13.1889 0.5 10H-0.5C-0.5 13.5543 1.39814 16.9763 4.41107 20.1566L5.13702 19.4689ZM8.28229 22.3443C7.20943 21.49 6.13823 20.5257 5.13702 19.4689L4.41107 20.1566C5.44776 21.2509 6.55407 22.2464 7.65936 23.1265L8.28229 22.3443ZM9.32054 23.1339C9.00721 22.9076 8.65822 22.6436 8.28229 22.3443L7.65936 23.1265C8.04698 23.4352 8.40844 23.7087 8.73505 23.9445L9.32054 23.1339ZM9.72265 23.416C9.64914 23.367 9.51249 23.2725 9.32054 23.1339L8.73504 23.9445C8.93307 24.0875 9.08057 24.1898 9.16795 24.2481L9.72265 23.416ZM10.2774 23.416C10.1094 23.528 9.8906 23.528 9.72265 23.416L9.16795 24.2481C9.6718 24.584 10.3282 24.584 10.832 24.2481L10.2774 23.416ZM10.6795 23.1339C10.4875 23.2725 10.3509 23.367 10.2773 23.416L10.8321 24.2481C10.9194 24.1898 11.0669 24.0875 11.265 23.9445L10.6795 23.1339ZM11.7177 22.3443C11.3418 22.6436 10.9928 22.9076 10.6795 23.1339L11.265 23.9445C11.5916 23.7087 11.953 23.4352 12.3406 23.1265L11.7177 22.3443ZM10 13.5C8.067 13.5 6.5 11.933 6.5 10H5.5C5.5 12.4853 7.51472 14.5 10 14.5V13.5ZM13.5 10C13.5 11.933 11.933 13.5 10 13.5V14.5C12.4853 14.5 14.5 12.4853 14.5 10H13.5ZM10 6.5C11.933 6.5 13.5 8.067 13.5 10H14.5C14.5 7.51472 12.4853 5.5 10 5.5V6.5ZM6.5 10C6.5 8.067 8.067 6.5 10 6.5V5.5C7.51472 5.5 5.5 7.51472 5.5 10H6.5Z" fill="white"/>
</svg>
